<?xml version="1.0" standalone="no"?>
<!DOCTYPE svg PUBLIC "-//W3C//DTD SVG 1.1//EN" "http://www.w3.org/Graphics/SVG/1.1/DTD/svg11.dtd" >
<svg xmlns="http://www.w3.org/2000/svg" xmlns:xlink="http://www.w3.org/1999/xlink" version="1.1">
<metadata>
Created by FontForge 20170924 at Fri Mar 19 22:00:23 2021
 By www-data
\(c\) 2014-2020. Copyright by TYPE.WELTKERN\(R\). All rights reserved.
</metadata>
<defs>
<font id="TWKEverett-Medium" horiz-adv-x="750" >
  <font-face 
    font-family="TWK Everett Medium"
    font-weight="500"
    font-stretch="normal"
    units-per-em="1000"
    panose-1="2 11 2 4 0 0 0 0 0 0"
    ascent="800"
    descent="-200"
    x-height="539"
    cap-height="760"
    bbox="-900 -300 3309 1083"
    underline-thickness="90"
    underline-position="-227"
    stemh="90"
    stemv="125"
    unicode-range="U+000D-FEFF"
  />
<missing-glyph horiz-adv-x="740" 
d="M649 0h-558v760h558v-760zM219 657v-554h302v554h-302z" />
    <glyph glyph-name="W_W_W" unicode="WWW" horiz-adv-x="3326" 
d="M3015 15l165 745h129l-169 -760h-250l-131 743l-131 -743h-250l-166 744l-167 -744h-250l-131 743l-131 -743h-250l-166 747l-167 -747h-250l-130 746l-131 -746h-250l-170 760h130l164 -742l133 742h247l132 -745l165 745h253l165 -745l132 745h248l132 -745l165 745
h253l165 -745l132 745h248z" />
    <glyph glyph-name="f_f" unicode="ff" horiz-adv-x="781" 
d="M767 669h-57c-47 0 -73 -15 -73 -70v-60h130v-92h-130v-447h-125v447h-265v-447h-125v447h-105v92h105v65c0 106 75 156 176 156h79v-91h-57c-47 0 -73 -15 -73 -70v-60h265v65c0 106 76 156 176 156h79v-91z" />
    <glyph glyph-name="f_f_i" unicode="ffi" horiz-adv-x="1049" 
d="M637 539h341v-539h-125v447h-216v-447h-125v447h-265v-447h-125v447h-105v92h105v65c0 106 75 156 176 156h79v-91h-57c-47 0 -73 -15 -73 -70v-60h265v65c0 106 76 156 176 156h79v-91h-57c-47 0 -73 -15 -73 -70v-60zM849 622v138h131v-138h-131z" />
    <glyph glyph-name="f_f_l" unicode="ffl" horiz-adv-x="1049" 
d="M853 539v221h125v-760h-125v447h-216v-447h-125v447h-265v-447h-125v447h-105v92h105v65c0 106 75 156 176 156h79v-91h-57c-47 0 -73 -15 -73 -70v-60h265v65c0 106 76 156 176 156h79v-91h-57c-47 0 -73 -15 -73 -70v-60h216z" />
    <glyph glyph-name="f_j" unicode="fj" horiz-adv-x="658" 
d="M247 539h340v-579c0 -106 -76 -156 -176 -156h-49v93h27c47 0 73 15 73 69v481h-215v-447h-125v447h-105v92h105v65c0 106 75 156 176 156h79v-91h-57c-47 0 -73 -15 -73 -70v-60zM458 622v138h132v-138h-132z" />
    <glyph glyph-name="f_t" unicode="ft" horiz-adv-x="792" 
d="M709 93h57v-93h-79c-99 0 -176 49 -176 154v2v291h-264v-447h-125v447h-105v92h105v65c0 106 75 156 176 156h79v-91h-57c-47 0 -73 -15 -73 -70v-60h264v128h125v-128h128v-92h-128v-285v-2c0 -52 26 -67 73 -67z" />
    <glyph glyph-name="fi" unicode="fi" horiz-adv-x="658" 
d="M587 539v-539h-125v447h-215v-447h-125v447h-105v92h105v65c0 106 75 156 176 156h79v-91h-57c-47 0 -73 -15 -73 -70v-60h340zM458 622v138h132v-138h-132z" />
    <glyph glyph-name="fl" unicode="fl" horiz-adv-x="658" 
d="M587 760v-760h-125v669h-142c-47 0 -73 -15 -73 -70v-60h130v-92h-130v-447h-125v447h-105v92h105v65c0 106 75 156 176 156h289z" />
    <glyph glyph-name="t_f" unicode="tf" horiz-adv-x="792" 
d="M779 669h-58c-47 0 -73 -15 -73 -70v-60h131v-92h-131v-447h-125v447h-278v-285v-2c0 -52 27 -67 73 -67h57v-93h-78c-100 0 -177 49 -177 154v2v291h-106v92h106v128h125v-128h278v65c0 106 76 156 177 156h79v-91z" />
    <glyph glyph-name="t_t" unicode="tt" horiz-adv-x="803" 
d="M720 93h57v-93h-79c-99 0 -176 49 -176 154v2v291h-277v-285v-2c0 -52 27 -67 73 -67h57v-93h-78c-100 0 -177 49 -177 154v2v291h-106v92h106v128h125v-128h277v128h125v-128h129v-92h-129v-285v-2c0 -52 26 -67 73 -67z" />
    <glyph glyph-name="w_w_w" unicode="www" horiz-adv-x="2606" 
d="M2358 13l113 526h116l-116 -539h-226l-88 527l-88 -527h-226l-112 520l-113 -520h-225l-88 524l-89 -524h-225l-113 520l-112 -520h-226l-88 527l-88 -527h-226l-116 539h117l112 -526l90 526h222l90 -526l112 526h226l113 -523l89 523h223l90 -526l112 526h226l112 -526
l90 526h222z" />
    <glyph glyph-name=".notdef" horiz-adv-x="740" 
d="M649 0h-558v760h558v-760zM219 657v-554h302v554h-302z" />
    <glyph glyph-name="NULL" horiz-adv-x="0" 
 />
    <glyph glyph-name="CR" unicode="&#xd;" horiz-adv-x="241" 
 />
    <glyph glyph-name="space" unicode=" " horiz-adv-x="241" 
 />
    <glyph glyph-name="A" unicode="A" horiz-adv-x="775" 
d="M774 0h-136l-73 218h-355l-73 -218h-136l263 760h247zM388 744l-141 -416h281z" />
    <glyph glyph-name="Aacute" unicode="&#xc1;" horiz-adv-x="775" 
d="M448 958h177l-176 -138h-123zM774 0h-136l-73 218h-355l-73 -218h-136l263 760h247zM388 744l-141 -416h281z" />
    <glyph glyph-name="Abreve" unicode="&#x102;" horiz-adv-x="775" 
d="M387 817c-110 0 -176 64 -176 141h95c1 -40 34 -68 81 -68s80 28 81 68h95c0 -77 -67 -141 -176 -141zM774 0h-136l-73 218h-355l-73 -218h-136l263 760h247zM388 744l-141 -416h281z" />
    <glyph glyph-name="Acircumflex" unicode="&#xc2;" horiz-adv-x="775" 
d="M480 820l-93 82l-93 -82h-117l126 138h168l126 -138h-117zM774 0h-136l-73 218h-355l-73 -218h-136l263 760h247zM388 744l-141 -416h281z" />
    <glyph glyph-name="Adieresis" unicode="&#xc4;" horiz-adv-x="775" 
d="M209 958h135v-138h-135v138zM430 958h135v-138h-135v138zM774 0h-136l-73 218h-355l-73 -218h-136l263 760h247zM388 744l-141 -416h281z" />
    <glyph glyph-name="uni1EA0" unicode="&#x1ea0;" horiz-adv-x="775" 
d="M511 760l263 -760h-136l-73 218h-355l-73 -218h-136l263 760h247zM388 744l-141 -416h281zM454 -199h-135v138h135v-138z" />
    <glyph glyph-name="Agrave" unicode="&#xc0;" horiz-adv-x="775" 
d="M331 958l122 -138h-123l-176 138h177zM774 0h-136l-73 218h-355l-73 -218h-136l263 760h247zM388 744l-141 -416h281z" />
    <glyph glyph-name="Amacron" unicode="&#x100;" horiz-adv-x="775" 
d="M188 938h397v-97h-397v97zM774 0h-136l-73 218h-355l-73 -218h-136l263 760h247zM388 744l-141 -416h281z" />
    <glyph glyph-name="Aogonek" unicode="&#x104;" horiz-adv-x="775" 
d="M689 -79c0 -26 21 -37 55 -37h30v-85h-44c-93 0 -153 31 -153 95c0 47 30 80 61 106l-73 218h-355l-73 -218h-136l263 760h247l263 -760c-58 -22 -85 -49 -85 -79zM388 744l-141 -416h281z" />
    <glyph glyph-name="Aring" unicode="&#xc5;" horiz-adv-x="775" 
d="M387 814c-74 0 -134 61 -134 136c0 74 60 133 134 133s133 -59 133 -133c0 -75 -59 -136 -133 -136zM387 1004c-30 0 -55 -25 -55 -54c0 -30 25 -56 55 -56s54 26 54 56c0 29 -24 54 -54 54zM774 0h-136l-73 218h-355l-73 -218h-136l263 760h247zM388 744l-141 -416h281z
" />
    <glyph glyph-name="Atilde" unicode="&#xc3;" horiz-adv-x="775" 
d="M318 868c-32 0 -53 -15 -61 -38h-45c2 82 46 125 103 125c31 0 60 -10 81 -20c18 -9 41 -16 61 -16c32 0 53 15 61 37h45c-2 -81 -46 -125 -103 -125c-30 0 -60 11 -81 21c-18 9 -41 16 -61 16zM774 0h-136l-73 218h-355l-73 -218h-136l263 760h247zM388 744l-141 -416
h281z" />
    <glyph glyph-name="AE" unicode="&#xc6;" horiz-adv-x="1032" 
d="M658 335l78 -224h242v-111h-340l-73 218h-355l-73 -218h-136l263 760h705v-111h-420l71 -203h342v-111h-304zM388 744l-141 -416h281z" />
    <glyph glyph-name="AEacute" unicode="&#x1fc;" horiz-adv-x="1032" 
d="M596 958h178l-176 -138h-123zM658 335l78 -224h242v-111h-340l-73 218h-355l-73 -218h-136l263 760h705v-111h-420l71 -203h342v-111h-304zM388 744l-141 -416h281z" />
    <glyph glyph-name="uni01E2" unicode="&#x1e2;" horiz-adv-x="1032" 
d="M357 938h397v-97h-397v97zM658 335l78 -224h242v-111h-340l-73 218h-355l-73 -218h-136l263 760h705v-111h-420l71 -203h342v-111h-304zM388 744l-141 -416h281z" />
    <glyph glyph-name="B" unicode="B" horiz-adv-x="723" 
d="M462 390c138 -5 217 -63 217 -178c0 -135 -103 -212 -291 -212h-301v760h299c191 0 267 -92 267 -198c0 -103 -80 -161 -191 -172zM389 649h-173v-203h173c83 0 131 31 131 101c0 69 -48 102 -131 102zM216 111h178c102 0 152 39 152 112s-50 112 -152 112h-178v-224z
" />
    <glyph glyph-name="C" unicode="C" horiz-adv-x="789" 
d="M407 -12c-205 0 -362 154 -362 392s155 392 363 392c177 0 308 -104 348 -265h-135c-32 91 -98 160 -213 160c-139 0 -230 -116 -230 -287c0 -172 96 -287 229 -287c112 0 185 59 220 161h134c-50 -179 -180 -266 -354 -266z" />
    <glyph glyph-name="Cacute" unicode="&#x106;" horiz-adv-x="789" 
d="M451 820h-123l121 138h178zM407 -12c-205 0 -362 154 -362 392s155 392 363 392c177 0 308 -104 348 -265h-135c-32 91 -98 160 -213 160c-139 0 -230 -116 -230 -287c0 -172 96 -287 229 -287c112 0 185 59 220 161h134c-50 -179 -180 -266 -354 -266z" />
    <glyph glyph-name="Ccaron" unicode="&#x10c;" horiz-adv-x="789" 
d="M618 958l-126 -138h-168l-126 138h117l93 -81l93 81h117zM627 254h134c-50 -179 -180 -266 -354 -266c-205 0 -362 154 -362 392s155 392 363 392c177 0 308 -104 348 -265h-135c-32 91 -98 160 -213 160c-139 0 -230 -116 -230 -287c0 -172 96 -287 229 -287
c112 0 185 59 220 161z" />
    <glyph glyph-name="Ccedilla" unicode="&#xc7;" horiz-adv-x="789" 
d="M627 254h134c-46 -166 -161 -253 -316 -265v-22c49 -7 80 -38 80 -84c0 -51 -41 -85 -105 -85h-64v67h44c22 0 37 8 37 26c0 19 -17 27 -35 27h-31v72c-187 17 -326 166 -326 390c0 238 155 392 363 392c177 0 308 -104 348 -265h-135c-32 91 -98 160 -213 160
c-139 0 -230 -116 -230 -287c0 -172 96 -287 229 -287c112 0 185 59 220 161z" />
    <glyph glyph-name="Ccircumflex" unicode="&#x108;" horiz-adv-x="789" 
d="M501 820l-93 82l-93 -82h-117l126 138h168l126 -138h-117zM627 254h134c-50 -179 -180 -266 -354 -266c-205 0 -362 154 -362 392s155 392 363 392c177 0 308 -104 348 -265h-135c-32 91 -98 160 -213 160c-139 0 -230 -116 -230 -287c0 -172 96 -287 229 -287
c112 0 185 59 220 161z" />
    <glyph glyph-name="Cdotaccent" unicode="&#x10a;" horiz-adv-x="789" 
d="M475 820h-135v138h135v-138zM407 -12c-205 0 -362 154 -362 392s155 392 363 392c177 0 308 -104 348 -265h-135c-32 91 -98 160 -213 160c-139 0 -230 -116 -230 -287c0 -172 96 -287 229 -287c112 0 185 59 220 161h134c-50 -179 -180 -266 -354 -266z" />
    <glyph glyph-name="D" unicode="D" horiz-adv-x="785" 
d="M87 760h270c228 0 381 -128 381 -380c0 -251 -153 -380 -381 -380h-270v760zM216 111h144c155 0 245 95 245 269c0 173 -90 269 -245 269h-144v-538z" />
    <glyph glyph-name="Eth" unicode="&#xd0;" horiz-adv-x="790" 
d="M92 760h270c229 0 382 -128 382 -380c0 -251 -153 -380 -382 -380h-270v341h-85v102h85v317zM221 111h144c155 0 245 95 245 269c0 173 -90 269 -245 269h-144v-206h186v-102h-186v-230z" />
    <glyph glyph-name="Dcaron" unicode="&#x10e;" horiz-adv-x="785" 
d="M571 958l-126 -138h-168l-126 138h117l93 -81l93 81h117zM87 760h270c228 0 381 -128 381 -380c0 -251 -153 -380 -381 -380h-270v760zM216 111h144c155 0 245 95 245 269c0 173 -90 269 -245 269h-144v-538z" />
    <glyph glyph-name="Dcroat" unicode="&#x110;" horiz-adv-x="790" 
d="M92 760h270c229 0 382 -128 382 -380c0 -251 -153 -380 -382 -380h-270v341h-85v102h85v317zM221 111h144c155 0 245 95 245 269c0 173 -90 269 -245 269h-144v-206h186v-102h-186v-230z" />
    <glyph glyph-name="E" unicode="E" horiz-adv-x="659" 
d="M216 335v-224h389v-111h-518v760h509v-111h-380v-203h373v-111h-373z" />
    <glyph glyph-name="Eacute" unicode="&#xc9;" horiz-adv-x="659" 
d="M383 958h178l-176 -138h-123zM216 335v-224h389v-111h-518v760h509v-111h-380v-203h373v-111h-373z" />
    <glyph glyph-name="Ebreve" unicode="&#x114;" horiz-adv-x="659" 
d="M342 817c-110 0 -176 64 -176 141h95c1 -40 34 -68 81 -68s80 28 81 68h95c0 -77 -67 -141 -176 -141zM216 335v-224h389v-111h-518v760h509v-111h-380v-203h373v-111h-373z" />
    <glyph glyph-name="Ecaron" unicode="&#x11a;" horiz-adv-x="659" 
d="M552 958l-126 -138h-168l-126 138h117l93 -81l93 81h117zM216 335v-224h389v-111h-518v760h509v-111h-380v-203h373v-111h-373z" />
    <glyph glyph-name="Ecircumflex" unicode="&#xca;" horiz-adv-x="659" 
d="M435 820l-93 82l-93 -82h-117l126 138h168l126 -138h-117zM216 335v-224h389v-111h-518v760h509v-111h-380v-203h373v-111h-373z" />
    <glyph glyph-name="Edieresis" unicode="&#xcb;" horiz-adv-x="659" 
d="M164 958h135v-138h-135v138zM385 958h135v-138h-135v138zM216 335v-224h389v-111h-518v760h509v-111h-380v-203h373v-111h-373z" />
    <glyph glyph-name="Edotaccent" unicode="&#x116;" horiz-adv-x="659" 
d="M274 958h135v-138h-135v138zM216 335v-224h389v-111h-518v760h509v-111h-380v-203h373v-111h-373z" />
    <glyph glyph-name="uni1EB8" unicode="&#x1eb8;" horiz-adv-x="659" 
d="M216 335v-224h389v-111h-518v760h509v-111h-380v-203h373v-111h-373zM414 -199h-135v138h135v-138z" />
    <glyph glyph-name="Egrave" unicode="&#xc8;" horiz-adv-x="659" 
d="M300 958l122 -138h-124l-175 138h177zM216 335v-224h389v-111h-518v760h509v-111h-380v-203h373v-111h-373z" />
    <glyph glyph-name="Emacron" unicode="&#x112;" horiz-adv-x="659" 
d="M143 938h397v-97h-397v97zM216 335v-224h389v-111h-518v760h509v-111h-380v-203h373v-111h-373z" />
    <glyph glyph-name="Eogonek" unicode="&#x118;" horiz-adv-x="659" 
d="M605 111v-111c-58 -22 -85 -49 -85 -79c0 -26 21 -37 55 -37h30v-85h-44c-93 0 -153 31 -153 94c0 47 32 84 77 107h-398v760h509v-111h-380v-203h373v-111h-373v-224h389z" />
    <glyph glyph-name="uni1EBC" unicode="&#x1ebc;" horiz-adv-x="659" 
d="M272 868c-32 0 -53 -15 -61 -38h-45c2 82 46 125 103 125c31 0 60 -10 81 -20c18 -9 41 -16 61 -16c32 0 53 15 61 37h45c-2 -81 -46 -125 -103 -125c-30 0 -60 11 -81 21c-18 9 -41 16 -61 16zM216 335v-224h389v-111h-518v760h509v-111h-380v-203h373v-111h-373z" />
    <glyph glyph-name="F" unicode="F" horiz-adv-x="628" 
d="M585 760v-111h-369v-215h363v-110h-363v-324h-129v760h498z" />
    <glyph glyph-name="G" unicode="G" horiz-adv-x="834" 
d="M382 312v107h386v-419h-109v187c-30 -98 -108 -199 -263 -199c-191 0 -351 152 -351 392c0 236 152 392 367 392c181 0 303 -92 345 -249h-135c-31 86 -99 144 -210 144c-141 0 -233 -116 -233 -287c0 -172 94 -287 238 -287c130 0 220 79 223 219h-258z" />
    <glyph glyph-name="Gbreve" unicode="&#x11e;" horiz-adv-x="834" 
d="M412 817c-110 0 -176 64 -176 141h95c1 -40 34 -68 81 -68s80 28 81 68h95c0 -77 -67 -141 -176 -141zM382 312v107h386v-419h-109v187c-30 -98 -108 -199 -263 -199c-191 0 -351 152 -351 392c0 236 152 392 367 392c181 0 303 -92 345 -249h-135
c-31 86 -99 144 -210 144c-141 0 -233 -116 -233 -287c0 -172 94 -287 238 -287c130 0 220 79 223 219h-258z" />
    <glyph glyph-name="Gcaron" unicode="&#x1e6;" horiz-adv-x="834" 
d="M622 958l-126 -138h-168l-126 138h117l93 -81l93 81h117zM382 312v107h386v-419h-109v187c-30 -98 -108 -199 -263 -199c-191 0 -351 152 -351 392c0 236 152 392 367 392c181 0 303 -92 345 -249h-135c-31 86 -99 144 -210 144c-141 0 -233 -116 -233 -287
c0 -172 94 -287 238 -287c130 0 220 79 223 219h-258z" />
    <glyph glyph-name="Gcircumflex" unicode="&#x11c;" horiz-adv-x="834" 
d="M505 820l-93 82l-93 -82h-117l126 138h168l126 -138h-117zM382 312v107h386v-419h-109v187c-30 -98 -108 -199 -263 -199c-191 0 -351 152 -351 392c0 236 152 392 367 392c181 0 303 -92 345 -249h-135c-31 86 -99 144 -210 144c-141 0 -233 -116 -233 -287
c0 -172 94 -287 238 -287c130 0 220 79 223 219h-258z" />
    <glyph glyph-name="uni0122" unicode="&#x122;" horiz-adv-x="834" 
d="M382 312v107h386v-419h-109v187c-30 -98 -108 -199 -263 -199c-191 0 -351 152 -351 392c0 236 152 392 367 392c181 0 303 -92 345 -249h-135c-31 86 -99 144 -210 144c-141 0 -233 -116 -233 -287c0 -172 94 -287 238 -287c130 0 220 79 223 219h-258zM386 -199h-42
v138h135v-149l-62 -90h-82z" />
    <glyph glyph-name="Gdotaccent" unicode="&#x120;" horiz-adv-x="834" 
d="M344 958h135v-138h-135v138zM382 312v107h386v-419h-109v187c-30 -98 -108 -199 -263 -199c-191 0 -351 152 -351 392c0 236 152 392 367 392c181 0 303 -92 345 -249h-135c-31 86 -99 144 -210 144c-141 0 -233 -116 -233 -287c0 -172 94 -287 238 -287
c130 0 220 79 223 219h-258z" />
    <glyph glyph-name="H" unicode="H" horiz-adv-x="792" 
d="M576 448v312h129v-760h-129v333h-360v-333h-129v760h129v-312h360z" />
    <glyph glyph-name="Hbar" unicode="&#x126;" horiz-adv-x="792" 
d="M705 637h89v-100h-89v-537h-129v333h-360v-333h-129v537h-89v100h89v123h129v-123h360v123h129v-123zM216 448h360v89h-360v-89z" />
    <glyph glyph-name="Hcircumflex" unicode="&#x124;" horiz-adv-x="792" 
d="M489 820l-93 82l-93 -82h-117l126 138h168l126 -138h-117zM576 448v312h129v-760h-129v333h-360v-333h-129v760h129v-312h360z" />
    <glyph glyph-name="I" unicode="I" horiz-adv-x="303" 
d="M216 0h-129v760h129v-760z" />
    <glyph glyph-name="Iacute" unicode="&#xcd;" horiz-adv-x="303" 
d="M218 820h-124l122 138h178zM216 0h-129v760h129v-760z" />
    <glyph glyph-name="Ibreve" unicode="&#x12c;" horiz-adv-x="303" 
d="M152 817c-110 0 -176 64 -176 141h95c1 -40 34 -68 81 -68s80 28 81 68h95c0 -77 -67 -141 -176 -141zM216 0h-129v760h129v-760z" />
    <glyph glyph-name="Icircumflex" unicode="&#xce;" horiz-adv-x="303" 
d="M68 958h168l126 -138h-117l-93 82l-93 -82h-117zM216 0h-129v760h129v-760z" />
    <glyph glyph-name="Idieresis" unicode="&#xcf;" horiz-adv-x="303" 
d="M109 820h-135v138h135v-138zM330 820h-135v138h135v-138zM216 0h-129v760h129v-760z" />
    <glyph glyph-name="Idotaccent" unicode="&#x130;" horiz-adv-x="303" 
d="M219 820h-135v138h135v-138zM216 0h-129v760h129v-760z" />
    <glyph glyph-name="uni1ECA" unicode="&#x1eca;" horiz-adv-x="303" 
d="M216 0h-129v760h129v-760zM219 -199h-135v138h135v-138z" />
    <glyph glyph-name="Igrave" unicode="&#xcc;" horiz-adv-x="303" 
d="M207 820h-123l-176 138h177zM216 0h-129v760h129v-760z" />
    <glyph glyph-name="Imacron" unicode="&#x12a;" horiz-adv-x="303" 
d="M350 841h-397v97h397v-97zM216 0h-129v760h129v-760z" />
    <glyph glyph-name="Iogonek" unicode="&#x12e;" horiz-adv-x="303" 
d="M216 760v-760c-58 -22 -85 -49 -85 -79c0 -26 21 -37 55 -37h30v-85h-44c-93 0 -153 31 -153 94c0 47 30 81 68 107v760h129z" />
    <glyph glyph-name="Itilde" unicode="&#x128;" horiz-adv-x="303" 
d="M21 830h-45c2 82 46 125 103 125c31 0 60 -10 81 -20c18 -9 41 -16 61 -16c32 0 53 15 61 37h45c-2 -81 -46 -125 -103 -125c-30 0 -60 11 -81 21c-18 9 -41 16 -61 16c-32 0 -53 -15 -61 -38zM216 0h-129v760h129v-760z" />
    <glyph glyph-name="J" unicode="J" horiz-adv-x="390" 
d="M124 0h-105v111h80c57 0 80 23 80 74v575h129v-597c0 -107 -65 -163 -184 -163z" />
    <glyph glyph-name="uni004A0301" horiz-adv-x="390" 
d="M310 820h-123l121 138h178zM124 0h-105v111h80c57 0 80 23 80 74v575h129v-597c0 -107 -65 -163 -184 -163z" />
    <glyph glyph-name="Jcircumflex" unicode="&#x134;" horiz-adv-x="390" 
d="M160 958h168l126 -138h-117l-93 82l-93 -82h-117zM179 185v575h129v-597c0 -107 -65 -163 -184 -163h-105v111h80c57 0 80 23 80 74z" />
    <glyph glyph-name="K" unicode="K" horiz-adv-x="712" 
d="M365 400l362 -400h-165l-346 384v-384h-129v760h129v-348l314 348h162z" />
    <glyph glyph-name="uni0136" unicode="&#x136;" horiz-adv-x="712" 
d="M692 760l-327 -360l362 -400h-165l-346 384v-384h-129v760h129v-348l314 348h162zM355 -199h-42v138h135v-149l-62 -90h-82z" />
    <glyph glyph-name="L" unicode="L" horiz-adv-x="572" 
d="M216 760v-649h339v-111h-468v760h129z" />
    <glyph glyph-name="Lacute" unicode="&#x139;" horiz-adv-x="572" 
d="M216 958h178l-176 -138h-124zM216 760v-649h339v-111h-468v760h129z" />
    <glyph glyph-name="Lcaron" unicode="&#x13d;" horiz-adv-x="572" 
d="M216 760v-649h339v-111h-468v760h129zM329 760h124l-50 -250h-93z" />
    <glyph glyph-name="uni013B" unicode="&#x13b;" horiz-adv-x="572" 
d="M216 760v-649h339v-111h-468v760h129zM296 -199h-42v138h135v-149l-62 -90h-82z" />
    <glyph glyph-name="Ldot" unicode="&#x13f;" horiz-adv-x="582" 
d="M216 760v-649h339v-111h-468v760h129zM372 494h142v-136h-142v136z" />
    <glyph glyph-name="Lslash" unicode="&#x141;" horiz-adv-x="581" 
d="M224 349v-238h339v-111h-468v276l-85 -48v108l85 48v376h129v-303l165 93v-108z" />
    <glyph glyph-name="M" unicode="M" horiz-adv-x="1069" 
d="M982 760v-760h-129v745l-196 -745h-245l-196 745v-745h-129v760h255l193 -746l192 746h255z" />
    <glyph glyph-name="N" unicode="N" horiz-adv-x="857" 
d="M641 15v745h129v-760h-257l-297 745v-745h-129v760h257z" />
    <glyph glyph-name="Nacute" unicode="&#x143;" horiz-adv-x="857" 
d="M491 958h178l-176 -138h-123zM641 15v745h129v-760h-257l-297 745v-745h-129v760h257z" />
    <glyph glyph-name="Ncaron" unicode="&#x147;" horiz-adv-x="857" 
d="M660 958l-126 -138h-168l-126 138h117l93 -81l93 81h117zM641 15v745h129v-760h-257l-297 745v-745h-129v760h257z" />
    <glyph glyph-name="uni0145" unicode="&#x145;" horiz-adv-x="857" 
d="M641 15v745h129v-760h-257l-297 745v-745h-129v760h257zM393 -199h-42v138h135v-149l-62 -90h-82z" />
    <glyph glyph-name="Eng" unicode="&#x14a;" horiz-adv-x="853" 
d="M641 760h129v-760h-4v-36c0 -104 -65 -160 -184 -160h-100v102h81c56 0 79 23 79 75v19h-129l-297 745v-745h-129v760h257l297 -745v745z" />
    <glyph glyph-name="uni019D" unicode="&#x19d;" horiz-adv-x="853" 
d="M641 15v745h129v-760h-257l-297 745v-745h-5v-36c0 -104 -64 -160 -184 -160h-99v102h80c56 0 79 23 79 75v779h257z" />
    <glyph glyph-name="Ntilde" unicode="&#xd1;" horiz-adv-x="857" 
d="M380 868c-32 0 -53 -15 -61 -38h-45c2 82 46 125 103 125c31 0 60 -10 81 -20c18 -9 41 -16 61 -16c32 0 53 15 61 37h45c-2 -81 -46 -125 -103 -125c-30 0 -60 11 -81 21c-18 9 -41 16 -61 16zM641 15v745h129v-760h-257l-297 745v-745h-129v760h257z" />
    <glyph glyph-name="O" unicode="O" horiz-adv-x="832" 
d="M416 -12c-219 0 -371 156 -371 392s152 392 371 392s371 -156 371 -392s-152 -392 -371 -392zM416 93c142 0 237 116 237 287s-95 287 -237 287s-237 -116 -237 -287s95 -287 237 -287z" />
    <glyph glyph-name="Oacute" unicode="&#xd3;" horiz-adv-x="832" 
d="M459 820h-123l121 138h178zM416 -12c-219 0 -371 156 -371 392s152 392 371 392s371 -156 371 -392s-152 -392 -371 -392zM416 93c142 0 237 116 237 287s-95 287 -237 287s-237 -116 -237 -287s95 -287 237 -287z" />
    <glyph glyph-name="Obreve" unicode="&#x14e;" horiz-adv-x="832" 
d="M416 817c-110 0 -176 64 -176 141h95c1 -40 34 -68 81 -68s80 28 81 68h95c0 -77 -67 -141 -176 -141zM416 -12c-219 0 -371 156 -371 392s152 392 371 392s371 -156 371 -392s-152 -392 -371 -392zM416 93c142 0 237 116 237 287s-95 287 -237 287s-237 -116 -237 -287
s95 -287 237 -287z" />
    <glyph glyph-name="Ocircumflex" unicode="&#xd4;" horiz-adv-x="832" 
d="M509 820l-93 82l-93 -82h-117l126 138h168l126 -138h-117zM416 772c219 0 371 -156 371 -392s-152 -392 -371 -392s-371 156 -371 392s152 392 371 392zM416 93c142 0 237 116 237 287s-95 287 -237 287s-237 -116 -237 -287s95 -287 237 -287z" />
    <glyph glyph-name="Odieresis" unicode="&#xd6;" horiz-adv-x="832" 
d="M373 820h-135v138h135v-138zM594 820h-135v138h135v-138zM416 -12c-219 0 -371 156 -371 392s152 392 371 392s371 -156 371 -392s-152 -392 -371 -392zM416 93c142 0 237 116 237 287s-95 287 -237 287s-237 -116 -237 -287s95 -287 237 -287z" />
    <glyph glyph-name="uni022E" unicode="&#x22e;" horiz-adv-x="832" 
d="M483 820h-135v138h135v-138zM416 -12c-219 0 -371 156 -371 392s152 392 371 392s371 -156 371 -392s-152 -392 -371 -392zM416 93c142 0 237 116 237 287s-95 287 -237 287s-237 -116 -237 -287s95 -287 237 -287z" />
    <glyph glyph-name="uni1ECC" unicode="&#x1ecc;" horiz-adv-x="832" 
d="M416 -12c-219 0 -371 156 -371 392s152 392 371 392s371 -156 371 -392s-152 -392 -371 -392zM416 93c142 0 237 116 237 287s-95 287 -237 287s-237 -116 -237 -287s95 -287 237 -287zM483 -199h-135v138h135v-138z" />
    <glyph glyph-name="Ograve" unicode="&#xd2;" horiz-adv-x="832" 
d="M496 820h-124l-175 138h177zM416 -12c-219 0 -371 156 -371 392s152 392 371 392s371 -156 371 -392s-152 -392 -371 -392zM416 93c142 0 237 116 237 287s-95 287 -237 287s-237 -116 -237 -287s95 -287 237 -287z" />
    <glyph glyph-name="Ohungarumlaut" unicode="&#x150;" horiz-adv-x="832" 
d="M358 820h-119l132 138h164zM566 820h-119l133 138h164zM416 -12c-219 0 -371 156 -371 392s152 392 371 392s371 -156 371 -392s-152 -392 -371 -392zM416 93c142 0 237 116 237 287s-95 287 -237 287s-237 -116 -237 -287s95 -287 237 -287z" />
    <glyph glyph-name="Omacron" unicode="&#x14c;" horiz-adv-x="832" 
d="M614 841h-397v97h397v-97zM416 -12c-219 0 -371 156 -371 392s152 392 371 392s371 -156 371 -392s-152 -392 -371 -392zM416 93c142 0 237 116 237 287s-95 287 -237 287s-237 -116 -237 -287s95 -287 237 -287z" />
    <glyph glyph-name="uni01EA" unicode="&#x1ea;" horiz-adv-x="832" 
d="M618 42c-66 -47 -82 -80 -82 -113c0 -31 21 -45 55 -45h30v-85h-44c-93 0 -153 31 -153 93c0 37 18 70 53 100c-20 -3 -40 -4 -61 -4c-219 0 -371 156 -371 392s152 392 371 392s371 -156 371 -392c0 -153 -64 -273 -169 -338zM179 380c0 -171 95 -287 237 -287
s237 116 237 287s-95 287 -237 287s-237 -116 -237 -287z" />
    <glyph glyph-name="Oslash" unicode="&#xd8;" horiz-adv-x="832" 
d="M698 760h159l-136 -143c42 -63 66 -144 66 -237c0 -236 -152 -392 -371 -392c-88 0 -166 25 -227 71l-56 -59h-159l136 143c-41 64 -65 144 -65 237c0 236 152 392 371 392c88 0 165 -25 226 -71zM179 380c0 -52 9 -99 25 -139l356 375c-38 33 -87 51 -144 51
c-142 0 -237 -116 -237 -287zM653 380c0 52 -9 99 -25 139l-357 -374c39 -33 88 -52 145 -52c142 0 237 116 237 287z" />
    <glyph glyph-name="Oslashacute" unicode="&#x1fe;" horiz-adv-x="832" 
d="M457 958h178l-176 -138h-123zM698 760h159l-136 -143c42 -63 66 -144 66 -237c0 -236 -152 -392 -371 -392c-88 0 -166 25 -227 71l-56 -59h-159l136 143c-41 64 -65 144 -65 237c0 236 152 392 371 392c88 0 165 -25 226 -71zM179 380c0 -52 9 -99 25 -139l356 375
c-38 33 -87 51 -144 51c-142 0 -237 -116 -237 -287zM653 380c0 52 -9 99 -25 139l-357 -374c39 -33 88 -52 145 -52c142 0 237 116 237 287z" />
    <glyph glyph-name="Otilde" unicode="&#xd5;" horiz-adv-x="832" 
d="M285 830h-45c2 82 46 125 103 125c31 0 60 -10 81 -20c18 -9 41 -16 61 -16c32 0 53 15 61 37h45c-2 -81 -46 -125 -103 -125c-30 0 -60 11 -81 21c-18 9 -41 16 -61 16c-32 0 -53 -15 -61 -38zM416 -12c-219 0 -371 156 -371 392s152 392 371 392s371 -156 371 -392
s-152 -392 -371 -392zM416 93c142 0 237 116 237 287s-95 287 -237 287s-237 -116 -237 -287s95 -287 237 -287z" />
    <glyph glyph-name="OE" unicode="&#x152;" horiz-adv-x="1145" 
d="M702 335v-224h389v-111h-648c-221 0 -399 143 -399 380s178 380 399 380h639v-111h-380v-203h373v-111h-373zM443 111h130v538h-130c-143 0 -265 -92 -265 -269c0 -178 122 -269 265 -269z" />
    <glyph glyph-name="P" unicode="P" horiz-adv-x="704" 
d="M87 760h290c189 0 299 -89 299 -243s-110 -243 -299 -243h-161v-274h-129v760zM216 384h164c105 0 162 45 162 133s-57 132 -162 132h-164v-265z" />
    <glyph glyph-name="Thorn" unicode="&#xde;" horiz-adv-x="715" 
d="M216 635h161c189 0 299 -89 299 -243s-110 -243 -299 -243h-161v-149h-129v760h129v-125zM216 260h164c105 0 162 44 162 132s-57 133 -162 133h-164v-265z" />
    <glyph glyph-name="Q" unicode="Q" horiz-adv-x="837" 
d="M715 134l151 -134h-167l-62 55c-60 -43 -135 -67 -221 -67c-219 0 -371 156 -371 392s152 392 371 392s371 -156 371 -392c0 -97 -26 -181 -72 -246zM416 93c51 0 95 15 132 41l-155 138h167l59 -52c22 44 34 99 34 160c0 171 -95 287 -237 287s-237 -116 -237 -287
s95 -287 237 -287z" />
    <glyph glyph-name="R" unicode="R" horiz-adv-x="724" 
d="M700 0h-149l-174 297h-161v-297h-129v760h291c175 0 285 -91 285 -232c0 -101 -56 -177 -154 -211zM381 649h-165v-242h165c93 0 149 44 149 121s-56 121 -149 121z" />
    <glyph glyph-name="Racute" unicode="&#x154;" horiz-adv-x="724" 
d="M383 958h178l-176 -138h-123zM700 0h-149l-174 297h-161v-297h-129v760h291c175 0 285 -91 285 -232c0 -101 -56 -177 -154 -211zM381 649h-165v-242h165c93 0 149 44 149 121s-56 121 -149 121z" />
    <glyph glyph-name="Rcaron" unicode="&#x158;" horiz-adv-x="724" 
d="M552 958l-126 -138h-168l-126 138h117l93 -81l93 81h117zM700 0h-149l-174 297h-161v-297h-129v760h291c175 0 285 -91 285 -232c0 -101 -56 -177 -154 -211zM381 649h-165v-242h165c93 0 149 44 149 121s-56 121 -149 121z" />
    <glyph glyph-name="uni0156" unicode="&#x156;" horiz-adv-x="724" 
d="M509 317l191 -317h-149l-174 297h-161v-297h-129v760h291c175 0 285 -91 285 -232c0 -101 -56 -177 -154 -211zM381 649h-165v-242h165c93 0 149 44 149 121s-56 121 -149 121zM345 -199h-42v138h135v-149l-62 -90h-82z" />
    <glyph glyph-name="S" unicode="S" horiz-adv-x="703" 
d="M343 -12c-167 0 -287 92 -309 244h134c13 -93 85 -139 178 -139c121 0 188 48 188 117c0 72 -55 91 -167 116l-102 22c-123 27 -208 89 -208 206c0 126 125 218 284 218c173 0 280 -87 302 -212h-134c-22 75 -84 107 -168 107c-86 0 -155 -39 -155 -101
c0 -63 45 -84 156 -109l101 -22c148 -33 219 -92 219 -211c0 -143 -127 -236 -319 -236z" />
    <glyph glyph-name="Sacute" unicode="&#x15a;" horiz-adv-x="703" 
d="M384 820h-123l121 138h178zM343 -12c-167 0 -287 92 -309 244h134c13 -93 85 -139 178 -139c121 0 188 48 188 117c0 72 -55 91 -167 116l-102 22c-123 27 -208 89 -208 206c0 126 125 218 284 218c173 0 280 -87 302 -212h-134c-22 75 -84 107 -168 107
c-86 0 -155 -39 -155 -101c0 -63 45 -84 156 -109l101 -22c148 -33 219 -92 219 -211c0 -143 -127 -236 -319 -236z" />
    <glyph glyph-name="Scaron" unicode="&#x160;" horiz-adv-x="703" 
d="M551 958l-126 -138h-168l-126 138h117l93 -81l93 81h117zM342 457l101 -22c148 -33 219 -92 219 -211c0 -143 -127 -236 -319 -236c-167 0 -287 92 -309 244h134c13 -93 85 -139 178 -139c121 0 188 48 188 117c0 72 -55 91 -167 116l-102 22c-123 27 -208 89 -208 206
c0 126 125 218 284 218c173 0 280 -87 302 -212h-134c-22 75 -84 107 -168 107c-86 0 -155 -39 -155 -101c0 -63 45 -84 156 -109z" />
    <glyph glyph-name="Scedilla" unicode="&#x15e;" horiz-adv-x="703" 
d="M662 224c0 -132 -108 -221 -276 -234v-23c49 -7 80 -38 80 -84c0 -51 -41 -85 -105 -85h-64v67h44c22 0 37 8 37 26c0 19 -17 27 -35 27h-31v71c-151 11 -257 101 -278 243h134c13 -93 85 -139 178 -139c121 0 188 48 188 117c0 72 -55 91 -167 116l-102 22
c-123 27 -208 89 -208 206c0 126 125 218 284 218c173 0 280 -87 302 -212h-134c-22 75 -84 107 -168 107c-86 0 -155 -39 -155 -101c0 -63 45 -84 156 -109l101 -22c148 -33 219 -92 219 -211z" />
    <glyph glyph-name="Scircumflex" unicode="&#x15c;" horiz-adv-x="703" 
d="M434 820l-93 82l-93 -82h-117l126 138h168l126 -138h-117zM342 457l101 -22c148 -33 219 -92 219 -211c0 -143 -127 -236 -319 -236c-167 0 -287 92 -309 244h134c13 -93 85 -139 178 -139c121 0 188 48 188 117c0 72 -55 91 -167 116l-102 22c-123 27 -208 89 -208 206
c0 126 125 218 284 218c173 0 280 -87 302 -212h-134c-22 75 -84 107 -168 107c-86 0 -155 -39 -155 -101c0 -63 45 -84 156 -109z" />
    <glyph glyph-name="uni0218" unicode="&#x218;" horiz-adv-x="703" 
d="M342 457l101 -22c148 -33 219 -92 219 -211c0 -143 -127 -236 -319 -236c-167 0 -287 92 -309 244h134c13 -93 85 -139 178 -139c121 0 188 48 188 117c0 72 -55 91 -167 116l-102 22c-123 27 -208 89 -208 206c0 126 125 218 284 218c173 0 280 -87 302 -212h-134
c-22 75 -84 107 -168 107c-86 0 -155 -39 -155 -101c0 -63 45 -84 156 -109zM342 -199h-42v138h135v-149l-62 -90h-82z" />
    <glyph glyph-name="uni1E9E" unicode="&#x1e9e;" horiz-adv-x="775" 
d="M664 625l-165 -173c130 -12 237 -86 237 -225c0 -152 -111 -239 -265 -239c-58 0 -95 9 -135 23v101c31 -13 64 -23 115 -23c90 0 152 53 152 138c0 96 -89 139 -198 139h-29v113l162 170h-322v-649h-129v760h577v-135z" />
    <glyph glyph-name="uni018F" unicode="&#x18f;" horiz-adv-x="823" 
d="M406 772c210 0 372 -147 372 -392c0 -242 -164 -392 -372 -392c-225 0 -363 177 -363 419v28h601c-19 163 -123 232 -238 232c-102 0 -176 -52 -209 -136h-135c46 155 173 241 344 241zM406 93c112 0 219 69 238 232h-466c15 -128 102 -232 228 -232z" />
    <glyph glyph-name="T" unicode="T" horiz-adv-x="653" 
d="M17 760h619v-111h-245v-649h-129v649h-245v111z" />
    <glyph glyph-name="Tbar" unicode="&#x166;" horiz-adv-x="684" 
d="M651 760v-111h-245v-217h187v-104h-187v-328h-129v328h-186v104h186v217h-244v111h618z" />
    <glyph glyph-name="Tcaron" unicode="&#x164;" horiz-adv-x="653" 
d="M536 958l-126 -138h-168l-126 138h117l93 -81l93 81h117zM17 760h619v-111h-245v-649h-129v649h-245v111z" />
    <glyph glyph-name="uni0162" unicode="&#x162;" horiz-adv-x="653" 
d="M17 649v111h619v-111h-245v-649h-129v649h-245zM301 -199h-42v138h135v-149l-61 -90h-83z" />
    <glyph glyph-name="uni021A" unicode="&#x21a;" horiz-adv-x="653" 
d="M17 649v111h619v-111h-245v-649h-129v649h-245zM301 -199h-42v138h135v-149l-62 -90h-82z" />
    <glyph glyph-name="U" unicode="U" horiz-adv-x="773" 
d="M387 -12c-218 0 -308 118 -308 315v2v455h129v-465v-2c0 -135 61 -200 179 -200s178 66 178 202v465h129v-455c0 -198 -89 -317 -307 -317z" />
    <glyph glyph-name="Uacute" unicode="&#xda;" horiz-adv-x="773" 
d="M430 820h-123l121 138h178zM387 -12c-218 0 -308 118 -308 315v2v455h129v-465v-2c0 -135 61 -200 179 -200s178 66 178 202v465h129v-455c0 -198 -89 -317 -307 -317z" />
    <glyph glyph-name="Ubreve" unicode="&#x16c;" horiz-adv-x="773" 
d="M387 817c-110 0 -176 64 -176 141h95c1 -40 34 -68 81 -68s80 28 81 68h95c0 -77 -67 -141 -176 -141zM387 -12c-218 0 -308 118 -308 315v2v455h129v-465v-2c0 -135 61 -200 179 -200s178 66 178 202v465h129v-455c0 -198 -89 -317 -307 -317z" />
    <glyph glyph-name="Ucircumflex" unicode="&#xdb;" horiz-adv-x="773" 
d="M480 820l-93 82l-93 -82h-117l126 138h168l126 -138h-117zM565 295v465h129v-455c0 -198 -89 -317 -307 -317s-308 118 -308 315v2v455h129v-465v-2c0 -135 61 -200 179 -200s178 66 178 202z" />
    <glyph glyph-name="Udieresis" unicode="&#xdc;" horiz-adv-x="773" 
d="M344 820h-135v138h135v-138zM565 820h-135v138h135v-138zM387 -12c-218 0 -308 118 -308 315v2v455h129v-465v-2c0 -135 61 -200 179 -200s178 66 178 202v465h129v-455c0 -198 -89 -317 -307 -317z" />
    <glyph glyph-name="uni1EE4" unicode="&#x1ee4;" horiz-adv-x="773" 
d="M387 -12c-218 0 -308 118 -308 315v2v455h129v-465v-2c0 -135 61 -200 179 -200s178 66 178 202v465h129v-455c0 -198 -89 -317 -307 -317zM454 -199h-135v138h135v-138z" />
    <glyph glyph-name="Ugrave" unicode="&#xd9;" horiz-adv-x="773" 
d="M467 820h-124l-175 138h177zM387 -12c-218 0 -308 118 -308 315v2v455h129v-465v-2c0 -135 61 -200 179 -200s178 66 178 202v465h129v-455c0 -198 -89 -317 -307 -317z" />
    <glyph glyph-name="Uhungarumlaut" unicode="&#x170;" horiz-adv-x="773" 
d="M329 820h-119l132 138h164zM537 820h-119l133 138h164zM387 -12c-218 0 -308 118 -308 315v2v455h129v-465v-2c0 -135 61 -200 179 -200s178 66 178 202v465h129v-455c0 -198 -89 -317 -307 -317z" />
    <glyph glyph-name="Umacron" unicode="&#x16a;" horiz-adv-x="773" 
d="M585 841h-397v97h397v-97zM387 -12c-218 0 -308 118 -308 315v2v455h129v-465v-2c0 -135 61 -200 179 -200s178 66 178 202v465h129v-455c0 -198 -89 -317 -307 -317z" />
    <glyph glyph-name="Uogonek" unicode="&#x172;" horiz-adv-x="773" 
d="M565 295v465h129v-455c0 -125 -36 -219 -117 -271c-57 -43 -71 -74 -71 -105s21 -45 55 -45h30v-85h-44c-93 0 -153 31 -153 93c0 37 18 69 52 99c-19 -2 -38 -3 -59 -3c-218 0 -308 118 -308 315v2v455h129v-465v-2c0 -135 61 -200 179 -200s178 66 178 202z" />
    <glyph glyph-name="Uring" unicode="&#x16e;" horiz-adv-x="773" 
d="M387 814c-74 0 -134 61 -134 136c0 74 60 133 134 133s133 -59 133 -133c0 -75 -59 -136 -133 -136zM387 894c30 0 54 26 54 56c0 29 -24 54 -54 54s-55 -25 -55 -54c0 -30 25 -56 55 -56zM387 -12c-218 0 -308 118 -308 315v2v455h129v-465v-2c0 -135 61 -200 179 -200
s178 66 178 202v465h129v-455c0 -198 -89 -317 -307 -317z" />
    <glyph glyph-name="Utilde" unicode="&#x168;" horiz-adv-x="773" 
d="M256 830h-45c2 82 46 125 103 125c31 0 60 -10 81 -20c18 -9 41 -16 61 -16c32 0 53 15 61 37h45c-2 -81 -46 -125 -103 -125c-30 0 -60 11 -81 21c-18 9 -41 16 -61 16c-32 0 -53 -15 -61 -38zM387 -12c-218 0 -308 118 -308 315v2v455h129v-465v-2
c0 -135 61 -200 179 -200s178 66 178 202v465h129v-455c0 -198 -89 -317 -307 -317z" />
    <glyph glyph-name="V" unicode="V" horiz-adv-x="752" 
d="M376 16l232 744h140l-245 -760h-254l-246 760h141z" />
    <glyph glyph-name="W" unicode="W" horiz-adv-x="1139" 
d="M825 15l165 745h130l-170 -760h-250l-130 746l-131 -746h-250l-170 760h130l164 -742l133 742h247z" />
    <glyph glyph-name="Wacute" unicode="&#x1e82;" horiz-adv-x="1139" 
d="M624 958h177l-176 -138h-123zM825 15l165 745h130l-170 -760h-250l-130 746l-131 -746h-250l-170 760h130l164 -742l133 742h247z" />
    <glyph glyph-name="Wcircumflex" unicode="&#x174;" horiz-adv-x="1139" 
d="M662 820l-93 82l-93 -82h-117l126 138h168l126 -138h-117zM825 15l165 745h130l-170 -760h-250l-130 746l-131 -746h-250l-170 760h130l164 -742l133 742h247z" />
    <glyph glyph-name="Wdieresis" unicode="&#x1e84;" horiz-adv-x="1139" 
d="M392 958h135v-138h-135v138zM613 958h135v-138h-135v138zM825 15l165 745h130l-170 -760h-250l-130 746l-131 -746h-250l-170 760h130l164 -742l133 742h247z" />
    <glyph glyph-name="Wgrave" unicode="&#x1e80;" horiz-adv-x="1139" 
d="M513 958l121 -138h-123l-176 138h178zM825 15l165 745h130l-170 -760h-250l-130 746l-131 -746h-250l-170 760h130l164 -742l133 742h247z" />
    <glyph glyph-name="X" unicode="X" horiz-adv-x="754" 
d="M460 405l298 -405h-154l-227 310l-227 -310h-154l298 405l-263 355h153l193 -263l193 263h153z" />
    <glyph glyph-name="Y" unicode="Y" horiz-adv-x="690" 
d="M549 760h147l-287 -443v-317h-128v317l-287 443h146l205 -320z" />
    <glyph glyph-name="Yacute" unicode="&#xdd;" horiz-adv-x="690" 
d="M386 958h178l-176 -138h-123zM549 760h147l-287 -443v-317h-128v317l-287 443h146l205 -320z" />
    <glyph glyph-name="Ycircumflex" unicode="&#x176;" horiz-adv-x="690" 
d="M437 820l-93 82l-93 -82h-117l126 138h168l126 -138h-117zM549 760h147l-287 -443v-317h-128v317l-287 443h146l205 -320z" />
    <glyph glyph-name="Ydieresis" unicode="&#x178;" horiz-adv-x="690" 
d="M167 958h135v-138h-135v138zM388 958h135v-138h-135v138zM549 760h147l-287 -443v-317h-128v317l-287 443h146l205 -320z" />
    <glyph glyph-name="Ygrave" unicode="&#x1ef2;" horiz-adv-x="690" 
d="M303 958l122 -138h-124l-175 138h177zM549 760h147l-287 -443v-317h-128v317l-287 443h146l205 -320z" />
    <glyph glyph-name="uni0232" unicode="&#x232;" horiz-adv-x="690" 
d="M146 938h397v-97h-397v97zM549 760h147l-287 -443v-317h-128v317l-287 443h146l205 -320z" />
    <glyph glyph-name="uni1EF8" unicode="&#x1ef8;" horiz-adv-x="690" 
d="M275 868c-32 0 -53 -15 -61 -38h-45c2 82 46 125 103 125c31 0 60 -10 81 -20c18 -9 41 -16 61 -16c32 0 53 15 61 37h45c-2 -81 -46 -125 -103 -125c-30 0 -60 11 -81 21c-18 9 -41 16 -61 16zM549 760h147l-287 -443v-317h-128v317l-287 443h146l205 -320z" />
    <glyph glyph-name="Z" unicode="Z" horiz-adv-x="696" 
d="M646 615l-464 -504h483v-111h-625v145l464 504h-457v111h599v-145z" />
    <glyph glyph-name="Zacute" unicode="&#x179;" horiz-adv-x="696" 
d="M387 958h178l-176 -138h-123zM646 615l-464 -504h483v-111h-625v145l464 504h-457v111h599v-145z" />
    <glyph glyph-name="Zcaron" unicode="&#x17d;" horiz-adv-x="696" 
d="M556 958l-126 -138h-168l-126 138h117l93 -81l93 81h117zM646 615l-464 -504h483v-111h-625v145l464 504h-457v111h599v-145z" />
    <glyph glyph-name="Zdotaccent" unicode="&#x17b;" horiz-adv-x="696" 
d="M278 958h135v-138h-135v138zM646 615l-464 -504h483v-111h-625v145l464 504h-457v111h599v-145z" />
    <glyph glyph-name="uni01B5" unicode="&#x1b5;" horiz-adv-x="712" 
d="M391 330l-202 -219h483v-111h-625v145l186 202h-168v102h262l184 200h-457v111h599v-145l-167 -182h168v-103h-263z" />
    <glyph glyph-name="G.ss03" horiz-adv-x="814" 
d="M382 312v107h386v-73c0 -220 -141 -358 -356 -358c-219 0 -367 156 -367 392s152 392 367 392c181 0 303 -92 345 -249h-135c-31 86 -99 144 -210 144c-141 0 -233 -116 -233 -287c0 -172 93 -287 234 -287c133 0 223 86 226 219h-257z" />
    <glyph glyph-name="Gbreve.ss03" horiz-adv-x="814" 
d="M412 817c-110 0 -176 64 -176 141h95c1 -40 34 -68 81 -68s80 28 81 68h95c0 -77 -67 -141 -176 -141zM382 312v107h386v-73c0 -220 -141 -358 -356 -358c-219 0 -367 156 -367 392s152 392 367 392c181 0 303 -92 345 -249h-135c-31 86 -99 144 -210 144
c-141 0 -233 -116 -233 -287c0 -172 93 -287 234 -287c133 0 223 86 226 219h-257z" />
    <glyph glyph-name="Gcaron.ss03" horiz-adv-x="814" 
d="M622 958l-126 -138h-168l-126 138h117l93 -81l93 81h117zM382 312v107h386v-73c0 -220 -141 -358 -356 -358c-219 0 -367 156 -367 392s152 392 367 392c181 0 303 -92 345 -249h-135c-31 86 -99 144 -210 144c-141 0 -233 -116 -233 -287c0 -172 93 -287 234 -287
c133 0 223 86 226 219h-257z" />
    <glyph glyph-name="Gcircumflex.ss03" horiz-adv-x="814" 
d="M505 820l-93 82l-93 -82h-117l126 138h168l126 -138h-117zM382 312v107h386v-73c0 -220 -141 -358 -356 -358c-219 0 -367 156 -367 392s152 392 367 392c181 0 303 -92 345 -249h-135c-31 86 -99 144 -210 144c-141 0 -233 -116 -233 -287c0 -172 93 -287 234 -287
c133 0 223 86 226 219h-257z" />
    <glyph glyph-name="uni0122.ss03" horiz-adv-x="814" 
d="M382 312v107h386v-73c0 -220 -141 -358 -356 -358c-219 0 -367 156 -367 392s152 392 367 392c181 0 303 -92 345 -249h-135c-31 86 -99 144 -210 144c-141 0 -233 -116 -233 -287c0 -172 93 -287 234 -287c133 0 223 86 226 219h-257zM391 -199h-42v138h135v-149
l-62 -90h-82z" />
    <glyph glyph-name="Gdotaccent.ss03" horiz-adv-x="814" 
d="M344 958h135v-138h-135v138zM382 312v107h386v-73c0 -220 -141 -358 -356 -358c-219 0 -367 156 -367 392s152 392 367 392c181 0 303 -92 345 -249h-135c-31 86 -99 144 -210 144c-141 0 -233 -116 -233 -287c0 -172 93 -287 234 -287c133 0 223 86 226 219h-257z" />
    <glyph glyph-name="Adieresis.titl" horiz-adv-x="775" 
d="M774 0h-136l-73 218h-355l-73 -218h-136l263 760h247zM52 760h125v-138h-125v138zM606 760h125v-138h-125v138zM388 744l-141 -416h281z" />
    <glyph glyph-name="Odieresis.titl" horiz-adv-x="832" 
d="M416 -12c-219 0 -371 156 -371 392s152 392 371 392s371 -156 371 -392s-152 -392 -371 -392zM102 622h-126v138h126v-138zM856 622h-126v138h126v-138zM416 93c142 0 237 116 237 287s-95 287 -237 287s-237 -116 -237 -287s95 -287 237 -287z" />
    <glyph glyph-name="Udieresis.titl" horiz-adv-x="772" 
d="M387 -12c-218 0 -308 118 -308 315v2v455h129v-465v-2c0 -135 61 -200 179 -200s178 66 178 202v465h129v-455c0 -198 -89 -317 -307 -317zM368 622h-125v138h125v-138zM529 622h-126v138h126v-138z" />
    <glyph glyph-name="I_J.loclNLD" horiz-adv-x="608" 
d="M342 0h-255v111h231c56 0 79 23 79 74v575h129v-597c0 -107 -65 -163 -184 -163zM216 243h-129v517h129v-517z" />
    <glyph glyph-name="A.inferior" horiz-adv-x="417" 
d="M412 -114h-97l-28 97h-157l-28 -97h-97l116 380h175zM209 251l-57 -193h113z" />
    <glyph glyph-name="B.inferior" horiz-adv-x="395" 
d="M261 80c60 -2 111 -31 111 -90c0 -62 -53 -104 -159 -104h-166v380h163c100 0 149 -44 149 -99c0 -54 -42 -79 -98 -87zM263 153c0 25 -21 39 -57 39h-66v-76h66c36 0 57 11 57 37zM140 -40h72c42 0 64 15 64 44c0 28 -23 40 -64 40h-72v-84z" />
    <glyph glyph-name="C.inferior" horiz-adv-x="420" 
d="M216 -121c-106 0 -192 74 -192 197s85 197 191 197c92 0 166 -50 186 -139h-95c-12 37 -39 67 -91 67c-55 0 -95 -47 -95 -125s41 -125 96 -125c48 0 78 25 92 69h95c-24 -98 -97 -141 -187 -141z" />
    <glyph glyph-name="D.inferior" horiz-adv-x="417" 
d="M47 266h146c118 0 199 -60 199 -190s-81 -190 -199 -190h-146v380zM140 -39h55c61 0 101 39 101 115s-40 115 -101 115h-55v-230z" />
    <glyph glyph-name="E.inferior" horiz-adv-x="350" 
d="M140 43v-82h180v-75h-273v380h269v-75h-176v-73h172v-75h-172z" />
    <glyph glyph-name="F.inferior" horiz-adv-x="335" 
d="M308 266v-75h-168v-79h165v-75h-165v-151h-93v380h261z" />
    <glyph glyph-name="G.inferior" horiz-adv-x="445" 
d="M205 35v72h203v-221h-75v89c-15 -44 -50 -96 -131 -96c-88 0 -178 69 -178 197c0 121 81 197 195 197c93 0 159 -44 184 -127h-96c-15 35 -41 55 -88 55c-57 0 -99 -48 -99 -125c0 -78 41 -125 104 -125c53 0 92 33 94 84h-113z" />
    <glyph glyph-name="H.inferior" horiz-adv-x="422" 
d="M282 122v144h93v-380h-93v152h-142v-152h-93v380h93v-144h142z" />
    <glyph glyph-name="I.inferior" horiz-adv-x="186" 
d="M140 -114h-93v380h93v-380z" />
    <glyph glyph-name="J.inferior" horiz-adv-x="226" 
d="M74 -114h-60v75h33c24 0 43 3 43 38v267h93v-284c0 -59 -29 -96 -109 -96z" />
    <glyph glyph-name="K.inferior" horiz-adv-x="396" 
d="M240 87l161 -201h-115l-146 186v-186h-93v380h93v-168l134 168h109z" />
    <glyph glyph-name="L.inferior" horiz-adv-x="312" 
d="M140 266v-305h159v-75h-252v380h93z" />
    <glyph glyph-name="M.inferior" horiz-adv-x="573" 
d="M526 266v-380h-87v365l-71 -365h-163l-71 365v-365h-87v380h169l71 -367l70 367h169z" />
    <glyph glyph-name="N.inferior" horiz-adv-x="458" 
d="M324 -100v366h87v-380h-171l-106 363v-363h-87v380h171z" />
    <glyph glyph-name="O.inferior" horiz-adv-x="441" 
d="M221 -121c-115 0 -197 75 -197 197s82 197 197 197c114 0 196 -75 196 -197s-82 -197 -196 -197zM221 -49c61 0 100 47 100 125s-39 125 -100 125s-101 -47 -101 -125s40 -125 101 -125z" />
    <glyph glyph-name="P.inferior" horiz-adv-x="378" 
d="M47 266h152c105 0 163 -48 163 -127c0 -78 -58 -126 -163 -126h-59v-127h-93v380zM140 87h56c44 0 71 19 71 52c0 34 -27 53 -71 53h-56v-105z" />
    <glyph glyph-name="Q.inferior" horiz-adv-x="444" 
d="M383 -43l71 -71h-104l-21 21c-30 -18 -67 -28 -108 -28c-115 0 -197 75 -197 197s82 197 197 197c114 0 196 -75 196 -197c0 -47 -12 -88 -34 -119zM221 -49c19 0 36 5 50 13l-73 73h104l12 -12c5 15 7 32 7 51c0 78 -39 125 -100 125s-101 -47 -101 -125
s40 -125 101 -125z" />
    <glyph glyph-name="R.inferior" horiz-adv-x="398" 
d="M388 -114h-106l-82 136h-60v-136h-93v380h157c96 0 157 -49 157 -122c0 -48 -26 -85 -70 -105zM203 192h-63v-97h63c38 0 62 17 62 49c0 31 -24 48 -62 48z" />
    <glyph glyph-name="S.inferior" horiz-adv-x="379" 
d="M185 -121c-89 0 -156 46 -165 125h96c5 -39 37 -55 75 -55c46 0 71 17 71 44c0 21 -17 34 -67 45l-57 12c-65 15 -108 45 -108 108c0 68 67 115 153 115c100 0 154 -45 163 -109h-95c-5 27 -34 39 -68 39c-36 0 -60 -13 -60 -36s19 -32 67 -42l58 -13
c69 -15 107 -52 107 -110c0 -80 -67 -123 -170 -123z" />
    <glyph glyph-name="T.inferior" horiz-adv-x="348" 
d="M14 266h320v-75h-113v-305h-93v305h-114v75z" />
    <glyph glyph-name="U.inferior" horiz-adv-x="414" 
d="M207 -121c-113 0 -164 59 -164 158v2v227h93v-238v-2c0 -47 24 -75 71 -75c48 0 71 29 71 77v238h93v-227c0 -99 -49 -160 -164 -160z" />
    <glyph glyph-name="V.inferior" horiz-adv-x="404" 
d="M202 -99l96 365h99l-105 -380h-180l-105 380h99z" />
    <glyph glyph-name="W.inferior" horiz-adv-x="597" 
d="M431 -100l60 366h91l-63 -380h-175l-45 368l-46 -368h-175l-63 380h91l60 -366l46 366h173z" />
    <glyph glyph-name="X.inferior" horiz-adv-x="416" 
d="M272 87l143 -201h-113l-94 134l-95 -134h-112l142 201l-128 179h111l82 -116l81 116h112z" />
    <glyph glyph-name="Y.inferior" horiz-adv-x="380" 
d="M273 266h105l-142 -233v-147h-93v147l-142 233h105l84 -145z" />
    <glyph glyph-name="Z.inferior" horiz-adv-x="368" 
d="M338 170l-200 -209h209v-75h-322v96l200 209h-197v75h310v-96z" />
    <glyph glyph-name="G.ss03.inferior" horiz-adv-x="433" 
d="M204 35v72h204v-44c0 -110 -71 -184 -188 -184c-114 0 -196 74 -196 197c0 121 81 197 195 197c93 0 159 -44 184 -127h-96c-15 35 -41 55 -88 55c-58 0 -99 -48 -99 -125c0 -78 41 -125 102 -125c57 0 91 37 93 84h-111z" />
    <glyph glyph-name="A.superior" horiz-adv-x="417" 
d="M412 380h-97l-28 97h-157l-28 -97h-97l116 380h175zM209 745l-57 -193h113z" />
    <glyph glyph-name="B.superior" horiz-adv-x="395" 
d="M261 574c60 -2 111 -31 111 -90c0 -62 -53 -104 -159 -104h-166v380h163c100 0 149 -44 149 -99c0 -54 -42 -79 -98 -87zM263 647c0 25 -21 39 -57 39h-66v-76h66c36 0 57 11 57 37zM140 454h72c42 0 64 15 64 44c0 28 -23 40 -64 40h-72v-84z" />
    <glyph glyph-name="C.superior" horiz-adv-x="420" 
d="M216 373c-107 0 -192 74 -192 197s84 197 191 197c92 0 166 -50 186 -139h-95c-12 37 -39 67 -91 67c-55 0 -95 -47 -95 -125s41 -125 96 -125c47 0 78 25 92 69h95c-25 -98 -97 -141 -187 -141z" />
    <glyph glyph-name="D.superior" horiz-adv-x="417" 
d="M47 760h146c118 0 199 -60 199 -190s-81 -190 -199 -190h-146v380zM140 455h55c61 0 101 39 101 115s-40 115 -101 115h-55v-230z" />
    <glyph glyph-name="E.superior" horiz-adv-x="350" 
d="M140 537v-82h180v-75h-273v380h269v-75h-176v-73h172v-75h-172z" />
    <glyph glyph-name="F.superior" horiz-adv-x="335" 
d="M308 760v-75h-168v-79h165v-75h-165v-151h-93v380h261z" />
    <glyph glyph-name="G.superior" horiz-adv-x="445" 
d="M205 529v72h203v-221h-75v89c-15 -44 -50 -96 -131 -96c-88 0 -178 69 -178 197c0 121 81 197 195 197c93 0 159 -44 184 -127h-96c-15 35 -41 55 -88 55c-57 0 -99 -48 -99 -125s41 -125 104 -125c53 0 92 33 94 84h-113z" />
    <glyph glyph-name="H.superior" horiz-adv-x="422" 
d="M282 616v144h93v-380h-93v152h-142v-152h-93v380h93v-144h142z" />
    <glyph glyph-name="I.superior" horiz-adv-x="186" 
d="M140 380h-93v380h93v-380z" />
    <glyph glyph-name="J.superior" horiz-adv-x="226" 
d="M74 380h-60v75h33c24 0 43 3 43 38v267h93v-284c0 -59 -29 -96 -109 -96z" />
    <glyph glyph-name="K.superior" horiz-adv-x="396" 
d="M239 581l162 -201h-116l-145 185v-185h-93v380h93v-167l133 167h109z" />
    <glyph glyph-name="L.superior" horiz-adv-x="312" 
d="M140 760v-305h159v-75h-252v380h93z" />
    <glyph glyph-name="M.superior" horiz-adv-x="573" 
d="M526 760v-380h-87v365l-71 -365h-163l-71 365v-365h-87v380h169l71 -367l70 367h169z" />
    <glyph glyph-name="N.superior" horiz-adv-x="458" 
d="M324 394v366h87v-380h-171l-106 363v-363h-87v380h171z" />
    <glyph glyph-name="O.superior" horiz-adv-x="441" 
d="M221 373c-115 0 -197 75 -197 197s82 197 197 197c114 0 196 -75 196 -197s-82 -197 -196 -197zM221 445c61 0 100 47 100 125s-39 125 -100 125s-101 -47 -101 -125s40 -125 101 -125z" />
    <glyph glyph-name="P.superior" horiz-adv-x="378" 
d="M47 760h152c105 0 163 -48 163 -127c0 -78 -58 -126 -163 -126h-59v-127h-93v380zM140 581h56c44 0 71 19 71 52c0 34 -27 53 -71 53h-56v-105z" />
    <glyph glyph-name="Q.superior" horiz-adv-x="444" 
d="M383 451l71 -71h-104l-21 21c-30 -18 -67 -28 -108 -28c-115 0 -197 75 -197 197s82 197 197 197c114 0 196 -75 196 -197c0 -47 -12 -88 -34 -119zM221 445c19 0 36 5 50 13l-73 73h104l12 -12c5 15 7 32 7 51c0 78 -39 125 -100 125s-101 -47 -101 -125
s40 -125 101 -125z" />
    <glyph glyph-name="R.superior" horiz-adv-x="398" 
d="M388 380h-106l-82 136h-60v-136h-93v380h157c96 0 157 -49 157 -122c0 -48 -26 -85 -70 -105zM203 686h-63v-97h63c38 0 62 17 62 49c0 31 -24 48 -62 48z" />
    <glyph glyph-name="S.superior" horiz-adv-x="379" 
d="M185 373c-89 0 -156 46 -165 125h96c5 -39 37 -55 75 -55c46 0 71 17 71 44c0 21 -17 34 -67 45l-57 12c-65 15 -108 45 -108 108c0 68 67 115 153 115c100 0 154 -45 163 -109h-95c-5 27 -34 39 -68 39c-36 0 -60 -13 -60 -36s19 -32 67 -42l58 -13
c69 -15 107 -52 107 -110c0 -80 -67 -123 -170 -123z" />
    <glyph glyph-name="T.superior" horiz-adv-x="348" 
d="M14 760h320v-75h-113v-305h-93v305h-114v75z" />
    <glyph glyph-name="U.superior" horiz-adv-x="414" 
d="M207 373c-113 0 -164 59 -164 158v2v227h93v-238v-2c0 -47 24 -75 71 -75c48 0 71 29 71 77v238h93v-227c0 -99 -49 -160 -164 -160z" />
    <glyph glyph-name="V.superior" horiz-adv-x="404" 
d="M202 395l96 365h99l-105 -380h-180l-105 380h99z" />
    <glyph glyph-name="W.superior" horiz-adv-x="597" 
d="M431 394l60 366h91l-63 -380h-175l-45 368l-46 -368h-175l-63 380h91l60 -366l46 366h173z" />
    <glyph glyph-name="X.superior" horiz-adv-x="416" 
d="M272 581l143 -201h-113l-94 134l-95 -134h-112l142 201l-128 179h111l82 -116l81 116h112z" />
    <glyph glyph-name="Y.superior" horiz-adv-x="380" 
d="M273 760h105l-142 -233v-147h-93v147l-142 233h105l84 -145z" />
    <glyph glyph-name="Z.superior" horiz-adv-x="368" 
d="M338 664l-200 -209h209v-75h-322v96l200 209h-197v75h310v-96z" />
    <glyph glyph-name="G.ss03.superior" horiz-adv-x="434" 
d="M205 529v72h203v-44c0 -110 -70 -184 -187 -184c-115 0 -197 74 -197 197c0 121 81 197 195 197c93 0 159 -44 184 -127h-96c-15 35 -41 55 -88 55c-57 0 -99 -48 -99 -125c0 -78 42 -125 102 -125c57 0 91 37 93 84h-110z" />
    <glyph glyph-name="a" unicode="a" horiz-adv-x="599" 
d="M298 551c166 0 236 -97 236 -207v-2v-342h-124v107c-34 -71 -80 -119 -183 -119c-102 0 -184 73 -184 175c0 125 121 152 223 162l143 15v7v2c0 63 -36 114 -111 114c-67 0 -104 -40 -111 -85h-126c13 106 105 173 237 173zM275 67c89 0 134 72 134 162v32l-97 -10
c-68 -8 -142 -18 -142 -88c0 -61 48 -96 105 -96z" />
    <glyph glyph-name="aacute" unicode="&#xe1;" horiz-adv-x="599" 
d="M344 760h170l-168 -154h-116zM298 551c166 0 236 -97 236 -207v-2v-342h-124v107c-34 -71 -80 -119 -183 -119c-102 0 -184 73 -184 175c0 125 121 152 223 162l143 15v7v2c0 63 -36 114 -111 114c-67 0 -104 -40 -111 -85h-126c13 106 105 173 237 173zM275 67
c89 0 134 72 134 162v32l-97 -10c-68 -8 -142 -18 -142 -88c0 -61 48 -96 105 -96z" />
    <glyph glyph-name="abreve" unicode="&#x103;" horiz-adv-x="599" 
d="M298 602c-106 0 -171 71 -171 158h94c0 -52 28 -78 77 -78c48 0 76 26 76 78h95c0 -87 -65 -158 -171 -158zM298 551c166 0 236 -97 236 -207v-2v-342h-124v107c-34 -71 -80 -119 -183 -119c-102 0 -184 73 -184 175c0 125 121 152 223 162l143 15v7v2
c0 63 -36 114 -111 114c-67 0 -104 -40 -111 -85h-126c13 106 105 173 237 173zM275 67c89 0 134 72 134 162v32l-97 -10c-68 -8 -142 -18 -142 -88c0 -61 48 -96 105 -96z" />
    <glyph glyph-name="acircumflex" unicode="&#xe2;" horiz-adv-x="599" 
d="M394 606l-96 99l-96 -99h-112l127 154h161l128 -154h-112zM298 551c166 0 236 -97 236 -207v-2v-342h-124v107c-34 -71 -80 -119 -183 -119c-102 0 -184 73 -184 175c0 125 121 152 223 162l143 15v7v2c0 63 -36 114 -111 114c-67 0 -104 -40 -111 -85h-126
c13 106 105 173 237 173zM275 67c89 0 134 72 134 162v32l-97 -10c-68 -8 -142 -18 -142 -88c0 -61 48 -96 105 -96z" />
    <glyph glyph-name="adieresis" unicode="&#xe4;" horiz-adv-x="599" 
d="M121 760h131v-138h-131v138zM342 760h132v-138h-132v138zM298 551c166 0 236 -97 236 -207v-2v-342h-124v107c-34 -71 -80 -119 -183 -119c-102 0 -184 73 -184 175c0 125 121 152 223 162l143 15v7v2c0 63 -36 114 -111 114c-67 0 -104 -40 -111 -85h-126
c13 106 105 173 237 173zM275 67c89 0 134 72 134 162v32l-97 -10c-68 -8 -142 -18 -142 -88c0 -61 48 -96 105 -96z" />
    <glyph glyph-name="uni1EA1" unicode="&#x1ea1;" horiz-adv-x="599" 
d="M298 551c166 0 236 -97 236 -207v-2v-342h-124v107c-34 -71 -80 -119 -183 -119c-102 0 -184 73 -184 175c0 125 121 152 223 162l143 15v7v2c0 63 -36 114 -111 114c-67 0 -104 -40 -111 -85h-126c13 106 105 173 237 173zM275 67c89 0 134 72 134 162v32l-97 -10
c-68 -8 -142 -18 -142 -88c0 -61 48 -96 105 -96zM375 -199h-131v138h131v-138z" />
    <glyph glyph-name="agrave" unicode="&#xe0;" horiz-adv-x="599" 
d="M252 760l114 -154h-116l-168 154h170zM298 551c166 0 236 -97 236 -207v-2v-342h-124v107c-34 -71 -80 -119 -183 -119c-102 0 -184 73 -184 175c0 125 121 152 223 162l143 15v7v2c0 63 -36 114 -111 114c-67 0 -104 -40 -111 -85h-126c13 106 105 173 237 173zM275 67
c89 0 134 72 134 162v32l-97 -10c-68 -8 -142 -18 -142 -88c0 -61 48 -96 105 -96z" />
    <glyph glyph-name="amacron" unicode="&#x101;" horiz-adv-x="599" 
d="M116 726h364v-91h-364v91zM298 551c166 0 236 -97 236 -207v-2v-342h-124v107c-34 -71 -80 -119 -183 -119c-102 0 -184 73 -184 175c0 125 121 152 223 162l143 15v7v2c0 63 -36 114 -111 114c-67 0 -104 -40 -111 -85h-126c13 106 105 173 237 173zM275 67
c89 0 134 72 134 162v32l-97 -10c-68 -8 -142 -18 -142 -88c0 -61 48 -96 105 -96z" />
    <glyph glyph-name="aogonek" unicode="&#x105;" horiz-adv-x="599" 
d="M298 551c166 0 236 -97 236 -207v-2v-342c-57 -22 -87 -49 -87 -80c0 -26 23 -38 58 -38h29v-83h-43c-93 0 -152 31 -152 94c0 47 30 80 71 107v107c-34 -71 -80 -119 -183 -119c-102 0 -184 73 -184 175c0 125 121 152 223 162l143 15v7v2c0 63 -36 114 -111 114
c-67 0 -104 -40 -111 -85h-126c13 106 105 173 237 173zM275 67c89 0 134 72 134 162v32l-97 -10c-68 -8 -142 -18 -142 -88c0 -61 48 -96 105 -96z" />
    <glyph glyph-name="aring" unicode="&#xe5;" horiz-adv-x="599" 
d="M298 602c-65 0 -117 54 -117 119s52 116 117 116s118 -51 118 -116s-53 -119 -118 -119zM298 766c-25 0 -46 -20 -46 -45s21 -47 46 -47s46 22 46 47s-21 45 -46 45zM298 551c166 0 236 -97 236 -207v-2v-342h-124v107c-34 -71 -80 -119 -183 -119
c-102 0 -184 73 -184 175c0 125 121 152 223 162l143 15v7v2c0 63 -36 114 -111 114c-67 0 -104 -40 -111 -85h-126c13 106 105 173 237 173zM275 67c89 0 134 72 134 162v32l-97 -10c-68 -8 -142 -18 -142 -88c0 -61 48 -96 105 -96z" />
    <glyph glyph-name="atilde" unicode="&#xe3;" horiz-adv-x="599" 
d="M232 665c-34 0 -53 -18 -60 -41h-41c2 82 43 124 98 124c29 0 57 -13 75 -22s39 -16 59 -16c34 0 53 17 59 41h42c-2 -82 -43 -124 -98 -124c-29 0 -57 12 -76 22c-18 8 -39 16 -58 16zM298 551c166 0 236 -97 236 -207v-2v-342h-124v107c-34 -71 -80 -119 -183 -119
c-102 0 -184 73 -184 175c0 125 121 152 223 162l143 15v7v2c0 63 -36 114 -111 114c-67 0 -104 -40 -111 -85h-126c13 106 105 173 237 173zM275 67c89 0 134 72 134 162v32l-97 -10c-68 -8 -142 -18 -142 -88c0 -61 48 -96 105 -96z" />
    <glyph glyph-name="ae" unicode="&#xe6;" horiz-adv-x="975" 
d="M935 273c0 -12 -1 -26 -2 -40h-398c10 -104 62 -157 138 -157c69 0 104 31 124 83h126c-33 -115 -125 -171 -250 -171c-107 0 -180 51 -216 124c-32 -71 -108 -124 -215 -124c-119 0 -199 75 -199 167c0 124 104 165 251 165h115v28v2c0 62 -36 113 -111 113
c-67 0 -105 -40 -111 -85h-126c12 106 107 173 233 173c100 0 157 -44 185 -93c41 57 103 93 193 93c159 0 263 -110 263 -278zM673 463c-73 0 -124 -46 -137 -143h271c-7 88 -59 143 -134 143zM271 76c89 0 136 56 138 157h-94c-92 0 -145 -22 -145 -78
c0 -50 40 -79 101 -79z" />
    <glyph glyph-name="aeacute" unicode="&#x1fd;" horiz-adv-x="975" 
d="M531 760h170l-168 -154h-116zM935 273c0 -12 -1 -26 -2 -40h-398c10 -104 62 -157 138 -157c69 0 104 31 124 83h126c-33 -115 -125 -171 -250 -171c-107 0 -180 51 -216 124c-32 -71 -108 -124 -215 -124c-119 0 -199 75 -199 167c0 124 104 165 251 165h115v28v2
c0 62 -36 113 -111 113c-67 0 -105 -40 -111 -85h-126c12 106 107 173 233 173c100 0 157 -44 185 -93c41 57 103 93 193 93c159 0 263 -110 263 -278zM673 463c-73 0 -124 -46 -137 -143h271c-7 88 -59 143 -134 143zM271 76c89 0 136 56 138 157h-94
c-92 0 -145 -22 -145 -78c0 -50 40 -79 101 -79z" />
    <glyph glyph-name="uni01E3" unicode="&#x1e3;" horiz-adv-x="975" 
d="M303 726h364v-91h-364v91zM935 273c0 -12 -1 -26 -2 -40h-398c10 -104 62 -157 138 -157c69 0 104 31 124 83h126c-33 -115 -125 -171 -250 -171c-107 0 -180 51 -216 124c-32 -71 -108 -124 -215 -124c-119 0 -199 75 -199 167c0 124 104 165 251 165h115v28v2
c0 62 -36 113 -111 113c-67 0 -105 -40 -111 -85h-126c12 106 107 173 233 173c100 0 157 -44 185 -93c41 57 103 93 193 93c159 0 263 -110 263 -278zM673 463c-73 0 -124 -46 -137 -143h271c-7 88 -59 143 -134 143zM271 76c89 0 136 56 138 157h-94
c-92 0 -145 -22 -145 -78c0 -50 40 -79 101 -79z" />
    <glyph glyph-name="b" unicode="b" horiz-adv-x="647" 
d="M380 551c131 0 226 -117 226 -281s-94 -282 -226 -282c-82 0 -154 53 -185 127v-115h-124v760h124v-348c25 72 87 139 185 139zM335 76c93 0 144 75 144 194c0 118 -51 193 -144 193c-92 0 -144 -75 -144 -193c0 -119 52 -194 144 -194z" />
    <glyph glyph-name="c" unicode="c" horiz-adv-x="598" 
d="M310 -12c-163 0 -270 114 -270 282s108 281 270 281c138 0 231 -80 254 -200h-127c-14 62 -55 112 -127 112c-91 0 -143 -75 -143 -193c0 -120 53 -194 143 -194c71 0 113 40 133 110h126c-27 -128 -130 -198 -259 -198z" />
    <glyph glyph-name="cacute" unicode="&#x107;" horiz-adv-x="598" 
d="M358 606h-116l114 154h170zM310 -12c-163 0 -270 114 -270 282s108 281 270 281c138 0 231 -80 254 -200h-127c-14 62 -55 112 -127 112c-91 0 -143 -75 -143 -193c0 -120 53 -194 143 -194c71 0 113 40 133 110h126c-27 -128 -130 -198 -259 -198z" />
    <glyph glyph-name="ccaron" unicode="&#x10d;" horiz-adv-x="598" 
d="M518 760l-128 -154h-161l-127 154h112l96 -98l96 98h112zM443 186h126c-27 -128 -130 -198 -259 -198c-163 0 -270 114 -270 282s108 281 270 281c138 0 231 -80 254 -200h-127c-14 62 -55 112 -127 112c-91 0 -143 -75 -143 -193c0 -120 53 -194 143 -194
c71 0 113 40 133 110z" />
    <glyph glyph-name="ccedilla" unicode="&#xe7;" horiz-adv-x="598" 
d="M443 186h126c-26 -121 -119 -191 -239 -197v-23c48 -6 80 -37 80 -83c0 -51 -40 -85 -102 -85h-62v63h44c24 0 39 9 39 29s-16 29 -35 29h-33v73c-135 20 -221 127 -221 278c0 168 108 281 270 281c138 0 231 -80 254 -200h-127c-14 62 -55 112 -127 112
c-91 0 -143 -75 -143 -193c0 -120 53 -194 143 -194c71 0 113 40 133 110z" />
    <glyph glyph-name="ccircumflex" unicode="&#x109;" horiz-adv-x="598" 
d="M406 606l-96 99l-96 -99h-112l127 154h161l128 -154h-112zM443 186h126c-27 -128 -130 -198 -259 -198c-163 0 -270 114 -270 282s108 281 270 281c138 0 231 -80 254 -200h-127c-14 62 -55 112 -127 112c-91 0 -143 -75 -143 -193c0 -120 53 -194 143 -194
c71 0 113 40 133 110z" />
    <glyph glyph-name="cdotaccent" unicode="&#x10b;" horiz-adv-x="598" 
d="M376 622h-131v138h131v-138zM310 -12c-163 0 -270 114 -270 282s108 281 270 281c138 0 231 -80 254 -200h-127c-14 62 -55 112 -127 112c-91 0 -143 -75 -143 -193c0 -120 53 -194 143 -194c71 0 113 40 133 110h126c-27 -128 -130 -198 -259 -198z" />
    <glyph glyph-name="d" unicode="d" horiz-adv-x="647" 
d="M452 412v348h124v-760h-124v115c-31 -74 -103 -127 -185 -127c-132 0 -226 118 -226 282s95 281 226 281c98 0 161 -67 185 -139zM312 76c93 0 144 75 144 194c0 118 -51 193 -144 193s-144 -75 -144 -193c0 -119 51 -194 144 -194z" />
    <glyph glyph-name="eth" unicode="&#xf0;" horiz-adv-x="627" 
d="M530 679l-84 -26c89 -95 137 -208 137 -365c0 -188 -105 -300 -271 -300c-167 0 -272 115 -272 282c0 166 98 276 232 276c85 0 145 -58 171 -124c-9 62 -45 131 -108 196l-121 -38l-22 66l83 26c-40 32 -88 61 -142 88h185c25 -17 48 -35 70 -53l121 38zM312 76
c92 0 143 74 143 191s-51 191 -143 191s-145 -74 -145 -191s53 -191 145 -191z" />
    <glyph glyph-name="dcaron" unicode="&#x10f;" horiz-adv-x="647" 
d="M452 412v348h124v-760h-124v115c-31 -74 -103 -127 -185 -127c-132 0 -226 118 -226 282s95 281 226 281c98 0 161 -67 185 -139zM630 578l14 182h114l-38 -182h-90zM312 76c93 0 144 75 144 194c0 118 -51 193 -144 193s-144 -75 -144 -193c0 -119 51 -194 144 -194z
" />
    <glyph glyph-name="dcroat" unicode="&#x111;" horiz-adv-x="647" 
d="M576 691h61v-86h-61v-605h-124v115c-31 -74 -103 -127 -185 -127c-132 0 -226 118 -226 282s95 281 226 281c98 0 161 -67 185 -139v193h-95v86h95v69h124v-69zM312 76c93 0 144 75 144 194c0 118 -51 193 -144 193s-144 -75 -144 -193c0 -119 51 -194 144 -194z" />
    <glyph glyph-name="e" unicode="e" horiz-adv-x="607" 
d="M568 273c0 -12 -1 -26 -3 -40h-398c10 -104 63 -157 139 -157c69 0 104 31 123 83h127c-34 -115 -125 -171 -251 -171c-165 0 -265 118 -265 282c0 165 103 281 265 281c159 0 263 -110 263 -278zM305 463c-73 0 -124 -46 -137 -143h272c-6 86 -58 143 -135 143z" />
    <glyph glyph-name="eacute" unicode="&#xe9;" horiz-adv-x="607" 
d="M351 760h170l-168 -154h-116zM568 273c0 -12 -1 -26 -3 -40h-398c10 -104 63 -157 139 -157c69 0 104 31 123 83h127c-34 -115 -125 -171 -251 -171c-165 0 -265 118 -265 282c0 165 103 281 265 281c159 0 263 -110 263 -278zM305 463c-73 0 -124 -46 -137 -143h272
c-6 86 -58 143 -135 143z" />
    <glyph glyph-name="ebreve" unicode="&#x115;" horiz-adv-x="607" 
d="M305 602c-106 0 -171 71 -171 158h94c0 -52 28 -78 77 -78c48 0 76 26 76 78h95c0 -87 -65 -158 -171 -158zM568 273c0 -12 -1 -26 -3 -40h-398c10 -104 63 -157 139 -157c69 0 104 31 123 83h127c-34 -115 -125 -171 -251 -171c-165 0 -265 118 -265 282
c0 165 103 281 265 281c159 0 263 -110 263 -278zM305 463c-73 0 -124 -46 -137 -143h272c-6 86 -58 143 -135 143z" />
    <glyph glyph-name="ecaron" unicode="&#x11b;" horiz-adv-x="607" 
d="M513 760l-128 -154h-161l-127 154h112l96 -98l96 98h112zM568 273c0 -12 -1 -26 -3 -40h-398c10 -104 63 -157 139 -157c69 0 104 31 123 83h127c-34 -115 -125 -171 -251 -171c-165 0 -265 118 -265 282c0 165 103 281 265 281c159 0 263 -110 263 -278zM305 463
c-73 0 -124 -46 -137 -143h272c-6 86 -58 143 -135 143z" />
    <glyph glyph-name="ecircumflex" unicode="&#xea;" horiz-adv-x="607" 
d="M401 606l-96 99l-96 -99h-112l127 154h161l128 -154h-112zM568 273c0 -12 -1 -26 -3 -40h-398c10 -104 63 -157 139 -157c69 0 104 31 123 83h127c-34 -115 -125 -171 -251 -171c-165 0 -265 118 -265 282c0 165 103 281 265 281c159 0 263 -110 263 -278zM305 463
c-73 0 -124 -46 -137 -143h272c-6 86 -58 143 -135 143z" />
    <glyph glyph-name="edieresis" unicode="&#xeb;" horiz-adv-x="607" 
d="M128 760h131v-138h-131v138zM349 760h132v-138h-132v138zM568 273c0 -12 -1 -26 -3 -40h-398c10 -104 63 -157 139 -157c69 0 104 31 123 83h127c-34 -115 -125 -171 -251 -171c-165 0 -265 118 -265 282c0 165 103 281 265 281c159 0 263 -110 263 -278zM305 463
c-73 0 -124 -46 -137 -143h272c-6 86 -58 143 -135 143z" />
    <glyph glyph-name="edotaccent" unicode="&#x117;" horiz-adv-x="607" 
d="M239 760h131v-138h-131v138zM568 273c0 -12 -1 -26 -3 -40h-398c10 -104 63 -157 139 -157c69 0 104 31 123 83h127c-34 -115 -125 -171 -251 -171c-165 0 -265 118 -265 282c0 165 103 281 265 281c159 0 263 -110 263 -278zM305 463c-73 0 -124 -46 -137 -143h272
c-6 86 -58 143 -135 143z" />
    <glyph glyph-name="uni1EB9" unicode="&#x1eb9;" horiz-adv-x="607" 
d="M568 273c0 -12 -1 -26 -3 -40h-398c10 -104 63 -157 139 -157c69 0 104 31 123 83h127c-34 -115 -125 -171 -251 -171c-165 0 -265 118 -265 282c0 165 103 281 265 281c159 0 263 -110 263 -278zM305 463c-73 0 -124 -46 -137 -143h272c-6 86 -58 143 -135 143z
M372 -199h-131v138h131v-138z" />
    <glyph glyph-name="egrave" unicode="&#xe8;" horiz-adv-x="607" 
d="M259 760l114 -154h-116l-168 154h170zM568 273c0 -12 -1 -26 -3 -40h-398c10 -104 63 -157 139 -157c69 0 104 31 123 83h127c-34 -115 -125 -171 -251 -171c-165 0 -265 118 -265 282c0 165 103 281 265 281c159 0 263 -110 263 -278zM305 463c-73 0 -124 -46 -137 -143
h272c-6 86 -58 143 -135 143z" />
    <glyph glyph-name="emacron" unicode="&#x113;" horiz-adv-x="607" 
d="M123 726h364v-91h-364v91zM568 273c0 -12 -1 -26 -3 -40h-398c10 -104 63 -157 139 -157c69 0 104 31 123 83h127c-34 -115 -125 -171 -251 -171c-165 0 -265 118 -265 282c0 165 103 281 265 281c159 0 263 -110 263 -278zM305 463c-73 0 -124 -46 -137 -143h272
c-6 86 -58 143 -135 143z" />
    <glyph glyph-name="eogonek" unicode="&#x119;" horiz-adv-x="607" 
d="M568 273c0 -12 -1 -26 -3 -40h-398c10 -104 63 -157 139 -157c69 0 104 31 123 83h127c-15 -52 -43 -93 -80 -121c-60 -49 -79 -81 -79 -114c0 -31 23 -42 58 -42h30v-83h-44c-93 0 -151 31 -151 94c0 36 17 67 51 97c-12 -1 -24 -2 -36 -2c-165 0 -265 118 -265 282
c0 165 103 281 265 281c159 0 263 -110 263 -278zM305 463c-73 0 -124 -46 -137 -143h272c-6 86 -58 143 -135 143z" />
    <glyph glyph-name="uni1EBD" unicode="&#x1ebd;" horiz-adv-x="607" 
d="M239 665c-34 0 -53 -18 -60 -41h-41c2 82 43 124 98 124c29 0 57 -13 75 -22s39 -16 59 -16c34 0 53 17 59 41h42c-2 -82 -43 -124 -98 -124c-29 0 -57 12 -76 22c-18 8 -39 16 -58 16zM568 273c0 -12 -1 -26 -3 -40h-398c10 -104 63 -157 139 -157c69 0 104 31 123 83
h127c-34 -115 -125 -171 -251 -171c-165 0 -265 118 -265 282c0 165 103 281 265 281c159 0 263 -110 263 -278zM305 463c-73 0 -124 -46 -137 -143h272c-6 86 -58 143 -135 143z" />
    <glyph glyph-name="uni0259" unicode="&#x259;" horiz-adv-x="607" 
d="M302 551c165 0 265 -118 265 -282c0 -165 -103 -281 -265 -281c-159 0 -263 110 -263 278c0 12 1 26 3 40h398c-10 104 -63 157 -139 157c-69 0 -104 -31 -123 -83h-127c34 115 125 171 251 171zM302 76c73 0 124 47 137 143h-272c6 -86 58 -143 135 -143z" />
    <glyph glyph-name="f" unicode="f" horiz-adv-x="391" 
d="M377 669h-57c-47 0 -73 -15 -73 -70v-60h130v-92h-130v-447h-125v447h-105v92h105v65c0 106 75 156 176 156h79v-91z" />
    <glyph glyph-name="g" unicode="g" horiz-adv-x="647" 
d="M454 415v124h124v-535c0 -153 -130 -212 -255 -212c-129 0 -240 59 -254 179h126c11 -60 64 -91 128 -91c73 0 131 39 131 121v126c-30 -73 -103 -123 -185 -123c-132 0 -226 109 -226 274c0 164 95 273 226 273c98 0 161 -65 185 -136zM314 92c93 0 145 69 145 186
c0 116 -52 185 -145 185c-92 0 -143 -69 -143 -185c0 -117 51 -186 143 -186z" />
    <glyph glyph-name="gbreve" unicode="&#x11f;" horiz-adv-x="647" 
d="M316 602c-106 0 -171 71 -171 158h94c0 -52 28 -78 77 -78c48 0 76 26 76 78h95c0 -87 -65 -158 -171 -158zM454 415v124h124v-535c0 -153 -130 -212 -255 -212c-129 0 -240 59 -254 179h126c11 -60 64 -91 128 -91c73 0 131 39 131 121v126c-30 -73 -103 -123 -185 -123
c-132 0 -226 109 -226 274c0 164 95 273 226 273c98 0 161 -65 185 -136zM314 92c93 0 145 69 145 186c0 116 -52 185 -145 185c-92 0 -143 -69 -143 -185c0 -117 51 -186 143 -186z" />
    <glyph glyph-name="gcaron" unicode="&#x1e7;" horiz-adv-x="647" 
d="M524 760l-128 -154h-161l-127 154h112l96 -98l96 98h112zM454 415v124h124v-535c0 -153 -130 -212 -255 -212c-129 0 -240 59 -254 179h126c11 -60 64 -91 128 -91c73 0 131 39 131 121v126c-30 -73 -103 -123 -185 -123c-132 0 -226 109 -226 274c0 164 95 273 226 273
c98 0 161 -65 185 -136zM314 92c93 0 145 69 145 186c0 116 -52 185 -145 185c-92 0 -143 -69 -143 -185c0 -117 51 -186 143 -186z" />
    <glyph glyph-name="gcircumflex" unicode="&#x11d;" horiz-adv-x="647" 
d="M412 606l-96 99l-96 -99h-112l127 154h161l128 -154h-112zM454 415v124h124v-535c0 -153 -130 -212 -255 -212c-129 0 -240 59 -254 179h126c11 -60 64 -91 128 -91c73 0 131 39 131 121v126c-30 -73 -103 -123 -185 -123c-132 0 -226 109 -226 274c0 164 95 273 226 273
c98 0 161 -65 185 -136zM314 92c93 0 145 69 145 186c0 116 -52 185 -145 185c-92 0 -143 -69 -143 -185c0 -117 51 -186 143 -186z" />
    <glyph glyph-name="uni0123" unicode="&#x123;" horiz-adv-x="647" 
d="M339 761h42v-138h-131v149l61 90h79zM454 415v124h124v-535c0 -153 -130 -212 -255 -212c-129 0 -240 59 -254 179h126c11 -60 64 -91 128 -91c73 0 131 39 131 121v126c-30 -73 -103 -123 -185 -123c-132 0 -226 109 -226 274c0 164 95 273 226 273
c98 0 161 -65 185 -136zM314 92c93 0 145 69 145 186c0 116 -52 185 -145 185c-92 0 -143 -69 -143 -185c0 -117 51 -186 143 -186z" />
    <glyph glyph-name="gdotaccent" unicode="&#x121;" horiz-adv-x="647" 
d="M250 760h131v-138h-131v138zM454 415v124h124v-535c0 -153 -130 -212 -255 -212c-129 0 -240 59 -254 179h126c11 -60 64 -91 128 -91c73 0 131 39 131 121v126c-30 -73 -103 -123 -185 -123c-132 0 -226 109 -226 274c0 164 95 273 226 273c98 0 161 -65 185 -136z
M314 92c93 0 145 69 145 186c0 116 -52 185 -145 185c-92 0 -143 -69 -143 -185c0 -117 51 -186 143 -186z" />
    <glyph glyph-name="h" unicode="h" horiz-adv-x="615" 
d="M366 551c124 0 183 -92 183 -212v-2v-337h-125v313v2c0 102 -43 147 -114 147c-70 0 -114 -46 -114 -149v-313h-125v760h124v-331c25 66 78 122 171 122z" />
    <glyph glyph-name="hbar" unicode="&#x127;" horiz-adv-x="615" 
d="M366 551c124 0 183 -92 183 -212v-2v-337h-125v313v2c0 102 -43 147 -114 147c-70 0 -114 -46 -114 -149v-313h-125v605h-60v86h60v69h124v-69h95v-86h-95v-176c25 66 78 122 171 122z" />
    <glyph glyph-name="hcircumflex" unicode="&#x125;" horiz-adv-x="615" 
d="M343 820h-117l-93 82l-93 -82h-117l126 138h168zM366 551c124 0 183 -92 183 -212v-2v-337h-125v313v2c0 102 -43 147 -114 147c-70 0 -114 -46 -114 -149v-313h-125v760h124v-331c25 66 78 122 171 122z" />
    <glyph glyph-name="i" unicode="i" horiz-adv-x="268" 
d="M199 622h-131v138h131v-138zM196 0h-125v539h125v-539z" />
    <glyph glyph-name="dotlessi" unicode="&#x131;" horiz-adv-x="268" 
d="M196 0h-125v539h125v-539z" />
    <glyph glyph-name="iacute" unicode="&#xed;" horiz-adv-x="268" 
d="M196 606h-116l114 154h170zM196 0h-125v539h125v-539z" />
    <glyph glyph-name="ibreve" unicode="&#x12d;" horiz-adv-x="268" 
d="M134 602c-106 0 -171 71 -171 158h94c0 -52 28 -78 77 -78c48 0 76 26 76 78h95c0 -87 -65 -158 -171 -158zM196 0h-125v539h125v-539z" />
    <glyph glyph-name="icircumflex" unicode="&#xee;" horiz-adv-x="268" 
d="M53 760h161l128 -154h-112l-96 99l-96 -99h-112zM196 0h-125v539h125v-539z" />
    <glyph glyph-name="idieresis" unicode="&#xef;" horiz-adv-x="268" 
d="M88 622h-131v138h131v-138zM310 622h-132v138h132v-138zM196 0h-125v539h125v-539z" />
    <glyph glyph-name="i.loclTRK" horiz-adv-x="268" 
d="M199 622h-131v138h131v-138zM196 0h-125v539h125v-539z" />
    <glyph glyph-name="uni1ECB" unicode="&#x1ecb;" horiz-adv-x="268" 
d="M199 622h-131v138h131v-138zM196 0h-125v539h125v-539zM200 -199h-132v138h132v-138z" />
    <glyph glyph-name="igrave" unicode="&#xec;" horiz-adv-x="268" 
d="M188 606h-116l-168 154h170zM196 0h-125v539h125v-539z" />
    <glyph glyph-name="imacron" unicode="&#x12b;" horiz-adv-x="268" 
d="M316 635h-364v91h364v-91zM196 0h-125v539h125v-539z" />
    <glyph glyph-name="iogonek" unicode="&#x12f;" horiz-adv-x="268" 
d="M68 622v138h131v-138h-131zM71 0v539h125v-539c-57 -22 -87 -49 -87 -80c0 -26 23 -38 58 -38h29v-83h-43c-93 0 -152 31 -152 94c0 47 31 80 70 107z" />
    <glyph glyph-name="itilde" unicode="&#x129;" horiz-adv-x="268" 
d="M8 624h-41c2 82 43 124 98 124c29 0 57 -13 75 -22s39 -16 59 -16c34 0 53 17 59 41h42c-2 -82 -43 -124 -98 -124c-29 0 -57 12 -76 22c-18 8 -39 16 -58 16c-34 0 -53 -18 -60 -41zM196 0h-125v539h125v-539z" />
    <glyph glyph-name="j" unicode="j" horiz-adv-x="268" 
d="M199 622h-131v138h131v-138zM20 -196h-48v93h26c47 0 73 15 73 69v573h125v-579c0 -106 -75 -156 -176 -156z" />
    <glyph glyph-name="uni0237" unicode="&#x237;" horiz-adv-x="268" 
d="M20 -196h-48v93h26c47 0 73 15 73 69v573h125v-579c0 -106 -75 -156 -176 -156z" />
    <glyph glyph-name="uni006A0301" horiz-adv-x="268" 
d="M196 606h-116l114 154h170zM20 -196h-48v93h26c47 0 73 15 73 69v573h125v-579c0 -106 -75 -156 -176 -156z" />
    <glyph glyph-name="jcircumflex" unicode="&#x135;" horiz-adv-x="268" 
d="M53 760h161l128 -154h-112l-96 99l-96 -99h-112zM71 -34v573h125v-579c0 -106 -75 -156 -176 -156h-48v93h26c47 0 73 15 73 69z" />
    <glyph glyph-name="k" unicode="k" horiz-adv-x="574" 
d="M333 300l245 -300h-152l-230 283v-283h-125v760h125v-446l221 225h151z" />
    <glyph glyph-name="uni0137" unicode="&#x137;" horiz-adv-x="574" 
d="M568 539l-235 -239l245 -300h-152l-230 283v-283h-125v760h125v-446l221 225h151zM279 -199h-42v138h131v-149l-62 -90h-78z" />
    <glyph glyph-name="kgreenlandic" unicode="&#x138;" horiz-adv-x="580" 
d="M327 289l256 -289h-151l-236 269v-269h-125v539h125v-231l225 231h151z" />
    <glyph glyph-name="l" unicode="l" horiz-adv-x="268" 
d="M196 0h-125v760h125v-760z" />
    <glyph glyph-name="lacute" unicode="&#x13a;" horiz-adv-x="268" 
d="M203 820h-123l121 138h178zM196 0h-125v760h125v-760z" />
    <glyph glyph-name="lcaron" unicode="&#x13e;" horiz-adv-x="268" 
d="M196 0h-125v760h125v-760zM340 578h-90l14 182h114z" />
    <glyph glyph-name="uni013C" unicode="&#x13c;" horiz-adv-x="268" 
d="M71 760h125v-760h-125v760zM68 -199v138h131v-149l-62 -90h-78l51 101h-42z" />
    <glyph glyph-name="ldot" unicode="&#x140;" horiz-adv-x="380" 
d="M196 0h-125v760h125v-760zM388 327h-129v136h129v-136z" />
    <glyph glyph-name="lslash" unicode="&#x142;" horiz-adv-x="341" 
d="M233 478l77 49v-110l-77 -49v-368h-125v289l-72 -46v110l72 46v361h125v-282z" />
    <glyph glyph-name="m" unicode="m" horiz-adv-x="938" 
d="M696 551c120 0 176 -89 176 -212v-2v-337h-125v313v2c0 101 -36 147 -106 147c-71 0 -107 -46 -107 -149v-313h-125v313v2c0 101 -36 147 -106 147c-71 0 -107 -46 -107 -149v-313h-125v539h124v-111c24 65 73 123 164 123c93 0 147 -64 167 -133c22 66 74 133 170 133z
" />
    <glyph glyph-name="n" unicode="n" horiz-adv-x="615" 
d="M366 551c124 0 183 -92 183 -212v-2v-337h-125v313v2c0 102 -43 147 -114 147c-70 0 -114 -46 -114 -149v-313h-125v539h124v-110c25 66 78 122 171 122z" />
    <glyph glyph-name="nacute" unicode="&#x144;" horiz-adv-x="615" 
d="M366 760h170l-168 -154h-116zM366 551c124 0 183 -92 183 -212v-2v-337h-125v313v2c0 102 -43 147 -114 147c-70 0 -114 -46 -114 -149v-313h-125v539h124v-110c25 66 78 122 171 122z" />
    <glyph glyph-name="ncaron" unicode="&#x148;" horiz-adv-x="615" 
d="M528 760l-128 -154h-161l-127 154h112l96 -98l96 98h112zM366 551c124 0 183 -92 183 -212v-2v-337h-125v313v2c0 102 -43 147 -114 147c-70 0 -114 -46 -114 -149v-313h-125v539h124v-110c25 66 78 122 171 122z" />
    <glyph glyph-name="uni0146" unicode="&#x146;" horiz-adv-x="615" 
d="M366 551c124 0 183 -92 183 -212v-2v-337h-125v313v2c0 102 -43 147 -114 147c-70 0 -114 -46 -114 -149v-313h-125v539h124v-110c25 66 78 122 171 122zM287 -199h-42v138h131v-149l-62 -90h-78z" />
    <glyph glyph-name="eng" unicode="&#x14b;" horiz-adv-x="615" 
d="M366 551c124 0 183 -92 183 -212v-2v-376c0 -108 -75 -157 -176 -157h-48v93h26c47 0 73 15 73 69v347v2c0 102 -43 147 -114 147c-70 0 -114 -46 -114 -149v-313h-125v539h124v-110c25 66 78 122 171 122z" />
    <glyph glyph-name="uni0272" unicode="&#x272;" horiz-adv-x="615" 
d="M366 551c124 0 183 -92 183 -212v-2v-337h-125v313v2c0 102 -43 147 -114 147c-70 0 -114 -46 -114 -149v-352c0 -108 -75 -157 -176 -157h-48v93h26c47 0 73 15 73 69v573h124v-110c25 66 78 122 171 122z" />
    <glyph glyph-name="ntilde" unicode="&#xf1;" horiz-adv-x="615" 
d="M254 665c-34 0 -53 -18 -60 -41h-41c2 82 43 124 98 124c29 0 57 -13 75 -22s39 -16 59 -16c34 0 53 17 59 41h42c-2 -82 -43 -124 -98 -124c-29 0 -57 12 -76 22c-18 8 -39 16 -58 16zM366 551c124 0 183 -92 183 -212v-2v-337h-125v313v2c0 102 -43 147 -114 147
c-70 0 -114 -46 -114 -149v-313h-125v539h124v-110c25 66 78 122 171 122z" />
    <glyph glyph-name="o" unicode="o" horiz-adv-x="622" 
d="M311 -12c-166 0 -271 115 -271 282c0 166 105 281 271 281c167 0 272 -115 272 -281c0 -167 -105 -282 -272 -282zM311 76c93 0 144 75 144 194c0 118 -51 193 -144 193c-92 0 -144 -75 -144 -193c0 -119 52 -194 144 -194z" />
    <glyph glyph-name="oacute" unicode="&#xf3;" horiz-adv-x="622" 
d="M360 606h-116l114 154h170zM311 -12c-166 0 -271 115 -271 282c0 166 105 281 271 281c167 0 272 -115 272 -281c0 -167 -105 -282 -272 -282zM311 76c93 0 144 75 144 194c0 118 -51 193 -144 193c-92 0 -144 -75 -144 -193c0 -119 52 -194 144 -194z" />
    <glyph glyph-name="obreve" unicode="&#x14f;" horiz-adv-x="622" 
d="M312 602c-106 0 -171 71 -171 158h94c0 -52 28 -78 77 -78c48 0 76 26 76 78h95c0 -87 -65 -158 -171 -158zM311 -12c-166 0 -271 115 -271 282c0 166 105 281 271 281c167 0 272 -115 272 -281c0 -167 -105 -282 -272 -282zM311 76c93 0 144 75 144 194
c0 118 -51 193 -144 193c-92 0 -144 -75 -144 -193c0 -119 52 -194 144 -194z" />
    <glyph glyph-name="ocircumflex" unicode="&#xf4;" horiz-adv-x="622" 
d="M408 606l-96 99l-96 -99h-112l127 154h161l128 -154h-112zM311 551c167 0 272 -115 272 -281c0 -167 -105 -282 -272 -282c-166 0 -271 115 -271 282c0 166 105 281 271 281zM311 76c93 0 144 75 144 194c0 118 -51 193 -144 193c-92 0 -144 -75 -144 -193
c0 -119 52 -194 144 -194z" />
    <glyph glyph-name="odieresis" unicode="&#xf6;" horiz-adv-x="622" 
d="M266 622h-131v138h131v-138zM488 622h-132v138h132v-138zM311 -12c-166 0 -271 115 -271 282c0 166 105 281 271 281c167 0 272 -115 272 -281c0 -167 -105 -282 -272 -282zM311 76c93 0 144 75 144 194c0 118 -51 193 -144 193c-92 0 -144 -75 -144 -193
c0 -119 52 -194 144 -194z" />
    <glyph glyph-name="uni022F" unicode="&#x22f;" horiz-adv-x="622" 
d="M377 622h-131v138h131v-138zM311 -12c-166 0 -271 115 -271 282c0 166 105 281 271 281c167 0 272 -115 272 -281c0 -167 -105 -282 -272 -282zM311 76c93 0 144 75 144 194c0 118 -51 193 -144 193c-92 0 -144 -75 -144 -193c0 -119 52 -194 144 -194z" />
    <glyph glyph-name="uni1ECD" unicode="&#x1ecd;" horiz-adv-x="622" 
d="M311 -12c-166 0 -271 115 -271 282c0 166 105 281 271 281c167 0 272 -115 272 -281c0 -167 -105 -282 -272 -282zM311 76c93 0 144 75 144 194c0 118 -51 193 -144 193c-92 0 -144 -75 -144 -193c0 -119 52 -194 144 -194zM377 -199h-131v138h131v-138z" />
    <glyph glyph-name="ograve" unicode="&#xf2;" horiz-adv-x="622" 
d="M380 606h-116l-168 154h170zM311 -12c-166 0 -271 115 -271 282c0 166 105 281 271 281c167 0 272 -115 272 -281c0 -167 -105 -282 -272 -282zM311 76c93 0 144 75 144 194c0 118 -51 193 -144 193c-92 0 -144 -75 -144 -193c0 -119 52 -194 144 -194z" />
    <glyph glyph-name="ohungarumlaut" unicode="&#x151;" horiz-adv-x="622" 
d="M267 606h-110l117 154h156zM471 606h-110l117 154h156zM311 -12c-166 0 -271 115 -271 282c0 166 105 281 271 281c167 0 272 -115 272 -281c0 -167 -105 -282 -272 -282zM311 76c93 0 144 75 144 194c0 118 -51 193 -144 193c-92 0 -144 -75 -144 -193
c0 -119 52 -194 144 -194z" />
    <glyph glyph-name="omacron" unicode="&#x14d;" horiz-adv-x="622" 
d="M493 635h-364v91h364v-91zM311 -12c-166 0 -271 115 -271 282c0 166 105 281 271 281c167 0 272 -115 272 -281c0 -167 -105 -282 -272 -282zM311 76c93 0 144 75 144 194c0 118 -51 193 -144 193c-92 0 -144 -75 -144 -193c0 -119 52 -194 144 -194z" />
    <glyph glyph-name="uni01EB" unicode="&#x1eb;" horiz-adv-x="622" 
d="M474 35c-58 -48 -76 -79 -76 -111c0 -31 23 -42 58 -42h30v-83h-44c-93 0 -151 31 -151 94c0 36 17 67 51 96c-10 -1 -20 -1 -31 -1c-166 0 -271 115 -271 282c0 166 105 281 271 281c167 0 272 -115 272 -281c0 -103 -40 -186 -109 -235zM167 270
c0 -119 52 -194 144 -194c93 0 144 75 144 194c0 118 -51 193 -144 193c-92 0 -144 -75 -144 -193z" />
    <glyph glyph-name="oslash" unicode="&#xf8;" horiz-adv-x="622" 
d="M503 539h131l-97 -101c30 -46 46 -103 46 -168c0 -167 -105 -282 -272 -282c-62 0 -116 16 -159 45l-32 -33h-131l97 101c-30 46 -46 104 -46 169c0 166 105 281 271 281c63 0 117 -16 160 -46zM167 270c0 -27 3 -52 8 -75l225 236c-23 21 -53 32 -89 32
c-92 0 -144 -75 -144 -193zM455 270c0 27 -3 51 -8 73l-224 -235c23 -21 52 -32 88 -32c93 0 144 75 144 194z" />
    <glyph glyph-name="oslashacute" unicode="&#x1ff;" horiz-adv-x="622" 
d="M358 760h170l-168 -154h-116zM503 539h131l-97 -101c30 -46 46 -103 46 -168c0 -167 -105 -282 -272 -282c-62 0 -116 16 -159 45l-32 -33h-131l97 101c-30 46 -46 104 -46 169c0 166 105 281 271 281c63 0 117 -16 160 -46zM167 270c0 -27 3 -52 8 -75l225 236
c-23 21 -53 32 -89 32c-92 0 -144 -75 -144 -193zM455 270c0 27 -3 51 -8 73l-224 -235c23 -21 52 -32 88 -32c93 0 144 75 144 194z" />
    <glyph glyph-name="otilde" unicode="&#xf5;" horiz-adv-x="622" 
d="M186 624h-41c2 82 43 124 98 124c29 0 57 -13 75 -22s39 -16 59 -16c34 0 53 17 59 41h42c-2 -82 -43 -124 -98 -124c-29 0 -57 12 -76 22c-18 8 -39 16 -58 16c-34 0 -53 -18 -60 -41zM311 -12c-166 0 -271 115 -271 282c0 166 105 281 271 281c167 0 272 -115 272 -281
c0 -167 -105 -282 -272 -282zM311 76c93 0 144 75 144 194c0 118 -51 193 -144 193c-92 0 -144 -75 -144 -193c0 -119 52 -194 144 -194z" />
    <glyph glyph-name="oe" unicode="&#x153;" horiz-adv-x="1017" 
d="M978 273c0 -12 -1 -26 -3 -40h-398c10 -104 63 -157 139 -157c69 0 104 31 123 83h127c-34 -115 -125 -171 -251 -171c-90 0 -157 42 -199 105c-44 -63 -114 -105 -205 -105c-166 0 -271 115 -271 282c0 166 105 281 271 281c91 0 161 -42 205 -104
c43 62 110 104 199 104c159 0 263 -110 263 -278zM311 76c93 0 144 75 144 194c0 118 -51 193 -144 193c-92 0 -144 -75 -144 -193c0 -119 52 -194 144 -194zM715 463c-73 0 -124 -46 -137 -143h272c-6 86 -58 143 -135 143z" />
    <glyph glyph-name="p" unicode="p" horiz-adv-x="647" 
d="M380 551c131 0 226 -117 226 -281s-94 -282 -226 -282c-82 0 -154 53 -185 127v-311h-124v735h124v-127c25 72 87 139 185 139zM335 76c93 0 144 75 144 194c0 118 -51 193 -144 193c-92 0 -144 -75 -144 -193c0 -119 52 -194 144 -194z" />
    <glyph glyph-name="thorn" unicode="&#xfe;" horiz-adv-x="647" 
d="M380 551c131 0 226 -117 226 -281s-94 -282 -226 -282c-82 0 -154 53 -185 127v-311h-124v956h124v-348c25 72 87 139 185 139zM335 76c93 0 144 75 144 194c0 118 -51 193 -144 193c-92 0 -144 -75 -144 -193c0 -119 52 -194 144 -194z" />
    <glyph glyph-name="q" unicode="q" horiz-adv-x="647" 
d="M452 412v127h124v-735h-124v311c-31 -74 -103 -127 -185 -127c-132 0 -226 118 -226 282s95 281 226 281c98 0 161 -67 185 -139zM312 76c93 0 144 75 144 194c0 118 -51 193 -144 193s-144 -75 -144 -193c0 -119 51 -194 144 -194z" />
    <glyph glyph-name="r" unicode="r" horiz-adv-x="394" 
d="M195 539v-131c21 81 75 143 179 143v-123h-34c-97 0 -144 -32 -144 -126v-302h-125v539h124z" />
    <glyph glyph-name="racute" unicode="&#x155;" horiz-adv-x="394" 
d="M284 760h170l-168 -154h-116zM195 539v-131c21 81 75 143 179 143v-123h-34c-97 0 -144 -32 -144 -126v-302h-125v539h124z" />
    <glyph glyph-name="rcaron" unicode="&#x159;" horiz-adv-x="394" 
d="M446 760l-128 -154h-161l-127 154h112l96 -98l96 98h112zM195 539v-131c21 81 75 143 179 143v-123h-34c-97 0 -144 -32 -144 -126v-302h-125v539h124z" />
    <glyph glyph-name="uni0157" unicode="&#x157;" horiz-adv-x="394" 
d="M195 539v-131c21 81 75 143 179 143v-123h-34c-97 0 -144 -32 -144 -126v-302h-125v539h124zM110 -199h-42v138h131v-149l-62 -90h-78z" />
    <glyph glyph-name="s" unicode="s" horiz-adv-x="550" 
d="M273 -12c-126 0 -223 58 -239 172h126c13 -65 65 -84 116 -84c76 0 116 27 116 69c0 41 -25 61 -103 77l-85 19c-98 21 -158 66 -158 148c0 99 100 162 223 162c114 0 210 -50 233 -150h-126c-14 40 -58 62 -106 62c-54 0 -103 -23 -103 -64c0 -37 33 -50 98 -64l85 -18
c113 -24 162 -74 162 -160c0 -107 -101 -169 -239 -169z" />
    <glyph glyph-name="sacute" unicode="&#x15b;" horiz-adv-x="550" 
d="M315 606h-116l114 154h170zM273 -12c-126 0 -223 58 -239 172h126c13 -65 65 -84 116 -84c76 0 116 27 116 69c0 41 -25 61 -103 77l-85 19c-98 21 -158 66 -158 148c0 99 100 162 223 162c114 0 210 -50 233 -150h-126c-14 40 -58 62 -106 62c-54 0 -103 -23 -103 -64
c0 -37 33 -50 98 -64l85 -18c113 -24 162 -74 162 -160c0 -107 -101 -169 -239 -169z" />
    <glyph glyph-name="scaron" unicode="&#x161;" horiz-adv-x="550" 
d="M475 760l-128 -154h-161l-127 154h112l96 -98l96 98h112zM265 335l85 -18c113 -24 162 -74 162 -160c0 -107 -101 -169 -239 -169c-126 0 -223 58 -239 172h126c13 -65 65 -84 116 -84c76 0 116 27 116 69c0 41 -25 61 -103 77l-85 19c-98 21 -158 66 -158 148
c0 99 100 162 223 162c114 0 210 -50 233 -150h-126c-14 40 -58 62 -106 62c-54 0 -103 -23 -103 -64c0 -37 33 -50 98 -64z" />
    <glyph glyph-name="scedilla" unicode="&#x15f;" horiz-adv-x="550" 
d="M512 157c0 -100 -89 -161 -214 -168v-23c48 -6 80 -37 80 -83c0 -51 -40 -85 -102 -85h-62v63h44c24 0 39 9 39 29s-16 29 -35 29h-33v72c-104 12 -181 69 -195 169h126c13 -65 65 -84 116 -84c76 0 116 27 116 69c0 41 -25 61 -103 77l-85 19c-98 21 -158 66 -158 148
c0 99 100 162 223 162c114 0 210 -50 233 -150h-126c-14 40 -58 62 -106 62c-54 0 -103 -23 -103 -64c0 -37 33 -50 98 -64l85 -18c113 -24 162 -74 162 -160z" />
    <glyph glyph-name="scircumflex" unicode="&#x15d;" horiz-adv-x="550" 
d="M363 606l-96 99l-96 -99h-112l127 154h161l128 -154h-112zM265 335l85 -18c113 -24 162 -74 162 -160c0 -107 -101 -169 -239 -169c-126 0 -223 58 -239 172h126c13 -65 65 -84 116 -84c76 0 116 27 116 69c0 41 -25 61 -103 77l-85 19c-98 21 -158 66 -158 148
c0 99 100 162 223 162c114 0 210 -50 233 -150h-126c-14 40 -58 62 -106 62c-54 0 -103 -23 -103 -64c0 -37 33 -50 98 -64z" />
    <glyph glyph-name="uni0219" unicode="&#x219;" horiz-adv-x="550" 
d="M265 335l85 -18c113 -24 162 -74 162 -160c0 -107 -101 -169 -239 -169c-126 0 -223 58 -239 172h126c13 -65 65 -84 116 -84c76 0 116 27 116 69c0 41 -25 61 -103 77l-85 19c-98 21 -158 66 -158 148c0 99 100 162 223 162c114 0 210 -50 233 -150h-126
c-14 40 -58 62 -106 62c-54 0 -103 -23 -103 -64c0 -37 33 -50 98 -64zM260 -199h-42v138h131v-149l-62 -90h-78z" />
    <glyph glyph-name="germandbls" unicode="&#xdf;" horiz-adv-x="637" 
d="M399 416c99 -10 199 -72 199 -201c0 -140 -80 -227 -216 -227c-44 0 -84 7 -121 21v88c28 -13 54 -21 85 -21c86 0 125 61 125 149c0 86 -57 147 -163 147h-12v87h11c90 0 128 47 128 119c0 71 -50 106 -111 106c-94 0 -128 -66 -128 -155v-529h-125v516
c0 166 98 256 253 256c143 0 238 -78 238 -190c0 -98 -65 -144 -163 -166z" />
    <glyph glyph-name="t" unicode="t" horiz-adv-x="402" 
d="M318 93h57v-93h-78c-100 0 -177 49 -177 154v2v291h-106v92h106v128h125v-128h128v-92h-128v-285v-2c0 -52 27 -67 73 -67z" />
    <glyph glyph-name="tbar" unicode="&#x167;" horiz-adv-x="402" 
d="M318 93h57v-93h-78c-100 0 -177 49 -177 154v2v114h-75v86h75v91h-106v92h106v128h125v-128h128v-92h-128v-91h79v-86h-79v-108v-2c0 -52 27 -67 73 -67z" />
    <glyph glyph-name="tcaron" unicode="&#x165;" horiz-adv-x="402" 
d="M299 581l14 179h114l-38 -179h-90zM245 160c0 -52 27 -67 73 -67h57v-93h-78c-100 0 -177 49 -177 154v2v291h-106v92h106v128h125v-128h128v-92h-128v-285v-2z" />
    <glyph glyph-name="uni0163" unicode="&#x163;" horiz-adv-x="402" 
d="M318 93h57v-93h-78c-100 0 -177 49 -177 154v2v291h-106v92h106v128h125v-128h128v-92h-128v-285v-2c0 -52 27 -67 73 -67zM207 -199h-42v138h131v-149l-61 -90h-79z" />
    <glyph glyph-name="uni021B" unicode="&#x21b;" horiz-adv-x="402" 
d="M318 93h57v-93h-78c-100 0 -177 49 -177 154v2v291h-106v92h106v128h125v-128h128v-92h-128v-285v-2c0 -52 27 -67 73 -67zM207 -199h-42v138h131v-149l-62 -90h-78z" />
    <glyph glyph-name="u" unicode="u" horiz-adv-x="611" 
d="M414 226v313h125v-539h-124v107c-24 -64 -75 -119 -168 -119c-123 0 -181 93 -181 213v2v336h125v-313v-2c0 -101 41 -146 112 -146s111 47 111 148z" />
    <glyph glyph-name="uacute" unicode="&#xfa;" horiz-adv-x="611" 
d="M348 760h170l-168 -154h-116zM414 226v313h125v-539h-124v107c-24 -64 -75 -119 -168 -119c-123 0 -181 93 -181 213v2v336h125v-313v-2c0 -101 41 -146 112 -146s111 47 111 148z" />
    <glyph glyph-name="ubreve" unicode="&#x16d;" horiz-adv-x="611" 
d="M302 602c-106 0 -171 71 -171 158h94c0 -52 28 -78 77 -78c48 0 76 26 76 78h95c0 -87 -65 -158 -171 -158zM414 226v313h125v-539h-124v107c-24 -64 -75 -119 -168 -119c-123 0 -181 93 -181 213v2v336h125v-313v-2c0 -101 41 -146 112 -146s111 47 111 148z" />
    <glyph glyph-name="ucircumflex" unicode="&#xfb;" horiz-adv-x="611" 
d="M398 606l-96 99l-96 -99h-112l127 154h161l128 -154h-112zM414 226v313h125v-539h-124v107c-24 -64 -75 -119 -168 -119c-123 0 -181 93 -181 213v2v336h125v-313v-2c0 -101 41 -146 112 -146s111 47 111 148z" />
    <glyph glyph-name="udieresis" unicode="&#xfc;" horiz-adv-x="611" 
d="M125 760h131v-138h-131v138zM346 760h132v-138h-132v138zM414 226v313h125v-539h-124v107c-24 -64 -75 -119 -168 -119c-123 0 -181 93 -181 213v2v336h125v-313v-2c0 -101 41 -146 112 -146s111 47 111 148z" />
    <glyph glyph-name="uni1EE5" unicode="&#x1ee5;" horiz-adv-x="611" 
d="M414 226v313h125v-539h-124v107c-24 -64 -75 -119 -168 -119c-123 0 -181 93 -181 213v2v336h125v-313v-2c0 -101 41 -146 112 -146s111 47 111 148zM373 -199h-131v138h131v-138z" />
    <glyph glyph-name="ugrave" unicode="&#xf9;" horiz-adv-x="611" 
d="M256 760l114 -154h-116l-168 154h170zM414 226v313h125v-539h-124v107c-24 -64 -75 -119 -168 -119c-123 0 -181 93 -181 213v2v336h125v-313v-2c0 -101 41 -146 112 -146s111 47 111 148z" />
    <glyph glyph-name="uhungarumlaut" unicode="&#x171;" horiz-adv-x="611" 
d="M265 760h156l-163 -154h-110zM625 760l-163 -154h-110l117 154h156zM414 226v313h125v-539h-124v107c-24 -64 -75 -119 -168 -119c-123 0 -181 93 -181 213v2v336h125v-313v-2c0 -101 41 -146 112 -146s111 47 111 148z" />
    <glyph glyph-name="umacron" unicode="&#x16b;" horiz-adv-x="611" 
d="M120 726h364v-91h-364v91zM414 226v313h125v-539h-124v107c-24 -64 -75 -119 -168 -119c-123 0 -181 93 -181 213v2v336h125v-313v-2c0 -101 41 -146 112 -146s111 47 111 148z" />
    <glyph glyph-name="uogonek" unicode="&#x173;" horiz-adv-x="611" 
d="M539 539v-539c-57 -22 -87 -49 -87 -80c0 -26 23 -38 58 -38h29v-83h-43c-93 0 -152 31 -152 94c0 47 30 80 71 107v107c-24 -64 -75 -119 -168 -119c-123 0 -181 93 -181 213v2v336h125v-313v-2c0 -101 41 -146 112 -146s111 47 111 148v313h125z" />
    <glyph glyph-name="uring" unicode="&#x16f;" horiz-adv-x="611" 
d="M302 602c-65 0 -117 54 -117 119s52 116 117 116s118 -51 118 -116s-53 -119 -118 -119zM302 766c-25 0 -46 -20 -46 -45s21 -47 46 -47s46 22 46 47s-21 45 -46 45zM414 226v313h125v-539h-124v107c-24 -64 -75 -119 -168 -119c-123 0 -181 93 -181 213v2v336h125v-313
v-2c0 -101 41 -146 112 -146s111 47 111 148z" />
    <glyph glyph-name="utilde" unicode="&#x169;" horiz-adv-x="611" 
d="M236 665c-34 0 -53 -18 -60 -41h-41c2 82 43 124 98 124c29 0 57 -13 75 -22s39 -16 59 -16c34 0 53 17 59 41h42c-2 -82 -43 -124 -98 -124c-29 0 -57 12 -76 22c-18 8 -39 16 -58 16zM414 226v313h125v-539h-124v107c-24 -64 -75 -119 -168 -119
c-123 0 -181 93 -181 213v2v336h125v-313v-2c0 -101 41 -146 112 -146s111 47 111 148z" />
    <glyph glyph-name="v" unicode="v" horiz-adv-x="592" 
d="M296 15l158 524h126l-167 -539h-234l-167 539h125z" />
    <glyph glyph-name="w" unicode="w" horiz-adv-x="904" 
d="M653 13l112 526h117l-116 -539h-226l-88 527l-88 -527h-226l-116 539h117l112 -526l90 526h222z" />
    <glyph glyph-name="wacute" unicode="&#x1e83;" horiz-adv-x="904" 
d="M508 760h171l-169 -154h-116zM653 13l112 526h117l-116 -539h-226l-88 527l-88 -527h-226l-116 539h117l112 -526l90 526h222z" />
    <glyph glyph-name="wcircumflex" unicode="&#x175;" horiz-adv-x="904" 
d="M548 606l-96 99l-96 -99h-112l127 154h161l128 -154h-112zM653 13l112 526h117l-116 -539h-226l-88 527l-88 -527h-226l-116 539h117l112 -526l90 526h222z" />
    <glyph glyph-name="wdieresis" unicode="&#x1e85;" horiz-adv-x="904" 
d="M275 760h131v-138h-131v138zM496 760h132v-138h-132v138zM653 13l112 526h117l-116 -539h-226l-88 527l-88 -527h-226l-116 539h117l112 -526l90 526h222z" />
    <glyph glyph-name="wgrave" unicode="&#x1e81;" horiz-adv-x="904" 
d="M393 760l114 -154h-116l-169 154h171zM653 13l112 526h117l-116 -539h-226l-88 527l-88 -527h-226l-116 539h117l112 -526l90 526h222z" />
    <glyph glyph-name="x" unicode="x" horiz-adv-x="568" 
d="M361 288l205 -288h-134l-148 210l-148 -210h-134l205 288l-186 251h134l129 -177l129 177h134z" />
    <glyph glyph-name="y" unicode="y" horiz-adv-x="580" 
d="M294 76l144 463h131l-231 -735h-129l79 254h-111l-173 481h126z" />
    <glyph glyph-name="yacute" unicode="&#xfd;" horiz-adv-x="580" 
d="M330 760h170l-168 -154h-116zM294 76l144 463h131l-231 -735h-129l79 254h-111l-173 481h126z" />
    <glyph glyph-name="ycircumflex" unicode="&#x177;" horiz-adv-x="580" 
d="M380 606l-96 99l-96 -99h-112l127 154h161l128 -154h-112zM294 76l144 463h131l-231 -735h-129l79 254h-111l-173 481h126z" />
    <glyph glyph-name="ydieresis" unicode="&#xff;" horiz-adv-x="580" 
d="M107 760h131v-138h-131v138zM328 760h132v-138h-132v138zM294 76l144 463h131l-231 -735h-129l79 254h-111l-173 481h126z" />
    <glyph glyph-name="ygrave" unicode="&#x1ef3;" horiz-adv-x="580" 
d="M238 760l114 -154h-116l-168 154h170zM294 76l144 463h131l-231 -735h-129l79 254h-111l-173 481h126z" />
    <glyph glyph-name="uni0233" unicode="&#x233;" horiz-adv-x="580" 
d="M102 726h364v-91h-364v91zM294 76l144 463h131l-231 -735h-129l79 254h-111l-173 481h126z" />
    <glyph glyph-name="uni1EF9" unicode="&#x1ef9;" horiz-adv-x="580" 
d="M218 665c-34 0 -53 -18 -60 -41h-41c2 82 43 124 98 124c29 0 57 -13 75 -22s39 -16 59 -16c34 0 53 17 59 41h42c-2 -82 -43 -124 -98 -124c-29 0 -57 12 -76 22c-18 8 -39 16 -58 16zM294 76l144 463h131l-231 -735h-129l79 254h-111l-173 481h126z" />
    <glyph glyph-name="z" unicode="z" horiz-adv-x="534" 
d="M484 418l-307 -325h326v-93h-462v122l307 325h-301v92h437v-121z" />
    <glyph glyph-name="zacute" unicode="&#x17a;" horiz-adv-x="534" 
d="M311 760h170l-168 -154h-116zM484 418l-307 -325h326v-93h-462v122l307 325h-301v92h437v-121z" />
    <glyph glyph-name="zcaron" unicode="&#x17e;" horiz-adv-x="534" 
d="M473 760l-128 -154h-161l-127 154h112l96 -98l96 98h112zM484 418l-307 -325h326v-93h-462v122l307 325h-301v92h437v-121z" />
    <glyph glyph-name="zdotaccent" unicode="&#x17c;" horiz-adv-x="534" 
d="M199 760h131v-138h-131v138zM484 418l-307 -325h326v-93h-462v122l307 325h-301v92h437v-121z" />
    <glyph glyph-name="uni01B6" unicode="&#x1b6;" horiz-adv-x="545" 
d="M309 229l-129 -136h327v-93h-463v122l113 120h-95v85h175l114 120h-301v92h437v-121l-98 -104h111v-85h-191z" />
    <glyph glyph-name="germandbls.calt" horiz-adv-x="775" 
d="M664 625l-165 -173c130 -12 237 -86 237 -225c0 -152 -111 -239 -265 -239c-58 0 -95 9 -135 23v101c31 -13 64 -23 115 -23c90 0 152 53 152 138c0 96 -89 139 -198 139h-29v113l162 170h-322v-649h-129v760h577v-135z" />
    <glyph glyph-name="a.ss04" horiz-adv-x="647" 
d="M452 412v127h124v-539h-124v115c-31 -74 -103 -127 -185 -127c-132 0 -226 118 -226 282s95 281 226 281c98 0 161 -67 185 -139zM312 76c93 0 144 75 144 194c0 118 -51 193 -144 193s-144 -75 -144 -193c0 -119 51 -194 144 -194z" />
    <glyph glyph-name="aacute.ss04" horiz-adv-x="647" 
d="M351 760h170l-168 -154h-116zM452 412v127h124v-539h-124v115c-31 -74 -103 -127 -185 -127c-132 0 -226 118 -226 282s95 281 226 281c98 0 161 -67 185 -139zM312 76c93 0 144 75 144 194c0 118 -51 193 -144 193s-144 -75 -144 -193c0 -119 51 -194 144 -194z" />
    <glyph glyph-name="abreve.ss04" horiz-adv-x="647" 
d="M306 602c-106 0 -171 71 -171 158h94c0 -52 28 -78 77 -78c48 0 76 26 76 78h95c0 -87 -65 -158 -171 -158zM452 412v127h124v-539h-124v115c-31 -74 -103 -127 -185 -127c-132 0 -226 118 -226 282s95 281 226 281c98 0 161 -67 185 -139zM312 76c93 0 144 75 144 194
c0 118 -51 193 -144 193s-144 -75 -144 -193c0 -119 51 -194 144 -194z" />
    <glyph glyph-name="acircumflex.ss04" horiz-adv-x="647" 
d="M401 606l-96 99l-96 -99h-112l127 154h161l128 -154h-112zM452 412v127h124v-539h-124v115c-31 -74 -103 -127 -185 -127c-132 0 -226 118 -226 282s95 281 226 281c98 0 161 -67 185 -139zM312 76c93 0 144 75 144 194c0 118 -51 193 -144 193s-144 -75 -144 -193
c0 -119 51 -194 144 -194z" />
    <glyph glyph-name="adieresis.ss04" horiz-adv-x="647" 
d="M129 760h131v-138h-131v138zM350 760h132v-138h-132v138zM452 412v127h124v-539h-124v115c-31 -74 -103 -127 -185 -127c-132 0 -226 118 -226 282s95 281 226 281c98 0 161 -67 185 -139zM312 76c93 0 144 75 144 194c0 118 -51 193 -144 193s-144 -75 -144 -193
c0 -119 51 -194 144 -194z" />
    <glyph glyph-name="uni1EA1.ss04" horiz-adv-x="647" 
d="M452 412v127h124v-539h-124v115c-31 -74 -103 -127 -185 -127c-132 0 -226 118 -226 282s95 281 226 281c98 0 161 -67 185 -139zM312 76c93 0 144 75 144 194c0 118 -51 193 -144 193s-144 -75 -144 -193c0 -119 51 -194 144 -194zM393 -199h-131v138h131v-138z" />
    <glyph glyph-name="agrave.ss04" horiz-adv-x="647" 
d="M259 760l114 -154h-116l-168 154h170zM452 412v127h124v-539h-124v115c-31 -74 -103 -127 -185 -127c-132 0 -226 118 -226 282s95 281 226 281c98 0 161 -67 185 -139zM312 76c93 0 144 75 144 194c0 118 -51 193 -144 193s-144 -75 -144 -193c0 -119 51 -194 144 -194z
" />
    <glyph glyph-name="amacron.ss04" horiz-adv-x="647" 
d="M123 726h364v-91h-364v91zM452 412v127h124v-539h-124v115c-31 -74 -103 -127 -185 -127c-132 0 -226 118 -226 282s95 281 226 281c98 0 161 -67 185 -139zM312 76c93 0 144 75 144 194c0 118 -51 193 -144 193s-144 -75 -144 -193c0 -119 51 -194 144 -194z" />
    <glyph glyph-name="aogonek.ss04" horiz-adv-x="647" 
d="M576 539v-539c-57 -22 -87 -49 -87 -80c0 -26 23 -38 58 -38h29v-83h-43c-93 0 -152 31 -152 94c0 47 30 80 71 107v115c-31 -74 -103 -127 -185 -127c-132 0 -226 118 -226 282s95 281 226 281c98 0 161 -67 185 -139v127h124zM312 76c93 0 144 75 144 194
c0 118 -51 193 -144 193s-144 -75 -144 -193c0 -119 51 -194 144 -194z" />
    <glyph glyph-name="aring.ss04" horiz-adv-x="647" 
d="M305 602c-65 0 -117 54 -117 119s52 116 117 116s118 -51 118 -116s-53 -119 -118 -119zM305 766c-25 0 -46 -20 -46 -45s21 -47 46 -47s46 22 46 47s-21 45 -46 45zM452 412v127h124v-539h-124v115c-31 -74 -103 -127 -185 -127c-132 0 -226 118 -226 282
s95 281 226 281c98 0 161 -67 185 -139zM312 76c93 0 144 75 144 194c0 118 -51 193 -144 193s-144 -75 -144 -193c0 -119 51 -194 144 -194z" />
    <glyph glyph-name="atilde.ss04" horiz-adv-x="647" 
d="M239 665c-34 0 -53 -18 -60 -41h-41c2 82 43 124 98 124c29 0 57 -13 75 -22s39 -16 59 -16c34 0 53 17 59 41h42c-2 -82 -43 -124 -98 -124c-29 0 -57 12 -76 22c-18 8 -39 16 -58 16zM452 412v127h124v-539h-124v115c-31 -74 -103 -127 -185 -127
c-132 0 -226 118 -226 282s95 281 226 281c98 0 161 -67 185 -139zM312 76c93 0 144 75 144 194c0 118 -51 193 -144 193s-144 -75 -144 -193c0 -119 51 -194 144 -194z" />
    <glyph glyph-name="y.ss05" horiz-adv-x="572" 
d="M295 140l144 399h130l-274 -735h-131l72 193l-240 542h134z" />
    <glyph glyph-name="yacute.ss05" horiz-adv-x="572" 
d="M331 760h170l-168 -154h-116zM295 140l144 399h130l-274 -735h-131l72 193l-240 542h134z" />
    <glyph glyph-name="ycircumflex.ss05" horiz-adv-x="572" 
d="M381 606l-96 99l-96 -99h-112l127 154h161l128 -154h-112zM295 140l144 399h130l-274 -735h-131l72 193l-240 542h134z" />
    <glyph glyph-name="ydieresis.ss05" horiz-adv-x="572" 
d="M108 760h131v-138h-131v138zM329 760h132v-138h-132v138zM295 140l144 399h130l-274 -735h-131l72 193l-240 542h134z" />
    <glyph glyph-name="ygrave.ss05" horiz-adv-x="572" 
d="M239 760l114 -154h-116l-168 154h170zM295 140l144 399h130l-274 -735h-131l72 193l-240 542h134z" />
    <glyph glyph-name="uni0233.ss05" horiz-adv-x="572" 
d="M102 726h364v-91h-364v91zM295 140l144 399h130l-274 -735h-131l72 193l-240 542h134z" />
    <glyph glyph-name="uni1EF9.ss05" horiz-adv-x="572" 
d="M219 665c-34 0 -53 -18 -60 -41h-41c2 82 43 124 98 124c29 0 57 -13 75 -22s39 -16 59 -16c34 0 53 17 59 41h42c-2 -82 -43 -124 -98 -124c-29 0 -57 12 -76 22c-18 8 -39 16 -58 16zM295 140l144 399h130l-274 -735h-131l72 193l-240 542h134z" />
    <glyph glyph-name="i_j.loclNLD" horiz-adv-x="530" 
d="M199 622h-131v138h131v-138zM462 622h-131v138h131v-138zM283 -196h-212v86h189c47 0 74 17 74 71v578h125v-579c0 -106 -76 -156 -176 -156zM196 0h-125v539h125v-539z" />
    <glyph glyph-name="a.inferior" horiz-adv-x="339" 
d="M169 166c96 0 133 -52 133 -108v-2v-170h-88v45c-13 -26 -42 -52 -91 -52c-54 0 -98 36 -98 90c0 60 54 79 116 85l71 7v2v2c0 30 -21 41 -43 41c-24 0 -40 -13 -41 -30h-92c7 57 60 90 133 90zM159 -67c35 0 53 28 53 69v3l-38 -4c-36 -3 -57 -14 -57 -35
c0 -20 17 -33 42 -33z" />
    <glyph glyph-name="b.inferior" horiz-adv-x="354" 
d="M219 166c71 0 112 -63 112 -143c0 -81 -41 -144 -112 -144c-44 0 -77 26 -91 62v-55h-88v380h88v-169c12 37 43 69 91 69zM182 -59c38 0 57 31 57 82c0 50 -19 81 -57 81s-57 -31 -57 -81c0 -51 19 -82 57 -82z" />
    <glyph glyph-name="c.inferior" horiz-adv-x="329" 
d="M170 -121c-86 0 -148 57 -148 144c0 86 63 143 147 143c75 0 129 -41 140 -109h-92c-6 29 -21 47 -48 47c-35 0 -55 -31 -55 -81c0 -54 21 -82 56 -82c27 0 42 18 49 47h92c-11 -70 -70 -109 -141 -109z" />
    <glyph glyph-name="d.inferior" horiz-adv-x="354" 
d="M226 97v169h88v-380h-88v54c-13 -34 -44 -61 -90 -61c-72 0 -113 64 -113 144s41 143 113 143c48 0 78 -31 90 -69zM172 -59c38 0 57 31 57 82c0 50 -19 81 -57 81s-57 -31 -57 -81c0 -51 19 -82 57 -82z" />
    <glyph glyph-name="e.inferior" horiz-adv-x="330" 
d="M308 17c0 -5 0 -14 -1 -21h-195c6 -41 26 -57 53 -57c23 0 39 9 46 29h92c-20 -58 -69 -89 -138 -89c-81 0 -143 56 -143 144c0 86 62 143 143 143c78 0 143 -50 143 -149zM165 106c-27 0 -46 -15 -53 -53h106c-4 35 -25 53 -53 53z" />
    <glyph glyph-name="f.inferior" horiz-adv-x="221" 
d="M208 203h-24c-21 0 -33 -5 -33 -28v-16h57v-65h-57v-208h-90v208h-46v65h46v23c0 54 39 84 97 84h50v-63z" />
    <glyph glyph-name="g.inferior" horiz-adv-x="354" 
d="M228 98v61h88v-265c0 -87 -75 -113 -139 -113c-62 0 -132 26 -141 91h92c7 -22 24 -30 49 -30c30 0 51 15 51 49v58c-14 -34 -46 -60 -90 -60c-72 0 -113 58 -113 138s41 139 113 139c47 0 79 -32 90 -68zM174 -49c37 0 57 28 57 76c0 49 -20 77 -57 77s-57 -28 -57 -77
c0 -48 20 -76 57 -76z" />
    <glyph glyph-name="h.inferior" horiz-adv-x="343" 
d="M218 166c63 0 89 -44 89 -103v-2v-175h-90v153v2c0 40 -17 62 -43 62c-27 0 -44 -21 -44 -64v-153h-90v380h88v-163c15 37 43 63 90 63z" />
    <glyph glyph-name="i.inferior" horiz-adv-x="169" 
d="M130 190h-90v76h90v-76zM130 -114h-90v273h90v-273z" />
    <glyph glyph-name="j.inferior" horiz-adv-x="169" 
d="M130 190h-90v76h90v-76zM33 -212h-37v64h11c21 0 33 8 33 31v276h90v-287c0 -54 -41 -84 -97 -84z" />
    <glyph glyph-name="k.inferior" horiz-adv-x="328" 
d="M218 38l109 -152h-104l-93 135v-135h-89v380h89v-214l90 107h102z" />
    <glyph glyph-name="l.inferior" horiz-adv-x="169" 
d="M130 -114h-90v380h90v-380z" />
    <glyph glyph-name="m.inferior" horiz-adv-x="507" 
d="M384 166c60 0 86 -43 86 -103v-2v-175h-90v153v2c0 38 -14 62 -40 62c-25 0 -41 -22 -41 -64v-153h-89v153v2c0 39 -15 62 -40 62c-26 0 -40 -23 -40 -64v-153h-90v273h88v-56c15 36 41 63 87 63c47 0 73 -31 83 -67c11 35 39 67 86 67z" />
    <glyph glyph-name="n.inferior" horiz-adv-x="343" 
d="M218 166c63 0 89 -44 89 -103v-2v-175h-90v153v2c0 40 -17 62 -43 62c-27 0 -44 -21 -44 -64v-153h-90v273h88v-56c15 37 43 63 90 63z" />
    <glyph glyph-name="o.inferior" horiz-adv-x="342" 
d="M171 -121c-91 0 -149 60 -149 144s58 143 149 143s149 -59 149 -143s-58 -144 -149 -144zM171 -59c38 0 57 31 57 82c0 50 -19 81 -57 81s-57 -31 -57 -81c0 -51 19 -82 57 -82z" />
    <glyph glyph-name="p.inferior" horiz-adv-x="354" 
d="M219 166c71 0 112 -63 112 -143c0 -81 -41 -144 -112 -144c-44 0 -77 26 -91 62v-153h-88v371h88v-62c12 37 43 69 91 69zM182 -59c38 0 57 31 57 82c0 50 -19 81 -57 81s-57 -31 -57 -81c0 -51 19 -82 57 -82z" />
    <glyph glyph-name="q.inferior" horiz-adv-x="354" 
d="M226 97v62h88v-371h-88v152c-13 -34 -44 -61 -90 -61c-72 0 -113 64 -113 144s41 143 113 143c48 0 78 -31 90 -69zM172 -59c38 0 57 31 57 82c0 50 -19 81 -57 81s-57 -31 -57 -81c0 -51 19 -82 57 -82z" />
    <glyph glyph-name="r.inferior" horiz-adv-x="237" 
d="M128 159v-79c10 43 39 86 95 86v-87h-20c-47 0 -73 -24 -73 -71v-122h-90v273h88z" />
    <glyph glyph-name="s.inferior" horiz-adv-x="311" 
d="M154 -121c-73 0 -123 29 -134 90h91c6 -25 26 -31 49 -31c27 0 44 9 44 23c0 15 -14 21 -46 28l-53 12c-52 12 -79 37 -79 79c0 53 57 86 123 86c67 0 124 -27 133 -82h-91c-2 17 -22 24 -42 24c-22 0 -37 -9 -37 -21c0 -13 13 -18 38 -24l53 -12c50 -11 87 -34 87 -84
c0 -57 -63 -88 -136 -88z" />
    <glyph glyph-name="t.inferior" horiz-adv-x="231" 
d="M204 94h-56v-112v-2c0 -22 12 -29 33 -29h23v-65h-49c-57 0 -97 29 -97 82v2v124h-47v65h47v65h90v-65h56v-65z" />
    <glyph glyph-name="u.inferior" horiz-adv-x="342" 
d="M212 7v152h90v-273h-88v55c-13 -36 -39 -62 -88 -62c-61 0 -89 40 -89 104v2v174h90v-152v-2c0 -41 17 -63 43 -63s42 24 42 65z" />
    <glyph glyph-name="v.inferior" horiz-adv-x="328" 
d="M164 -102l65 261h89l-71 -273h-166l-71 273h89z" />
    <glyph glyph-name="w.inferior" horiz-adv-x="476" 
d="M344 -99l38 258h79l-42 -273h-152l-29 255l-29 -255h-152l-42 273h79l38 -258l33 258h146z" />
    <glyph glyph-name="x.inferior" horiz-adv-x="323" 
d="M217 30l100 -144h-97l-58 89l-59 -89h-97l100 144l-93 129h96l52 -77l53 77h95z" />
    <glyph glyph-name="y.inferior" horiz-adv-x="329" 
d="M164 -70l63 229h93l-102 -371h-93l34 125h-77l-73 246h91z" />
    <glyph glyph-name="z.inferior" horiz-adv-x="306" 
d="M274 76l-140 -125h149v-65h-256v83l140 125h-137v65h244v-83z" />
    <glyph glyph-name="a.ss04.inferior" horiz-adv-x="354" 
d="M226 97v62h88v-273h-88v54c-13 -34 -44 -61 -90 -61c-72 0 -113 64 -113 144s41 143 113 143c48 0 78 -31 90 -69zM172 -59c38 0 57 31 57 82c0 50 -19 81 -57 81s-57 -31 -57 -81c0 -51 19 -82 57 -82z" />
    <glyph glyph-name="y.ss05.inferior" horiz-adv-x="317" 
d="M159 -23l60 182h93l-132 -371h-93l30 83l-114 288h95z" />
    <glyph glyph-name="a.superior" horiz-adv-x="339" 
d="M169 767c96 0 133 -52 133 -108v-2v-170h-88v45c-13 -26 -42 -52 -91 -52c-54 0 -98 35 -98 90c0 59 54 79 116 85l71 7v2v2c0 30 -21 41 -43 41c-24 0 -40 -14 -41 -31h-92c7 57 60 91 133 91zM159 534c35 0 53 28 53 68v4l-38 -4c-36 -3 -57 -14 -57 -35
c0 -20 17 -33 42 -33z" />
    <glyph glyph-name="b.superior" horiz-adv-x="354" 
d="M219 767c71 0 112 -64 112 -144c0 -81 -41 -143 -112 -143c-44 0 -77 26 -91 62v-55h-88v380h88v-169c12 37 43 69 91 69zM182 542c38 0 57 30 57 81s-19 82 -57 82s-57 -31 -57 -82s19 -81 57 -81z" />
    <glyph glyph-name="c.superior" horiz-adv-x="329" 
d="M170 480c-86 0 -148 57 -148 143s63 144 147 144c75 0 129 -41 140 -109h-92c-6 28 -21 47 -48 47c-35 0 -55 -31 -55 -82c0 -54 21 -81 56 -81c27 0 42 18 49 46h92c-11 -69 -70 -108 -141 -108z" />
    <glyph glyph-name="d.superior" horiz-adv-x="354" 
d="M226 698v169h88v-380h-88v54c-13 -34 -44 -61 -90 -61c-72 0 -113 63 -113 143s41 144 113 144c48 0 78 -31 90 -69zM172 542c38 0 57 30 57 81s-19 82 -57 82s-57 -31 -57 -82s19 -81 57 -81z" />
    <glyph glyph-name="e.superior" horiz-adv-x="330" 
d="M308 618c0 -6 0 -15 -1 -21h-195c6 -41 26 -58 53 -58c23 0 39 10 46 30h92c-20 -58 -69 -89 -138 -89c-81 0 -143 56 -143 143s62 144 143 144c78 0 143 -51 143 -149zM165 707c-27 0 -46 -16 -53 -53h106c-4 35 -25 53 -53 53z" />
    <glyph glyph-name="f.superior" horiz-adv-x="221" 
d="M208 804h-24c-21 0 -33 -6 -33 -29v-15h57v-65h-57v-208h-90v208h-46v65h46v23c0 53 39 84 97 84h50v-63z" />
    <glyph glyph-name="g.superior" horiz-adv-x="354" 
d="M228 699v61h88v-266c0 -87 -75 -112 -139 -112c-62 0 -132 25 -141 90h92c7 -21 24 -29 49 -29c30 0 51 15 51 49v58c-14 -34 -46 -60 -90 -60c-72 0 -113 58 -113 138s41 139 113 139c47 0 79 -32 90 -68zM174 552c37 0 57 27 57 76s-20 77 -57 77s-57 -28 -57 -77
s20 -76 57 -76z" />
    <glyph glyph-name="h.superior" horiz-adv-x="343" 
d="M218 767c63 0 89 -44 89 -104v-2v-174h-90v152v2c0 41 -17 63 -43 63c-27 0 -44 -21 -44 -65v-152h-90v380h88v-163c15 36 43 63 90 63z" />
    <glyph glyph-name="i.superior" horiz-adv-x="169" 
d="M130 791h-90v76h90v-76zM130 487h-90v273h90v-273z" />
    <glyph glyph-name="j.superior" horiz-adv-x="169" 
d="M130 791h-90v76h90v-76zM33 389h-37v64h11c21 0 33 8 33 30v277h90v-288c0 -54 -41 -83 -97 -83z" />
    <glyph glyph-name="k.superior" horiz-adv-x="328" 
d="M218 639l108 -152h-104l-92 132v-132h-90v380h90v-213l89 106h102z" />
    <glyph glyph-name="l.superior" horiz-adv-x="169" 
d="M130 487h-90v380h90v-380z" />
    <glyph glyph-name="m.superior" horiz-adv-x="507" 
d="M384 767c60 0 86 -43 86 -104v-2v-174h-90v152v2c0 39 -14 63 -40 63c-25 0 -41 -22 -41 -65v-152h-89v152v2c0 40 -15 63 -40 63c-26 0 -40 -23 -40 -65v-152h-90v273h88v-57c15 36 41 64 87 64c47 0 73 -32 83 -68c12 35 39 68 86 68z" />
    <glyph glyph-name="n.superior" horiz-adv-x="343" 
d="M218 767c63 0 89 -44 89 -104v-2v-174h-90v152v2c0 41 -17 63 -43 63c-27 0 -44 -21 -44 -65v-152h-90v273h88v-56c15 36 43 63 90 63z" />
    <glyph glyph-name="o.superior" horiz-adv-x="342" 
d="M171 480c-91 0 -149 59 -149 143s58 144 149 144s149 -60 149 -144s-58 -143 -149 -143zM171 542c38 0 57 30 57 81s-19 82 -57 82s-57 -31 -57 -82s19 -81 57 -81z" />
    <glyph glyph-name="p.superior" horiz-adv-x="354" 
d="M219 767c71 0 112 -64 112 -144c0 -81 -41 -143 -112 -143c-44 0 -77 26 -91 62v-153h-88v371h88v-62c12 37 43 69 91 69zM182 542c38 0 57 30 57 81s-19 82 -57 82s-57 -31 -57 -82s19 -81 57 -81z" />
    <glyph glyph-name="q.superior" horiz-adv-x="354" 
d="M226 698v62h88v-371h-88v152c-13 -34 -44 -61 -90 -61c-72 0 -113 63 -113 143s41 144 113 144c48 0 78 -31 90 -69zM172 542c38 0 57 30 57 81s-19 82 -57 82s-57 -31 -57 -82s19 -81 57 -81z" />
    <glyph glyph-name="r.superior" horiz-adv-x="237" 
d="M128 760v-79c10 43 39 86 95 86v-87h-20c-47 0 -73 -24 -73 -72v-121h-90v273h88z" />
    <glyph glyph-name="s.superior" horiz-adv-x="311" 
d="M154 480c-73 0 -123 29 -134 90h91c6 -25 26 -32 49 -32c27 0 44 10 44 24c0 15 -14 21 -46 28l-53 12c-52 12 -79 36 -79 78c0 53 57 87 123 87c67 0 124 -27 133 -82h-91c-2 17 -22 23 -42 23c-22 0 -37 -8 -37 -20c0 -14 13 -19 38 -24l53 -12c50 -11 87 -34 87 -84
c0 -58 -63 -88 -136 -88z" />
    <glyph glyph-name="a.ss04.superior" horiz-adv-x="354" 
d="M226 698v62h88v-273h-88v54c-13 -34 -44 -61 -90 -61c-72 0 -113 63 -113 143s41 144 113 144c48 0 78 -31 90 -69zM172 542c38 0 57 30 57 81s-19 82 -57 82s-57 -31 -57 -82s19 -81 57 -81z" />
    <glyph glyph-name="y.ss05.superior" horiz-adv-x="318" 
d="M159 577l60 183h93l-132 -371h-93l30 83l-114 288h95z" />
    <glyph glyph-name="t.superior" horiz-adv-x="231" 
d="M204 695h-56v-112v-2c0 -22 12 -29 33 -29h23v-65h-49c-57 0 -97 29 -97 82v2v124h-47v65h47v64h90v-64h56v-65z" />
    <glyph glyph-name="u.superior" horiz-adv-x="342" 
d="M212 607v153h90v-273h-88v54c-13 -35 -39 -61 -88 -61c-61 0 -89 40 -89 104v2v174h90v-152v-2c0 -41 17 -63 43 -63s42 24 42 64z" />
    <glyph glyph-name="v.superior" horiz-adv-x="328" 
d="M164 499l65 261h89l-71 -273h-166l-71 273h89z" />
    <glyph glyph-name="w.superior" horiz-adv-x="476" 
d="M344 502l38 258h79l-42 -273h-152l-29 255l-29 -255h-152l-42 273h79l38 -258l33 258h146z" />
    <glyph glyph-name="x.superior" horiz-adv-x="323" 
d="M217 630l100 -143h-97l-58 88l-59 -88h-97l100 143l-93 130h96l52 -77l53 77h95z" />
    <glyph glyph-name="y.superior" horiz-adv-x="329" 
d="M164 531l63 229h93l-102 -371h-93l34 124h-77l-73 247h91z" />
    <glyph glyph-name="z.superior" horiz-adv-x="306" 
d="M274 677l-139 -125h148v-65h-256v83l141 125h-138v65h244v-83z" />
    <glyph glyph-name="ordfeminine" unicode="&#xaa;" horiz-adv-x="339" 
d="M169 767c96 0 133 -52 133 -108v-2v-170h-88v45c-13 -26 -42 -52 -91 -52c-54 0 -98 35 -98 90c0 59 54 79 116 85l71 7v2v2c0 30 -21 41 -43 41c-24 0 -40 -14 -41 -31h-92c7 57 60 91 133 91zM159 534c35 0 53 28 53 68v4l-38 -4c-36 -3 -57 -14 -57 -35
c0 -20 17 -33 42 -33z" />
    <glyph glyph-name="ordmasculine" unicode="&#xba;" horiz-adv-x="342" 
d="M171 480c-91 0 -149 59 -149 143s58 144 149 144s149 -60 149 -144s-58 -143 -149 -143zM171 542c38 0 57 30 57 81s-19 82 -57 82s-57 -31 -57 -82s19 -81 57 -81z" />
    <glyph glyph-name="uni0394" unicode="&#x394;" horiz-adv-x="773" 
d="M510 760l263 -760h-773l263 760h247zM600 111l-213 633l-214 -633h427z" />
    <glyph glyph-name="uni03A9" unicode="&#x3a9;" horiz-adv-x="844" 
d="M793 433c0 -142 -91 -236 -255 -322h248v-111h-320v145c128 85 194 175 194 283c0 158 -104 239 -238 239s-237 -81 -237 -239c0 -108 65 -198 193 -283v-145h-319v111h247c-164 86 -255 180 -255 322c0 216 167 339 371 339s371 -123 371 -339z" />
    <glyph glyph-name="uni03BC" unicode="&#x3bc;" horiz-adv-x="655" 
d="M606 93h29v-93h-52c-93 0 -140 23 -159 88l-3 21c-24 -65 -75 -121 -168 -121c-19 0 -39 4 -57 11v-195h-125v735h125v-313v-2c0 -101 42 -146 112 -146c72 0 112 47 112 148v313h125v-391v-2c0 -41 18 -53 61 -53z" />
    <glyph glyph-name="pi" unicode="&#x3c0;" horiz-adv-x="680" 
d="M640 447h-97v-286v-2c0 -53 29 -66 74 -66h23v-93h-45c-100 0 -177 48 -177 153v2v292h-178v-447h-125v447h-97v92h622v-92z" />
    <glyph glyph-name="zero" unicode="0" horiz-adv-x="717" 
d="M358 -12c-192 0 -306 137 -306 392c0 254 114 392 306 392c193 0 307 -138 307 -392c0 -255 -114 -392 -307 -392zM358 87c113 0 176 97 176 293s-63 293 -176 293s-176 -97 -176 -293s63 -293 176 -293z" />
    <glyph glyph-name="one" unicode="1" horiz-adv-x="400" 
d="M206 740l5 20h100v-760h-127v546h-162v103h29c101 0 136 32 155 91z" />
    <glyph glyph-name="two" unicode="2" horiz-adv-x="668" 
d="M475 333l-281 -230h432v-103h-578v135l334 274c54 45 96 89 96 141c0 69 -54 123 -146 123c-89 0 -145 -44 -152 -130h-130c9 149 132 229 282 229c160 0 276 -88 276 -220c0 -87 -48 -149 -133 -219z" />
    <glyph glyph-name="three" unicode="3" horiz-adv-x="666" 
d="M410 400c86 -10 208 -57 208 -187c0 -149 -132 -225 -297 -225c-171 0 -269 86 -283 221h130c7 -72 57 -122 153 -122c74 0 166 37 166 132c0 89 -83 129 -185 129h-49v103h49c103 0 162 51 162 114c0 64 -56 108 -144 108c-85 0 -132 -46 -138 -112h-130
c12 130 129 211 268 211c150 0 274 -77 274 -195s-97 -162 -184 -177z" />
    <glyph glyph-name="four" unicode="4" horiz-adv-x="684" 
d="M546 314h110v-103h-110v-211h-128v211h-391v135l273 414h246v-446zM418 743l-281 -429h281v429z" />
    <glyph glyph-name="five" unicode="5" horiz-adv-x="663" 
d="M378 519c124 0 244 -90 244 -264c0 -176 -132 -267 -286 -267s-270 81 -286 222h130c8 -72 66 -123 154 -123c87 0 157 57 157 168c0 113 -77 167 -155 167c-76 0 -131 -40 -157 -102l-123 12l38 428h481v-103h-365l-23 -258c27 63 94 120 191 120z" />
    <glyph glyph-name="six" unicode="6" horiz-adv-x="702" 
d="M394 504c160 0 264 -99 264 -258c0 -154 -125 -258 -294 -258c-187 0 -313 125 -313 392c0 258 128 392 312 392c153 0 249 -79 277 -202h-130c-17 58 -63 103 -146 103c-139 0 -191 -145 -184 -315c28 84 112 146 214 146zM362 87c95 0 165 63 165 159s-61 160 -165 160
s-171 -66 -171 -152c0 -96 59 -167 171 -167z" />
    <glyph glyph-name="seven" unicode="7" horiz-adv-x="558" 
d="M23 657v103h512v-135l-325 -625h-150l352 657h-389z" />
    <glyph glyph-name="eight" unicode="8" horiz-adv-x="699" 
d="M459 403c88 -15 192 -68 192 -189c0 -143 -127 -226 -301 -226s-301 83 -301 226c0 121 103 174 192 189c-85 21 -169 64 -169 172c0 121 114 197 278 197s278 -76 278 -197c0 -108 -84 -151 -169 -172zM200 562c0 -61 43 -110 150 -110s149 49 149 110
c0 65 -49 111 -149 111c-101 0 -150 -46 -150 -111zM350 87c85 0 170 39 170 135c0 83 -74 131 -170 131c-97 0 -171 -48 -171 -131c0 -96 86 -135 171 -135z" />
    <glyph glyph-name="nine" unicode="9" horiz-adv-x="702" 
d="M338 772c187 0 313 -125 313 -392c0 -258 -128 -392 -312 -392c-153 0 -249 79 -277 202h130c17 -58 63 -103 146 -103c139 0 191 145 184 315c-28 -84 -112 -146 -214 -146c-160 0 -264 99 -264 258c0 154 125 258 294 258zM340 354c104 0 171 66 171 152
c0 96 -59 167 -171 167c-95 0 -165 -63 -165 -159s61 -160 165 -160z" />
    <glyph glyph-name="zero.zero" horiz-adv-x="717" 
d="M358 772c193 0 307 -138 307 -392c0 -255 -114 -392 -307 -392c-192 0 -306 137 -306 392c0 254 114 392 306 392zM358 673c-113 0 -176 -97 -176 -293c0 -53 5 -98 13 -137l266 391c-27 26 -62 39 -103 39zM358 87c113 0 176 97 176 293c0 53 -5 98 -13 137l-267 -391
c28 -26 62 -39 104 -39z" />
    <glyph glyph-name="uni24FF" unicode="&#x24ff;" horiz-adv-x="934" 
d="M467 -39c-232 0 -419 187 -419 419s187 419 419 419s419 -187 419 -419s-187 -419 -419 -419zM467 144c122 0 194 82 194 236s-72 236 -194 236s-194 -82 -194 -236s72 -236 194 -236zM467 225c-57 0 -85 51 -85 155s28 155 85 155s85 -51 85 -155s-28 -155 -85 -155z
" />
    <glyph glyph-name="uni2776" unicode="&#x2776;" horiz-adv-x="934" 
d="M467 -39c-232 0 -419 187 -419 419s187 419 419 419s419 -187 419 -419s-187 -419 -419 -419zM422 456v-304h107v456h-89l-2 -8c-11 -40 -39 -58 -98 -58h-16v-86h98z" />
    <glyph glyph-name="uni2777" unicode="&#x2777;" horiz-adv-x="934" 
d="M467 -39c-232 0 -419 187 -419 419s187 419 419 419s419 -187 419 -419s-187 -419 -419 -419zM285 260v-108h365v85h-243l150 112c50 37 84 75 84 133c0 78 -71 134 -175 134c-101 0 -176 -56 -180 -143h109c2 41 31 62 71 62c41 0 66 -24 66 -55c0 -25 -16 -44 -44 -66z
" />
    <glyph glyph-name="uni2778" unicode="&#x2778;" horiz-adv-x="934" 
d="M467 -39c-232 0 -419 187 -419 419s187 419 419 419s419 -187 419 -419s-187 -419 -419 -419zM463 144c111 0 188 47 188 135c0 74 -70 104 -127 110c59 11 114 37 114 108c0 72 -79 119 -175 119s-169 -56 -175 -135h109c2 29 23 54 66 54c39 0 66 -20 66 -50
c0 -29 -22 -53 -85 -53h-30v-86h30c56 0 98 -15 98 -60c0 -42 -41 -61 -79 -61c-46 0 -72 24 -75 61h-109c8 -86 68 -142 184 -142z" />
    <glyph glyph-name="uni2779" unicode="&#x2779;" horiz-adv-x="934" 
d="M467 -39c-232 0 -419 187 -419 419s187 419 419 419s419 -187 419 -419s-187 -419 -419 -419zM250 373v-107h226v-114h107v114h63v86h-63v256h-196zM476 352h-135l135 229v-229z" />
    <glyph glyph-name="uni277A" unicode="&#x277a;" horiz-adv-x="934" 
d="M467 -39c-232 0 -419 187 -419 419s187 419 419 419s419 -187 419 -419s-187 -419 -419 -419zM468 144c103 0 185 55 185 162c0 103 -67 159 -146 159c-58 0 -97 -37 -111 -72l11 130h216v85h-314l-23 -263l105 -9c13 31 42 48 77 48c41 0 76 -27 76 -78
c0 -52 -34 -81 -76 -81c-45 0 -73 26 -77 62h-109c9 -90 85 -143 186 -143z" />
    <glyph glyph-name="uni277B" unicode="&#x277b;" horiz-adv-x="934" 
d="M467 -39c-232 0 -419 187 -419 419s187 419 419 419s419 -187 419 -419s-187 -419 -419 -419zM465 144c112 0 190 65 190 157c0 96 -64 156 -159 156c-62 0 -107 -38 -121 -82c-3 85 22 160 91 160c37 0 60 -18 69 -47h109c-15 72 -75 128 -178 128
c-113 0 -198 -74 -198 -236c0 -163 81 -236 197 -236zM464 225c-54 0 -83 36 -83 77c0 43 33 74 83 74c51 0 82 -29 82 -75c0 -45 -34 -76 -82 -76z" />
    <glyph glyph-name="uni277C" unicode="&#x277c;" horiz-adv-x="934" 
d="M467 -39c-232 0 -419 187 -419 419s187 419 419 419s419 -187 419 -419s-187 -419 -419 -419zM523 523l-200 -371h129l176 348v108h-321v-85h216z" />
    <glyph glyph-name="uni277D" unicode="&#x277d;" horiz-adv-x="934" 
d="M467 -39c-232 0 -419 187 -419 419s187 419 419 419s419 -187 419 -419s-187 -419 -419 -419zM467 144c118 0 194 53 194 135c0 73 -63 103 -118 112c53 13 105 41 105 105c0 74 -74 120 -181 120s-180 -46 -180 -120c0 -64 51 -92 104 -105c-55 -9 -118 -39 -118 -112
c0 -82 77 -135 194 -135zM467 429c-51 0 -73 25 -73 52c0 28 24 54 73 54s73 -26 73 -54c0 -27 -22 -52 -73 -52zM467 225c-45 0 -85 22 -85 64c0 38 37 60 85 60s85 -22 85 -60c0 -42 -40 -64 -85 -64z" />
    <glyph glyph-name="uni277E" unicode="&#x277e;" horiz-adv-x="934" 
d="M467 -39c-232 0 -419 187 -419 419s187 419 419 419s419 -187 419 -419s-187 -419 -419 -419zM469 616c-112 0 -190 -65 -190 -157c0 -96 64 -156 159 -156c62 0 107 38 121 82c3 -85 -22 -160 -91 -160c-37 0 -60 18 -69 47h-109c15 -72 75 -128 178 -128
c113 0 198 75 198 236c0 163 -81 236 -197 236zM470 535c54 0 83 -36 83 -77c0 -43 -33 -74 -83 -74c-51 0 -82 30 -82 75s35 76 82 76z" />
    <glyph glyph-name="uni24EA" unicode="&#x24ea;" horiz-adv-x="934" 
d="M467 -39c-232 0 -419 187 -419 419s187 419 419 419s419 -187 419 -419s-187 -419 -419 -419zM467 40c188 0 340 152 340 340s-152 340 -340 340s-340 -152 -340 -340s152 -340 340 -340zM467 144c-122 0 -194 82 -194 236s72 236 194 236s194 -82 194 -236
s-72 -236 -194 -236zM467 225c57 0 85 51 85 155s-28 155 -85 155s-85 -51 -85 -155s28 -155 85 -155z" />
    <glyph glyph-name="uni2460" unicode="&#x2460;" horiz-adv-x="934" 
d="M467 799c232 0 419 -187 419 -419s-187 -419 -419 -419s-419 187 -419 419s187 419 419 419zM467 40c188 0 340 152 340 340s-152 340 -340 340s-340 -152 -340 -340s152 -340 340 -340zM438 600l2 8h89v-456h-107v304h-98v86h16c59 0 87 18 98 58z" />
    <glyph glyph-name="uni2461" unicode="&#x2461;" horiz-adv-x="934" 
d="M467 799c232 0 419 -187 419 -419s-187 -419 -419 -419s-419 187 -419 419s187 419 419 419zM467 40c188 0 340 152 340 340s-152 340 -340 340s-340 -152 -340 -340s152 -340 340 -340zM557 349l-150 -112h243v-85h-365v108l203 154c28 22 44 41 44 66
c0 31 -25 55 -66 55c-40 0 -69 -21 -71 -62h-109c4 87 79 143 180 143c104 0 175 -56 175 -134c0 -58 -34 -96 -84 -133z" />
    <glyph glyph-name="uni2462" unicode="&#x2462;" horiz-adv-x="934" 
d="M467 799c232 0 419 -187 419 -419s-187 -419 -419 -419s-419 187 -419 419s187 419 419 419zM467 40c188 0 340 152 340 340s-152 340 -340 340s-340 -152 -340 -340s152 -340 340 -340zM524 389c57 -6 127 -35 127 -110c0 -88 -77 -135 -188 -135
c-116 0 -176 56 -184 142h109c3 -37 29 -61 75 -61c38 0 79 19 79 61c0 45 -42 60 -98 60h-30v86h30c63 0 85 24 85 53c0 30 -27 50 -66 50c-43 0 -64 -25 -66 -54h-109c6 79 79 135 175 135s175 -47 175 -119c0 -71 -55 -98 -114 -108z" />
    <glyph glyph-name="uni2463" unicode="&#x2463;" horiz-adv-x="934" 
d="M467 799c232 0 419 -187 419 -419s-187 -419 -419 -419s-419 187 -419 419s187 419 419 419zM467 40c188 0 340 152 340 340s-152 340 -340 340s-340 -152 -340 -340s152 -340 340 -340zM583 608v-256h63v-86h-63v-114h-107v114h-226v107l138 235h195zM476 582l-135 -230
h135v230z" />
    <glyph glyph-name="uni2464" unicode="&#x2464;" horiz-adv-x="934" 
d="M467 799c232 0 419 -187 419 -419s-187 -419 -419 -419s-419 187 -419 419s187 419 419 419zM467 40c188 0 340 152 340 340s-152 340 -340 340s-340 -152 -340 -340s152 -340 340 -340zM507 465c79 0 146 -56 146 -159c0 -107 -82 -162 -185 -162
c-101 0 -177 53 -186 143h109c4 -36 32 -62 77 -62c42 0 76 29 76 81c0 51 -35 78 -76 78c-35 0 -64 -17 -77 -48l-105 9l23 263h314v-85h-216l-11 -131c13 35 52 73 111 73z" />
    <glyph glyph-name="uni2465" unicode="&#x2465;" horiz-adv-x="934" 
d="M467 799c232 0 419 -187 419 -419s-187 -419 -419 -419s-419 187 -419 419s187 419 419 419zM467 40c188 0 340 152 340 340s-152 340 -340 340s-340 -152 -340 -340s152 -340 340 -340zM496 457c95 0 159 -60 159 -156c0 -92 -78 -157 -190 -157
c-116 0 -197 73 -197 236c0 161 85 236 198 236c103 0 163 -56 178 -128h-109c-9 29 -32 47 -69 47c-69 0 -94 -75 -91 -161c14 44 59 83 121 83zM464 225c48 0 82 31 82 76c0 46 -31 75 -82 75c-50 0 -83 -31 -83 -74c0 -41 29 -77 83 -77z" />
    <glyph glyph-name="uni2466" unicode="&#x2466;" horiz-adv-x="934" 
d="M467 799c232 0 419 -187 419 -419s-187 -419 -419 -419s-419 187 -419 419s187 419 419 419zM467 40c188 0 340 152 340 340s-152 340 -340 340s-340 -152 -340 -340s152 -340 340 -340zM523 523h-216v85h321v-108l-176 -348h-129z" />
    <glyph glyph-name="uni2467" unicode="&#x2467;" horiz-adv-x="934" 
d="M467 799c232 0 419 -187 419 -419s-187 -419 -419 -419s-419 187 -419 419s187 419 419 419zM467 40c188 0 340 152 340 340s-152 340 -340 340s-340 -152 -340 -340s152 -340 340 -340zM543 391c54 -9 118 -40 118 -112c0 -82 -76 -135 -194 -135
c-117 0 -194 53 -194 135c0 72 64 103 118 112c-53 13 -104 41 -104 105c0 74 73 120 180 120s181 -46 181 -120c0 -64 -52 -92 -105 -105zM467 535c-49 0 -73 -26 -73 -54c0 -27 22 -52 73 -52s73 25 73 52c0 28 -24 54 -73 54zM467 225c45 0 85 22 85 64
c0 38 -37 60 -85 60s-85 -22 -85 -60c0 -42 40 -64 85 -64z" />
    <glyph glyph-name="uni2468" unicode="&#x2468;" horiz-adv-x="934" 
d="M467 799c232 0 419 -187 419 -419s-187 -419 -419 -419s-419 187 -419 419s187 419 419 419zM467 40c188 0 340 152 340 340s-152 340 -340 340s-340 -152 -340 -340s152 -340 340 -340zM469 616c116 0 197 -73 197 -236c0 -161 -85 -236 -198 -236
c-103 0 -163 56 -178 128h109c9 -29 32 -47 69 -47c69 0 94 75 91 161c-14 -44 -59 -83 -121 -83c-95 0 -159 60 -159 156c0 92 78 157 190 157zM470 384c50 0 83 31 83 74c0 41 -29 77 -83 77c-47 0 -82 -31 -82 -76s31 -75 82 -75z" />
    <glyph glyph-name="one.ss01" horiz-adv-x="533" 
d="M359 760v-657h161v-103h-473v103h185v443h-180v103h47c101 0 137 32 155 91l5 20h100z" />
    <glyph glyph-name="one.ss01.dnom" horiz-adv-x="299" 
d="M211 380v-307h80v-73h-264v73h92v180h-92v73h22c54 0 74 15 86 47l3 7h73z" />
    <glyph glyph-name="one.ss01.inferior" horiz-adv-x="299" 
d="M211 266v-307h80v-73h-264v73h92v180h-92v73h22c54 0 74 15 86 47l3 7h73z" />
    <glyph glyph-name="one.ss01.numr" horiz-adv-x="299" 
d="M211 760v-307h80v-73h-264v73h92v180h-92v73h22c54 0 74 15 86 47l3 7h73z" />
    <glyph glyph-name="one.ss01.superior" horiz-adv-x="299" 
d="M211 867v-307h80v-73h-264v73h92v180h-92v73h22c54 0 74 15 86 47l3 7h73z" />
    <glyph glyph-name="one.ss02" horiz-adv-x="486" 
d="M397 760v-760h-128v739l-238 -326v191l115 156h251z" />
    <glyph glyph-name="one.ss02.dnom" horiz-adv-x="281" 
d="M237 380v-380h-92v362l-127 -190v134l49 74h170z" />
    <glyph glyph-name="one.ss02.inferior" horiz-adv-x="281" 
d="M237 266v-380h-92v362l-127 -190v134l49 74h170z" />
    <glyph glyph-name="one.ss02.numr" horiz-adv-x="281" 
d="M237 760v-380h-92v362l-127 -190v134l49 74h170z" />
    <glyph glyph-name="one.ss02.superior" horiz-adv-x="281" 
d="M237 867v-380h-92v362l-127 -190v134l49 74h170z" />
    <glyph glyph-name="one.ss02.tf" 
d="M529 760v-760h-128v739l-238 -326v191l115 156h251z" />
    <glyph glyph-name="zero.tf" 
d="M375 -12c-192 0 -306 137 -306 392c0 254 114 392 306 392s306 -138 306 -392c0 -255 -114 -392 -306 -392zM375 87c113 0 176 97 176 293s-63 293 -176 293s-176 -97 -176 -293s63 -293 176 -293z" />
    <glyph glyph-name="one.tf" 
d="M468 760v-657h160v-103h-472v103h184v443h-179v103h46c102 0 137 32 155 91l6 20h100z" />
    <glyph glyph-name="two.tf" 
d="M516 333l-280 -230h431v-103h-578v135l334 274c54 45 96 89 96 141c0 69 -53 123 -146 123c-88 0 -145 -44 -152 -130h-130c9 149 132 229 282 229c160 0 277 -88 277 -220c0 -87 -49 -149 -134 -219z" />
    <glyph glyph-name="three.tf" 
d="M451 400c87 -10 209 -57 209 -187c0 -149 -132 -225 -298 -225c-171 0 -268 86 -282 221h130c7 -72 56 -122 152 -122c75 0 167 37 167 132c0 89 -84 129 -185 129h-49v103h49c103 0 161 51 161 114c0 64 -55 108 -143 108c-85 0 -132 -46 -138 -112h-130
c12 130 129 211 268 211c150 0 274 -77 274 -195s-97 -162 -185 -177z" />
    <glyph glyph-name="four.tf" 
d="M579 314h110v-103h-110v-211h-128v211h-391v135l273 414h246v-446zM451 743l-282 -429h282v429z" />
    <glyph glyph-name="five.tf" 
d="M422 519c124 0 243 -90 243 -264c0 -176 -131 -267 -285 -267c-155 0 -271 81 -287 222h130c8 -72 67 -123 155 -123c87 0 157 57 157 168c0 113 -77 167 -156 167c-76 0 -130 -40 -156 -102l-124 12l38 428h481v-103h-364l-23 -258c27 63 94 120 191 120z" />
    <glyph glyph-name="six.tf" 
d="M418 504c160 0 264 -99 264 -258c0 -154 -125 -258 -294 -258c-187 0 -313 125 -313 392c0 258 128 392 312 392c153 0 250 -79 277 -202h-130c-17 58 -62 103 -146 103c-139 0 -190 -147 -184 -318c26 86 111 149 214 149zM386 87c95 0 166 63 166 159s-62 160 -166 160
s-171 -66 -171 -152c0 -96 59 -167 171 -167z" />
    <glyph glyph-name="seven.tf" 
d="M119 657v103h512v-135l-325 -625h-150l352 657h-389z" />
    <glyph glyph-name="eight.tf" 
d="M484 403c89 -15 192 -68 192 -189c0 -143 -127 -226 -301 -226s-301 83 -301 226c0 121 104 174 192 189c-85 21 -169 64 -169 172c0 121 114 197 278 197s278 -76 278 -197c0 -108 -84 -151 -169 -172zM226 562c0 -61 42 -110 149 -110s150 49 150 110
c0 65 -50 111 -150 111s-149 -46 -149 -111zM375 87c85 0 171 39 171 135c0 83 -75 131 -171 131s-171 -48 -171 -131c0 -96 86 -135 171 -135z" />
    <glyph glyph-name="nine.tf" 
d="M362 772c187 0 313 -125 313 -392c0 -258 -128 -392 -312 -392c-153 0 -249 79 -277 202h130c17 -58 63 -103 146 -103c139 0 191 145 184 315c-28 -84 -112 -146 -214 -146c-160 0 -264 99 -264 258c0 154 125 258 294 258zM364 354c104 0 171 66 171 152
c0 96 -58 167 -171 167c-95 0 -165 -63 -165 -159s61 -160 165 -160z" />
    <glyph glyph-name="zero.tf.zero" 
d="M375 772c192 0 306 -138 306 -392c0 -255 -114 -392 -306 -392s-306 137 -306 392c0 254 114 392 306 392zM375 673c-113 0 -176 -97 -176 -293c0 -53 5 -98 13 -136l266 390c-27 26 -62 39 -103 39zM375 87c113 0 176 97 176 293c0 53 -5 98 -13 137l-267 -391
c28 -26 62 -39 104 -39z" />
    <glyph glyph-name="uni2080" unicode="&#x2080;" horiz-adv-x="374" 
d="M187 -121c-103 0 -163 68 -163 197s60 197 163 197s163 -68 163 -197s-60 -197 -163 -197zM187 -51c46 0 69 42 69 127s-23 127 -69 127s-69 -42 -69 -127s23 -127 69 -127z" />
    <glyph glyph-name="uni2081" unicode="&#x2081;" horiz-adv-x="229" 
d="M109 259l3 7h72v-380h-92v253h-83v73h13c54 0 75 15 87 47z" />
    <glyph glyph-name="uni2082" unicode="&#x2082;" horiz-adv-x="353" 
d="M256 48l-120 -89h195v-73h-307v92l168 127c22 18 38 32 38 55c0 24 -19 43 -53 43c-35 0 -56 -20 -57 -49h-94c3 69 62 119 150 119c93 0 148 -50 148 -111c0 -48 -23 -81 -68 -114z" />
    <glyph glyph-name="uni2083" unicode="&#x2083;" horiz-adv-x="355" 
d="M223 84c51 -6 110 -30 110 -93c0 -73 -62 -112 -159 -112s-149 47 -156 120h94c2 -30 23 -50 62 -50c35 0 65 18 65 49c0 38 -42 50 -82 50h-25v72h25c45 0 71 18 71 43c0 24 -22 40 -54 40c-33 0 -53 -19 -54 -44h-95c5 65 65 114 149 114s148 -39 148 -99
s-46 -82 -99 -90z" />
    <glyph glyph-name="uni2084" unicode="&#x2084;" horiz-adv-x="367" 
d="M296 54h52v-73h-52v-95h-92v95h-188v92l106 193h174v-212zM204 249l-106 -195h106v195z" />
    <glyph glyph-name="uni2085" unicode="&#x2085;" horiz-adv-x="366" 
d="M220 147c71 0 124 -48 124 -133c0 -87 -67 -135 -158 -135c-84 0 -153 44 -161 121h95c5 -30 29 -51 65 -51c38 0 65 26 65 65c0 40 -26 64 -65 64c-31 0 -55 -16 -65 -40l-91 8l19 220h271v-73h-185l-9 -105c13 30 46 59 95 59z" />
    <glyph glyph-name="uni2086" unicode="&#x2086;" horiz-adv-x="374" 
d="M218 140c78 0 133 -49 133 -129c0 -76 -65 -132 -162 -132c-96 0 -164 61 -164 197s71 197 164 197c92 0 140 -51 153 -107h-95c-7 22 -25 38 -55 38c-57 0 -80 -62 -76 -133c13 38 51 69 102 69zM189 -51c40 0 67 26 67 61c0 36 -24 61 -67 61c-40 0 -68 -27 -68 -59
c0 -33 24 -63 68 -63z" />
    <glyph glyph-name="uni2087" unicode="&#x2087;" horiz-adv-x="298" 
d="M14 193v73h270v-92l-144 -288h-113l166 307h-179z" />
    <glyph glyph-name="uni2088" unicode="&#x2088;" horiz-adv-x="377" 
d="M254 84c47 -7 101 -32 101 -93c0 -67 -66 -112 -167 -112s-166 45 -166 112c0 61 54 86 100 93c-45 11 -89 38 -89 91c0 58 63 98 155 98s156 -40 156 -98c0 -53 -44 -80 -90 -91zM188 203c-40 0 -61 -19 -61 -44s20 -43 61 -43c42 0 62 18 62 43s-22 44 -62 44zM188 -51
c41 0 72 18 72 50c0 33 -33 49 -72 49s-72 -16 -72 -49c0 -32 32 -50 72 -50z" />
    <glyph glyph-name="uni2089" unicode="&#x2089;" horiz-adv-x="374" 
d="M185 273c97 0 165 -61 165 -197s-72 -197 -165 -197c-91 0 -139 51 -152 107h94c8 -22 25 -38 56 -38c57 0 79 62 76 133c-13 -38 -52 -69 -102 -69c-79 0 -133 49 -133 129c0 76 64 132 161 132zM185 81c41 0 68 27 68 59c0 33 -24 63 -68 63c-40 0 -67 -26 -67 -61
c0 -36 25 -61 67 -61z" />
    <glyph glyph-name="zero.dnom" horiz-adv-x="374" 
d="M187 -7c-103 0 -163 68 -163 197s60 197 163 197s163 -68 163 -197s-60 -197 -163 -197zM187 63c46 0 69 42 69 127s-23 127 -69 127s-69 -42 -69 -127s23 -127 69 -127z" />
    <glyph glyph-name="one.dnom" horiz-adv-x="229" 
d="M109 373l3 7h72v-380h-92v253h-83v73h13c54 0 75 15 87 47z" />
    <glyph glyph-name="two.dnom" horiz-adv-x="353" 
d="M256 162l-120 -89h195v-73h-307v92l168 127c22 18 38 32 38 55c0 24 -19 43 -53 43c-35 0 -56 -20 -57 -49h-94c3 69 62 119 150 119c93 0 148 -50 148 -111c0 -48 -23 -81 -68 -114z" />
    <glyph glyph-name="three.dnom" horiz-adv-x="355" 
d="M223 198c51 -6 110 -30 110 -93c0 -73 -62 -112 -159 -112s-149 47 -156 120h94c2 -30 23 -50 62 -50c35 0 65 18 65 49c0 38 -42 50 -82 50h-25v72h25c45 0 71 18 71 43c0 24 -22 40 -54 40c-33 0 -53 -19 -54 -44h-95c5 65 65 114 149 114s148 -39 148 -99
s-46 -82 -99 -90z" />
    <glyph glyph-name="four.dnom" horiz-adv-x="367" 
d="M296 168h52v-73h-52v-95h-92v95h-188v92l106 193h174v-212zM204 363l-106 -195h106v195z" />
    <glyph glyph-name="five.dnom" horiz-adv-x="366" 
d="M220 261c71 0 124 -48 124 -133c0 -87 -67 -135 -158 -135c-84 0 -153 44 -161 121h95c5 -30 29 -51 65 -51c38 0 65 26 65 65c0 40 -26 64 -65 64c-31 0 -55 -16 -65 -40l-91 8l19 220h271v-73h-185l-9 -105c13 30 46 59 95 59z" />
    <glyph glyph-name="six.dnom" horiz-adv-x="374" 
d="M218 254c78 0 133 -49 133 -129c0 -76 -65 -132 -162 -132c-96 0 -164 61 -164 197s71 197 164 197c92 0 140 -51 153 -107h-95c-7 22 -25 38 -55 38c-57 0 -80 -62 -76 -133c13 38 51 69 102 69zM189 63c40 0 67 26 67 61c0 36 -24 61 -67 61c-40 0 -68 -27 -68 -59
c0 -33 24 -63 68 -63z" />
    <glyph glyph-name="seven.dnom" horiz-adv-x="298" 
d="M14 307v73h270v-92l-144 -288h-113l166 307h-179z" />
    <glyph glyph-name="eight.dnom" horiz-adv-x="377" 
d="M254 198c47 -7 101 -32 101 -93c0 -67 -66 -112 -167 -112s-166 45 -166 112c0 61 54 86 100 93c-45 11 -89 38 -89 91c0 58 63 98 155 98s156 -40 156 -98c0 -53 -44 -80 -90 -91zM188 317c-40 0 -61 -19 -61 -44s20 -43 61 -43c42 0 62 18 62 43s-22 44 -62 44zM188 63
c41 0 72 18 72 50c0 33 -33 49 -72 49s-72 -16 -72 -49c0 -32 32 -50 72 -50z" />
    <glyph glyph-name="nine.dnom" horiz-adv-x="374" 
d="M185 387c96 0 164 -61 164 -197s-71 -197 -164 -197c-92 0 -140 51 -152 107h94c8 -22 25 -38 55 -38c57 0 80 62 76 133c-13 -38 -51 -69 -102 -69c-78 0 -132 49 -132 129c0 76 64 132 161 132zM185 195c41 0 68 27 68 59c0 33 -24 63 -68 63c-40 0 -67 -26 -67 -61
c0 -36 24 -61 67 -61z" />
    <glyph glyph-name="zero.numr" horiz-adv-x="374" 
d="M187 373c-103 0 -163 68 -163 197s60 197 163 197s163 -68 163 -197s-60 -197 -163 -197zM187 443c46 0 69 42 69 127s-23 127 -69 127s-69 -42 -69 -127s23 -127 69 -127z" />
    <glyph glyph-name="one.numr" horiz-adv-x="229" 
d="M109 753l3 7h72v-380h-92v253h-83v73h13c54 0 75 15 87 47z" />
    <glyph glyph-name="two.numr" horiz-adv-x="353" 
d="M256 542l-120 -89h195v-73h-307v92l168 127c22 18 38 32 38 55c0 24 -19 43 -53 43c-35 0 -56 -20 -57 -49h-94c3 69 62 119 150 119c93 0 148 -50 148 -111c0 -48 -23 -81 -68 -114z" />
    <glyph glyph-name="three.numr" horiz-adv-x="355" 
d="M223 578c51 -6 110 -30 110 -93c0 -73 -62 -112 -159 -112s-149 47 -156 120h94c2 -30 23 -50 62 -50c35 0 65 18 65 49c0 38 -42 50 -82 50h-25v72h25c45 0 71 18 71 43c0 24 -22 40 -54 40c-33 0 -53 -19 -54 -44h-95c5 65 65 114 149 114s148 -39 148 -99
s-46 -82 -99 -90z" />
    <glyph glyph-name="four.numr" horiz-adv-x="367" 
d="M296 548h52v-73h-52v-95h-92v95h-188v92l106 193h174v-212zM204 743l-106 -195h106v195z" />
    <glyph glyph-name="five.numr" horiz-adv-x="366" 
d="M220 641c71 0 124 -48 124 -133c0 -87 -67 -135 -158 -135c-84 0 -153 44 -161 121h95c5 -30 29 -51 65 -51c38 0 65 26 65 65c0 40 -26 64 -65 64c-31 0 -55 -16 -65 -40l-91 8l19 220h271v-73h-185l-9 -105c13 30 46 59 95 59z" />
    <glyph glyph-name="six.numr" horiz-adv-x="374" 
d="M218 634c78 0 133 -49 133 -129c0 -76 -65 -132 -162 -132c-96 0 -164 61 -164 197s71 197 164 197c92 0 140 -51 153 -107h-95c-7 22 -25 38 -55 38c-57 0 -80 -62 -76 -133c13 38 51 69 102 69zM189 443c40 0 67 26 67 61c0 36 -24 61 -67 61c-40 0 -68 -27 -68 -59
c0 -33 24 -63 68 -63z" />
    <glyph glyph-name="seven.numr" horiz-adv-x="298" 
d="M14 687v73h270v-92l-144 -288h-113l166 307h-179z" />
    <glyph glyph-name="eight.numr" horiz-adv-x="377" 
d="M254 578c47 -7 101 -32 101 -93c0 -67 -66 -112 -167 -112s-166 45 -166 112c0 61 54 86 100 93c-45 11 -89 38 -89 91c0 58 63 98 155 98s156 -40 156 -98c0 -53 -44 -80 -90 -91zM188 697c-40 0 -61 -19 -61 -44s20 -43 61 -43c42 0 62 18 62 43s-22 44 -62 44z
M188 443c41 0 72 18 72 50c0 33 -33 49 -72 49s-72 -16 -72 -49c0 -32 32 -50 72 -50z" />
    <glyph glyph-name="nine.numr" horiz-adv-x="374" 
d="M185 767c96 0 164 -61 164 -197s-71 -197 -164 -197c-92 0 -140 51 -152 107h94c8 -22 25 -38 55 -38c57 0 80 62 76 133c-13 -38 -51 -69 -102 -69c-78 0 -132 49 -132 129c0 76 64 132 161 132zM185 575c41 0 68 27 68 59c0 33 -24 63 -68 63c-40 0 -67 -26 -67 -61
c0 -36 24 -61 67 -61z" />
    <glyph glyph-name="uni2070" unicode="&#x2070;" horiz-adv-x="374" 
d="M187 480c-103 0 -163 68 -163 197s60 197 163 197s163 -68 163 -197s-60 -197 -163 -197zM187 550c46 0 69 42 69 127s-23 127 -69 127s-69 -42 -69 -127s23 -127 69 -127z" />
    <glyph glyph-name="uni00B9" unicode="&#xb9;" horiz-adv-x="229" 
d="M109 860l3 7h72v-380h-92v253h-83v73h13c54 0 75 15 87 47z" />
    <glyph glyph-name="uni00B2" unicode="&#xb2;" horiz-adv-x="353" 
d="M256 649l-122 -90h197v-72h-307v92l168 127c22 18 38 32 38 55c0 24 -19 43 -53 43c-35 0 -56 -20 -57 -49h-94c3 69 62 119 150 119c93 0 148 -50 148 -111c0 -48 -23 -81 -68 -114z" />
    <glyph glyph-name="uni00B3" unicode="&#xb3;" horiz-adv-x="355" 
d="M223 685c51 -6 110 -30 110 -93c0 -73 -62 -112 -159 -112s-149 47 -156 120h94c2 -30 23 -50 62 -50c35 0 65 18 65 49c0 38 -42 50 -82 50h-25v72h25c45 0 71 18 71 43c0 24 -22 40 -54 40c-33 0 -53 -19 -54 -44h-95c5 65 65 114 149 114s148 -39 148 -99
s-46 -82 -99 -90z" />
    <glyph glyph-name="uni2074" unicode="&#x2074;" horiz-adv-x="367" 
d="M296 655h52v-73h-52v-95h-92v95h-188v92l106 193h174v-212zM204 850l-106 -195h106v195z" />
    <glyph glyph-name="uni2075" unicode="&#x2075;" horiz-adv-x="366" 
d="M220 748c71 0 124 -48 124 -133c0 -87 -67 -135 -158 -135c-84 0 -153 44 -161 121h95c5 -30 29 -51 65 -51c38 0 65 26 65 65c0 40 -26 64 -65 64c-31 0 -55 -16 -65 -40l-91 8l19 220h271v-73h-185l-9 -105c13 30 46 59 95 59z" />
    <glyph glyph-name="uni2076" unicode="&#x2076;" horiz-adv-x="374" 
d="M218 741c78 0 133 -49 133 -129c0 -76 -65 -132 -162 -132c-96 0 -164 61 -164 197s71 197 164 197c92 0 140 -51 153 -107h-95c-7 22 -25 38 -55 38c-57 0 -80 -62 -76 -133c13 38 51 69 102 69zM189 550c40 0 67 26 67 61c0 36 -24 61 -67 61c-40 0 -68 -27 -68 -59
c0 -33 24 -63 68 -63z" />
    <glyph glyph-name="uni2077" unicode="&#x2077;" horiz-adv-x="298" 
d="M14 794v73h270v-92l-144 -288h-113l166 307h-179z" />
    <glyph glyph-name="uni2078" unicode="&#x2078;" horiz-adv-x="377" 
d="M254 685c47 -7 101 -32 101 -93c0 -67 -66 -112 -167 -112s-166 45 -166 112c0 61 54 86 100 93c-45 11 -89 38 -89 91c0 58 63 98 155 98s156 -40 156 -98c0 -53 -44 -80 -90 -91zM188 804c-40 0 -61 -19 -61 -44s20 -43 61 -43c42 0 62 18 62 43s-22 44 -62 44z
M188 550c41 0 72 18 72 50c0 33 -33 49 -72 49s-72 -16 -72 -49c0 -32 32 -50 72 -50z" />
    <glyph glyph-name="uni2079" unicode="&#x2079;" horiz-adv-x="374" 
d="M185 874c96 0 164 -61 164 -197s-71 -197 -164 -197c-92 0 -140 51 -152 107h94c8 -22 25 -38 55 -38c57 0 80 62 76 133c-13 -38 -51 -69 -102 -69c-78 0 -132 49 -132 129c0 76 64 132 161 132zM185 682c41 0 68 27 68 59c0 33 -24 63 -68 63c-40 0 -67 -26 -67 -61
c0 -36 24 -61 67 -61z" />
    <glyph glyph-name="fraction" unicode="&#x2044;" horiz-adv-x="186" 
d="M-89 0h-113l476 760h114z" />
    <glyph glyph-name="uni215F" unicode="&#x215f;" horiz-adv-x="674" 
d="M226 380h-92v253h-83v73h13c54 0 75 15 87 47l3 7h72v-380zM65 0l477 760h113l-476 -760h-114z" />
    <glyph glyph-name="onehalf" unicode="&#xbd;" horiz-adv-x="777" 
d="M207 380h-92v253h-83v73h13c54 0 74 15 86 47l3 7h73v-380zM46 0l477 760h113l-477 -760h-113zM669 162l-120 -89h195v-73h-307v92l168 127c22 18 38 32 38 55c0 24 -19 43 -53 43c-35 0 -56 -20 -57 -49h-94c3 69 62 119 150 119c93 0 148 -50 148 -111
c0 -48 -23 -81 -68 -114z" />
    <glyph glyph-name="uni2189" unicode="&#x2189;" horiz-adv-x="852" 
d="M358 570c0 -129 -60 -197 -163 -197s-163 68 -163 197s60 197 163 197s163 -68 163 -197zM133 0l476 760h114l-477 -760h-113zM126 570c0 -85 23 -127 69 -127s69 42 69 127s-23 127 -69 127s-69 -42 -69 -127zM709 198c50 -6 109 -30 109 -93c0 -73 -62 -112 -159 -112
c-96 0 -148 47 -156 120h94c3 -30 24 -50 62 -50c36 0 65 18 65 49c0 38 -41 50 -81 50h-26v72h26c45 0 71 18 71 43c0 24 -23 40 -55 40s-52 -19 -54 -44h-94c4 65 64 114 148 114c85 0 149 -39 149 -99s-46 -82 -99 -90z" />
    <glyph glyph-name="uni2153" unicode="&#x2153;" horiz-adv-x="765" 
d="M207 380h-92v253h-82v73h12c55 0 75 15 87 47l3 7h72v-380zM46 0l477 760h114l-477 -760h-114zM622 198c51 -6 110 -30 110 -93c0 -73 -62 -112 -159 -112s-148 47 -156 120h94c3 -30 24 -50 62 -50c35 0 65 18 65 49c0 38 -41 50 -81 50h-26v72h26c45 0 71 18 71 43
c0 24 -23 40 -55 40c-33 0 -52 -19 -54 -44h-94c4 65 64 114 148 114c85 0 149 -39 149 -99s-47 -82 -100 -90z" />
    <glyph glyph-name="uni2154" unicode="&#x2154;" horiz-adv-x="883" 
d="M151 453h195v-73h-307v92l167 127c23 18 39 32 39 55c0 24 -19 43 -53 43c-35 0 -56 -20 -58 -49h-94c4 69 63 119 151 119c92 0 148 -50 148 -111c0 -48 -23 -81 -68 -114zM165 0l476 760h114l-477 -760h-113zM741 198c50 -6 110 -30 110 -93c0 -73 -63 -112 -159 -112
c-97 0 -149 47 -156 120h94c2 -30 23 -50 62 -50c35 0 65 18 65 49c0 38 -42 50 -82 50h-25v72h25c45 0 71 18 71 43c0 24 -22 40 -54 40c-33 0 -53 -19 -55 -44h-94c5 65 64 114 148 114c85 0 149 -39 149 -99s-46 -82 -99 -90z" />
    <glyph glyph-name="onequarter" unicode="&#xbc;" horiz-adv-x="764" 
d="M208 380h-92v253h-82v73h12c55 0 75 15 87 47l3 7h72v-380zM47 0l477 760h114l-477 -760h-114zM682 168h52v-73h-52v-95h-92v95h-188v92l106 193h174v-212zM590 363l-106 -195h106v195z" />
    <glyph glyph-name="threequarters" unicode="&#xbe;" horiz-adv-x="859" 
d="M347 485c0 -73 -62 -112 -159 -112s-149 47 -156 120h94c2 -30 23 -50 62 -50c35 0 65 18 65 49c0 38 -42 50 -82 50h-25v72h25c45 0 71 18 71 43c0 24 -22 40 -54 40c-33 0 -53 -19 -54 -44h-95c5 65 65 114 149 114s148 -39 148 -99s-46 -82 -99 -90
c51 -6 110 -30 110 -93zM142 0l477 760h114l-477 -760h-114zM777 168h52v-73h-52v-95h-92v95h-188v92l106 193h174v-212zM685 363l-106 -195h106v195z" />
    <glyph glyph-name="uni2155" unicode="&#x2155;" horiz-adv-x="800" 
d="M207 380h-92v253h-82v73h12c55 0 75 15 87 47l3 7h72v-380zM46 0l477 760h114l-477 -760h-114zM643 261c71 0 125 -48 125 -133c0 -87 -68 -135 -159 -135c-84 0 -153 44 -160 121h94c5 -30 29 -51 66 -51s64 26 64 65c0 40 -26 64 -65 64c-31 0 -54 -16 -65 -40l-91 8
l20 220h270v-73h-185l-9 -105c13 30 47 59 95 59z" />
    <glyph glyph-name="uni2156" unicode="&#x2156;" horiz-adv-x="918" 
d="M151 453h195v-73h-307v92l167 127c23 18 39 32 39 55c0 24 -19 43 -53 43c-35 0 -56 -20 -57 -49h-95c4 69 63 119 151 119c92 0 148 -50 148 -111c0 -48 -23 -81 -68 -114zM165 0l477 760h113l-477 -760h-113zM762 261c71 0 124 -48 124 -133c0 -87 -67 -135 -159 -135
c-84 0 -152 44 -160 121h95c5 -30 29 -51 65 -51c38 0 65 26 65 65c0 40 -26 64 -65 64c-31 0 -55 -16 -65 -40l-91 8l19 220h270v-73h-184l-10 -105c13 30 47 59 96 59z" />
    <glyph glyph-name="uni2157" unicode="&#x2157;" horiz-adv-x="895" 
d="M346 485c0 -73 -62 -112 -159 -112s-148 47 -156 120h94c3 -30 23 -50 62 -50c35 0 65 18 65 49c0 38 -42 50 -81 50h-26v72h26c45 0 71 18 71 43c0 24 -23 40 -55 40c-33 0 -53 -19 -54 -44h-94c4 65 64 114 148 114s149 -39 149 -99s-47 -82 -100 -90
c51 -6 110 -30 110 -93zM142 0l476 760h114l-477 -760h-113zM738 261c71 0 125 -48 125 -133c0 -87 -68 -135 -159 -135c-84 0 -153 44 -160 121h94c5 -30 30 -51 66 -51c38 0 65 26 65 65c0 40 -27 64 -66 64c-31 0 -54 -16 -64 -40l-92 8l20 220h270v-73h-185l-9 -105
c13 30 47 59 95 59z" />
    <glyph glyph-name="uni2158" unicode="&#x2158;" horiz-adv-x="914" 
d="M310 380h-92v95h-188v92l106 193h174v-212h52v-73h-52v-95zM158 0l477 760h113l-477 -760h-113zM218 743l-106 -195h106v195zM755 261c71 0 124 -48 124 -133c0 -87 -67 -135 -159 -135c-84 0 -152 44 -160 121h95c5 -30 29 -51 65 -51c38 0 65 26 65 65
c0 40 -26 64 -65 64c-31 0 -55 -16 -65 -40l-91 8l19 220h270v-73h-184l-10 -105c13 30 47 59 96 59z" />
    <glyph glyph-name="uni2159" unicode="&#x2159;" horiz-adv-x="785" 
d="M208 380h-92v253h-83v73h13c54 0 75 15 87 47l3 7h72v-380zM47 0l477 760h113l-476 -760h-114zM620 254c78 0 133 -49 133 -129c0 -76 -64 -132 -161 -132s-165 61 -165 197s71 197 165 197c91 0 139 -51 152 -107h-94c-8 22 -25 38 -56 38c-57 0 -80 -62 -76 -133
c13 38 52 69 102 69zM591 63c41 0 68 26 68 61c0 36 -25 61 -68 61c-40 0 -67 -27 -67 -59c0 -33 24 -63 67 -63z" />
    <glyph glyph-name="uni215A" unicode="&#x215a;" horiz-adv-x="874" 
d="M352 508c0 -87 -68 -135 -159 -135c-84 0 -153 44 -160 121h94c5 -30 30 -51 66 -51c38 0 65 26 65 65c0 40 -27 64 -66 64c-31 0 -54 -16 -65 -40l-91 8l20 220h270v-73h-185l-9 -105c13 30 47 59 95 59c71 0 125 -48 125 -133zM137 0l477 760h113l-476 -760h-114z
M710 254c78 0 133 -49 133 -129c0 -76 -64 -132 -161 -132s-165 61 -165 197s71 197 165 197c91 0 139 -51 152 -107h-94c-8 22 -26 38 -56 38c-57 0 -80 -62 -76 -133c13 38 51 69 102 69zM681 63c40 0 68 26 68 61c0 36 -25 61 -68 61c-40 0 -68 -27 -68 -59
c0 -33 24 -63 68 -63z" />
    <glyph glyph-name="uni2150" unicode="&#x2150;" horiz-adv-x="765" 
d="M209 380h-92v253h-83v73h13c54 0 75 15 87 47l3 7h72v-380zM48 0l477 760h113l-476 -760h-114zM463 307v73h270v-92l-144 -288h-113l166 307h-179z" />
    <glyph glyph-name="oneeighth" unicode="&#x215b;" horiz-adv-x="790" 
d="M207 380h-92v253h-82v73h12c55 0 75 15 87 47l3 7h72v-380zM46 0l477 760h114l-477 -760h-114zM659 198c47 -7 100 -32 100 -93c0 -67 -65 -112 -166 -112s-166 45 -166 112c0 61 53 86 100 93c-46 11 -89 38 -89 91c0 58 63 98 155 98s155 -40 155 -98
c0 -53 -44 -80 -89 -91zM593 317c-40 0 -62 -19 -62 -44s20 -43 62 -43c41 0 62 18 62 43s-22 44 -62 44zM593 63c40 0 72 18 72 50c0 33 -33 49 -72 49s-72 -16 -72 -49c0 -32 31 -50 72 -50z" />
    <glyph glyph-name="threeeighths" unicode="&#x215c;" horiz-adv-x="886" 
d="M346 485c0 -73 -62 -112 -159 -112s-148 47 -156 120h94c3 -30 23 -50 62 -50c35 0 65 18 65 49c0 38 -42 50 -81 50h-26v72h26c45 0 71 18 71 43c0 24 -23 40 -55 40c-33 0 -53 -19 -54 -44h-94c4 65 64 114 148 114s149 -39 149 -99s-47 -82 -100 -90
c51 -6 110 -30 110 -93zM142 0l476 760h114l-477 -760h-113zM754 198c47 -7 100 -32 100 -93c0 -67 -65 -112 -166 -112s-166 45 -166 112c0 61 53 86 100 93c-46 11 -89 38 -89 91c0 58 63 98 155 98s155 -40 155 -98c0 -53 -43 -80 -89 -91zM688 317
c-40 0 -62 -19 -62 -44s20 -43 62 -43c41 0 62 18 62 43s-22 44 -62 44zM688 63c41 0 72 18 72 50c0 33 -33 49 -72 49s-72 -16 -72 -49c0 -32 31 -50 72 -50z" />
    <glyph glyph-name="fiveeighths" unicode="&#x215d;" horiz-adv-x="881" 
d="M352 508c0 -87 -68 -135 -159 -135c-84 0 -153 44 -160 121h94c5 -30 30 -51 66 -51c38 0 65 26 65 65c0 40 -27 64 -66 64c-31 0 -54 -16 -65 -40l-91 8l20 220h270v-73h-185l-9 -105c13 30 47 59 95 59c71 0 125 -48 125 -133zM137 0l477 760h113l-476 -760h-114z
M749 198c47 -7 101 -32 101 -93c0 -67 -66 -112 -167 -112s-166 45 -166 112c0 61 54 86 101 93c-46 11 -90 38 -90 91c0 58 64 98 155 98c92 0 156 -40 156 -98c0 -53 -44 -80 -90 -91zM683 317c-39 0 -61 -19 -61 -44s20 -43 61 -43c42 0 62 18 62 43s-22 44 -62 44z
M683 63c41 0 73 18 73 50c0 33 -34 49 -73 49s-72 -16 -72 -49c0 -32 32 -50 72 -50z" />
    <glyph glyph-name="seveneighths" unicode="&#x215e;" horiz-adv-x="809" 
d="M310 668l-144 -288h-113l166 307h-179v73h270v-92zM65 0l477 760h113l-476 -760h-114zM677 198c47 -7 101 -32 101 -93c0 -67 -66 -112 -167 -112s-166 45 -166 112c0 61 54 86 101 93c-46 11 -90 38 -90 91c0 58 64 98 155 98c92 0 156 -40 156 -98
c0 -53 -44 -80 -90 -91zM611 317c-39 0 -61 -19 -61 -44s20 -43 61 -43c42 0 62 18 62 43s-22 44 -62 44zM611 63c41 0 73 18 73 50c0 33 -34 49 -73 49s-72 -16 -72 -49c0 -32 32 -50 72 -50z" />
    <glyph glyph-name="uni2151" unicode="&#x2151;" horiz-adv-x="783" 
d="M208 380h-92v253h-82v73h12c55 0 75 15 87 47l3 7h72v-380zM47 0l477 760h114l-477 -760h-114zM589 387c97 0 165 -61 165 -197s-71 -197 -165 -197c-91 0 -139 51 -152 107h94c8 -22 25 -38 56 -38c57 0 80 62 76 133c-13 -38 -52 -69 -102 -69c-78 0 -133 49 -133 129
c0 76 64 132 161 132zM590 195c40 0 67 27 67 59c0 33 -24 63 -67 63c-41 0 -68 -26 -68 -61c0 -36 25 -61 68 -61z" />
    <glyph glyph-name="uni2152" unicode="&#x2152;" horiz-adv-x="1023" 
d="M210 380h-92v253h-83v73h13c54 0 75 15 87 47l3 7h72v-380zM163 0h-114l477 760h113zM830 387c104 0 163 -68 163 -197s-59 -197 -163 -197c-103 0 -163 68 -163 197s60 197 163 197zM550 373l3 7h72v-380h-92v253h-82v73h12c55 0 75 15 87 47zM830 63c47 0 69 42 69 127
s-22 127 -69 127c-46 0 -69 -42 -69 -127s23 -127 69 -127z" />
    <glyph glyph-name="uni2080.zero" horiz-adv-x="375" 
d="M188 273c103 0 163 -68 163 -197s-60 -197 -163 -197c-104 0 -163 68 -163 197s59 197 163 197zM188 203c-47 0 -69 -42 -69 -127c0 -11 0 -22 1 -31l101 148c-9 7 -20 10 -33 10zM188 -51c46 0 69 42 69 127c0 11 0 22 -1 31l-101 -148c9 -7 20 -10 33 -10z" />
    <glyph glyph-name="zero.dnom.zero" horiz-adv-x="375" 
d="M188 387c103 0 163 -68 163 -197s-60 -197 -163 -197c-104 0 -163 68 -163 197s59 197 163 197zM188 317c-47 0 -69 -42 -69 -127c0 -11 0 -22 1 -31l101 148c-9 7 -20 10 -33 10zM188 63c46 0 69 42 69 127c0 11 0 22 -1 31l-101 -148c9 -7 20 -10 33 -10z" />
    <glyph glyph-name="zero.numr.zero" horiz-adv-x="375" 
d="M188 767c103 0 163 -68 163 -197s-60 -197 -163 -197c-104 0 -163 68 -163 197s59 197 163 197zM188 697c-47 0 -69 -42 -69 -127c0 -11 0 -22 1 -31l101 148c-9 7 -20 10 -33 10zM188 443c46 0 69 42 69 127c0 11 0 22 -1 31l-101 -148c9 -7 20 -10 33 -10z" />
    <glyph glyph-name="uni2070.zero" horiz-adv-x="375" 
d="M188 874c103 0 163 -68 163 -197s-60 -197 -163 -197c-104 0 -163 68 -163 197s59 197 163 197zM188 804c-47 0 -69 -42 -69 -127c0 -11 0 -22 1 -31l101 148c-9 7 -20 10 -33 10zM188 550c46 0 69 42 69 127c0 11 0 22 -1 31l-101 -148c9 -7 20 -10 33 -10z" />
    <glyph glyph-name="period" unicode="." horiz-adv-x="282" 
d="M212 0h-142v136h142v-136z" />
    <glyph glyph-name="comma" unicode="," horiz-adv-x="282" 
d="M70 0v136h142v-151l-74 -121h-84l62 136h-46z" />
    <glyph glyph-name="colon" unicode=":" horiz-adv-x="282" 
d="M212 338h-142v136h142v-136zM212 0h-142v136h142v-136z" />
    <glyph glyph-name="semicolon" unicode=";" horiz-adv-x="282" 
d="M70 338v136h142v-136h-142zM116 0h-46v136h142v-151l-74 -121h-84z" />
    <glyph glyph-name="ellipsis" unicode="&#x2026;" horiz-adv-x="847" 
d="M212 0h-142v136h142v-136zM494 0h-141v136h141v-136zM776 0h-141v136h141v-136z" />
    <glyph glyph-name="exclam" unicode="!" horiz-adv-x="293" 
d="M200 255h-107l-17 505h141zM217 0h-141v136h141v-136z" />
    <glyph glyph-name="exclamdown" unicode="&#xa1;" horiz-adv-x="275" 
d="M208 403h-141v136h141v-136zM208 -196h-141l17 480h107z" />
    <glyph glyph-name="question" unicode="?" horiz-adv-x="574" 
d="M332 255h-126c0 77 27 129 82 178l48 42c48 41 74 67 74 109c0 49 -42 91 -123 91c-76 0 -127 -44 -131 -110h-128c7 133 120 207 259 207c157 0 253 -74 253 -183c0 -73 -43 -116 -88 -156l-49 -43c-54 -47 -71 -77 -71 -135zM343 0h-142v136h142v-136z" />
    <glyph glyph-name="questiondown" unicode="&#xbf;" horiz-adv-x="568" 
d="M370 403h-142v136h142v-136zM284 -208c-157 0 -253 73 -253 179c0 72 41 110 87 148l50 42c53 44 71 68 71 123h126c0 -75 -28 -121 -82 -165l-50 -41c-48 -39 -72 -62 -72 -103c0 -48 40 -87 121 -87c76 0 129 45 133 110h128c-7 -130 -120 -206 -259 -206z" />
    <glyph glyph-name="periodcentered" unicode="&#xb7;" horiz-adv-x="256" 
d="M191 227h-129v136h129v-136z" />
    <glyph glyph-name="bullet" unicode="&#x2022;" horiz-adv-x="444" 
d="M221 144c-78 0 -140 64 -140 142s62 141 140 141c79 0 142 -63 142 -141s-63 -142 -142 -142z" />
    <glyph glyph-name="asterisk" unicode="*" horiz-adv-x="449" 
d="M389 789l25 -77l-122 -40l78 -106l-65 -48l-81 109l-80 -109l-66 48l79 106l-122 40l24 77l124 -40v123h82v-123z" />
    <glyph glyph-name="uni2042" unicode="&#x2042;" horiz-adv-x="858" 
d="M348 406l-65 48l79 106l-122 40l24 77l124 -40v123h82v-123l124 40l25 -77l-123 -40l79 -106l-65 -48l-81 109zM235 229l124 40l25 -77l-123 -40l79 -107l-65 -48l-81 110l-81 -110l-65 48l79 107l-122 40l24 77l124 -40v123h82v-123zM829 269l25 -77l-123 -40l79 -107
l-65 -48l-81 110l-81 -110l-65 48l79 107l-122 40l24 77l124 -40v123h82v-123z" />
    <glyph glyph-name="numbersign" unicode="#" horiz-adv-x="804" 
d="M764 539v-86h-165l-35 -166h148v-87h-166l-41 -200h-102l41 200h-170l-41 -200h-101l41 200h-133v87h151l35 166h-134v86h151l46 221h101l-46 -221h170l46 221h102l-46 -221h148zM292 287h170l35 166h-170z" />
    <glyph glyph-name="slash" unicode="/" horiz-adv-x="513" 
d="M156 0h-135l336 760h134z" />
    <glyph glyph-name="backslash" unicode="\" horiz-adv-x="513" 
d="M491 0h-134l-336 760h135z" />
    <glyph glyph-name="exclamdown.case" horiz-adv-x="293" 
d="M76 760h141v-136h-141v136zM93 505h107l17 -505h-141z" />
    <glyph glyph-name="questiondown.case" horiz-adv-x="574" 
d="M231 760h142v-136h-142v136zM242 505h126c0 -77 -27 -129 -82 -178l-48 -42c-48 -41 -74 -67 -74 -109c0 -49 43 -91 123 -91c76 0 127 44 131 110h128c-7 -133 -120 -207 -259 -207c-157 0 -253 74 -253 183c0 73 43 116 89 156l48 43c54 47 71 77 71 135z" />
    <glyph glyph-name="periodcentered.case" horiz-adv-x="274" 
d="M208 317h-142v136h142v-136z" />
    <glyph glyph-name="bullet.case" horiz-adv-x="501" 
d="M250 206c-99 0 -176 77 -176 176s77 177 176 177c100 0 177 -78 177 -177s-77 -176 -177 -176z" />
    <glyph glyph-name="periodcentered.loclCAT.case" horiz-adv-x="10" 
d="M-59 358h-141v136h141v-136z" />
    <glyph glyph-name="period.inferior" horiz-adv-x="161" 
d="M125 -114h-89v91h89v-91z" />
    <glyph glyph-name="comma.inferior" horiz-adv-x="177" 
d="M46 -114v91h89v-101l-40 -61h-56l35 71h-28z" />
    <glyph glyph-name="period.lining" 
d="M446 0h-142v136h142v-136z" />
    <glyph glyph-name="comma.lining" 
d="M304 0v136h142v-151l-74 -121h-84l62 136h-46z" />
    <glyph glyph-name="colon.lining" horiz-adv-x="282" 
d="M212 449h-142v136h142v-136zM212 111h-142v136h142v-136z" />
    <glyph glyph-name="slash.lining" 
d="M274 0h-134l335 760h135z" />
    <glyph glyph-name="periodcentered.loclCAT" horiz-adv-x="113" 
d="M121 322h-129v136h129v-136z" />
    <glyph glyph-name="period.superior" horiz-adv-x="161" 
d="M125 487h-89v91h89v-91z" />
    <glyph glyph-name="comma.superior" horiz-adv-x="177" 
d="M46 487v91h88v-101l-39 -62h-56l36 72h-29z" />
    <glyph glyph-name="uni208D" unicode="&#x208d;" horiz-adv-x="226" 
d="M205 -165h-93c-40 59 -79 140 -79 241s39 178 79 237h93c-41 -60 -79 -135 -79 -237s38 -183 79 -241z" />
    <glyph glyph-name="uni208E" unicode="&#x208e;" horiz-adv-x="227" 
d="M113 -165h-92c42 61 79 141 79 241s-37 177 -79 237h92c40 -57 80 -134 80 -237c0 -99 -38 -180 -80 -241z" />
    <glyph glyph-name="parenleft" unicode="(" horiz-adv-x="332" 
d="M328 -196h-126c-81 119 -159 280 -159 482s78 355 159 474h126c-80 -119 -158 -272 -158 -474s78 -363 158 -482z" />
    <glyph glyph-name="parenright" unicode=")" horiz-adv-x="332" 
d="M130 -196h-126c80 119 158 280 158 482s-78 355 -158 474h126c81 -119 159 -272 159 -474s-78 -363 -159 -482z" />
    <glyph glyph-name="braceleft" unicode="{" horiz-adv-x="367" 
d="M251 585v-120c0 -124 -55 -155 -143 -175c87 -19 143 -50 143 -172v-2v-137v-2c0 -54 23 -80 68 -80h12v-93h-35c-118 0 -170 65 -170 157v2v133v2c0 108 -31 125 -100 133v119c69 8 100 25 100 135v116c0 93 51 159 170 159h35v-93h-12c-46 0 -68 -27 -68 -82z" />
    <glyph glyph-name="braceright" unicode="}" horiz-adv-x="367" 
d="M241 483c0 -108 31 -125 100 -133v-119c-70 -8 -100 -25 -100 -135v-133c0 -93 -51 -159 -170 -159h-35v93h12c46 0 68 27 68 82v137c0 124 55 155 142 175c-87 19 -142 50 -142 172v2v120v2c0 54 -23 80 -68 80h-12v93h35c118 0 170 -65 170 -157v-2v-116v-2z" />
    <glyph glyph-name="bracketleft" unicode="[" horiz-adv-x="348" 
d="M321 760v-93h-113v-770h113v-93h-238v956h238z" />
    <glyph glyph-name="bracketright" unicode="]" horiz-adv-x="348" 
d="M27 667v93h238v-956h-238v93h113v770h-113z" />
    <glyph glyph-name="uni207D" unicode="&#x207d;" horiz-adv-x="226" 
d="M206 436h-93c-40 59 -79 140 -79 241s39 178 79 237h93c-41 -60 -79 -135 -79 -237s38 -183 79 -241z" />
    <glyph glyph-name="uni207E" unicode="&#x207e;" horiz-adv-x="227" 
d="M113 436h-92c42 60 79 141 79 241c0 99 -37 176 -79 237h92c39 -58 80 -135 80 -237c0 -100 -38 -181 -80 -241z" />
    <glyph glyph-name="parenleft.case" horiz-adv-x="339" 
d="M331 -114h-127c-81 119 -159 280 -159 482s78 355 159 474h127c-80 -119 -158 -272 -158 -474s78 -363 158 -482z" />
    <glyph glyph-name="parenright.case" horiz-adv-x="339" 
d="M135 -114h-127c80 119 158 280 158 482s-78 355 -158 474h127c81 -119 159 -272 159 -474s-78 -363 -159 -482z" />
    <glyph glyph-name="braceleft.case" horiz-adv-x="380" 
d="M258 667v-120c0 -124 -56 -155 -143 -174c87 -20 143 -51 143 -173v-2v-137v-2c0 -54 23 -80 67 -80h13v-93h-35c-119 0 -170 65 -170 157v2v133v2c0 108 -31 125 -100 133v119c69 8 100 25 100 135v116c0 93 50 159 170 159h35v-93h-13c-45 0 -67 -27 -67 -82z" />
    <glyph glyph-name="braceright.case" horiz-adv-x="380" 
d="M247 565c0 -108 31 -125 100 -133v-119c-69 -8 -100 -25 -100 -135v-133c0 -93 -50 -159 -169 -159h-36v93h13c46 0 67 27 67 82v137c0 124 56 155 143 175c-87 19 -143 50 -143 172v2v120v2c0 54 -22 80 -67 80h-13v93h36c118 0 169 -65 169 -157v-2v-116v-2z" />
    <glyph glyph-name="bracketleft.case" horiz-adv-x="355" 
d="M325 842v-93h-113v-770h113v-93h-238v956h238z" />
    <glyph glyph-name="bracketright.case" horiz-adv-x="355" 
d="M30 749v93h238v-956h-238v93h113v770h-113z" />
    <glyph glyph-name="braceleft.inferior" horiz-adv-x="240" 
d="M169 217v-65c0 -49 -32 -69 -86 -74c53 -4 86 -22 86 -72v-2v-72v-2c0 -22 13 -30 32 -30h8v-65h-33c-65 0 -97 32 -97 84v2v68v2c0 38 -17 45 -49 48v78c31 3 49 11 49 50v61c0 52 32 85 97 85h33v-65h-8c-17 0 -32 -5 -32 -31z" />
    <glyph glyph-name="braceright.inferior" horiz-adv-x="240" 
d="M162 166c0 -37 17 -46 48 -49v-78c-33 -3 -48 -12 -48 -49v-70c0 -52 -32 -85 -98 -85h-33v65h9c17 0 32 5 32 31v73c0 47 27 70 86 75c-52 5 -86 19 -86 71v2v65v2c0 24 -16 29 -32 29h-9v65h33c66 0 98 -32 98 -84v-2v-59v-2z" />
    <glyph glyph-name="bracketleft.inferior" horiz-adv-x="219" 
d="M194 313v-65h-55v-348h55v-65h-145v478h145z" />
    <glyph glyph-name="bracketright.inferior" horiz-adv-x="219" 
d="M25 248v65h145v-478h-145v65h55v348h-55z" />
    <glyph glyph-name="braceleft.superior" horiz-adv-x="240" 
d="M168 817v-65c0 -47 -29 -67 -81 -73c50 -5 81 -24 81 -73v-2v-71v-2c0 -23 13 -30 32 -30h9v-65h-34c-65 0 -97 32 -97 83v2v68v2c0 38 -17 45 -49 49v77c31 4 49 11 49 51v61c0 52 32 85 97 85h34v-65h-9c-17 0 -32 -6 -32 -32z" />
    <glyph glyph-name="braceright.superior" horiz-adv-x="240" 
d="M163 767c0 -37 17 -46 48 -50v-77c-34 -4 -48 -13 -48 -50v-69c0 -53 -32 -85 -98 -85h-33v65h9c16 0 32 5 32 31v73c0 46 26 68 81 74c-49 6 -81 22 -81 72v2v64v2c0 24 -16 30 -32 30h-9v65h33c65 0 98 -33 98 -84v-2v-59v-2z" />
    <glyph glyph-name="bracketleft.superior" horiz-adv-x="219" 
d="M194 914v-65h-55v-348h55v-65h-145v478h145z" />
    <glyph glyph-name="bracketright.superior" horiz-adv-x="219" 
d="M25 849v65h145v-478h-145v65h55v348h-55z" />
    <glyph glyph-name="hyphen" unicode="-" horiz-adv-x="448" 
d="M386 232h-323v104h323v-104z" />
    <glyph glyph-name="uni00AD" unicode="&#xad;" horiz-adv-x="448" 
d="M386 232h-323v104h323v-104z" />
    <glyph glyph-name="endash" unicode="&#x2013;" horiz-adv-x="561" 
d="M499 232h-436v104h436v-104z" />
    <glyph glyph-name="emdash" unicode="&#x2014;" horiz-adv-x="857" 
d="M795 232h-732v104h732v-104z" />
    <glyph glyph-name="uni2011" unicode="&#x2011;" horiz-adv-x="448" 
d="M386 232h-323v104h323v-104z" />
    <glyph glyph-name="underscore" unicode="_" horiz-adv-x="575" 
d="M532 -93h-489v93h489v-93z" />
    <glyph glyph-name="hyphen.case" horiz-adv-x="454" 
d="M388 334h-323v115h323v-115z" />
    <glyph glyph-name="endash.case" horiz-adv-x="567" 
d="M501 334h-436v115h436v-115z" />
    <glyph glyph-name="emdash.case" horiz-adv-x="863" 
d="M797 334h-732v115h732v-115z" />
    <glyph glyph-name="hyphen.inferior" horiz-adv-x="240" 
d="M205 -8h-170v75h170v-75z" />
    <glyph glyph-name="hyphen.lining" 
d="M536 334h-323v115h323v-115z" />
    <glyph glyph-name="hyphen.superior" horiz-adv-x="240" 
d="M205 593h-170v74h170v-74z" />
    <glyph glyph-name="quotesinglbase" unicode="&#x201a;" horiz-adv-x="282" 
d="M70 0v136h142v-151l-74 -121h-84l62 136h-46z" />
    <glyph glyph-name="quotedblbase" unicode="&#x201e;" horiz-adv-x="487" 
d="M116 0h-46v136h142v-151l-74 -121h-84zM275 0v136h142v-151l-74 -121h-84l62 136h-46z" />
    <glyph glyph-name="quotedblleft" unicode="&#x201c;" horiz-adv-x="462" 
d="M45 638l73 122h84l-61 -136h45v-137h-141v151zM323 760h84l-62 -136h46v-137h-141v151z" />
    <glyph glyph-name="quotedblright" unicode="&#x201d;" horiz-adv-x="457" 
d="M121 624h-45v136h141v-151l-74 -122h-84zM281 624v136h141v-151l-74 -122h-84l62 137h-45z" />
    <glyph glyph-name="quoteleft" unicode="&#x2018;" horiz-adv-x="258" 
d="M128 760h84l-62 -136h45v-137h-141v151z" />
    <glyph glyph-name="quoteright" unicode="&#x2019;" horiz-adv-x="252" 
d="M67 624v136h141v-151l-74 -122h-84l62 137h-45z" />
    <glyph glyph-name="guillemotleft" unicode="&#xab;" horiz-adv-x="655" 
d="M207 495h148l-163 -219l163 -230h-148l-163 230zM465 495h148l-164 -219l164 -230h-148l-164 230z" />
    <glyph glyph-name="guillemotright" unicode="&#xbb;" horiz-adv-x="655" 
d="M42 495h148l163 -219l-163 -230h-148l164 230zM299 495h148l164 -219l-164 -230h-148l164 230z" />
    <glyph glyph-name="guilsinglleft" unicode="&#x2039;" horiz-adv-x="398" 
d="M207 495h148l-163 -219l163 -230h-148l-163 230z" />
    <glyph glyph-name="guilsinglright" unicode="&#x203a;" horiz-adv-x="398" 
d="M42 495h148l163 -219l-163 -230h-148l164 230z" />
    <glyph glyph-name="quotedbl" unicode="&#x22;" horiz-adv-x="413" 
d="M164 468h-93l-18 292h129zM342 468h-93l-18 292h129z" />
    <glyph glyph-name="quotesingle" unicode="'" horiz-adv-x="235" 
d="M164 468h-93l-18 292h129z" />
    <glyph glyph-name="guillemotleft.case" horiz-adv-x="666" 
d="M212 599h149l-164 -219l164 -230h-149l-163 230zM470 599h148l-164 -219l164 -230h-148l-164 230z" />
    <glyph glyph-name="guillemotright.case" horiz-adv-x="666" 
d="M48 599h148l163 -219l-163 -230h-148l164 230zM305 599h148l164 -219l-164 -230h-148l164 230z" />
    <glyph glyph-name="guilsinglleft.case" horiz-adv-x="409" 
d="M212 599h149l-164 -219l164 -230h-149l-163 230z" />
    <glyph glyph-name="guilsinglright.case" horiz-adv-x="409" 
d="M48 599h148l163 -219l-163 -230h-148l164 230z" />
    <glyph glyph-name="uni00A0" unicode="&#xa0;" horiz-adv-x="241" 
 />
    <glyph glyph-name="uni2009" unicode="&#x2009;" horiz-adv-x="125" 
 />
    <glyph glyph-name="space.lining" 
 />
    <glyph glyph-name=".null" horiz-adv-x="0" 
 />
    <glyph glyph-name="uniFEFF" unicode="&#xfeff;" horiz-adv-x="0" 
 />
    <glyph glyph-name="uni0E3F" unicode="&#xe3f;" horiz-adv-x="698" 
d="M646 209c0 -120 -88 -192 -240 -206v-134h-121v131h-191v760h191v126h121v-129c153 -15 219 -99 219 -194c0 -109 -88 -162 -188 -174c113 -6 209 -65 209 -180zM495 547c0 70 -57 111 -140 111h-134v-220h134c83 0 140 38 140 109zM221 102h130c105 0 165 46 165 120
s-60 119 -165 119h-130v-239z" />
    <glyph glyph-name="uni20BF" unicode="&#x20bf;" horiz-adv-x="697" 
d="M645 209c0 -100 -61 -168 -171 -195v-145h-109v131h-17h-44v-131h-109v131h-102v760h102v126h109v-126h48h13v126h109v-142c105 -30 151 -101 151 -181c0 -109 -88 -162 -188 -174c113 -6 208 -65 208 -180zM354 658h-133v-220h133c84 0 141 38 141 109
c0 70 -57 111 -141 111zM221 102h130c104 0 165 46 165 120s-61 119 -165 119h-130v-239z" />
    <glyph glyph-name="cent" unicode="&#xa2;" horiz-adv-x="632" 
d="M461 186h126c-23 -108 -99 -175 -201 -193v-124h-118v125c-129 24 -210 130 -210 276s82 251 210 275v121h118v-120c106 -19 176 -93 196 -195h-127c-14 62 -55 112 -127 112c-91 0 -143 -75 -143 -193c0 -120 53 -194 143 -194c71 0 113 40 133 110z" />
    <glyph glyph-name="currency" unicode="&#xa4;" horiz-adv-x="662" 
d="M577 372c0 -49 -14 -95 -39 -133l68 -68l-76 -76l-68 68c-38 -25 -83 -39 -131 -39s-93 14 -132 38l-67 -67l-76 76l67 67c-25 39 -39 85 -39 134s15 95 40 134l-68 67l76 75l68 -67c38 24 83 38 131 38s93 -14 131 -38l68 67l76 -75l-68 -67c25 -39 39 -85 39 -134z
M188 372c0 -83 65 -143 143 -143c79 0 142 60 142 143s-63 143 -142 143c-78 0 -143 -60 -143 -143z" />
    <glyph glyph-name="dollar" unicode="$" horiz-adv-x="673" 
d="M626 223c0 -125 -88 -212 -228 -231v-123h-121v124c-128 21 -218 110 -233 239h130c11 -92 75 -147 166 -147c100 0 158 48 158 125c0 63 -44 94 -145 121l-94 24c-113 30 -200 82 -200 201c0 112 90 195 218 212v118h121v-119c125 -20 203 -98 219 -207h-130
c-17 74 -75 115 -158 115c-86 0 -143 -46 -143 -107c0 -63 56 -80 149 -106l94 -26c127 -35 197 -96 197 -213z" />
    <glyph glyph-name="Euro" unicode="&#x20ac;" horiz-adv-x="822" 
d="M642 213h130c-45 -136 -150 -225 -293 -225c-154 0 -273 107 -312 271h-126l32 89h81c-1 11 -1 21 -1 32s0 21 1 32h-100l31 89h82c38 164 156 271 309 271c143 0 248 -90 294 -225h-130c-31 80 -92 128 -164 128c-89 0 -153 -65 -179 -174h303l-31 -89h-284
c-1 -10 -1 -21 -1 -32s0 -22 1 -32h261l-31 -89h-218c27 -110 93 -174 182 -174c72 0 132 48 163 128z" />
    <glyph glyph-name="florin" unicode="&#x192;" horiz-adv-x="583" 
d="M550 657h-62c-64 0 -96 -31 -106 -96l-15 -96h150v-103h-165l-28 -182c-18 -120 -88 -180 -214 -180h-80v103h62c65 0 97 31 107 96l24 163h-135v103h151l17 115c18 120 89 180 215 180h79v-103z" />
    <glyph glyph-name="uni20BA" unicode="&#x20ba;" horiz-adv-x="695" 
d="M528 317h127c0 -225 -116 -317 -321 -317h-190v271l-84 -26v98l84 25v69l-84 -26v99l84 25v225h127v-186l207 62v-98l-207 -63v-68l207 62v-97l-207 -63v-206h55c138 0 202 66 202 214z" />
    <glyph glyph-name="uni20BD" unicode="&#x20bd;" horiz-adv-x="737" 
d="M382 311h-103v-66h191v-97h-191v-148h-128v148h-93v97h93v66h-93v97h93v352h231c194 0 312 -72 312 -225s-118 -224 -312 -224zM387 657h-108v-249h108c110 0 176 36 176 124s-66 125 -176 125z" />
    <glyph glyph-name="uni20B9" unicode="&#x20b9;" horiz-adv-x="686" 
d="M650 760v-97h-155c17 -22 30 -48 37 -77h118v-97h-118c-24 -113 -135 -174 -274 -174h-46l371 -315h-186l-333 287v131h194c69 0 118 26 138 71h-332v97h332c-19 45 -69 71 -138 71h-194v103h586z" />
    <glyph glyph-name="sterling" unicode="&#xa3;" horiz-adv-x="630" 
d="M151 103h440v-103h-529v133c96 54 145 95 145 166c0 8 -1 16 -2 23h-155v97h98c-39 40 -73 87 -73 155c0 120 115 198 256 198c145 0 240 -77 254 -192h-130c-10 62 -57 95 -123 95c-68 0 -127 -43 -127 -112c0 -48 26 -83 65 -123c7 -7 13 -14 19 -21h223v-97h-180
c1 -5 1 -10 1 -15c0 -91 -67 -147 -182 -204z" />
    <glyph glyph-name="uni20B8" unicode="&#x20b8;" horiz-adv-x="639" 
d="M32 663v97h575v-97h-575zM256 500h-224v97h575v-97h-224v-500h-127v500z" />
    <glyph glyph-name="uni20A9" unicode="&#x20a9;" horiz-adv-x="999" 
d="M957 520v-97h-112l-10 -92h100v-96h-111l-26 -235h-214l-83 751l-83 -751h-214l-26 235h-114v96h103l-10 92h-116v97h105l-27 240h112l82 -751l84 751h208l84 -751l82 751h111l-27 -240h102z" />
    <glyph glyph-name="yen" unicode="&#xa5;" 
d="M580 760h143l-233 -353h160v-97h-211v-66h211v-96h-211v-148h-128v148h-212v96h212v66h-212v97h162l-234 353h144l204 -325z" />
    <glyph glyph-name="uni0E3F.tf" 
d="M660 209c0 -120 -87 -192 -240 -206v-134h-120v131h-192v760h192v126h120v-129c153 -15 219 -99 219 -194c0 -109 -88 -162 -188 -174c113 -6 209 -65 209 -180zM510 547c0 70 -58 111 -141 111h-134v-220h134c83 0 141 38 141 109zM235 102h130c105 0 165 46 165 120
s-60 119 -165 119h-130v-239z" />
    <glyph glyph-name="uni20BF.tf" 
d="M660 209c0 -101 -62 -168 -172 -195v-145h-108v131h-17h-45v-131h-109v131h-101v760h101v126h109v-126h48h14v126h108v-142c105 -30 151 -101 151 -181c0 -109 -88 -162 -188 -174c113 -6 209 -65 209 -180zM369 658h-134v-220h134c83 0 141 38 141 109
c0 70 -58 111 -141 111zM235 102h130c105 0 165 46 165 120s-60 119 -165 119h-130v-239z" />
    <glyph glyph-name="cent.tf" 
d="M517 186h126c-22 -108 -99 -175 -201 -193v-124h-118v125c-129 25 -210 130 -210 276s82 251 210 275v121h118v-120c106 -19 176 -93 196 -195h-127c-13 62 -54 112 -127 112c-91 0 -143 -75 -143 -193c0 -120 53 -194 144 -194c70 0 112 40 132 110z" />
    <glyph glyph-name="currency.tf" 
d="M621 372c0 -49 -14 -95 -39 -133l68 -68l-76 -76l-68 68c-38 -25 -83 -39 -131 -39s-93 14 -132 38l-67 -67l-76 76l67 67c-25 39 -39 85 -39 134s15 95 40 134l-68 67l76 75l68 -67c38 24 83 38 131 38s93 -14 131 -38l68 67l76 -75l-68 -67c25 -39 39 -85 39 -134z
M232 372c0 -83 65 -143 143 -143c79 0 142 60 142 143s-63 143 -142 143c-78 0 -143 -60 -143 -143z" />
    <glyph glyph-name="dollar.tf" 
d="M665 223c0 -125 -88 -212 -228 -231v-123h-121v124c-128 21 -218 110 -233 239h130c11 -92 75 -147 166 -147c100 0 158 48 158 125c0 63 -44 94 -145 121l-93 24c-114 30 -201 82 -201 201c0 112 90 195 218 212v118h121v-119c125 -20 203 -98 219 -207h-130
c-17 74 -75 115 -157 115c-87 0 -143 -46 -143 -107c0 -63 55 -80 148 -106l94 -26c127 -35 197 -96 197 -213z" />
    <glyph glyph-name="Euro.tf" 
d="M589 213h128c-39 -133 -136 -225 -274 -225c-142 0 -256 107 -293 271h-122l31 89h79c-1 11 -1 21 -1 32s0 21 1 32h-97l31 89h78c36 164 148 271 291 271c140 0 235 -93 273 -225h-128c-27 80 -82 128 -145 128c-78 0 -137 -65 -162 -174h279l-32 -89h-258
c-1 -10 -1 -21 -1 -32s0 -22 1 -32h236l-32 -89h-193c25 -110 86 -174 164 -174c64 0 118 49 146 128z" />
    <glyph glyph-name="florin.tf" 
d="M633 657h-61c-65 0 -97 -31 -107 -96l-15 -96h151v-103h-166l-28 -182c-17 -120 -88 -180 -214 -180h-79v103h61c65 0 97 31 107 96l24 163h-135v103h151l17 115c18 120 89 180 215 180h79v-103z" />
    <glyph glyph-name="uni20BA.tf" 
d="M550 317h127c0 -225 -116 -317 -321 -317h-190v271l-84 -26v98l84 25v69l-84 -26v99l84 25v225h127v-186l207 62v-98l-207 -63v-68l207 62v-97l-207 -63v-206h55c138 0 202 66 202 214z" />
    <glyph glyph-name="uni20BD.tf" 
d="M385 311h-103v-66h191v-97h-191v-148h-128v148h-93v97h93v66h-93v97h93v352h231c194 0 312 -72 312 -225s-118 -224 -312 -224zM390 657h-108v-249h108c110 0 176 36 176 124s-66 125 -176 125z" />
    <glyph glyph-name="uni20B9.tf" 
d="M672 760v-97h-155c17 -22 30 -48 37 -77h118v-97h-118c-24 -113 -134 -174 -274 -174h-45l371 -315h-187l-333 287v131h194c69 0 119 26 139 71h-333v97h333c-20 45 -70 71 -139 71h-194v103h586z" />
    <glyph glyph-name="sterling.tf" 
d="M208 103h440v-103h-529v133c96 54 145 95 145 166c0 8 -1 16 -2 23h-155v97h99c-40 40 -74 87 -74 155c0 120 115 198 256 198c145 0 240 -77 254 -192h-130c-10 62 -57 95 -123 95c-68 0 -127 -43 -127 -112c0 -48 26 -83 65 -123c7 -7 13 -14 19 -21h224v-97h-181
c1 -5 1 -10 1 -15c0 -91 -67 -147 -182 -204z" />
    <glyph glyph-name="uni20B8.tf" 
d="M88 663v97h575v-97h-575zM311 500h-223v97h575v-97h-224v-500h-128v500z" />
    <glyph glyph-name="uni20A9.tf" 
d="M713 520v-98h-86l-6 -90h77v-98h-83l-15 -234h-180l-46 606l-47 -606h-180l-14 234h-81v98h74l-5 90h-84v98h78l-15 240h95l46 -753l48 606h169l49 -599l46 746h95l-15 -240h80z" />
    <glyph glyph-name="yen.tf" 
d="M546 760h143l-209 -353h146v-97h-186v-66h186v-96h-186v-148h-128v148h-187v96h187v66h-187v97h145l-209 353h142l172 -325z" />
    <glyph glyph-name="uni208C" unicode="&#x208c;" horiz-adv-x="330" 
d="M294 93h-258v67h258v-67zM294 -17h-258v67h258v-67z" />
    <glyph glyph-name="uni207C" unicode="&#x207c;" horiz-adv-x="330" 
d="M294 693h-258v67h258v-67zM294 583h-258v67h258v-67z" />
    <glyph glyph-name="uni208B" unicode="&#x208b;" horiz-adv-x="316" 
d="M280 38h-244v67h244v-67z" />
    <glyph glyph-name="uni207B" unicode="&#x207b;" horiz-adv-x="316" 
d="M280 638h-244v67h244v-67z" />
    <glyph glyph-name="plus" unicode="+" horiz-adv-x="629" 
d="M364 319h220v-95h-220v-224h-99v224h-220v95h220v220h99v-220z" />
    <glyph glyph-name="minus" unicode="&#x2212;" horiz-adv-x="585" 
d="M534 224h-483v95h483v-95z" />
    <glyph glyph-name="multiply" unicode="&#xd7;" horiz-adv-x="578" 
d="M468 515l66 -66l-178 -178l178 -179l-66 -66l-178 179l-179 -179l-66 66l179 179l-179 178l66 66l179 -178z" />
    <glyph glyph-name="divide" unicode="&#xf7;" horiz-adv-x="650" 
d="M386 408h-123v131h123v-131zM594 224h-539v95h539v-95zM386 0h-123v132h123v-132z" />
    <glyph glyph-name="equal" unicode="=" horiz-adv-x="643" 
d="M575 331h-508v96h508v-96zM575 120h-508v95h508v-95z" />
    <glyph glyph-name="notequal" unicode="&#x2260;" horiz-adv-x="643" 
d="M575 427v-96h-159l-67 -116h226v-95h-281l-69 -120h-119l69 120h-108v95h163l67 116h-230v96h285l65 112h119l-65 -112h104z" />
    <glyph glyph-name="greater" unicode="&#x3e;" horiz-adv-x="589" 
d="M60 417v102l478 -169v-158l-478 -168v101l419 146z" />
    <glyph glyph-name="less" unicode="&#x3c;" horiz-adv-x="589" 
d="M50 350l479 169v-102l-419 -146l419 -146v-101l-479 168v158z" />
    <glyph glyph-name="greaterequal" unicode="&#x2265;" horiz-adv-x="597" 
d="M63 444v95l475 -125v-147l-475 -126v94l409 105zM538 0h-475v94h475v-94z" />
    <glyph glyph-name="lessequal" unicode="&#x2264;" horiz-adv-x="597" 
d="M59 414l475 125v-95l-409 -104l409 -105v-94l-475 126v147zM534 0h-475v94h475v-94z" />
    <glyph glyph-name="plusminus" unicode="&#xb1;" horiz-adv-x="653" 
d="M376 539v-150h220v-94h-220v-156h-99v156h-220v94h220v150h99zM596 0h-539v94h539v-94z" />
    <glyph glyph-name="approxequal" unicode="&#x2248;" horiz-adv-x="695" 
d="M120 298l-61 62c46 63 103 102 167 102c36 0 63 -5 121 -29c43 -18 78 -31 114 -31c48 0 80 27 113 64l61 -62c-44 -61 -103 -103 -166 -103c-37 0 -63 6 -121 30c-44 18 -80 30 -116 30c-46 0 -79 -26 -112 -63zM120 83l-61 61c46 63 103 103 167 103
c36 0 63 -6 121 -29c43 -18 78 -31 114 -31c48 0 80 27 113 63l61 -61c-44 -62 -103 -103 -166 -103c-37 0 -63 6 -121 29c-44 19 -80 31 -116 31c-46 0 -79 -26 -112 -63z" />
    <glyph glyph-name="asciitilde" unicode="~" horiz-adv-x="671" 
d="M108 205l-61 62c46 62 103 102 167 102c36 0 63 -6 121 -29c43 -18 78 -31 114 -31c48 0 80 27 113 63l61 -61c-45 -62 -103 -103 -166 -103c-37 0 -63 6 -121 30c-45 18 -80 30 -116 30c-46 0 -79 -26 -112 -63z" />
    <glyph glyph-name="logicalnot" unicode="&#xac;" horiz-adv-x="609" 
d="M539 107h-98v229h-396v95h494v-324z" />
    <glyph glyph-name="asciicircum" unicode="^" horiz-adv-x="563" 
d="M371 760l157 -393h-119l-127 341l-128 -341h-119l158 393h178z" />
    <glyph glyph-name="infinity" unicode="&#x221e;" horiz-adv-x="1128" 
d="M823 525c141 0 252 -108 252 -253s-111 -253 -252 -253c-118 0 -199 73 -259 159c-60 -86 -141 -159 -258 -159c-142 0 -253 108 -253 253s111 253 253 253c119 0 200 -77 258 -162c58 85 139 162 259 162zM310 119c72 0 129 63 170 123l21 30l-21 31
c-40 58 -96 122 -170 122c-80 0 -142 -58 -142 -153c0 -94 62 -153 142 -153zM818 119c80 0 143 59 143 153c0 95 -63 153 -143 153c-73 0 -129 -64 -169 -122l-21 -31l20 -30c41 -60 98 -123 170 -123z" />
    <glyph glyph-name="integral" unicode="&#x222b;" horiz-adv-x="409" 
d="M67 -196h-70v93h55c64 0 90 27 90 99v583c0 131 72 181 198 181h71v-93h-56c-63 0 -88 -27 -88 -99v-583c0 -131 -74 -181 -200 -181z" />
    <glyph glyph-name="product" unicode="&#x220f;" horiz-adv-x="932" 
d="M906 760v-111h-143v-784h-129v784h-337v-784h-129v784h-142v111h880z" />
    <glyph glyph-name="summation" unicode="&#x2211;" horiz-adv-x="683" 
d="M521 323l-331 -347h460v-111h-607v145l298 312l-298 293v145h599v-111h-451z" />
    <glyph glyph-name="radical" unicode="&#x221a;" horiz-adv-x="692" 
d="M337 -46l227 806h131l-253 -895h-206l-108 335h-121v110h218z" />
    <glyph glyph-name="uni00B5" unicode="&#xb5;" horiz-adv-x="676" 
d="M615 93h30v-93h-53c-92 0 -140 23 -158 88c-2 6 -3 13 -4 20c-23 -64 -75 -119 -168 -119c-19 0 -38 4 -56 11v-196h-125v735h125v-313v-2c0 -101 42 -146 112 -146c71 0 111 47 111 148v313h125v-391v-2c0 -41 19 -53 61 -53z" />
    <glyph glyph-name="partialdiff" unicode="&#x2202;" horiz-adv-x="618" 
d="M136 676v93c309 -32 436 -209 436 -445c0 -218 -92 -336 -279 -336c-141 0 -266 92 -266 254c0 161 110 245 244 245c110 0 175 -69 200 -128c-4 163 -105 295 -335 317zM297 76c83 0 142 67 142 168c0 99 -59 155 -142 155c-82 0 -142 -59 -142 -157
c0 -101 60 -166 142 -166z" />
    <glyph glyph-name="percent" unicode="%" horiz-adv-x="942" 
d="M208 341c-111 0 -177 75 -177 215s66 216 177 216s176 -76 176 -216s-65 -215 -176 -215zM314 0h-117l431 760h117zM208 415c51 0 78 45 78 141c0 97 -27 143 -78 143s-78 -46 -78 -143c0 -96 27 -141 78 -141zM735 -12c-111 0 -177 75 -177 215s66 216 177 216
c110 0 176 -76 176 -216s-66 -215 -176 -215zM735 61c51 0 78 45 78 142s-27 142 -78 142c-52 0 -79 -45 -79 -142s27 -142 79 -142z" />
    <glyph glyph-name="perthousand" unicode="&#x2030;" horiz-adv-x="1197" 
d="M384 556c0 -140 -65 -215 -176 -215s-177 75 -177 215s66 216 177 216s176 -76 176 -216zM197 0l431 760h117l-431 -760h-117zM130 556c0 -96 27 -141 78 -141s78 45 78 141c0 97 -27 143 -78 143s-78 -46 -78 -143zM989 419c111 0 177 -76 177 -216s-66 -215 -177 -215
c-53 0 -97 24 -127 64c-31 -40 -75 -64 -127 -64c-111 0 -177 75 -177 215s66 216 177 216c52 0 96 -24 127 -65c30 41 74 65 127 65zM735 61c51 0 78 45 78 142s-27 142 -78 142c-52 0 -79 -45 -79 -142s27 -142 79 -142zM989 61c52 0 78 45 78 142s-26 142 -78 142
c-51 0 -78 -45 -78 -142s27 -142 78 -142z" />
    <glyph glyph-name="uni208A" unicode="&#x208a;" horiz-adv-x="328" 
d="M199 105h102v-67h-102v-105h-70v105h-102v67h102v101h70v-101z" />
    <glyph glyph-name="uni207A" unicode="&#x207a;" horiz-adv-x="328" 
d="M199 705h102v-67h-102v-105h-70v105h-102v67h102v102h70v-102z" />
    <glyph glyph-name="plus.case" horiz-adv-x="633" 
d="M366 425h220v-96h-220v-224h-99v224h-220v96h220v220h99v-220z" />
    <glyph glyph-name="minus.case" horiz-adv-x="584" 
d="M533 329h-482v96h482v-96z" />
    <glyph glyph-name="multiply.case" horiz-adv-x="594" 
d="M476 620l66 -65l-179 -179l179 -179l-66 -66l-179 179l-178 -179l-67 66l179 179l-179 179l67 65l178 -178z" />
    <glyph glyph-name="divide.case" horiz-adv-x="652" 
d="M388 513h-124v132h124v-132zM596 329h-540v96h540v-96zM388 105h-124v132h124v-132z" />
    <glyph glyph-name="equal.case" horiz-adv-x="638" 
d="M573 436h-508v96h508v-96zM573 225h-508v95h508v-95z" />
    <glyph glyph-name="notequal.case" horiz-adv-x="638" 
d="M577 532v-96h-159l-67 -116h226v-95h-281l-69 -120h-119l69 120h-108v95h163l67 116h-230v96h285l65 113h119l-65 -113h104z" />
    <glyph glyph-name="greater.case" horiz-adv-x="607" 
d="M76 522v102l478 -169v-158l-478 -168v101l419 146z" />
    <glyph glyph-name="less.case" horiz-adv-x="607" 
d="M53 455l478 169v-102l-419 -146l419 -146v-101l-478 168v158z" />
    <glyph glyph-name="greaterequal.case" horiz-adv-x="620" 
d="M77 550v94l475 -125v-147l-475 -125v93l409 105zM552 105h-475v94h475v-94z" />
    <glyph glyph-name="lessequal.case" horiz-adv-x="620" 
d="M68 519l476 125v-94l-410 -105l410 -105v-93l-476 125v147zM544 105h-476v94h476v-94z" />
    <glyph glyph-name="plusminus.case" horiz-adv-x="673" 
d="M386 645v-151h220v-94h-220v-156h-99v156h-220v94h220v151h99zM606 105h-539v94h539v-94z" />
    <glyph glyph-name="approxequal.case" horiz-adv-x="692" 
d="M120 403l-61 62c46 63 103 103 166 103c37 0 63 -6 121 -30c44 -18 79 -31 115 -31c48 0 79 27 113 64l61 -62c-45 -61 -103 -102 -166 -102c-37 0 -63 5 -121 29c-45 18 -80 31 -116 31c-46 0 -79 -27 -112 -64zM120 188l-61 62c46 63 103 102 166 102
c37 0 63 -5 121 -29c44 -18 79 -31 115 -31c48 0 79 27 113 64l61 -62c-45 -61 -103 -103 -166 -103c-37 0 -63 6 -121 30c-45 18 -80 30 -116 30c-46 0 -79 -26 -112 -63z" />
    <glyph glyph-name="logicalnot.case" horiz-adv-x="594" 
d="M524 213h-98v228h-396v96h494v-324z" />
    <glyph glyph-name="asciitilde.case" horiz-adv-x="675" 
d="M111 310l-60 62c45 63 103 102 166 102c36 0 63 -5 121 -29c43 -18 79 -31 115 -31c47 0 79 27 112 64l61 -62c-44 -61 -103 -103 -166 -103c-37 0 -63 6 -121 30c-44 18 -79 30 -115 30c-47 0 -80 -26 -113 -63z" />
    <glyph glyph-name="plus.tf" 
d="M424 425h221v-96h-221v-224h-98v224h-221v96h221v220h98v-220z" />
    <glyph glyph-name="minus.tf" 
d="M616 329h-482v96h482v-96z" />
    <glyph glyph-name="multiply.tf" 
d="M554 620l66 -65l-179 -179l179 -179l-66 -66l-179 179l-178 -179l-67 66l179 179l-179 179l67 65l178 -178z" />
    <glyph glyph-name="divide.tf" 
d="M437 513h-124v132h124v-132zM645 329h-540v96h540v-96zM437 105h-124v132h124v-132z" />
    <glyph glyph-name="equal.tf" 
d="M629 436h-508v96h508v-96zM629 225h-508v95h508v-95z" />
    <glyph glyph-name="notequal.tf" 
d="M633 532v-96h-160l-67 -116h227v-95h-281l-69 -120h-119l69 120h-108v95h163l67 116h-230v96h285l65 113h118l-65 -113h105z" />
    <glyph glyph-name="greater.tf" 
d="M148 522v102l478 -169v-158l-478 -168v101l419 146z" />
    <glyph glyph-name="less.tf" 
d="M124 455l478 169v-102l-419 -146l419 -146v-101l-478 168v158z" />
    <glyph glyph-name="greaterequal.tf" 
d="M142 550v94l475 -125v-147l-475 -125v93l409 105zM617 105h-475v94h475v-94z" />
    <glyph glyph-name="lessequal.tf" 
d="M133 519l475 125v-94l-409 -105l409 -105v-93l-475 125v147zM608 105h-475v94h475v-94z" />
    <glyph glyph-name="plusminus.tf" 
d="M424 645v-151h221v-94h-221v-156h-98v156h-221v94h221v151h98zM645 105h-540v94h540v-94z" />
    <glyph glyph-name="approxequal.tf" 
d="M149 403l-61 62c46 63 103 103 167 103c36 0 63 -6 121 -30c43 -18 78 -31 114 -31c48 0 80 27 113 64l61 -62c-44 -61 -103 -102 -166 -102c-37 0 -63 5 -121 29c-44 18 -80 31 -116 31c-46 0 -79 -27 -112 -64zM149 188l-61 62c46 63 103 102 167 102
c36 0 63 -5 121 -29c43 -18 78 -31 114 -31c48 0 80 27 113 64l61 -62c-44 -61 -103 -103 -166 -103c-37 0 -63 6 -121 30c-44 18 -80 30 -116 30c-46 0 -79 -26 -112 -63z" />
    <glyph glyph-name="asciitilde.tf" 
d="M149 310l-61 62c45 63 103 102 166 102c36 0 63 -5 121 -29c43 -18 79 -31 115 -31c47 0 79 27 113 64l60 -62c-44 -61 -103 -103 -166 -103c-37 0 -63 6 -121 30c-44 18 -79 30 -115 30c-47 0 -80 -26 -112 -63z" />
    <glyph glyph-name="logicalnot.tf" 
d="M602 213h-98v228h-396v96h494v-324z" />
    <glyph glyph-name="percent.tf" 
d="M202 460c-84 0 -135 54 -135 156c0 101 51 156 135 156s133 -55 133 -156c0 -102 -49 -156 -133 -156zM169 0h-105l517 760h106zM202 526c30 0 42 28 42 90c0 61 -12 89 -42 89s-44 -28 -44 -89c0 -62 14 -90 44 -90zM549 -12c-84 0 -134 55 -134 156
c0 102 50 156 134 156s134 -54 134 -156c0 -101 -50 -156 -134 -156zM549 55c30 0 43 28 43 89c0 62 -13 90 -43 90s-43 -28 -43 -90c0 -61 13 -89 43 -89z" />
    <glyph glyph-name="perthousand.tf" 
d="M195 460c-85 0 -135 54 -135 156c0 101 50 156 135 156c84 0 133 -55 133 -156c0 -102 -49 -156 -133 -156zM-4 0l517 760h106l-518 -760h-105zM195 705c-30 0 -44 -28 -44 -89c0 -62 14 -90 44 -90c29 0 42 28 42 90c0 61 -13 89 -42 89zM597 300c84 0 134 -54 134 -156
c0 -101 -50 -156 -134 -156c-34 0 -65 14 -89 38c-23 -24 -53 -38 -88 -38c-84 0 -134 55 -134 156c0 102 50 156 134 156c35 0 65 -14 88 -38c24 24 55 38 89 38zM420 55c30 0 43 28 43 89c0 62 -13 90 -43 90s-43 -28 -43 -90c0 -61 13 -89 43 -89zM597 55
c30 0 43 28 43 89c0 62 -13 90 -43 90s-43 -28 -43 -90c0 -61 13 -89 43 -89z" />
    <glyph glyph-name="arrowup" unicode="&#x2191;" horiz-adv-x="770" 
d="M385 714l280 -241v-148l-223 213v-492h-113v493l-224 -214v148z" />
    <glyph glyph-name="uni2197" unicode="&#x2197;" horiz-adv-x="770" 
d="M131 534l100 103h402v-401l-104 -101v319l-372 -371l-78 78l373 373h-321z" />
    <glyph glyph-name="arrowright" unicode="&#x2192;" horiz-adv-x="770" 
d="M318 660h148l242 -280l-242 -280h-148l214 224h-492v112h492z" />
    <glyph glyph-name="uni2198" unicode="&#x2198;" horiz-adv-x="770" 
d="M529 306v319l104 -101v-401h-402l-100 103h321l-373 373l78 78z" />
    <glyph glyph-name="arrowdown" unicode="&#x2193;" horiz-adv-x="770" 
d="M442 714v-492l223 213v-148l-280 -241l-280 241v148l224 -214v493h113z" />
    <glyph glyph-name="uni2199" unicode="&#x2199;" horiz-adv-x="770" 
d="M613 677l78 -78l-373 -373h321l-100 -103h-402v401l104 101v-320z" />
    <glyph glyph-name="arrowleft" unicode="&#x2190;" horiz-adv-x="770" 
d="M238 436h492v-112h-492l214 -224h-148l-241 280l241 280h148z" />
    <glyph glyph-name="uni2196" unicode="&#x2196;" horiz-adv-x="770" 
d="M318 534l373 -373l-78 -78l-372 372v-320l-104 101v401h402l100 -103h-321z" />
    <glyph glyph-name="uni21A4" unicode="&#x21a4;" horiz-adv-x="770" 
d="M584 436v224h112v-560h-112v223h-389l213 -223h-148l-241 280l241 280h148l-214 -224h390z" />
    <glyph glyph-name="uni21A5" unicode="&#x21a5;" horiz-adv-x="770" 
d="M665 520v-147l-223 212v-411h223v-112h-560v112h224v412l-224 -213v147l280 242z" />
    <glyph glyph-name="uni21A6" unicode="&#x21a6;" horiz-adv-x="770" 
d="M362 660h148l241 -280l-241 -280h-148l213 223h-389v-223h-112v560h112v-224h390z" />
    <glyph glyph-name="uni21A7" unicode="&#x21a7;" horiz-adv-x="770" 
d="M665 698v-112h-223v-411l223 212v-147l-280 -242l-280 242v147l224 -213v412h-224v112h560z" />
    <glyph glyph-name="uni21B0" unicode="&#x21b0;" horiz-adv-x="770" 
d="M189 436h497v-436h-111v323h-385l213 -223h-148l-241 280l241 280h148z" />
    <glyph glyph-name="uni21B1" unicode="&#x21b1;" horiz-adv-x="770" 
d="M367 660h148l241 -280l-241 -280h-148l213 223h-385v-323h-111v436h497z" />
    <glyph glyph-name="uni21B2" unicode="&#x21b2;" horiz-adv-x="770" 
d="M575 437v323h111v-436h-497l214 -224h-148l-241 280l241 280h148l-213 -223h385z" />
    <glyph glyph-name="uni21B3" unicode="&#x21b3;" horiz-adv-x="770" 
d="M367 660h148l241 -280l-241 -280h-148l214 224h-497v436h111v-323h385z" />
    <glyph glyph-name="uni25CF" unicode="&#x25cf;" horiz-adv-x="680" 
d="M340 -18c-160 0 -288 129 -288 288s128 288 288 288c159 0 288 -129 288 -288s-129 -288 -288 -288z" />
    <glyph glyph-name="circle" unicode="&#x25cb;" horiz-adv-x="680" 
d="M340 -18c-160 0 -288 129 -288 288s128 288 288 288c159 0 288 -129 288 -288s-129 -288 -288 -288zM340 86c102 0 184 83 184 184s-82 183 -184 183s-184 -82 -184 -183s82 -184 184 -184z" />
    <glyph glyph-name="lozenge" unicode="&#x25ca;" horiz-adv-x="686" 
d="M263 760h160l217 -380l-217 -380h-160l-217 380zM163 380l180 -314l180 314l-180 315z" />
    <glyph glyph-name="filledbox" unicode="&#x25a0;" horiz-adv-x="700" 
d="M620 0h-540v539h540v-539z" />
    <glyph glyph-name="uni25A1" unicode="&#x25a1;" horiz-adv-x="700" 
d="M620 0h-540v539h540v-539zM181 439v-338h338v338h-338z" />
    <glyph glyph-name="at" unicode="@" horiz-adv-x="964" 
d="M479 674c243 0 441 -198 441 -441c0 -179 -97 -233 -187 -233c-84 0 -139 44 -158 101c-22 -50 -73 -101 -156 -101c-86 0 -163 55 -163 147c0 98 86 130 197 142l118 13v16v2c0 56 -40 84 -92 84s-85 -28 -92 -72h-114c12 97 97 150 206 150c127 0 204 -63 204 -170v-2
v-145v-2c0 -48 26 -75 66 -75c45 0 82 28 82 145c0 194 -159 352 -352 352c-195 0 -352 -158 -352 -352c0 -193 157 -352 352 -352c61 0 121 17 170 44l47 -76c-64 -36 -138 -57 -217 -57c-243 0 -440 198 -440 441s197 441 440 441zM456 77c67 0 115 51 115 123v30l-77 -8
c-71 -8 -124 -24 -124 -77c0 -45 40 -68 86 -68z" />
    <glyph glyph-name="ampersand" unicode="&#x26;" horiz-adv-x="772" 
d="M611 173l153 -173h-151l-74 84c-64 -59 -143 -96 -233 -96c-156 0 -269 76 -269 221c0 118 82 185 183 236c-51 60 -84 103 -84 160c0 88 84 167 213 167c130 0 208 -76 208 -164c0 -81 -65 -131 -163 -179l-6 -3l155 -176l91 153h114l-127 -214c-3 -5 -6 -11 -10 -16z
M349 684c-46 0 -87 -27 -87 -81c0 -35 24 -63 57 -99l6 -7c62 31 107 61 107 109c0 52 -38 78 -83 78zM314 76c73 0 125 34 164 77l-194 220c-77 -43 -120 -85 -120 -157c0 -89 64 -140 150 -140z" />
    <glyph glyph-name="paragraph" unicode="&#xb6;" horiz-adv-x="698" 
d="M356 -93h-116v429c-119 0 -211 95 -211 213s92 211 211 211h363v-853h-116v756h-131v-756z" />
    <glyph glyph-name="section" unicode="&#xa7;" horiz-adv-x="613" 
d="M485 162c31 -28 48 -60 48 -101c0 -91 -81 -165 -224 -165c-140 0 -231 71 -248 170h130c11 -50 61 -79 117 -79c62 0 98 29 98 67c0 39 -37 59 -95 86l-149 70c-91 42 -123 91 -123 155c0 55 29 100 89 142c-31 27 -48 59 -48 100c0 91 82 165 225 165
c139 0 231 -71 248 -170h-130c-11 50 -61 79 -118 79c-61 0 -97 -29 -97 -67c0 -39 37 -59 95 -86l149 -70c90 -42 123 -91 123 -155c0 -55 -30 -100 -90 -141zM244 288l161 -76c28 25 42 50 42 75c0 39 -19 65 -78 93l-160 76c-29 -24 -43 -50 -43 -75c0 -39 19 -65 78 -93
z" />
    <glyph glyph-name="copyright" unicode="&#xa9;" horiz-adv-x="930" 
d="M465 -31c-227 0 -411 185 -411 411s184 411 411 411s411 -185 411 -411s-184 -411 -411 -411zM465 53c181 0 327 146 327 327s-146 328 -327 328c-182 0 -327 -147 -327 -328s145 -327 327 -327zM469 146c-130 0 -225 93 -225 234s94 234 223 234c102 0 192 -61 212 -164
h-105c-16 53 -53 82 -106 82c-66 0 -118 -51 -118 -152s52 -152 119 -152c51 0 93 25 106 83h106c-20 -103 -107 -165 -212 -165z" />
    <glyph glyph-name="registered" unicode="&#xae;" horiz-adv-x="930" 
d="M465 791c227 0 411 -185 411 -411s-184 -411 -411 -411s-411 185 -411 411s184 411 411 411zM465 53c181 0 327 146 327 327s-146 328 -327 328c-182 0 -327 -147 -327 -328s145 -327 327 -327zM661 464c0 -63 -35 -108 -96 -130l105 -185h-110l-92 172h-75v-172h-98v459
h183c113 0 183 -55 183 -144zM477 528h-84v-127h84c51 0 83 22 83 63s-32 64 -83 64z" />
    <glyph glyph-name="uni2117" unicode="&#x2117;" horiz-adv-x="930" 
d="M465 791c227 0 411 -185 411 -411s-184 -411 -411 -411s-411 185 -411 411s184 411 411 411zM465 53c181 0 327 146 327 327s-146 328 -327 328c-182 0 -327 -147 -327 -328s145 -327 327 -327zM310 608h181c118 0 190 -61 190 -150s-72 -152 -190 -152h-83v-157h-98v459
zM408 386h78c62 0 94 25 94 72c0 46 -32 70 -94 70h-78v-142z" />
    <glyph glyph-name="trademark" unicode="&#x2122;" horiz-adv-x="865" 
d="M144 692h-114v68h310v-68h-114v-298h-82v298zM789 760v-366h-79v350l-67 -350h-135l-66 345v-345h-79v366h149l64 -342l63 342h150z" />
    <glyph glyph-name="degree" unicode="&#xb0;" horiz-adv-x="416" 
d="M208 429c-94 0 -171 77 -171 171c0 95 77 172 171 172c95 0 172 -77 172 -172c0 -94 -77 -171 -172 -171zM208 519c45 0 81 36 81 81s-36 81 -81 81c-44 0 -81 -36 -81 -81s37 -81 81 -81z" />
    <glyph glyph-name="minute" unicode="&#x2032;" horiz-adv-x="245" 
d="M145 480h-95l35 280h132z" />
    <glyph glyph-name="second" unicode="&#x2033;" horiz-adv-x="426" 
d="M145 480h-95l35 280h132zM326 480h-96l36 280h131z" />
    <glyph glyph-name="uni2300" unicode="&#x2300;" horiz-adv-x="665" 
d="M559 563l66 -65l-64 -64c33 -46 53 -103 53 -164c0 -156 -126 -283 -281 -283c-61 0 -118 19 -164 53l-64 -65l-65 65l64 65c-33 46 -53 103 -53 165c0 155 126 281 282 281c61 0 117 -19 163 -52zM152 270c0 -34 9 -65 25 -92l246 248c-26 16 -57 25 -90 25
c-100 0 -181 -82 -181 -181zM514 270c0 33 -9 64 -25 91l-247 -248c27 -15 58 -24 91 -24c99 0 181 81 181 181z" />
    <glyph glyph-name="bar" unicode="|" horiz-adv-x="286" 
d="M203 -226h-120v1046h120v-1046z" />
    <glyph glyph-name="brokenbar" unicode="&#xa6;" horiz-adv-x="293" 
d="M207 409h-120v411h120v-411zM207 -226h-120v411h120v-411z" />
    <glyph glyph-name="dagger" unicode="&#x2020;" horiz-adv-x="606" 
d="M365 556h185v-101h-185v-455h-125v455h-184v101h184v204h125v-204z" />
    <glyph glyph-name="uni2113" unicode="&#x2113;" horiz-adv-x="532" 
d="M260 145c0 -47 24 -69 70 -69c40 0 78 15 115 42v-88c-48 -32 -93 -42 -140 -42c-114 0 -170 58 -170 164v2v23l-55 -36l-52 80l107 70v270c0 115 65 211 194 211c128 0 181 -75 181 -181c0 -118 -77 -218 -203 -303l-47 -30v-111v-2zM331 684c-38 0 -71 -40 -71 -119
v-189c78 62 129 133 129 216c0 65 -21 92 -58 92z" />
    <glyph glyph-name="daggerdbl" unicode="&#x2021;" horiz-adv-x="606" 
d="M550 556v-101h-185v-128h185v-102h-185v-225h-125v225h-184v102h184v128h-184v101h184v204h125v-204h185z" />
    <glyph glyph-name="uni2116" unicode="&#x2116;" horiz-adv-x="1277" 
d="M1055 772c117 0 193 -77 193 -193c0 -115 -76 -192 -193 -192c-118 0 -195 77 -195 192c0 116 77 193 195 193zM350 760l298 -747v747h128v-760h-256l-298 747v-747h-128v760h256zM1055 463c53 0 83 43 83 116c0 74 -30 117 -83 117c-54 0 -84 -43 -84 -117
c0 -73 30 -116 84 -116z" />
    <glyph glyph-name="uni2120" unicode="&#x2120;" horiz-adv-x="892" 
d="M208 624l53 -11c71 -16 102 -50 102 -107c0 -73 -63 -115 -155 -115c-88 0 -149 48 -157 118h86c5 -37 34 -58 75 -58c43 0 69 20 69 46c0 28 -29 39 -67 47l-52 11c-65 14 -104 43 -104 102c0 63 61 108 144 108c94 0 144 -45 153 -103h-86c-8 28 -36 43 -69 43
c-34 0 -61 -17 -61 -41c0 -21 20 -29 69 -40zM819 760v-366h-79v345l-66 -345h-135l-66 345v-345h-79v366h149l63 -342l63 342h150z" />
    <glyph glyph-name="at.case" horiz-adv-x="970" 
d="M950 379c0 -129 -89 -216 -203 -217h-115l-38 126h-197l-38 -126h-114l153 481h196l121 -381h26c68 0 109 49 109 117c0 197 -158 356 -354 356c-197 0 -356 -161 -356 -356s160 -354 356 -354c72 0 142 21 200 61l54 -84c-73 -49 -160 -77 -254 -77
c-251 0 -456 203 -456 454s205 456 456 456c250 0 454 -205 454 -456zM496 616l-71 -235h141z" />
    <glyph glyph-name="bar.case" horiz-adv-x="300" 
d="M212 -104h-125v970h125v-970z" />
    <glyph glyph-name="brokenbar.case" horiz-adv-x="307" 
d="M216 493h-125v373h125v-373zM216 -104h-125v373h125v-373z" />
    <glyph glyph-name="at.ss04" horiz-adv-x="964" 
d="M479 674c243 0 441 -198 441 -441c0 -179 -98 -241 -191 -241c-81 0 -128 44 -150 109c-26 -64 -89 -109 -159 -109c-115 0 -195 101 -195 241s80 242 193 242c82 0 135 -57 155 -116v106h112v-305v-2c0 -48 22 -77 61 -77c45 0 84 35 84 152c0 194 -158 352 -351 352
c-195 0 -352 -158 -352 -352c0 -193 157 -352 352 -352c61 0 121 17 170 44l47 -76c-64 -36 -138 -57 -217 -57c-243 0 -440 198 -440 441s197 441 440 441zM458 72c77 0 120 62 120 161s-43 162 -120 162c-76 0 -119 -62 -119 -162s43 -161 119 -161z" />
    <glyph glyph-name="registered.ss06" horiz-adv-x="496" 
d="M249 772c106 0 194 -89 194 -195c0 -107 -88 -195 -194 -195c-107 0 -196 88 -196 195c0 106 89 195 196 195zM249 431c81 0 145 64 145 146c0 81 -64 146 -145 146c-82 0 -147 -65 -147 -146c0 -82 65 -146 147 -146zM332 616c0 -23 -12 -43 -33 -54l44 -78h-59l-36 68
h-23v-68h-51v192h80c48 0 78 -25 78 -60zM250 636h-25v-42h25c20 0 30 8 30 21s-10 21 -30 21z" />
    <glyph glyph-name="uni0308" unicode="&#x308;" horiz-adv-x="0" 
d="M-244 622h-131v138h131v-138zM-22 622h-132v138h132v-138z" />
    <glyph glyph-name="uni0307" unicode="&#x307;" horiz-adv-x="0" 
d="M-23 622h-131v138h131v-138z" />
    <glyph glyph-name="gravecomb" unicode="&#x300;" horiz-adv-x="0" 
d="M-23 606h-116l-168 154h170z" />
    <glyph glyph-name="acutecomb" unicode="&#x301;" horiz-adv-x="0" 
d="M-191 606h-116l114 154h170z" />
    <glyph glyph-name="uni030B" unicode="&#x30b;" horiz-adv-x="0" 
d="M-390 606h-110l117 154h156zM-186 606h-110l117 154h156z" />
    <glyph glyph-name="uni030C.alt" horiz-adv-x="0" 
d="M-104 578h-90l14 182h114z" />
    <glyph glyph-name="uni0302" unicode="&#x302;" horiz-adv-x="0" 
d="M-151 760l128 -154h-112l-96 99l-96 -99h-112l127 154h161z" />
    <glyph glyph-name="uni030C" unicode="&#x30c;" horiz-adv-x="0" 
d="M-231 662l96 98h112l-128 -154h-161l-127 154h112z" />
    <glyph glyph-name="uni0306" unicode="&#x306;" horiz-adv-x="0" 
d="M-193 602c-106 0 -171 71 -171 158h94c0 -52 28 -78 77 -78c48 0 76 26 76 78h95c0 -87 -65 -158 -171 -158z" />
    <glyph glyph-name="uni030A" unicode="&#x30a;" horiz-adv-x="0" 
d="M-140 602c-65 0 -117 54 -117 119s52 116 117 116s118 -51 118 -116s-53 -119 -118 -119zM-140 674c25 0 46 22 46 47s-21 45 -46 45s-46 -20 -46 -45s21 -47 46 -47z" />
    <glyph glyph-name="tildecomb" unicode="&#x303;" horiz-adv-x="0" 
d="M-315 624h-41c2 82 43 124 98 124c29 0 57 -13 75 -22s39 -16 59 -16c34 0 53 17 59 41h42c-2 -82 -43 -124 -98 -124c-29 0 -57 12 -76 22c-18 8 -39 16 -58 16c-34 0 -53 -18 -60 -41z" />
    <glyph glyph-name="uni0304" unicode="&#x304;" horiz-adv-x="0" 
d="M-22 635h-364v91h364v-91z" />
    <glyph glyph-name="uni0312" unicode="&#x312;" horiz-adv-x="0" 
d="M-93 862h79l-51 -101h42v-138h-131v149z" />
    <glyph glyph-name="dotbelowcomb" unicode="&#x323;" horiz-adv-x="0" 
d="M-23 -199h-131v138h131v-138z" />
    <glyph glyph-name="uni0326" unicode="&#x326;" horiz-adv-x="0" 
d="M-154 -199v138h131v-149l-62 -90h-78l51 101h-42z" />
    <glyph glyph-name="uni0327" unicode="&#x327;" horiz-adv-x="0" 
d="M-102 0v-34c48 -6 80 -37 80 -83c0 -51 -40 -85 -102 -85h-62v63h44c24 0 39 9 39 29s-16 29 -35 29h-33v81h69z" />
    <glyph glyph-name="uni0328" unicode="&#x328;" horiz-adv-x="0" 
d="M-23 -201h-43c-93 0 -152 31 -152 94c0 47 30 80 71 107h124c-57 -22 -87 -49 -87 -80c0 -26 23 -38 58 -38h29v-83z" />
    <glyph glyph-name="uni0335" unicode="&#x335;" horiz-adv-x="0" 
d="M-335 605h-279v86h279v-86z" />
    <glyph glyph-name="uni0336" unicode="&#x336;" horiz-adv-x="0" 
d="M-23 540h-796v100h796v-100z" />
    <glyph glyph-name="uni0337" unicode="&#x337;" horiz-adv-x="0" 
d="M-22 417l-273 -174v110l273 174v-110z" />
    <glyph glyph-name="uni0338" unicode="&#x338;" horiz-adv-x="0" 
d="M-531 0h-131l514 539h131z" />
    <glyph glyph-name="dieresis" unicode="&#xa8;" horiz-adv-x="398" 
d="M154 622h-131v138h131v-138zM376 622h-132v138h132v-138z" />
    <glyph glyph-name="dotaccent" unicode="&#x2d9;" horiz-adv-x="177" 
d="M154 622h-131v138h131v-138z" />
    <glyph glyph-name="grave" unicode="`" horiz-adv-x="330" 
d="M307 606h-116l-168 154h170z" />
    <glyph glyph-name="acute" unicode="&#xb4;" horiz-adv-x="330" 
d="M139 606h-116l114 154h170z" />
    <glyph glyph-name="hungarumlaut" unicode="&#x2dd;" horiz-adv-x="523" 
d="M133 606h-110l117 154h156zM337 606h-110l117 154h156z" />
    <glyph glyph-name="circumflex" unicode="&#x2c6;" horiz-adv-x="462" 
d="M311 760l128 -154h-112l-96 99l-96 -99h-112l127 154h161z" />
    <glyph glyph-name="caron" unicode="&#x2c7;" horiz-adv-x="462" 
d="M231 662l96 98h112l-128 -154h-161l-127 154h112z" />
    <glyph glyph-name="breve" unicode="&#x2d8;" horiz-adv-x="387" 
d="M194 602c-106 0 -171 71 -171 158h94c0 -52 28 -78 77 -78c48 0 76 26 76 78h95c0 -87 -65 -158 -171 -158z" />
    <glyph glyph-name="ring" unicode="&#x2da;" horiz-adv-x="280" 
d="M140 602c-65 0 -117 54 -117 119s52 116 117 116s118 -51 118 -116s-53 -119 -118 -119zM140 674c25 0 46 22 46 47s-21 45 -46 45s-46 -20 -46 -45s21 -47 46 -47z" />
    <glyph glyph-name="tilde" unicode="&#x2dc;" horiz-adv-x="379" 
d="M64 624h-41c2 82 43 124 98 124c29 0 57 -13 75 -22s39 -16 59 -16c34 0 53 17 59 41h42c-2 -82 -43 -124 -98 -124c-29 0 -57 12 -76 22c-18 8 -39 16 -58 16c-34 0 -53 -18 -60 -41z" />
    <glyph glyph-name="macron" unicode="&#xaf;" horiz-adv-x="409" 
d="M387 635h-364v91h364v-91z" />
    <glyph glyph-name="cedilla" unicode="&#xb8;" horiz-adv-x="209" 
d="M107 0v-34c48 -6 80 -37 80 -83c0 -51 -40 -85 -102 -85h-62v63h44c24 0 39 9 39 29s-16 29 -35 29h-33v81h69z" />
    <glyph glyph-name="ogonek" unicode="&#x2db;" horiz-adv-x="241" 
d="M218 -201h-43c-93 0 -152 31 -152 94c0 47 30 80 71 107h124c-57 -22 -87 -49 -87 -80c0 -26 23 -38 58 -38h29v-83z" />
    <glyph glyph-name="uni0328.alt" horiz-adv-x="0" 
d="M-23 -201h-44c-93 0 -151 31 -151 94c0 48 30 86 89 125l98 21c-61 -50 -80 -82 -80 -115c0 -31 23 -42 58 -42h30v-83z" />
    <glyph glyph-name="caron.alt" horiz-adv-x="240" 
d="M136 578h-90l14 182h114z" />
    <glyph glyph-name="uni0307.case.alt" horiz-adv-x="0" 
d="M-23 622h-125v138h125v-138z" />
    <glyph glyph-name="uni0328.case.alt" horiz-adv-x="0" 
d="M-23 -201h-44c-93 0 -153 31 -153 93c0 48 30 88 86 125l109 26c-67 -48 -83 -81 -83 -114c0 -31 21 -45 55 -45h30v-85z" />
    <glyph glyph-name="uni0308.case" horiz-adv-x="0" 
d="M-244 820h-135v138h135v-138zM-23 820h-135v138h135v-138z" />
    <glyph glyph-name="uni0307.case" horiz-adv-x="0" 
d="M-23 820h-135v138h135v-138z" />
    <glyph glyph-name="gravecomb.case" horiz-adv-x="0" 
d="M-23 820h-124l-175 138h177z" />
    <glyph glyph-name="acutecomb.case" horiz-adv-x="0" 
d="M-199 820h-123l121 138h178z" />
    <glyph glyph-name="uni030B.case" horiz-adv-x="0" 
d="M-409 820h-119l132 138h164zM-201 820h-119l133 138h164z" />
    <glyph glyph-name="uni030C.alt.case" horiz-adv-x="0" 
d="M-118 510h-93l19 250h124z" />
    <glyph glyph-name="uni0302.case" horiz-adv-x="0" 
d="M-149 958l126 -138h-117l-93 82l-93 -82h-117l126 138h168z" />
    <glyph glyph-name="uni030C.case" horiz-adv-x="0" 
d="M-233 877l93 81h117l-126 -138h-168l-126 138h117z" />
    <glyph glyph-name="uni0306.case" horiz-adv-x="0" 
d="M-199 817c-110 0 -176 64 -176 141h95c1 -40 34 -68 81 -68s80 28 81 68h95c0 -77 -67 -141 -176 -141z" />
    <glyph glyph-name="uni030A.case" horiz-adv-x="0" 
d="M-156 814c-74 0 -134 61 -134 136c0 74 60 133 134 133s133 -59 133 -133c0 -75 -59 -136 -133 -136zM-156 894c30 0 54 26 54 56c0 29 -24 54 -54 54s-55 -25 -55 -54c0 -30 25 -56 55 -56z" />
    <glyph glyph-name="tildecomb.case" horiz-adv-x="0" 
d="M-329 830h-45c2 82 46 125 103 125c31 0 60 -10 81 -20c18 -9 41 -16 61 -16c32 0 53 15 61 37h45c-2 -81 -46 -125 -103 -125c-30 0 -60 11 -81 21c-18 9 -41 16 -61 16c-32 0 -53 -15 -61 -38z" />
    <glyph glyph-name="uni0304.case" horiz-adv-x="0" 
d="M-23 841h-397v97h397v-97z" />
    <glyph glyph-name="dotbelowcomb.case" horiz-adv-x="0" 
d="M-23 -199h-135v138h135v-138z" />
    <glyph glyph-name="uni0326.case" horiz-adv-x="0" 
d="M-158 -199v138h135v-149l-62 -90h-82l51 101h-42z" />
    <glyph glyph-name="uni0327.case" horiz-adv-x="0" 
d="M-103 0v-33c49 -7 80 -38 80 -84c0 -51 -41 -85 -105 -85h-64v67h44c22 0 37 8 37 26c0 19 -17 27 -35 27h-31v82h74z" />
    <glyph glyph-name="uni0328.case" horiz-adv-x="0" 
d="M-23 -201h-44c-93 0 -153 31 -153 94c0 47 30 81 68 107h129c-58 -22 -85 -49 -85 -79c0 -26 21 -37 55 -37h30v-85z" />
    <glyph glyph-name="uni0335.case" horiz-adv-x="0" 
d="M-22 341h-400v102h400v-102z" />
    <glyph glyph-name="uni0337.case" horiz-adv-x="0" 
d="M-23 442l-378 -214v108l378 214v-108z" />
    <glyph glyph-name="uni0338.case" horiz-adv-x="0" 
d="M-741 0h-159l724 760h159z" />
    <glyph glyph-name="diameter.tf" 
d="M602 563l66 -65l-64 -64c33 -46 53 -103 53 -164c0 -156 -126 -283 -281 -283c-61 0 -118 19 -164 53l-64 -65l-65 65l64 65c-33 46 -53 103 -53 165c0 155 126 281 282 281c61 0 117 -19 163 -52zM195 270c0 -34 9 -65 25 -92l246 248c-26 16 -57 25 -90 25
c-100 0 -181 -82 -181 -181zM557 270c0 33 -9 64 -25 91l-247 -248c27 -15 58 -24 91 -24c99 0 181 81 181 181z" />
    <glyph glyph-name="hookcomb" horiz-adv-x="270" 
d="M71 -196h-48v93h26c47 0 73 15 73 69v47h125v-52c0 -108 -76 -157 -176 -157z" />
    <glyph glyph-name="hookcomb.case" horiz-adv-x="329" 
d="M122 -196h-99v102h80c57 0 79 23 79 75v35h124v-52c0 -104 -64 -160 -184 -160z" />
    <glyph glyph-name="uniF8FF" unicode="&#xf8ff;" horiz-adv-x="835" 
d="M559 409h251v-58h-249l229 -95l-21 -52l-232 96l177 -178l-39 -39l-178 178l96 -233l-52 -21l-95 230v-249h-58v251l-96 -232l-51 21l97 234l-180 -179l-38 39l178 179l-234 -97l-20 52l228 95h-247v58h249l-230 95l22 53l231 -96l-177 177l41 40l175 -176l-95 230l53 21
l94 -228v247h58v-247l94 228l52 -21l-96 -232l177 178l41 -40l-177 -177l230 96l22 -53z" />
    </font>
</defs>
</svg>
