<?xml version="1.0" standalone="no"?>
<!DOCTYPE svg PUBLIC "-//W3C//DTD SVG 1.1//EN" "http://www.w3.org/Graphics/SVG/1.1/DTD/svg11.dtd" >
<svg xmlns="http://www.w3.org/2000/svg" xmlns:xlink="http://www.w3.org/1999/xlink" version="1.1">
<metadata>
Created by FontForge 20170924 at Fri Mar 19 22:00:23 2021
 By www-data
\(c\) 2014-2020. Copyright by TYPE.WELTKERN\(R\). All rights reserved.
</metadata>
<defs>
<font id="TWKEverett-Bold" horiz-adv-x="750" >
  <font-face 
    font-family="TWK Everett"
    font-weight="700"
    font-stretch="normal"
    units-per-em="1000"
    panose-1="2 11 2 4 0 0 0 0 0 0"
    ascent="800"
    descent="-200"
    x-height="543"
    cap-height="760"
    bbox="-916 -309 3322 1094"
    underline-thickness="109"
    underline-position="-235"
    stemh="108"
    stemv="153"
    unicode-range="U+000D-FEFF"
  />
<missing-glyph horiz-adv-x="746" 
d="M664 0h-582v760h582v-760zM238 635v-510h270v510h-270z" />
    <glyph glyph-name="W_W_W" unicode="WWW" horiz-adv-x="3337" 
d="M3027 28l142 732h153l-152 -760h-291l-111 727l-111 -727h-291l-146 733l-147 -733h-292l-110 730l-111 -730h-292l-146 733l-147 -733h-291l-111 727l-111 -727h-291l-152 760h153l142 -732l115 732h288l115 -732l142 732h296l142 -729l114 729h289l114 -729l142 729
h296l142 -732l115 732h288z" />
    <glyph glyph-name="f_f" unicode="ff" horiz-adv-x="811" 
d="M797 651h-55c-44 0 -67 -14 -67 -63v-45h122v-112h-122v-431h-153v431h-253v-431h-153v431h-98v112h98v54c0 109 80 163 187 163h88v-109h-54c-45 0 -68 -14 -68 -63v-45h253v54c0 109 79 163 187 163h88v-109z" />
    <glyph glyph-name="f_f_i" unicode="ffi" horiz-adv-x="1093" 
d="M675 543h354v-543h-153v431h-201v-431h-153v431h-253v-431h-153v431h-98v112h98v54c0 109 80 163 187 163h88v-109h-54c-45 0 -68 -14 -68 -63v-45h253v54c0 109 79 163 187 163h88v-109h-55c-44 0 -67 -14 -67 -63v-45zM874 616v144h158v-144h-158z" />
    <glyph glyph-name="f_f_l" unicode="ffl" horiz-adv-x="1093" 
d="M876 543v217h153v-760h-153v431h-201v-431h-153v431h-253v-431h-153v431h-98v112h98v54c0 109 80 163 187 163h88v-109h-54c-45 0 -68 -14 -68 -63v-45h253v54c0 109 79 163 187 163h88v-109h-55c-44 0 -67 -14 -67 -63v-45h201z" />
    <glyph glyph-name="f_j" unicode="fj" horiz-adv-x="688" 
d="M269 543h354v-576c0 -109 -80 -163 -187 -163h-60v112h26c45 0 68 14 68 63v452h-201v-431h-153v431h-98v112h98v54c0 109 80 163 187 163h88v-109h-54c-45 0 -68 -14 -68 -63v-45zM468 616v144h158v-144h-158z" />
    <glyph glyph-name="f_t" unicode="ft" horiz-adv-x="822" 
d="M741 112h53v-112h-87c-106 0 -187 53 -187 161v2v268h-251v-431h-153v431h-98v112h98v54c0 109 80 163 187 163h88v-109h-54c-45 0 -68 -14 -68 -63v-45h251v128h153v-128h120v-112h-120v-256v-2c0 -47 24 -61 68 -61z" />
    <glyph glyph-name="fi" unicode="fi" horiz-adv-x="688" 
d="M269 543h354v-543h-153v431h-201v-431h-153v431h-98v112h98v54c0 109 80 163 187 163h88v-109h-54c-45 0 -68 -14 -68 -63v-45zM468 616v144h158v-144h-158z" />
    <glyph glyph-name="fl" unicode="fl" horiz-adv-x="687" 
d="M623 760v-760h-153v651h-133c-45 0 -68 -14 -68 -63v-45h122v-112h-122v-431h-153v431h-98v112h98v54c0 109 80 163 187 163h320z" />
    <glyph glyph-name="t_f" unicode="tf" horiz-adv-x="822" 
d="M807 651h-54c-45 0 -68 -14 -68 -63v-45h122v-112h-122v-431h-153v431h-264v-256v-2c0 -47 23 -61 67 -61h53v-112h-86c-107 0 -187 53 -187 161v2v268h-101v112h101v128h153v-128h264v54c0 109 80 163 187 163h88v-109z" />
    <glyph glyph-name="t_t" unicode="tt" horiz-adv-x="832" 
d="M684 431v-256v-2c0 -47 23 -61 67 -61h53v-112h-87c-106 0 -186 53 -186 161v2v268h-263v-256v-2c0 -47 23 -61 67 -61h53v-112h-86c-107 0 -187 53 -187 161v2v268h-101v112h101v128h153v-128h263v128h153v-128h120v-112h-120z" />
    <glyph glyph-name="w_w_w" unicode="www" horiz-adv-x="2637" 
d="M2389 28l93 515h140l-101 -543h-265l-72 518l-72 -518h-265l-94 508l-94 -508h-265l-72 518l-72 -518h-265l-94 508l-95 -508h-265l-72 518l-72 -518h-265l-101 543h140l94 -518l74 518h261l74 -515l94 515h265l94 -515l74 515h261l74 -518l94 518h266l94 -518l74 518
h261z" />
    <glyph glyph-name=".notdef" horiz-adv-x="746" 
d="M664 0h-582v760h582v-760zM238 635v-510h270v510h-270z" />
    <glyph glyph-name="NULL" horiz-adv-x="0" 
 />
    <glyph glyph-name="CR" unicode="&#xd;" horiz-adv-x="232" 
 />
    <glyph glyph-name="space" unicode=" " horiz-adv-x="232" 
 />
    <glyph glyph-name="A" unicode="A" horiz-adv-x="792" 
d="M793 0h-166l-65 205h-332l-65 -205h-166l252 760h290zM396 728l-124 -391h248z" />
    <glyph glyph-name="Aacute" unicode="&#xc1;" horiz-adv-x="792" 
d="M441 962h215l-185 -145h-151zM793 0h-166l-65 205h-332l-65 -205h-166l252 760h290zM396 728l-124 -391h248z" />
    <glyph glyph-name="Abreve" unicode="&#x102;" horiz-adv-x="792" 
d="M395 815c-116 0 -189 65 -189 147h111c2 -36 32 -60 78 -60s77 24 79 60h110c0 -82 -73 -147 -189 -147zM793 0h-166l-65 205h-332l-65 -205h-166l252 760h290zM396 728l-124 -391h248z" />
    <glyph glyph-name="Acircumflex" unicode="&#xc2;" horiz-adv-x="792" 
d="M483 817l-87 77l-87 -77h-142l128 145h201l128 -145h-141zM793 0h-166l-65 205h-332l-65 -205h-166l252 760h290zM396 728l-124 -391h248z" />
    <glyph glyph-name="Adieresis" unicode="&#xc4;" horiz-adv-x="792" 
d="M196 962h163v-145h-163v145zM431 962h163v-145h-163v145zM793 0h-166l-65 205h-332l-65 -205h-166l252 760h290zM396 728l-124 -391h248z" />
    <glyph glyph-name="uni1EA0" unicode="&#x1ea0;" horiz-adv-x="792" 
d="M541 760l252 -760h-166l-65 205h-332l-65 -205h-166l252 760h290zM396 728l-124 -391h248zM477 -202h-163v144h163v-144z" />
    <glyph glyph-name="Agrave" unicode="&#xc0;" horiz-adv-x="792" 
d="M359 962l120 -145h-151l-185 145h216zM793 0h-166l-65 205h-332l-65 -205h-166l252 760h290zM396 728l-124 -391h248z" />
    <glyph glyph-name="Amacron" unicode="&#x100;" horiz-adv-x="792" 
d="M187 946h416v-112h-416v112zM793 0h-166l-65 205h-332l-65 -205h-166l252 760h290zM396 728l-124 -391h248z" />
    <glyph glyph-name="Aogonek" unicode="&#x104;" horiz-adv-x="792" 
d="M708 -70c0 -22 19 -32 52 -32h33v-101h-53c-104 0 -168 31 -168 100c0 45 27 77 55 103l-65 205h-332l-65 -205h-166l252 760h290l252 -760c-60 -20 -85 -43 -85 -70zM396 728l-124 -391h248z" />
    <glyph glyph-name="Aring" unicode="&#xc5;" horiz-adv-x="792" 
d="M395 812c-78 0 -141 63 -141 141s63 141 141 141s140 -63 140 -141s-62 -141 -140 -141zM395 1004c-28 0 -51 -23 -51 -51c0 -27 23 -51 51 -51s50 24 50 51c0 28 -22 51 -50 51zM793 0h-166l-65 205h-332l-65 -205h-166l252 760h290zM396 728l-124 -391h248z" />
    <glyph glyph-name="Atilde" unicode="&#xc3;" horiz-adv-x="792" 
d="M325 863c-32 0 -54 -16 -61 -38h-52c2 92 47 141 109 141c31 0 63 -11 83 -20c18 -9 41 -16 62 -16c31 0 53 15 60 38h52c-2 -93 -46 -142 -109 -142c-31 0 -63 12 -83 21c-18 9 -40 16 -61 16zM793 0h-166l-65 205h-332l-65 -205h-166l252 760h290zM396 728l-124 -391
h248z" />
    <glyph glyph-name="AE" unicode="&#xc6;" horiz-adv-x="1049" 
d="M686 324l63 -192h250v-132h-372l-65 205h-332l-65 -205h-166l252 760h739v-132h-405l57 -172h341v-132h-297zM396 728l-124 -391h248z" />
    <glyph glyph-name="AEacute" unicode="&#x1fc;" horiz-adv-x="1049" 
d="M584 962h215l-185 -145h-151zM686 324l63 -192h250v-132h-372l-65 205h-332l-65 -205h-166l252 760h739v-132h-405l57 -172h341v-132h-297zM396 728l-124 -391h248z" />
    <glyph glyph-name="uni01E2" unicode="&#x1e2;" horiz-adv-x="1049" 
d="M348 946h416v-112h-416v112zM686 324l63 -192h250v-132h-372l-65 205h-332l-65 -205h-166l252 760h739v-132h-405l57 -172h341v-132h-297zM396 728l-124 -391h248z" />
    <glyph glyph-name="B" unicode="B" horiz-adv-x="734" 
d="M482 389c130 -7 214 -63 214 -177c0 -132 -104 -212 -301 -212h-316v760h313c197 0 278 -92 278 -200c0 -104 -80 -158 -188 -171zM398 628h-161v-172h161c69 0 109 27 109 85s-40 87 -109 87zM237 132h168c85 0 128 35 128 96s-43 96 -128 96h-168v-192z" />
    <glyph glyph-name="C" unicode="C" horiz-adv-x="798" 
d="M411 -12c-210 0 -371 150 -371 392c0 241 160 392 372 392c180 0 318 -101 358 -271h-165c-29 82 -87 146 -193 146c-126 0 -209 -105 -209 -267c0 -163 86 -267 209 -267c100 0 167 53 198 148h165c-50 -188 -187 -273 -364 -273z" />
    <glyph glyph-name="Cacute" unicode="&#x106;" horiz-adv-x="798" 
d="M469 817h-151l121 145h215zM411 -12c-210 0 -371 150 -371 392c0 241 160 392 372 392c180 0 318 -101 358 -271h-165c-29 82 -87 146 -193 146c-126 0 -209 -105 -209 -267c0 -163 86 -267 209 -267c100 0 167 53 198 148h165c-50 -188 -187 -273 -364 -273z" />
    <glyph glyph-name="Ccaron" unicode="&#x10c;" horiz-adv-x="798" 
d="M640 962l-128 -145h-201l-128 145h142l87 -77l87 77h141zM610 261h165c-50 -188 -187 -273 -364 -273c-210 0 -371 150 -371 392c0 241 160 392 372 392c180 0 318 -101 358 -271h-165c-29 82 -87 146 -193 146c-126 0 -209 -105 -209 -267c0 -163 86 -267 209 -267
c100 0 167 53 198 148z" />
    <glyph glyph-name="Ccedilla" unicode="&#xc7;" horiz-adv-x="798" 
d="M610 261h165c-46 -173 -166 -259 -323 -271v-21c49 -7 81 -39 81 -86c0 -53 -43 -87 -108 -87h-73v74h44c20 0 34 6 34 23c0 16 -16 24 -32 24h-29v73c-189 19 -329 164 -329 390c0 241 160 392 372 392c180 0 318 -101 358 -271h-165c-29 82 -87 146 -193 146
c-126 0 -209 -105 -209 -267c0 -163 86 -267 209 -267c100 0 167 53 198 148z" />
    <glyph glyph-name="Ccircumflex" unicode="&#x108;" horiz-adv-x="798" 
d="M499 817l-87 77l-87 -77h-142l128 145h201l128 -145h-141zM610 261h165c-50 -188 -187 -273 -364 -273c-210 0 -371 150 -371 392c0 241 160 392 372 392c180 0 318 -101 358 -271h-165c-29 82 -87 146 -193 146c-126 0 -209 -105 -209 -267c0 -163 86 -267 209 -267
c100 0 167 53 198 148z" />
    <glyph glyph-name="Cdotaccent" unicode="&#x10a;" horiz-adv-x="798" 
d="M493 817h-163v145h163v-145zM411 -12c-210 0 -371 150 -371 392c0 241 160 392 372 392c180 0 318 -101 358 -271h-165c-29 82 -87 146 -193 146c-126 0 -209 -105 -209 -267c0 -163 86 -267 209 -267c100 0 167 53 198 148h165c-50 -188 -187 -273 -364 -273z" />
    <glyph glyph-name="D" unicode="D" horiz-adv-x="787" 
d="M79 760h280c231 0 387 -124 387 -380s-156 -380 -387 -380h-280v760zM237 132h126c139 0 220 87 220 248c0 160 -81 248 -220 248h-126v-496z" />
    <glyph glyph-name="Eth" unicode="&#xd0;" horiz-adv-x="798" 
d="M90 760h280c231 0 387 -124 387 -380s-156 -380 -387 -380h-280v333h-82v116h82v311zM248 132h126c139 0 220 87 220 248c0 160 -81 248 -220 248h-126v-179h174v-116h-174v-201z" />
    <glyph glyph-name="Dcaron" unicode="&#x10e;" horiz-adv-x="787" 
d="M590 962l-128 -145h-201l-128 145h142l87 -77l87 77h141zM79 760h280c231 0 387 -124 387 -380s-156 -380 -387 -380h-280v760zM237 132h126c139 0 220 87 220 248c0 160 -81 248 -220 248h-126v-496z" />
    <glyph glyph-name="Dcroat" unicode="&#x110;" horiz-adv-x="798" 
d="M90 760h280c231 0 387 -124 387 -380s-156 -380 -387 -380h-280v333h-82v116h82v311zM248 132h126c139 0 220 87 220 248c0 160 -81 248 -220 248h-126v-179h174v-116h-174v-201z" />
    <glyph glyph-name="E" unicode="E" horiz-adv-x="662" 
d="M237 324v-192h374v-132h-532v760h523v-132h-365v-172h358v-132h-358z" />
    <glyph glyph-name="Eacute" unicode="&#xc9;" horiz-adv-x="662" 
d="M368 962h215l-185 -145h-151zM237 324v-192h374v-132h-532v760h523v-132h-365v-172h358v-132h-358z" />
    <glyph glyph-name="Ebreve" unicode="&#x114;" horiz-adv-x="662" 
d="M341 815c-116 0 -189 65 -189 147h111c2 -36 32 -60 78 -60s77 24 79 60h110c0 -82 -73 -147 -189 -147zM237 324v-192h374v-132h-532v760h523v-132h-365v-172h358v-132h-358z" />
    <glyph glyph-name="Ecaron" unicode="&#x11a;" horiz-adv-x="662" 
d="M569 962l-128 -145h-201l-128 145h142l87 -77l87 77h141zM237 324v-192h374v-132h-532v760h523v-132h-365v-172h358v-132h-358z" />
    <glyph glyph-name="Ecircumflex" unicode="&#xca;" horiz-adv-x="662" 
d="M428 817l-87 77l-87 -77h-142l128 145h201l128 -145h-141zM237 324v-192h374v-132h-532v760h523v-132h-365v-172h358v-132h-358z" />
    <glyph glyph-name="Edieresis" unicode="&#xcb;" horiz-adv-x="662" 
d="M141 962h163v-145h-163v145zM376 962h163v-145h-163v145zM237 324v-192h374v-132h-532v760h523v-132h-365v-172h358v-132h-358z" />
    <glyph glyph-name="Edotaccent" unicode="&#x116;" horiz-adv-x="662" 
d="M259 962h163v-145h-163v145zM237 324v-192h374v-132h-532v760h523v-132h-365v-172h358v-132h-358z" />
    <glyph glyph-name="uni1EB8" unicode="&#x1eb8;" horiz-adv-x="662" 
d="M237 324v-192h374v-132h-532v760h523v-132h-365v-172h358v-132h-358zM428 -202h-163v144h163v-144z" />
    <glyph glyph-name="Egrave" unicode="&#xc8;" horiz-adv-x="662" 
d="M314 962l120 -145h-151l-185 145h216zM237 324v-192h374v-132h-532v760h523v-132h-365v-172h358v-132h-358z" />
    <glyph glyph-name="Emacron" unicode="&#x112;" horiz-adv-x="662" 
d="M132 946h416v-112h-416v112zM237 324v-192h374v-132h-532v760h523v-132h-365v-172h358v-132h-358z" />
    <glyph glyph-name="Eogonek" unicode="&#x118;" horiz-adv-x="662" 
d="M611 132v-132c-59 -20 -84 -43 -84 -70c0 -22 18 -32 52 -32h32v-101h-52c-104 0 -168 31 -168 98c0 45 31 84 81 105h-393v760h523v-132h-365v-172h358v-132h-358v-192h374z" />
    <glyph glyph-name="uni1EBC" unicode="&#x1ebc;" horiz-adv-x="662" 
d="M271 863c-32 0 -54 -16 -61 -38h-52c2 92 47 141 109 141c31 0 63 -11 83 -20c18 -9 41 -16 62 -16c31 0 53 15 60 38h52c-2 -93 -46 -142 -109 -142c-31 0 -63 12 -83 21c-18 9 -40 16 -61 16zM237 324v-192h374v-132h-532v760h523v-132h-365v-172h358v-132h-358z" />
    <glyph glyph-name="F" unicode="F" horiz-adv-x="632" 
d="M590 760v-132h-353v-184h347v-132h-347v-312h-158v760h511z" />
    <glyph glyph-name="G" unicode="G" horiz-adv-x="843" 
d="M386 304v126h397v-430h-131v180c-31 -93 -103 -192 -259 -192c-184 0 -353 145 -353 392c0 239 155 392 377 392c185 0 310 -88 355 -250h-165c-29 76 -90 125 -190 125c-130 0 -214 -105 -214 -267c0 -163 87 -267 221 -267c118 0 199 70 203 191h-241z" />
    <glyph glyph-name="Gbreve" unicode="&#x11e;" horiz-adv-x="843" 
d="M417 815c-116 0 -189 65 -189 147h111c2 -36 32 -60 78 -60s77 24 79 60h110c0 -82 -73 -147 -189 -147zM386 304v126h397v-430h-131v180c-31 -93 -103 -192 -259 -192c-184 0 -353 145 -353 392c0 239 155 392 377 392c185 0 310 -88 355 -250h-165
c-29 76 -90 125 -190 125c-130 0 -214 -105 -214 -267c0 -163 87 -267 221 -267c118 0 199 70 203 191h-241z" />
    <glyph glyph-name="Gcaron" unicode="&#x1e6;" horiz-adv-x="843" 
d="M645 962l-128 -145h-201l-128 145h142l87 -77l87 77h141zM386 304v126h397v-430h-131v180c-31 -93 -103 -192 -259 -192c-184 0 -353 145 -353 392c0 239 155 392 377 392c185 0 310 -88 355 -250h-165c-29 76 -90 125 -190 125c-130 0 -214 -105 -214 -267
c0 -163 87 -267 221 -267c118 0 199 70 203 191h-241z" />
    <glyph glyph-name="Gcircumflex" unicode="&#x11c;" horiz-adv-x="843" 
d="M504 817l-87 77l-87 -77h-142l128 145h201l128 -145h-141zM386 304v126h397v-430h-131v180c-31 -93 -103 -192 -259 -192c-184 0 -353 145 -353 392c0 239 155 392 377 392c185 0 310 -88 355 -250h-165c-29 76 -90 125 -190 125c-130 0 -214 -105 -214 -267
c0 -163 87 -267 221 -267c118 0 199 70 203 191h-241z" />
    <glyph glyph-name="uni0122" unicode="&#x122;" horiz-adv-x="843" 
d="M386 304v126h397v-430h-131v180c-31 -93 -103 -192 -259 -192c-184 0 -353 145 -353 392c0 239 155 392 377 392c185 0 310 -88 355 -250h-165c-29 76 -90 125 -190 125c-130 0 -214 -105 -214 -267c0 -163 87 -267 221 -267c118 0 199 70 203 191h-241zM386 -202h-52
v144h163v-157l-68 -94h-99z" />
    <glyph glyph-name="Gdotaccent" unicode="&#x120;" horiz-adv-x="843" 
d="M335 962h163v-145h-163v145zM386 304v126h397v-430h-131v180c-31 -93 -103 -192 -259 -192c-184 0 -353 145 -353 392c0 239 155 392 377 392c185 0 310 -88 355 -250h-165c-29 76 -90 125 -190 125c-130 0 -214 -105 -214 -267c0 -163 87 -267 221 -267
c118 0 199 70 203 191h-241z" />
    <glyph glyph-name="H" unicode="H" horiz-adv-x="795" 
d="M558 460v300h158v-760h-158v318h-321v-318h-158v760h158v-300h321z" />
    <glyph glyph-name="Hbar" unicode="&#x126;" horiz-adv-x="795" 
d="M716 650h82v-112h-82v-538h-158v318h-321v-318h-158v538h-82v112h82v110h158v-110h321v110h158v-110zM237 460h321v78h-321v-78z" />
    <glyph glyph-name="Hcircumflex" unicode="&#x124;" horiz-adv-x="795" 
d="M485 817l-87 77l-87 -77h-142l128 145h201l128 -145h-141zM558 460v300h158v-760h-158v318h-321v-318h-158v760h158v-300h321z" />
    <glyph glyph-name="I" unicode="I" horiz-adv-x="316" 
d="M237 0h-158v760h158v-760z" />
    <glyph glyph-name="Iacute" unicode="&#xcd;" horiz-adv-x="316" 
d="M237 817h-151l121 145h215zM237 0h-158v760h158v-760z" />
    <glyph glyph-name="Ibreve" unicode="&#x12c;" horiz-adv-x="316" 
d="M158 815c-116 0 -189 65 -189 147h111c2 -36 32 -60 78 -60s77 24 79 60h110c0 -82 -73 -147 -189 -147zM237 0h-158v760h158v-760z" />
    <glyph glyph-name="Icircumflex" unicode="&#xce;" horiz-adv-x="316" 
d="M57 962h201l128 -145h-141l-87 77l-87 -77h-142zM237 0h-158v760h158v-760z" />
    <glyph glyph-name="Idieresis" unicode="&#xcf;" horiz-adv-x="316" 
d="M122 817h-163v145h163v-145zM357 817h-163v145h163v-145zM237 0h-158v760h158v-760z" />
    <glyph glyph-name="Idotaccent" unicode="&#x130;" horiz-adv-x="316" 
d="M239 817h-163v145h163v-145zM237 0h-158v760h158v-760z" />
    <glyph glyph-name="uni1ECA" unicode="&#x1eca;" horiz-adv-x="316" 
d="M237 0h-158v760h158v-760zM239 -202h-163v144h163v-144z" />
    <glyph glyph-name="Igrave" unicode="&#xcc;" horiz-adv-x="316" 
d="M228 817h-151l-185 145h216zM237 0h-158v760h158v-760z" />
    <glyph glyph-name="Imacron" unicode="&#x12a;" horiz-adv-x="316" 
d="M366 834h-416v112h416v-112zM237 0h-158v760h158v-760z" />
    <glyph glyph-name="Iogonek" unicode="&#x12e;" horiz-adv-x="316" 
d="M237 760v-760c-60 -20 -85 -43 -85 -70c0 -22 19 -32 52 -32h33v-101h-53c-104 0 -168 31 -168 98c0 45 27 79 63 105v760h158z" />
    <glyph glyph-name="Itilde" unicode="&#x128;" horiz-adv-x="316" 
d="M27 825h-52c2 92 47 141 109 141c31 0 63 -11 83 -20c18 -9 41 -16 62 -16c31 0 53 15 60 38h52c-2 -93 -46 -142 -109 -142c-31 0 -63 12 -83 21c-18 9 -40 16 -61 16c-32 0 -54 -16 -61 -38zM237 0h-158v760h158v-760z" />
    <glyph glyph-name="J" unicode="J" horiz-adv-x="405" 
d="M134 0h-116v132h80c55 0 75 21 75 72v556h158v-585c0 -115 -66 -175 -197 -175z" />
    <glyph glyph-name="uni004A0301" horiz-adv-x="405" 
d="M332 817h-151l120 145h216zM134 0h-116v132h80c55 0 75 21 75 72v556h158v-585c0 -115 -66 -175 -197 -175z" />
    <glyph glyph-name="Jcircumflex" unicode="&#x134;" horiz-adv-x="405" 
d="M152 962h201l128 -145h-141l-87 77l-87 -77h-142zM173 204v556h158v-585c0 -115 -66 -175 -197 -175h-116v132h80c55 0 75 21 75 72z" />
    <glyph glyph-name="K" unicode="K" horiz-adv-x="729" 
d="M413 399l335 -399h-199l-312 377v-377h-158v760h158v-342l284 342h193z" />
    <glyph glyph-name="uni0136" unicode="&#x136;" horiz-adv-x="729" 
d="M714 760l-301 -361l335 -399h-199l-312 377v-377h-158v760h158v-342l284 342h193zM358 -202h-52v144h163v-157l-68 -94h-99z" />
    <glyph glyph-name="L" unicode="L" horiz-adv-x="583" 
d="M237 760v-628h329v-132h-487v760h158z" />
    <glyph glyph-name="Lacute" unicode="&#x139;" horiz-adv-x="583" 
d="M207 962h215l-185 -145h-151zM237 760v-628h329v-132h-487v760h158z" />
    <glyph glyph-name="Lcaron" unicode="&#x13d;" horiz-adv-x="583" 
d="M237 760v-628h329v-132h-487v760h158zM337 760h145l-52 -251h-110z" />
    <glyph glyph-name="uni013B" unicode="&#x13b;" horiz-adv-x="583" 
d="M237 760v-628h329v-132h-487v760h158zM294 -202h-52v144h163v-157l-68 -94h-99z" />
    <glyph glyph-name="Ldot" unicode="&#x13f;" horiz-adv-x="593" 
d="M237 760v-628h329v-132h-487v760h158zM372 511h165v-153h-165v153z" />
    <glyph glyph-name="Lslash" unicode="&#x141;" horiz-adv-x="600" 
d="M254 348v-216h329v-132h-487v263l-83 -45v126l83 45v371h158v-285l158 86v-127z" />
    <glyph glyph-name="M" unicode="M" horiz-adv-x="1087" 
d="M1008 760v-760h-157v734l-167 -734h-281l-166 729v-729h-158v760h306l159 -735l158 735h306z" />
    <glyph glyph-name="N" unicode="N" horiz-adv-x="871" 
d="M635 26v734h157v-760h-305l-251 734v-734h-157v760h306z" />
    <glyph glyph-name="Nacute" unicode="&#x143;" horiz-adv-x="871" 
d="M483 962h215l-185 -145h-151zM635 26v734h157v-760h-305l-251 734v-734h-157v760h306z" />
    <glyph glyph-name="Ncaron" unicode="&#x147;" horiz-adv-x="871" 
d="M684 962l-128 -145h-201l-128 145h142l87 -77l87 77h141zM635 26v734h157v-760h-305l-251 734v-734h-157v760h306z" />
    <glyph glyph-name="uni0145" unicode="&#x145;" horiz-adv-x="871" 
d="M635 26v734h157v-760h-305l-251 734v-734h-157v760h306zM396 -202h-52v144h163v-157l-68 -94h-99z" />
    <glyph glyph-name="Eng" unicode="&#x14a;" horiz-adv-x="864" 
d="M635 760h157v-760h-7v-28c0 -107 -67 -168 -197 -168h-106v115h79c56 0 76 21 76 71v10h-150l-251 734v-734h-157v760h306l250 -734v734z" />
    <glyph glyph-name="uni019D" unicode="&#x19d;" horiz-adv-x="864" 
d="M635 26v734h157v-760h-305l-251 734v-734h-9v-28c0 -107 -66 -168 -197 -168h-106v115h80c55 0 75 21 75 71v770h306z" />
    <glyph glyph-name="Ntilde" unicode="&#xd1;" horiz-adv-x="871" 
d="M386 863c-32 0 -54 -16 -61 -38h-52c2 92 47 141 109 141c31 0 63 -11 83 -20c18 -9 41 -16 62 -16c31 0 53 15 60 38h52c-2 -93 -46 -142 -109 -142c-31 0 -63 12 -83 21c-18 9 -40 16 -61 16zM635 26v734h157v-760h-305l-251 734v-734h-157v760h306z" />
    <glyph glyph-name="O" unicode="O" horiz-adv-x="840" 
d="M420 -12c-224 0 -380 153 -380 392s156 392 380 392s380 -153 380 -392s-156 -392 -380 -392zM420 113c131 0 217 105 217 267s-86 267 -217 267s-217 -105 -217 -267s86 -267 217 -267z" />
    <glyph glyph-name="Oacute" unicode="&#xd3;" horiz-adv-x="840" 
d="M477 817h-151l121 145h215zM420 -12c-224 0 -380 153 -380 392s156 392 380 392s380 -153 380 -392s-156 -392 -380 -392zM420 113c131 0 217 105 217 267s-86 267 -217 267s-217 -105 -217 -267s86 -267 217 -267z" />
    <glyph glyph-name="Obreve" unicode="&#x14e;" horiz-adv-x="840" 
d="M420 815c-116 0 -189 65 -189 147h111c2 -36 32 -60 78 -60s77 24 79 60h110c0 -82 -73 -147 -189 -147zM420 -12c-224 0 -380 153 -380 392s156 392 380 392s380 -153 380 -392s-156 -392 -380 -392zM420 113c131 0 217 105 217 267s-86 267 -217 267
s-217 -105 -217 -267s86 -267 217 -267z" />
    <glyph glyph-name="Ocircumflex" unicode="&#xd4;" horiz-adv-x="840" 
d="M507 817l-87 77l-87 -77h-142l128 145h201l128 -145h-141zM420 772c224 0 380 -153 380 -392s-156 -392 -380 -392s-380 153 -380 392s156 392 380 392zM420 113c131 0 217 105 217 267s-86 267 -217 267s-217 -105 -217 -267s86 -267 217 -267z" />
    <glyph glyph-name="Odieresis" unicode="&#xd6;" horiz-adv-x="840" 
d="M384 817h-163v145h163v-145zM619 817h-163v145h163v-145zM420 -12c-224 0 -380 153 -380 392s156 392 380 392s380 -153 380 -392s-156 -392 -380 -392zM420 113c131 0 217 105 217 267s-86 267 -217 267s-217 -105 -217 -267s86 -267 217 -267z" />
    <glyph glyph-name="uni022E" unicode="&#x22e;" horiz-adv-x="840" 
d="M501 817h-163v145h163v-145zM420 -12c-224 0 -380 153 -380 392s156 392 380 392s380 -153 380 -392s-156 -392 -380 -392zM420 113c131 0 217 105 217 267s-86 267 -217 267s-217 -105 -217 -267s86 -267 217 -267z" />
    <glyph glyph-name="uni1ECC" unicode="&#x1ecc;" horiz-adv-x="840" 
d="M420 -12c-224 0 -380 153 -380 392s156 392 380 392s380 -153 380 -392s-156 -392 -380 -392zM420 113c131 0 217 105 217 267s-86 267 -217 267s-217 -105 -217 -267s86 -267 217 -267zM501 -202h-163v144h163v-144z" />
    <glyph glyph-name="Ograve" unicode="&#xd2;" horiz-adv-x="840" 
d="M514 817h-151l-185 145h216zM420 -12c-224 0 -380 153 -380 392s156 392 380 392s380 -153 380 -392s-156 -392 -380 -392zM420 113c131 0 217 105 217 267s-86 267 -217 267s-217 -105 -217 -267s86 -267 217 -267z" />
    <glyph glyph-name="Ohungarumlaut" unicode="&#x150;" horiz-adv-x="840" 
d="M366 817h-142l132 145h192zM596 817h-142l132 145h192zM420 -12c-224 0 -380 153 -380 392s156 392 380 392s380 -153 380 -392s-156 -392 -380 -392zM420 113c131 0 217 105 217 267s-86 267 -217 267s-217 -105 -217 -267s86 -267 217 -267z" />
    <glyph glyph-name="Omacron" unicode="&#x14c;" horiz-adv-x="840" 
d="M628 834h-416v112h416v-112zM420 -12c-224 0 -380 153 -380 392s156 392 380 392s380 -153 380 -392s-156 -392 -380 -392zM420 113c131 0 217 105 217 267s-86 267 -217 267s-217 -105 -217 -267s86 -267 217 -267z" />
    <glyph glyph-name="uni01EA" unicode="&#x1ea;" horiz-adv-x="840" 
d="M800 380c0 -152 -63 -269 -166 -334c-63 -46 -79 -76 -79 -107c0 -27 19 -41 51 -41h34v-101h-53c-105 0 -168 32 -168 95c0 38 21 71 57 99c-18 -2 -37 -3 -56 -3c-224 0 -380 153 -380 392s156 392 380 392s380 -153 380 -392zM420 113c131 0 217 105 217 267
s-86 267 -217 267s-217 -105 -217 -267s86 -267 217 -267z" />
    <glyph glyph-name="Oslash" unicode="&#xd8;" horiz-adv-x="840" 
d="M686 760h187l-138 -145c42 -63 65 -143 65 -235c0 -239 -156 -392 -380 -392c-85 0 -159 22 -220 62l-47 -50h-187l138 146c-41 63 -64 142 -64 234c0 239 156 392 380 392c84 0 159 -22 219 -61zM203 380c0 -42 6 -79 16 -113l323 341c-33 25 -75 39 -122 39
c-131 0 -217 -105 -217 -267zM637 380c0 42 -6 80 -17 113l-323 -341c34 -25 75 -39 123 -39c131 0 217 105 217 267z" />
    <glyph glyph-name="Oslashacute" unicode="&#x1fe;" horiz-adv-x="840" 
d="M447 962h215l-185 -145h-151zM686 760h187l-138 -145c42 -63 65 -143 65 -235c0 -239 -156 -392 -380 -392c-85 0 -159 22 -220 62l-47 -50h-187l138 146c-41 63 -64 142 -64 234c0 239 156 392 380 392c84 0 159 -22 219 -61zM203 380c0 -42 6 -79 16 -113l323 341
c-33 25 -75 39 -122 39c-131 0 -217 -105 -217 -267zM637 380c0 42 -6 80 -17 113l-323 -341c34 -25 75 -39 123 -39c131 0 217 105 217 267z" />
    <glyph glyph-name="Otilde" unicode="&#xd5;" horiz-adv-x="840" 
d="M289 825h-52c2 92 47 141 109 141c31 0 63 -11 83 -20c18 -9 41 -16 62 -16c31 0 53 15 60 38h52c-2 -93 -46 -142 -109 -142c-31 0 -63 12 -83 21c-18 9 -40 16 -61 16c-32 0 -54 -16 -61 -38zM420 -12c-224 0 -380 153 -380 392s156 392 380 392s380 -153 380 -392
s-156 -392 -380 -392zM420 113c131 0 217 105 217 267s-86 267 -217 267s-217 -105 -217 -267s86 -267 217 -267z" />
    <glyph glyph-name="OE" unicode="&#x152;" horiz-adv-x="1143" 
d="M718 324v-192h375v-132h-650c-228 0 -404 146 -404 380s176 380 404 380h641v-132h-366v-172h359v-132h-359zM443 132h117v496h-117c-134 0 -241 -89 -241 -248s107 -248 241 -248z" />
    <glyph glyph-name="P" unicode="P" horiz-adv-x="713" 
d="M79 760h300c198 0 309 -93 309 -249c0 -155 -111 -248 -309 -248h-142v-263h-158v760zM237 395h145c93 0 143 41 143 116c0 76 -50 117 -143 117h-145v-233z" />
    <glyph glyph-name="Thorn" unicode="&#xde;" horiz-adv-x="722" 
d="M237 641h142c198 0 309 -94 309 -249s-111 -248 -309 -248h-142v-144h-158v760h158v-119zM237 276h145c93 0 143 41 143 116s-50 116 -143 116h-145v-232z" />
    <glyph glyph-name="Q" unicode="Q" horiz-adv-x="847" 
d="M734 143l151 -143h-192l-53 50c-60 -40 -135 -62 -220 -62c-224 0 -380 153 -380 392s156 392 380 392s380 -153 380 -392c0 -93 -24 -174 -66 -237zM420 113c45 0 84 12 117 35l-145 137h192l32 -31c14 37 21 79 21 126c0 162 -86 267 -217 267s-217 -105 -217 -267
s86 -267 217 -267z" />
    <glyph glyph-name="R" unicode="R" horiz-adv-x="738" 
d="M721 0h-180l-165 283h-139v-283h-158v760h302c183 0 297 -94 297 -239c0 -98 -52 -174 -145 -212zM385 628h-148v-213h148c82 0 131 40 131 106c0 67 -49 107 -131 107z" />
    <glyph glyph-name="Racute" unicode="&#x154;" horiz-adv-x="738" 
d="M374 962h215l-185 -145h-151zM721 0h-180l-165 283h-139v-283h-158v760h302c183 0 297 -94 297 -239c0 -98 -52 -174 -145 -212zM385 628h-148v-213h148c82 0 131 40 131 106c0 67 -49 107 -131 107z" />
    <glyph glyph-name="Rcaron" unicode="&#x158;" horiz-adv-x="738" 
d="M575 962l-128 -145h-201l-128 145h142l87 -77l87 77h141zM721 0h-180l-165 283h-139v-283h-158v760h302c183 0 297 -94 297 -239c0 -98 -52 -174 -145 -212zM385 628h-148v-213h148c82 0 131 40 131 106c0 67 -49 107 -131 107z" />
    <glyph glyph-name="uni0156" unicode="&#x156;" horiz-adv-x="738" 
d="M533 309l188 -309h-180l-165 283h-139v-283h-158v760h302c183 0 297 -94 297 -239c0 -98 -52 -174 -145 -212zM385 628h-148v-213h148c82 0 131 40 131 106c0 67 -49 107 -131 107zM348 -202h-52v144h163v-157l-68 -94h-99z" />
    <glyph glyph-name="S" unicode="S" horiz-adv-x="715" 
d="M349 -12c-173 0 -299 91 -319 246h165c11 -81 77 -121 160 -121c106 0 167 39 167 98c0 60 -48 79 -151 102l-108 24c-127 27 -211 91 -211 211c0 132 128 224 294 224c187 0 292 -88 314 -215h-165c-20 63 -74 90 -149 90c-76 0 -138 -32 -138 -85c0 -54 41 -72 146 -96
l108 -24c143 -31 217 -94 217 -215c0 -150 -132 -239 -330 -239z" />
    <glyph glyph-name="Sacute" unicode="&#x15a;" horiz-adv-x="715" 
d="M403 817h-151l121 145h215zM349 -12c-173 0 -299 91 -319 246h165c11 -81 77 -121 160 -121c106 0 167 39 167 98c0 60 -48 79 -151 102l-108 24c-127 27 -211 91 -211 211c0 132 128 224 294 224c187 0 292 -88 314 -215h-165c-20 63 -74 90 -149 90
c-76 0 -138 -32 -138 -85c0 -54 41 -72 146 -96l108 -24c143 -31 217 -94 217 -215c0 -150 -132 -239 -330 -239z" />
    <glyph glyph-name="Scaron" unicode="&#x160;" horiz-adv-x="715" 
d="M574 962l-128 -145h-201l-128 145h142l87 -77l87 77h141zM354 466l108 -24c143 -31 217 -94 217 -215c0 -150 -132 -239 -330 -239c-173 0 -299 91 -319 246h165c11 -81 77 -121 160 -121c106 0 167 39 167 98c0 60 -48 79 -151 102l-108 24c-127 27 -211 91 -211 211
c0 132 128 224 294 224c187 0 292 -88 314 -215h-165c-20 63 -74 90 -149 90c-76 0 -138 -32 -138 -85c0 -54 41 -72 146 -96z" />
    <glyph glyph-name="Scedilla" unicode="&#x15e;" horiz-adv-x="715" 
d="M679 227c0 -138 -111 -224 -283 -237v-21c49 -7 81 -39 81 -86c0 -53 -43 -87 -108 -87h-73v74h44c20 0 34 6 34 23c0 16 -16 24 -32 24h-29v72c-154 12 -264 101 -283 245h165c11 -81 77 -121 160 -121c106 0 167 39 167 98c0 60 -48 79 -151 102l-108 24
c-127 27 -211 91 -211 211c0 132 128 224 294 224c187 0 292 -88 314 -215h-165c-20 63 -74 90 -149 90c-76 0 -138 -32 -138 -85c0 -54 41 -72 146 -96l108 -24c143 -31 217 -94 217 -215z" />
    <glyph glyph-name="Scircumflex" unicode="&#x15c;" horiz-adv-x="715" 
d="M433 817l-87 77l-87 -77h-142l128 145h201l128 -145h-141zM354 466l108 -24c143 -31 217 -94 217 -215c0 -150 -132 -239 -330 -239c-173 0 -299 91 -319 246h165c11 -81 77 -121 160 -121c106 0 167 39 167 98c0 60 -48 79 -151 102l-108 24c-127 27 -211 91 -211 211
c0 132 128 224 294 224c187 0 292 -88 314 -215h-165c-20 63 -74 90 -149 90c-76 0 -138 -32 -138 -85c0 -54 41 -72 146 -96z" />
    <glyph glyph-name="uni0218" unicode="&#x218;" horiz-adv-x="715" 
d="M354 466l108 -24c143 -31 217 -94 217 -215c0 -150 -132 -239 -330 -239c-173 0 -299 91 -319 246h165c11 -81 77 -121 160 -121c106 0 167 39 167 98c0 60 -48 79 -151 102l-108 24c-127 27 -211 91 -211 211c0 132 128 224 294 224c187 0 292 -88 314 -215h-165
c-20 63 -74 90 -149 90c-76 0 -138 -32 -138 -85c0 -54 41 -72 146 -96zM344 -202h-52v144h163v-157l-68 -94h-99z" />
    <glyph glyph-name="uni1E9E" unicode="&#x1e9e;" horiz-adv-x="781" 
d="M681 601l-157 -157c124 -15 221 -89 221 -219c0 -153 -109 -237 -266 -237c-59 0 -97 9 -136 23v116c30 -13 60 -23 106 -23c79 0 133 46 133 121c0 83 -77 121 -176 121h-29v128l152 154h-292v-628h-158v760h602v-159z" />
    <glyph glyph-name="uni018F" unicode="&#x18f;" horiz-adv-x="830" 
d="M411 772c216 0 379 -148 379 -392c0 -242 -164 -392 -379 -392c-234 0 -373 179 -373 422c0 11 0 23 1 35h588c-22 145 -116 202 -216 202c-91 0 -158 -44 -188 -116h-166c46 155 178 241 354 241zM411 113c98 0 193 57 215 201h-423c17 -114 96 -201 208 -201z" />
    <glyph glyph-name="T" unicode="T" horiz-adv-x="664" 
d="M17 760h630v-132h-236v-628h-158v628h-236v132z" />
    <glyph glyph-name="Tbar" unicode="&#x166;" horiz-adv-x="693" 
d="M662 760v-132h-237v-190h182v-121h-182v-317h-157v317h-181v121h181v190h-237v132h631z" />
    <glyph glyph-name="Tcaron" unicode="&#x164;" horiz-adv-x="664" 
d="M560 962l-128 -145h-201l-128 145h142l87 -77l87 77h141zM17 760h630v-132h-236v-628h-158v628h-236v132z" />
    <glyph glyph-name="uni0162" unicode="&#x162;" horiz-adv-x="664" 
d="M17 628v132h630v-132h-236v-628h-158v628h-236zM302 -202h-52v144h163v-157l-67 -94h-100z" />
    <glyph glyph-name="uni021A" unicode="&#x21a;" horiz-adv-x="664" 
d="M17 628v132h630v-132h-236v-628h-158v628h-236zM302 -202h-52v144h163v-157l-68 -94h-99z" />
    <glyph glyph-name="U" unicode="U" horiz-adv-x="775" 
d="M388 -12c-224 0 -317 118 -317 315v2v455h158v-469v-2c0 -118 55 -176 159 -176s158 59 158 178v469h158v-455c0 -198 -92 -317 -316 -317z" />
    <glyph glyph-name="Uacute" unicode="&#xda;" horiz-adv-x="775" 
d="M445 817h-151l121 145h215zM388 -12c-224 0 -317 118 -317 315v2v455h158v-469v-2c0 -118 55 -176 159 -176s158 59 158 178v469h158v-455c0 -198 -92 -317 -316 -317z" />
    <glyph glyph-name="Ubreve" unicode="&#x16c;" horiz-adv-x="775" 
d="M388 815c-116 0 -189 65 -189 147h111c2 -36 32 -60 78 -60s77 24 79 60h110c0 -82 -73 -147 -189 -147zM388 -12c-224 0 -317 118 -317 315v2v455h158v-469v-2c0 -118 55 -176 159 -176s158 59 158 178v469h158v-455c0 -198 -92 -317 -316 -317z" />
    <glyph glyph-name="Ucircumflex" unicode="&#xdb;" horiz-adv-x="775" 
d="M475 817l-87 77l-87 -77h-142l128 145h201l128 -145h-141zM546 291v469h158v-455c0 -198 -92 -317 -316 -317s-317 118 -317 315v2v455h158v-469v-2c0 -118 55 -176 159 -176s158 59 158 178z" />
    <glyph glyph-name="Udieresis" unicode="&#xdc;" horiz-adv-x="775" 
d="M352 817h-163v145h163v-145zM587 817h-163v145h163v-145zM388 -12c-224 0 -317 118 -317 315v2v455h158v-469v-2c0 -118 55 -176 159 -176s158 59 158 178v469h158v-455c0 -198 -92 -317 -316 -317z" />
    <glyph glyph-name="uni1EE4" unicode="&#x1ee4;" horiz-adv-x="775" 
d="M388 -12c-224 0 -317 118 -317 315v2v455h158v-469v-2c0 -118 55 -176 159 -176s158 59 158 178v469h158v-455c0 -198 -92 -317 -316 -317zM469 -202h-163v144h163v-144z" />
    <glyph glyph-name="Ugrave" unicode="&#xd9;" horiz-adv-x="775" 
d="M482 817h-151l-185 145h216zM388 -12c-224 0 -317 118 -317 315v2v455h158v-469v-2c0 -118 55 -176 159 -176s158 59 158 178v469h158v-455c0 -198 -92 -317 -316 -317z" />
    <glyph glyph-name="Uhungarumlaut" unicode="&#x170;" horiz-adv-x="775" 
d="M334 817h-142l132 145h192zM564 817h-142l132 145h192zM388 -12c-224 0 -317 118 -317 315v2v455h158v-469v-2c0 -118 55 -176 159 -176s158 59 158 178v469h158v-455c0 -198 -92 -317 -316 -317z" />
    <glyph glyph-name="Umacron" unicode="&#x16a;" horiz-adv-x="775" 
d="M595 834h-416v112h416v-112zM388 -12c-224 0 -317 118 -317 315v2v455h158v-469v-2c0 -118 55 -176 159 -176s158 59 158 178v469h158v-455c0 -198 -92 -317 -316 -317z" />
    <glyph glyph-name="Uogonek" unicode="&#x172;" horiz-adv-x="775" 
d="M546 291v469h158v-455c0 -116 -32 -205 -103 -259c-63 -46 -79 -76 -79 -107c0 -27 19 -41 51 -41h34v-101h-53c-105 0 -168 32 -168 95c0 38 21 70 56 99c-17 -2 -35 -3 -54 -3c-224 0 -317 118 -317 315v2v455h158v-469v-2c0 -118 55 -176 159 -176s158 59 158 178z
" />
    <glyph glyph-name="Uring" unicode="&#x16e;" horiz-adv-x="775" 
d="M387 812c-78 0 -141 63 -141 141s63 141 141 141s140 -63 140 -141s-62 -141 -140 -141zM387 902c28 0 50 24 50 51c0 28 -22 51 -50 51s-51 -23 -51 -51c0 -27 23 -51 51 -51zM388 -12c-224 0 -317 118 -317 315v2v455h158v-469v-2c0 -118 55 -176 159 -176
s158 59 158 178v469h158v-455c0 -198 -92 -317 -316 -317z" />
    <glyph glyph-name="Utilde" unicode="&#x168;" horiz-adv-x="775" 
d="M257 825h-52c2 92 47 141 109 141c31 0 63 -11 83 -20c18 -9 41 -16 62 -16c31 0 53 15 60 38h52c-2 -93 -46 -142 -109 -142c-31 0 -63 12 -83 21c-18 9 -40 16 -61 16c-32 0 -54 -16 -61 -38zM388 -12c-224 0 -317 118 -317 315v2v455h158v-469v-2
c0 -118 55 -176 159 -176s158 59 158 178v469h158v-455c0 -198 -92 -317 -316 -317z" />
    <glyph glyph-name="V" unicode="V" horiz-adv-x="763" 
d="M382 30l209 730h170l-231 -760h-298l-230 760h170z" />
    <glyph glyph-name="W" unicode="W" horiz-adv-x="1146" 
d="M832 28l142 732h153l-152 -760h-291l-111 727l-111 -727h-291l-152 760h153l142 -732l115 732h288z" />
    <glyph glyph-name="Wacute" unicode="&#x1e82;" horiz-adv-x="1146" 
d="M612 962h215l-185 -145h-151zM832 28l142 732h153l-152 -760h-291l-111 727l-111 -727h-291l-152 760h153l142 -732l115 732h288z" />
    <glyph glyph-name="Wcircumflex" unicode="&#x174;" horiz-adv-x="1146" 
d="M660 817l-87 77l-87 -77h-142l128 145h201l128 -145h-141zM832 28l142 732h153l-152 -760h-291l-111 727l-111 -727h-291l-152 760h153l142 -732l115 732h288z" />
    <glyph glyph-name="Wdieresis" unicode="&#x1e84;" horiz-adv-x="1146" 
d="M374 962h163v-145h-163v145zM609 962h163v-145h-163v145zM832 28l142 732h153l-152 -760h-291l-111 727l-111 -727h-291l-152 760h153l142 -732l115 732h288z" />
    <glyph glyph-name="Wgrave" unicode="&#x1e80;" horiz-adv-x="1146" 
d="M530 962l120 -145h-151l-185 145h216zM832 28l142 732h153l-152 -760h-291l-111 727l-111 -727h-291l-152 760h153l142 -732l115 732h288z" />
    <glyph glyph-name="X" unicode="X" horiz-adv-x="772" 
d="M489 404l291 -404h-189l-205 289l-205 -289h-189l290 403l-259 357h188l175 -247l175 247h188z" />
    <glyph glyph-name="Y" unicode="Y" horiz-adv-x="705" 
d="M536 760h180l-284 -451v-309h-158v307l-284 453h178l184 -304z" />
    <glyph glyph-name="Yacute" unicode="&#xdd;" horiz-adv-x="705" 
d="M379 962h215l-185 -145h-151zM536 760h180l-284 -451v-309h-158v307l-284 453h178l184 -304z" />
    <glyph glyph-name="Ycircumflex" unicode="&#x176;" horiz-adv-x="705" 
d="M440 817l-87 77l-87 -77h-142l128 145h201l128 -145h-141zM536 760h180l-284 -451v-309h-158v307l-284 453h178l184 -304z" />
    <glyph glyph-name="Ydieresis" unicode="&#x178;" horiz-adv-x="705" 
d="M153 962h163v-145h-163v145zM388 962h163v-145h-163v145zM536 760h180l-284 -451v-309h-158v307l-284 453h178l184 -304z" />
    <glyph glyph-name="Ygrave" unicode="&#x1ef2;" horiz-adv-x="705" 
d="M326 962l120 -145h-151l-185 145h216zM536 760h180l-284 -451v-309h-158v307l-284 453h178l184 -304z" />
    <glyph glyph-name="uni0232" unicode="&#x232;" horiz-adv-x="705" 
d="M144 946h416v-112h-416v112zM536 760h180l-284 -451v-309h-158v307l-284 453h178l184 -304z" />
    <glyph glyph-name="uni1EF8" unicode="&#x1ef8;" horiz-adv-x="705" 
d="M282 863c-32 0 -54 -16 -61 -38h-52c2 92 47 141 109 141c31 0 63 -11 83 -20c18 -9 41 -16 62 -16c31 0 53 15 60 38h52c-2 -93 -46 -142 -109 -142c-31 0 -63 12 -83 21c-18 9 -40 16 -61 16zM536 760h180l-284 -451v-309h-158v307l-284 453h178l184 -304z" />
    <glyph glyph-name="Z" unicode="Z" horiz-adv-x="703" 
d="M654 589l-436 -457h455v-132h-634v171l435 457h-429v132h609v-171z" />
    <glyph glyph-name="Zacute" unicode="&#x179;" horiz-adv-x="703" 
d="M377 962h215l-185 -145h-151zM654 589l-436 -457h455v-132h-634v171l435 457h-429v132h609v-171z" />
    <glyph glyph-name="Zcaron" unicode="&#x17d;" horiz-adv-x="703" 
d="M578 962l-128 -145h-201l-128 145h142l87 -77l87 77h141zM654 589l-436 -457h455v-132h-634v171l435 457h-429v132h609v-171z" />
    <glyph glyph-name="Zdotaccent" unicode="&#x17b;" horiz-adv-x="703" 
d="M268 962h163v-145h-163v145zM654 589l-436 -457h455v-132h-634v171l435 457h-429v132h609v-171z" />
    <glyph glyph-name="uni01B5" unicode="&#x1b5;" horiz-adv-x="717" 
d="M397 313l-172 -181h454v-132h-634v171l168 176h-153v117h264l157 164h-429v132h608v-171l-151 -159h156v-117h-268z" />
    <glyph glyph-name="G.ss03" horiz-adv-x="825" 
d="M386 304v126h397v-82c0 -223 -144 -360 -366 -360c-224 0 -377 152 -377 392c0 239 155 392 377 392c185 0 310 -88 355 -250h-165c-29 76 -90 125 -190 125c-130 0 -214 -105 -214 -267c0 -163 86 -267 216 -267c123 0 203 77 206 191h-239z" />
    <glyph glyph-name="Gbreve.ss03" horiz-adv-x="825" 
d="M417 815c-116 0 -189 65 -189 147h111c2 -36 32 -60 78 -60s77 24 79 60h110c0 -82 -73 -147 -189 -147zM386 304v126h397v-82c0 -223 -144 -360 -366 -360c-224 0 -377 152 -377 392c0 239 155 392 377 392c185 0 310 -88 355 -250h-165c-29 76 -90 125 -190 125
c-130 0 -214 -105 -214 -267c0 -163 86 -267 216 -267c123 0 203 77 206 191h-239z" />
    <glyph glyph-name="Gcaron.ss03" horiz-adv-x="825" 
d="M645 962l-128 -145h-201l-128 145h142l87 -77l87 77h141zM386 304v126h397v-82c0 -223 -144 -360 -366 -360c-224 0 -377 152 -377 392c0 239 155 392 377 392c185 0 310 -88 355 -250h-165c-29 76 -90 125 -190 125c-130 0 -214 -105 -214 -267c0 -163 86 -267 216 -267
c123 0 203 77 206 191h-239z" />
    <glyph glyph-name="Gcircumflex.ss03" horiz-adv-x="825" 
d="M504 817l-87 77l-87 -77h-142l128 145h201l128 -145h-141zM386 304v126h397v-82c0 -223 -144 -360 -366 -360c-224 0 -377 152 -377 392c0 239 155 392 377 392c185 0 310 -88 355 -250h-165c-29 76 -90 125 -190 125c-130 0 -214 -105 -214 -267
c0 -163 86 -267 216 -267c123 0 203 77 206 191h-239z" />
    <glyph glyph-name="uni0122.ss03" horiz-adv-x="825" 
d="M386 304v126h397v-82c0 -223 -144 -360 -366 -360c-224 0 -377 152 -377 392c0 239 155 392 377 392c185 0 310 -88 355 -250h-165c-29 76 -90 125 -190 125c-130 0 -214 -105 -214 -267c0 -163 86 -267 216 -267c123 0 203 77 206 191h-239zM393 -202h-52v144h163v-157
l-68 -94h-99z" />
    <glyph glyph-name="Gdotaccent.ss03" horiz-adv-x="825" 
d="M335 962h163v-145h-163v145zM386 304v126h397v-82c0 -223 -144 -360 -366 -360c-224 0 -377 152 -377 392c0 239 155 392 377 392c185 0 310 -88 355 -250h-165c-29 76 -90 125 -190 125c-130 0 -214 -105 -214 -267c0 -163 86 -267 216 -267c123 0 203 77 206 191h-239z
" />
    <glyph glyph-name="Adieresis.titl" horiz-adv-x="792" 
d="M793 0h-166l-65 205h-332l-65 -205h-166l252 760h290zM28 760h142v-144h-142v144zM628 760h142v-144h-142v144zM396 728l-124 -391h248z" />
    <glyph glyph-name="Odieresis.titl" horiz-adv-x="840" 
d="M722 760h143v-144h-131c42 -63 66 -143 66 -236c0 -239 -156 -392 -380 -392s-380 153 -380 392c0 93 24 173 66 236h-130v144h142v-127c67 89 173 139 302 139s235 -50 302 -139v127zM420 113c131 0 217 105 217 267s-86 267 -217 267s-217 -105 -217 -267
s86 -267 217 -267z" />
    <glyph glyph-name="Udieresis.titl" horiz-adv-x="774" 
d="M388 -12c-224 0 -317 118 -317 315v2v455h158v-469v-2c0 -118 55 -176 159 -176s158 59 158 178v469h158v-455c0 -198 -92 -317 -316 -317zM469 616h-159v144h159v-144zM469 420h-159v145h159v-145z" />
    <glyph glyph-name="I_J.loclNLD" horiz-adv-x="632" 
d="M361 0h-282v132h246c55 0 75 21 75 72v556h158v-585c0 -115 -66 -175 -197 -175zM237 251h-158v509h158v-509z" />
    <glyph glyph-name="A.inferior" horiz-adv-x="424" 
d="M419 -114h-108l-26 93h-146l-26 -93h-108l112 380h190zM212 241l-50 -180h100z" />
    <glyph glyph-name="B.inferior" horiz-adv-x="398" 
d="M265 79c61 -2 111 -30 111 -88c0 -63 -54 -105 -159 -105h-174v380h171c104 0 150 -46 150 -101c0 -52 -42 -78 -99 -86zM257 150c0 22 -19 35 -50 35h-60v-68h60c31 0 50 11 50 33zM147 -33h65c38 0 58 13 58 39c0 25 -21 36 -58 36h-65v-75z" />
    <glyph glyph-name="C.inferior" horiz-adv-x="421" 
d="M217 -121c-109 0 -195 73 -195 197c0 123 85 197 194 197c93 0 169 -49 189 -142h-107c-11 34 -34 63 -82 63c-52 0 -87 -45 -87 -118s36 -118 88 -118c42 0 71 23 83 64h107c-25 -100 -99 -143 -190 -143z" />
    <glyph glyph-name="D.inferior" horiz-adv-x="417" 
d="M43 266h149c119 0 202 -58 202 -190s-83 -190 -202 -190h-149v380zM147 -31h47c57 0 93 36 93 107s-36 107 -93 107h-47v-214z" />
    <glyph glyph-name="E.inferior" horiz-adv-x="351" 
d="M147 39v-70h174v-83h-278v380h274v-83h-170v-62h166v-82h-166z" />
    <glyph glyph-name="F.inferior" horiz-adv-x="336" 
d="M310 266v-83h-163v-67h160v-83h-160v-147h-104v380h267z" />
    <glyph glyph-name="G.inferior" horiz-adv-x="445" 
d="M204 32v78h208v-224h-84v84c-15 -42 -50 -91 -127 -91c-90 0 -179 68 -179 197c0 121 81 197 198 197c95 0 162 -43 187 -128h-107c-14 31 -38 49 -79 49c-55 0 -92 -46 -92 -118c0 -73 36 -118 96 -118c50 0 84 30 86 74h-107z" />
    <glyph glyph-name="H.inferior" horiz-adv-x="420" 
d="M274 126v140h103v-380h-103v147h-127v-147h-104v380h104v-140h127z" />
    <glyph glyph-name="I.inferior" horiz-adv-x="190" 
d="M147 -114h-104v380h104v-380z" />
    <glyph glyph-name="J.inferior" horiz-adv-x="231" 
d="M78 -114h-64v83h32c25 0 41 4 41 36v261h104v-279c0 -63 -30 -101 -113 -101z" />
    <glyph glyph-name="K.inferior" horiz-adv-x="399" 
d="M255 87l149 -201h-126l-131 183v-183h-103v380h103v-167l120 167h120z" />
    <glyph glyph-name="L.inferior" horiz-adv-x="317" 
d="M147 266v-297h156v-83h-260v380h104z" />
    <glyph glyph-name="M.inferior" horiz-adv-x="576" 
d="M533 266v-380h-94v358l-64 -358h-174l-64 363v-363h-94v380h182l63 -360l63 360h182z" />
    <glyph glyph-name="N.inferior" horiz-adv-x="458" 
d="M321 -95v361h94v-380h-183l-95 361v-361h-94v380h183z" />
    <glyph glyph-name="O.inferior" horiz-adv-x="441" 
d="M221 -121c-117 0 -199 75 -199 197s82 197 199 197c116 0 198 -75 198 -197s-82 -197 -198 -197zM221 -42c56 0 91 45 91 118s-35 118 -91 118c-57 0 -92 -45 -92 -118s35 -118 92 -118z" />
    <glyph glyph-name="P.inferior" horiz-adv-x="382" 
d="M43 266h160c107 0 164 -50 164 -128s-57 -129 -164 -129h-56v-123h-104v380zM147 91h51c39 0 62 17 62 47c0 29 -23 46 -62 46h-51v-93z" />
    <glyph glyph-name="Q.inferior" horiz-adv-x="446" 
d="M386 -41l71 -73h-113l-18 18c-29 -16 -65 -25 -105 -25c-117 0 -199 75 -199 197s82 197 199 197c116 0 198 -75 198 -197c0 -46 -12 -85 -33 -117zM221 -42c16 0 31 4 43 11l-68 71h113c2 11 3 23 3 36c0 73 -35 118 -91 118c-57 0 -92 -45 -92 -118s35 -118 92 -118z
" />
    <glyph glyph-name="R.inferior" horiz-adv-x="401" 
d="M393 -114h-118l-77 132h-51v-132h-104v380h162c100 0 161 -50 161 -125c0 -47 -24 -83 -67 -104zM203 185h-56v-88h56c34 0 56 16 56 44c0 29 -22 44 -56 44z" />
    <glyph glyph-name="S.inferior" horiz-adv-x="382" 
d="M186 -121c-90 0 -158 44 -167 125h106c5 -33 32 -49 67 -49c44 0 65 15 65 38c0 18 -16 30 -60 39l-60 13c-67 15 -109 48 -109 110c0 71 69 118 157 118c102 0 155 -47 165 -110h-106c-5 23 -30 34 -59 34c-32 0 -54 -12 -54 -31c0 -21 17 -28 62 -38l60 -13
c69 -15 107 -53 107 -113c0 -80 -68 -123 -174 -123z" />
    <glyph glyph-name="T.inferior" horiz-adv-x="354" 
d="M14 266h325v-83h-110v-297h-104v297h-111v83z" />
    <glyph glyph-name="U.inferior" horiz-adv-x="412" 
d="M206 -121c-116 0 -167 59 -167 158v2v227h104v-240v-2c0 -40 20 -66 63 -66s63 27 63 68v240h104v-227c0 -100 -50 -160 -167 -160z" />
    <glyph glyph-name="V.inferior" horiz-adv-x="409" 
d="M205 -91l86 357h111l-99 -380h-197l-99 380h111z" />
    <glyph glyph-name="W.inferior" horiz-adv-x="596" 
d="M430 -91l54 357h97l-57 -380h-185l-41 362l-40 -362h-185l-58 380h98l53 -357l41 357h182z" />
    <glyph glyph-name="X.inferior" horiz-adv-x="418" 
d="M280 87l138 -201h-125l-84 126l-85 -126h-124l137 201l-125 179h124l73 -109l73 109h123z" />
    <glyph glyph-name="Y.inferior" horiz-adv-x="387" 
d="M268 266h118l-141 -234v-146h-104v146l-140 234h117l75 -136z" />
    <glyph glyph-name="Z.inferior" horiz-adv-x="370" 
d="M340 158l-192 -189h201v-83h-324v108l191 189h-188v83h312v-108z" />
    <glyph glyph-name="G.ss03.inferior" horiz-adv-x="435" 
d="M204 32v78h207v-49c0 -106 -68 -182 -189 -182c-117 0 -200 72 -200 197c0 121 81 197 197 197c95 0 163 -43 188 -128h-108c-13 31 -37 49 -78 49c-55 0 -92 -46 -92 -118c0 -73 36 -118 94 -118c53 0 83 33 85 74h-104z" />
    <glyph glyph-name="A.superior" horiz-adv-x="424" 
d="M419 380h-108l-26 93h-146l-26 -93h-108l112 380h190zM212 735l-50 -180h100z" />
    <glyph glyph-name="B.superior" horiz-adv-x="398" 
d="M265 573c61 -2 111 -30 111 -88c0 -63 -54 -105 -159 -105h-174v380h171c104 0 150 -46 150 -101c0 -52 -42 -78 -99 -86zM257 644c0 22 -19 35 -50 35h-60v-68h60c31 0 50 11 50 33zM147 461h65c38 0 58 13 58 39c0 25 -21 36 -58 36h-65v-75z" />
    <glyph glyph-name="C.superior" horiz-adv-x="421" 
d="M216 373c-108 0 -194 73 -194 197c0 123 85 197 193 197c94 0 169 -49 190 -142h-107c-11 34 -35 63 -83 63c-52 0 -86 -45 -86 -118s35 -118 87 -118c42 0 72 23 84 64h107c-25 -100 -100 -143 -191 -143z" />
    <glyph glyph-name="D.superior" horiz-adv-x="417" 
d="M43 760h149c119 0 202 -58 202 -190s-83 -190 -202 -190h-149v380zM147 463h47c57 0 93 36 93 107s-36 107 -93 107h-47v-214z" />
    <glyph glyph-name="E.superior" horiz-adv-x="351" 
d="M147 533v-70h174v-83h-278v380h274v-83h-170v-62h166v-82h-166z" />
    <glyph glyph-name="F.superior" horiz-adv-x="336" 
d="M310 760v-83h-163v-67h160v-83h-160v-147h-104v380h267z" />
    <glyph glyph-name="G.superior" horiz-adv-x="445" 
d="M204 526v78h208v-224h-84v84c-15 -42 -50 -91 -127 -91c-90 0 -179 68 -179 197c0 121 81 197 198 197c95 0 162 -43 187 -128h-107c-14 31 -38 49 -79 49c-55 0 -92 -46 -92 -118c0 -73 36 -118 96 -118c50 0 84 30 86 74h-107z" />
    <glyph glyph-name="H.superior" horiz-adv-x="420" 
d="M274 620v140h103v-380h-103v147h-127v-147h-104v380h104v-140h127z" />
    <glyph glyph-name="I.superior" horiz-adv-x="190" 
d="M147 380h-104v380h104v-380z" />
    <glyph glyph-name="J.superior" horiz-adv-x="231" 
d="M78 380h-64v83h32c25 0 41 4 41 36v261h104v-279c0 -63 -30 -101 -113 -101z" />
    <glyph glyph-name="K.superior" horiz-adv-x="399" 
d="M255 580l148 -200h-126l-130 181v-181h-104v380h104v-165l119 165h120z" />
    <glyph glyph-name="L.superior" horiz-adv-x="317" 
d="M147 760v-297h156v-83h-260v380h104z" />
    <glyph glyph-name="M.superior" horiz-adv-x="576" 
d="M533 760v-380h-94v358l-64 -358h-174l-64 363v-363h-94v380h182l63 -360l63 360h182z" />
    <glyph glyph-name="N.superior" horiz-adv-x="458" 
d="M321 399v361h94v-380h-183l-95 361v-361h-94v380h183z" />
    <glyph glyph-name="O.superior" horiz-adv-x="441" 
d="M221 373c-117 0 -199 75 -199 197s82 197 199 197c116 0 198 -75 198 -197s-82 -197 -198 -197zM221 452c56 0 91 45 91 118s-35 118 -91 118c-57 0 -92 -45 -92 -118s35 -118 92 -118z" />
    <glyph glyph-name="P.superior" horiz-adv-x="382" 
d="M43 760h160c107 0 164 -50 164 -128s-57 -129 -164 -129h-56v-123h-104v380zM147 585h51c39 0 62 17 62 47c0 29 -23 46 -62 46h-51v-93z" />
    <glyph glyph-name="Q.superior" horiz-adv-x="446" 
d="M386 453l71 -73h-113l-18 18c-29 -16 -65 -25 -105 -25c-117 0 -199 75 -199 197s82 197 199 197c116 0 198 -75 198 -197c0 -46 -12 -85 -33 -117zM221 452c16 0 31 4 43 11l-68 71h113c2 11 3 23 3 36c0 73 -35 118 -91 118c-57 0 -92 -45 -92 -118s35 -118 92 -118z
" />
    <glyph glyph-name="R.superior" horiz-adv-x="401" 
d="M393 380h-118l-77 132h-51v-132h-104v380h162c100 0 161 -50 161 -125c0 -47 -24 -83 -67 -104zM203 679h-56v-88h56c34 0 56 16 56 44c0 29 -22 44 -56 44z" />
    <glyph glyph-name="S.superior" horiz-adv-x="382" 
d="M186 373c-90 0 -158 44 -167 125h106c5 -33 32 -49 67 -49c44 0 65 15 65 38c0 18 -16 30 -60 39l-60 13c-67 15 -109 48 -109 110c0 71 69 118 157 118c102 0 155 -47 165 -110h-106c-5 23 -30 34 -59 34c-32 0 -54 -12 -54 -31c0 -21 17 -28 62 -38l60 -13
c69 -15 107 -53 107 -113c0 -80 -68 -123 -174 -123z" />
    <glyph glyph-name="T.superior" horiz-adv-x="354" 
d="M14 760h326v-83h-111v-297h-103v297h-112v83z" />
    <glyph glyph-name="U.superior" horiz-adv-x="412" 
d="M206 373c-116 0 -167 59 -167 158v2v227h104v-240v-2c0 -40 20 -66 63 -66s63 27 63 68v240h104v-227c0 -100 -50 -160 -167 -160z" />
    <glyph glyph-name="V.superior" horiz-adv-x="409" 
d="M205 403l86 357h111l-99 -380h-197l-99 380h111z" />
    <glyph glyph-name="W.superior" horiz-adv-x="596" 
d="M430 403l54 357h97l-57 -380h-185l-41 362l-40 -362h-185l-58 380h98l53 -357l41 357h182z" />
    <glyph glyph-name="X.superior" horiz-adv-x="418" 
d="M280 581l138 -201h-125l-84 126l-85 -126h-124l137 201l-125 179h124l73 -109l73 109h123z" />
    <glyph glyph-name="Y.superior" horiz-adv-x="387" 
d="M268 760h118l-141 -234v-146h-104v146l-140 234h117l75 -136z" />
    <glyph glyph-name="Z.superior" horiz-adv-x="370" 
d="M340 652l-192 -189h201v-83h-324v108l191 189h-188v83h312v-108z" />
    <glyph glyph-name="G.ss03.superior" horiz-adv-x="435" 
d="M204 526v78h208v-49c0 -106 -69 -182 -190 -182c-116 0 -200 72 -200 197c0 121 81 197 198 197c95 0 162 -43 187 -128h-107c-14 31 -38 49 -79 49c-55 0 -92 -46 -92 -118c0 -73 36 -118 95 -118c52 0 82 34 84 74h-104z" />
    <glyph glyph-name="a" unicode="a" horiz-adv-x="616" 
d="M308 555c169 0 250 -91 250 -213v-2v-340h-151v102c-31 -65 -80 -114 -181 -114c-105 0 -189 72 -189 177c0 124 118 155 225 165l143 14v7v2c0 55 -32 98 -97 98c-60 0 -92 -35 -98 -73h-154c14 111 114 177 252 177zM286 80c78 0 119 66 119 151v22l-87 -9
c-62 -7 -125 -18 -125 -79c0 -53 41 -85 93 -85z" />
    <glyph glyph-name="aacute" unicode="&#xe1;" horiz-adv-x="616" 
d="M337 760h207l-176 -156h-143zM308 555c169 0 250 -91 250 -213v-2v-340h-151v102c-31 -65 -80 -114 -181 -114c-105 0 -189 72 -189 177c0 124 118 155 225 165l143 14v7v2c0 55 -32 98 -97 98c-60 0 -92 -35 -98 -73h-154c14 111 114 177 252 177zM286 80
c78 0 119 66 119 151v22l-87 -9c-62 -7 -125 -18 -125 -79c0 -53 41 -85 93 -85z" />
    <glyph glyph-name="abreve" unicode="&#x103;" horiz-adv-x="616" 
d="M308 600c-113 0 -184 71 -184 160h111c0 -46 27 -69 73 -69c45 0 73 23 73 69h110c0 -89 -71 -160 -183 -160zM308 555c169 0 250 -91 250 -213v-2v-340h-151v102c-31 -65 -80 -114 -181 -114c-105 0 -189 72 -189 177c0 124 118 155 225 165l143 14v7v2
c0 55 -32 98 -97 98c-60 0 -92 -35 -98 -73h-154c14 111 114 177 252 177zM286 80c78 0 119 66 119 151v22l-87 -9c-62 -7 -125 -18 -125 -79c0 -53 41 -85 93 -85z" />
    <glyph glyph-name="acircumflex" unicode="&#xe2;" horiz-adv-x="616" 
d="M396 604l-89 91l-88 -91h-136l128 156h193l127 -156h-135zM308 555c169 0 250 -91 250 -213v-2v-340h-151v102c-31 -65 -80 -114 -181 -114c-105 0 -189 72 -189 177c0 124 118 155 225 165l143 14v7v2c0 55 -32 98 -97 98c-60 0 -92 -35 -98 -73h-154
c14 111 114 177 252 177zM286 80c78 0 119 66 119 151v22l-87 -9c-62 -7 -125 -18 -125 -79c0 -53 41 -85 93 -85z" />
    <glyph glyph-name="adieresis" unicode="&#xe4;" horiz-adv-x="616" 
d="M110 760h158v-144h-158v144zM345 760h158v-144h-158v144zM308 555c169 0 250 -91 250 -213v-2v-340h-151v102c-31 -65 -80 -114 -181 -114c-105 0 -189 72 -189 177c0 124 118 155 225 165l143 14v7v2c0 55 -32 98 -97 98c-60 0 -92 -35 -98 -73h-154
c14 111 114 177 252 177zM286 80c78 0 119 66 119 151v22l-87 -9c-62 -7 -125 -18 -125 -79c0 -53 41 -85 93 -85z" />
    <glyph glyph-name="uni1EA1" unicode="&#x1ea1;" horiz-adv-x="616" 
d="M308 555c169 0 250 -91 250 -213v-2v-340h-151v102c-31 -65 -80 -114 -181 -114c-105 0 -189 72 -189 177c0 124 118 155 225 165l143 14v7v2c0 55 -32 98 -97 98c-60 0 -92 -35 -98 -73h-154c14 111 114 177 252 177zM286 80c78 0 119 66 119 151v22l-87 -9
c-62 -7 -125 -18 -125 -79c0 -53 41 -85 93 -85zM399 -202h-158v144h158v-144z" />
    <glyph glyph-name="agrave" unicode="&#xe0;" horiz-adv-x="616" 
d="M277 760l112 -156h-142l-177 156h207zM308 555c169 0 250 -91 250 -213v-2v-340h-151v102c-31 -65 -80 -114 -181 -114c-105 0 -189 72 -189 177c0 124 118 155 225 165l143 14v7v2c0 55 -32 98 -97 98c-60 0 -92 -35 -98 -73h-154c14 111 114 177 252 177zM286 80
c78 0 119 66 119 151v22l-87 -9c-62 -7 -125 -18 -125 -79c0 -53 41 -85 93 -85z" />
    <glyph glyph-name="amacron" unicode="&#x101;" horiz-adv-x="616" 
d="M116 733h382v-107h-382v107zM308 555c169 0 250 -91 250 -213v-2v-340h-151v102c-31 -65 -80 -114 -181 -114c-105 0 -189 72 -189 177c0 124 118 155 225 165l143 14v7v2c0 55 -32 98 -97 98c-60 0 -92 -35 -98 -73h-154c14 111 114 177 252 177zM286 80
c78 0 119 66 119 151v22l-87 -9c-62 -7 -125 -18 -125 -79c0 -53 41 -85 93 -85z" />
    <glyph glyph-name="aogonek" unicode="&#x105;" horiz-adv-x="616" 
d="M308 555c169 0 250 -91 250 -213v-2v-340h-1c-59 -20 -88 -44 -88 -71c0 -24 21 -34 56 -34h32v-98h-52c-104 0 -167 31 -167 98c0 45 28 77 68 105h1v102c-31 -65 -80 -114 -181 -114c-105 0 -189 72 -189 177c0 124 118 155 225 165l143 14v7v2c0 55 -32 98 -97 98
c-60 0 -92 -35 -98 -73h-154c14 111 114 177 252 177zM286 80c78 0 119 66 119 151v22l-87 -9c-62 -7 -125 -18 -125 -79c0 -53 41 -85 93 -85z" />
    <glyph glyph-name="aring" unicode="&#xe5;" horiz-adv-x="616" 
d="M307 600c-68 0 -123 55 -123 123s55 122 123 122s123 -54 123 -122s-55 -123 -123 -123zM307 764c-23 0 -42 -18 -42 -41s19 -43 42 -43s42 20 42 43s-19 41 -42 41zM308 555c169 0 250 -91 250 -213v-2v-340h-151v102c-31 -65 -80 -114 -181 -114
c-105 0 -189 72 -189 177c0 124 118 155 225 165l143 14v7v2c0 55 -32 98 -97 98c-60 0 -92 -35 -98 -73h-154c14 111 114 177 252 177zM286 80c78 0 119 66 119 151v22l-87 -9c-62 -7 -125 -18 -125 -79c0 -53 41 -85 93 -85z" />
    <glyph glyph-name="atilde" unicode="&#xe3;" horiz-adv-x="616" 
d="M241 658c-33 0 -52 -18 -58 -41h-49c2 92 43 140 103 140c31 0 60 -13 78 -22c18 -8 39 -16 59 -16c33 0 52 18 58 41h49c-2 -92 -43 -140 -103 -140c-31 0 -61 13 -78 22c-18 8 -39 16 -59 16zM308 555c169 0 250 -91 250 -213v-2v-340h-151v102
c-31 -65 -80 -114 -181 -114c-105 0 -189 72 -189 177c0 124 118 155 225 165l143 14v7v2c0 55 -32 98 -97 98c-60 0 -92 -35 -98 -73h-154c14 111 114 177 252 177zM286 80c78 0 119 66 119 151v22l-87 -9c-62 -7 -125 -18 -125 -79c0 -53 41 -85 93 -85z" />
    <glyph glyph-name="ae" unicode="&#xe6;" horiz-adv-x="988" 
d="M953 269c0 -13 -1 -28 -3 -43h-390c11 -91 57 -134 120 -134c59 0 88 25 107 69h154c-36 -115 -132 -173 -262 -173c-105 0 -177 49 -215 117c-35 -66 -107 -117 -218 -117c-121 0 -209 73 -209 172c0 126 109 168 255 168h113v23v2c0 55 -32 98 -97 98
c-60 0 -92 -35 -98 -73h-154c13 112 116 177 242 177c100 0 159 -42 189 -88c40 53 102 88 192 88c168 0 274 -114 274 -286zM680 451c-62 0 -106 -38 -119 -123h236c-8 78 -54 123 -117 123zM282 92c78 0 120 48 123 134h-86c-79 0 -126 -19 -126 -67c0 -43 36 -67 89 -67z
" />
    <glyph glyph-name="aeacute" unicode="&#x1fd;" horiz-adv-x="988" 
d="M519 760h207l-176 -156h-143zM953 269c0 -13 -1 -28 -3 -43h-390c11 -91 57 -134 120 -134c59 0 88 25 107 69h154c-36 -115 -132 -173 -262 -173c-105 0 -177 49 -215 117c-35 -66 -107 -117 -218 -117c-121 0 -209 73 -209 172c0 126 109 168 255 168h113v23v2
c0 55 -32 98 -97 98c-60 0 -92 -35 -98 -73h-154c13 112 116 177 242 177c100 0 159 -42 189 -88c40 53 102 88 192 88c168 0 274 -114 274 -286zM680 451c-62 0 -106 -38 -119 -123h236c-8 78 -54 123 -117 123zM282 92c78 0 120 48 123 134h-86c-79 0 -126 -19 -126 -67
c0 -43 36 -67 89 -67z" />
    <glyph glyph-name="uni01E3" unicode="&#x1e3;" horiz-adv-x="988" 
d="M297 733h382v-107h-382v107zM953 269c0 -13 -1 -28 -3 -43h-390c11 -91 57 -134 120 -134c59 0 88 25 107 69h154c-36 -115 -132 -173 -262 -173c-105 0 -177 49 -215 117c-35 -66 -107 -117 -218 -117c-121 0 -209 73 -209 172c0 126 109 168 255 168h113v23v2
c0 55 -32 98 -97 98c-60 0 -92 -35 -98 -73h-154c13 112 116 177 242 177c100 0 159 -42 189 -88c40 53 102 88 192 88c168 0 274 -114 274 -286zM680 451c-62 0 -106 -38 -119 -123h236c-8 78 -54 123 -117 123zM282 92c78 0 120 48 123 134h-86c-79 0 -126 -19 -126 -67
c0 -43 36 -67 89 -67z" />
    <glyph glyph-name="b" unicode="b" horiz-adv-x="657" 
d="M396 555c134 0 224 -121 224 -284s-90 -283 -224 -283c-84 0 -151 51 -180 121v-109h-152v760h152v-339c24 71 85 134 180 134zM337 92c83 0 127 69 127 179c0 111 -44 180 -127 180s-127 -69 -127 -180c0 -110 44 -179 127 -179z" />
    <glyph glyph-name="c" unicode="c" horiz-adv-x="611" 
d="M316 -12c-168 0 -281 113 -281 284c0 170 115 283 281 283c143 0 242 -80 265 -207h-154c-13 57 -48 103 -111 103c-81 0 -125 -69 -125 -179c0 -114 46 -180 125 -180c63 0 99 38 116 101h154c-26 -133 -134 -205 -270 -205z" />
    <glyph glyph-name="cacute" unicode="&#x107;" horiz-adv-x="611" 
d="M377 604h-143l112 156h207zM316 -12c-168 0 -281 113 -281 284c0 170 115 283 281 283c143 0 242 -80 265 -207h-154c-13 57 -48 103 -111 103c-81 0 -125 -69 -125 -179c0 -114 46 -180 125 -180c63 0 99 38 116 101h154c-26 -133 -134 -205 -270 -205z" />
    <glyph glyph-name="ccaron" unicode="&#x10d;" horiz-adv-x="611" 
d="M539 760l-127 -156h-193l-128 156h136l88 -91l89 91h135zM432 193h154c-26 -133 -134 -205 -270 -205c-168 0 -281 113 -281 284c0 170 115 283 281 283c143 0 242 -80 265 -207h-154c-13 57 -48 103 -111 103c-81 0 -125 -69 -125 -179c0 -114 46 -180 125 -180
c63 0 99 38 116 101z" />
    <glyph glyph-name="ccedilla" unicode="&#xe7;" horiz-adv-x="611" 
d="M432 193h154c-25 -126 -122 -197 -248 -204v-21c48 -6 82 -38 82 -85c0 -52 -42 -86 -106 -86h-70v69h45c21 0 35 8 35 26c0 17 -15 26 -33 26h-30v74c-137 22 -226 128 -226 280c0 170 115 283 281 283c143 0 242 -80 265 -207h-154c-13 57 -48 103 -111 103
c-81 0 -125 -69 -125 -179c0 -114 46 -180 125 -180c63 0 99 38 116 101z" />
    <glyph glyph-name="ccircumflex" unicode="&#x109;" horiz-adv-x="611" 
d="M404 604l-89 91l-88 -91h-136l128 156h193l127 -156h-135zM432 193h154c-26 -133 -134 -205 -270 -205c-168 0 -281 113 -281 284c0 170 115 283 281 283c143 0 242 -80 265 -207h-154c-13 57 -48 103 -111 103c-81 0 -125 -69 -125 -179c0 -114 46 -180 125 -180
c63 0 99 38 116 101z" />
    <glyph glyph-name="cdotaccent" unicode="&#x10b;" horiz-adv-x="611" 
d="M394 616h-158v144h158v-144zM316 -12c-168 0 -281 113 -281 284c0 170 115 283 281 283c143 0 242 -80 265 -207h-154c-13 57 -48 103 -111 103c-81 0 -125 -69 -125 -179c0 -114 46 -180 125 -180c63 0 99 38 116 101h154c-26 -133 -134 -205 -270 -205z" />
    <glyph glyph-name="d" unicode="d" horiz-adv-x="657" 
d="M441 419v341h151v-760h-151v110c-29 -71 -96 -122 -180 -122c-134 0 -224 120 -224 283s90 284 224 284c96 0 157 -65 180 -136zM319 92c83 0 128 69 128 179c0 111 -45 180 -128 180s-126 -69 -126 -180c0 -110 43 -179 126 -179z" />
    <glyph glyph-name="eth" unicode="&#xf0;" horiz-adv-x="641" 
d="M544 675l-77 -23c87 -93 135 -202 135 -358c0 -194 -109 -306 -283 -306s-283 117 -283 283c0 167 100 274 230 274c85 0 141 -59 166 -121c-10 59 -44 125 -102 187l-123 -37l-22 74l79 24c-40 32 -88 61 -142 88h219c22 -15 42 -31 61 -47l120 36zM319 92
c82 0 127 66 127 174s-45 175 -127 175s-127 -67 -127 -175s45 -174 127 -174z" />
    <glyph glyph-name="dcaron" unicode="&#x10f;" horiz-adv-x="657" 
d="M441 419v341h151v-760h-151v110c-29 -71 -96 -122 -180 -122c-134 0 -224 120 -224 283s90 284 224 284c96 0 157 -65 180 -136zM642 576l14 184h137l-42 -184h-109zM319 92c83 0 128 69 128 179c0 111 -45 180 -128 180s-126 -69 -126 -180c0 -110 43 -179 126 -179z
" />
    <glyph glyph-name="dcroat" unicode="&#x111;" horiz-adv-x="657" 
d="M592 697h58v-98h-58v-599h-151v110c-29 -71 -96 -122 -180 -122c-134 0 -224 120 -224 283s90 284 224 284c96 0 157 -65 180 -136v180h-95v98h95v63h151v-63zM319 92c83 0 128 69 128 179c0 111 -45 180 -128 180s-126 -69 -126 -180c0 -110 43 -179 126 -179z" />
    <glyph glyph-name="e" unicode="e" horiz-adv-x="620" 
d="M585 269c0 -13 -1 -28 -3 -43h-391c11 -91 58 -134 121 -134c59 0 88 25 107 69h154c-36 -115 -132 -173 -262 -173c-169 0 -276 117 -276 284s111 283 276 283c168 0 274 -115 274 -286zM311 451c-61 0 -106 -38 -119 -123h237c-8 77 -54 123 -118 123z" />
    <glyph glyph-name="eacute" unicode="&#xe9;" horiz-adv-x="620" 
d="M341 760h207l-176 -156h-143zM585 269c0 -13 -1 -28 -3 -43h-391c11 -91 58 -134 121 -134c59 0 88 25 107 69h154c-36 -115 -132 -173 -262 -173c-169 0 -276 117 -276 284s111 283 276 283c168 0 274 -115 274 -286zM311 451c-61 0 -106 -38 -119 -123h237
c-8 77 -54 123 -118 123z" />
    <glyph glyph-name="ebreve" unicode="&#x115;" horiz-adv-x="620" 
d="M311 600c-113 0 -184 71 -184 160h111c0 -46 27 -69 73 -69c45 0 73 23 73 69h110c0 -89 -71 -160 -183 -160zM585 269c0 -13 -1 -28 -3 -43h-391c11 -91 58 -134 121 -134c59 0 88 25 107 69h154c-36 -115 -132 -173 -262 -173c-169 0 -276 117 -276 284
s111 283 276 283c168 0 274 -115 274 -286zM311 451c-61 0 -106 -38 -119 -123h237c-8 77 -54 123 -118 123z" />
    <glyph glyph-name="ecaron" unicode="&#x11b;" horiz-adv-x="620" 
d="M534 760l-127 -156h-193l-128 156h136l88 -91l89 91h135zM585 269c0 -13 -1 -28 -3 -43h-391c11 -91 58 -134 121 -134c59 0 88 25 107 69h154c-36 -115 -132 -173 -262 -173c-169 0 -276 117 -276 284s111 283 276 283c168 0 274 -115 274 -286zM311 451
c-61 0 -106 -38 -119 -123h237c-8 77 -54 123 -118 123z" />
    <glyph glyph-name="ecircumflex" unicode="&#xea;" horiz-adv-x="620" 
d="M399 604l-89 91l-88 -91h-136l128 156h193l127 -156h-135zM585 269c0 -13 -1 -28 -3 -43h-391c11 -91 58 -134 121 -134c59 0 88 25 107 69h154c-36 -115 -132 -173 -262 -173c-169 0 -276 117 -276 284s111 283 276 283c168 0 274 -115 274 -286zM311 451
c-61 0 -106 -38 -119 -123h237c-8 77 -54 123 -118 123z" />
    <glyph glyph-name="edieresis" unicode="&#xeb;" horiz-adv-x="620" 
d="M114 760h158v-144h-158v144zM349 760h158v-144h-158v144zM585 269c0 -13 -1 -28 -3 -43h-391c11 -91 58 -134 121 -134c59 0 88 25 107 69h154c-36 -115 -132 -173 -262 -173c-169 0 -276 117 -276 284s111 283 276 283c168 0 274 -115 274 -286zM311 451
c-61 0 -106 -38 -119 -123h237c-8 77 -54 123 -118 123z" />
    <glyph glyph-name="edotaccent" unicode="&#x117;" horiz-adv-x="620" 
d="M231 760h158v-144h-158v144zM585 269c0 -13 -1 -28 -3 -43h-391c11 -91 58 -134 121 -134c59 0 88 25 107 69h154c-36 -115 -132 -173 -262 -173c-169 0 -276 117 -276 284s111 283 276 283c168 0 274 -115 274 -286zM311 451c-61 0 -106 -38 -119 -123h237
c-8 77 -54 123 -118 123z" />
    <glyph glyph-name="uni1EB9" unicode="&#x1eb9;" horiz-adv-x="620" 
d="M585 269c0 -13 -1 -28 -3 -43h-391c11 -91 58 -134 121 -134c59 0 88 25 107 69h154c-36 -115 -132 -173 -262 -173c-169 0 -276 117 -276 284s111 283 276 283c168 0 274 -115 274 -286zM311 451c-61 0 -106 -38 -119 -123h237c-8 77 -54 123 -118 123zM392 -202h-158
v144h158v-144z" />
    <glyph glyph-name="egrave" unicode="&#xe8;" horiz-adv-x="620" 
d="M280 760l112 -156h-142l-177 156h207zM585 269c0 -13 -1 -28 -3 -43h-391c11 -91 58 -134 121 -134c59 0 88 25 107 69h154c-36 -115 -132 -173 -262 -173c-169 0 -276 117 -276 284s111 283 276 283c168 0 274 -115 274 -286zM311 451c-61 0 -106 -38 -119 -123h237
c-8 77 -54 123 -118 123z" />
    <glyph glyph-name="emacron" unicode="&#x113;" horiz-adv-x="620" 
d="M119 733h382v-107h-382v107zM585 269c0 -13 -1 -28 -3 -43h-391c11 -91 58 -134 121 -134c59 0 88 25 107 69h154c-36 -115 -132 -173 -262 -173c-169 0 -276 117 -276 284s111 283 276 283c168 0 274 -115 274 -286zM311 451c-61 0 -106 -38 -119 -123h237
c-8 77 -54 123 -118 123z" />
    <glyph glyph-name="eogonek" unicode="&#x119;" horiz-adv-x="620" 
d="M585 269c0 -13 -1 -28 -3 -43h-391c11 -91 58 -134 121 -134c59 0 88 25 107 69h154c-16 -52 -44 -92 -82 -120c-59 -47 -78 -79 -78 -108c0 -27 20 -38 55 -38h33v-98h-52c-105 0 -167 31 -167 98c0 36 20 67 55 94c-9 -1 -17 -1 -26 -1c-169 0 -276 117 -276 284
s111 283 276 283c168 0 274 -115 274 -286zM311 451c-61 0 -106 -38 -119 -123h237c-8 77 -54 123 -118 123z" />
    <glyph glyph-name="uni1EBD" unicode="&#x1ebd;" horiz-adv-x="620" 
d="M244 658c-33 0 -52 -18 -58 -41h-49c2 92 43 140 103 140c31 0 60 -13 78 -22c18 -8 39 -16 59 -16c33 0 52 18 58 41h49c-2 -92 -43 -140 -103 -140c-31 0 -61 13 -78 22c-18 8 -39 16 -59 16zM585 269c0 -13 -1 -28 -3 -43h-391c11 -91 58 -134 121 -134
c59 0 88 25 107 69h154c-36 -115 -132 -173 -262 -173c-169 0 -276 117 -276 284s111 283 276 283c168 0 274 -115 274 -286zM311 451c-61 0 -106 -38 -119 -123h237c-8 77 -54 123 -118 123z" />
    <glyph glyph-name="uni0259" unicode="&#x259;" horiz-adv-x="620" 
d="M309 555c169 0 276 -117 276 -284s-110 -283 -276 -283c-168 0 -274 115 -274 286c0 13 1 28 3 43h391c-11 91 -58 134 -121 134c-59 0 -88 -25 -107 -69h-154c36 115 132 173 262 173zM309 92c61 0 106 38 119 123h-237c8 -76 54 -123 118 -123z" />
    <glyph glyph-name="f" unicode="f" horiz-adv-x="406" 
d="M391 651h-54c-45 0 -68 -14 -68 -63v-45h122v-112h-122v-431h-153v431h-98v112h98v54c0 109 80 163 187 163h88v-109z" />
    <glyph glyph-name="g" unicode="g" horiz-adv-x="657" 
d="M443 423v120h152v-533c0 -164 -141 -218 -267 -218c-128 0 -249 55 -264 180h154c11 -51 56 -76 110 -76c65 0 115 35 115 111v116c-30 -68 -96 -118 -180 -118c-134 0 -224 112 -224 275s91 275 224 275c96 0 156 -61 180 -132zM322 109c82 0 127 64 127 171
s-45 171 -127 171c-83 0 -127 -64 -127 -171s44 -171 127 -171z" />
    <glyph glyph-name="gbreve" unicode="&#x11f;" horiz-adv-x="657" 
d="M326 600c-113 0 -184 71 -184 160h111c0 -46 27 -69 73 -69c45 0 73 23 73 69h110c0 -89 -71 -160 -183 -160zM443 423v120h152v-533c0 -164 -141 -218 -267 -218c-128 0 -249 55 -264 180h154c11 -51 56 -76 110 -76c65 0 115 35 115 111v116
c-30 -68 -96 -118 -180 -118c-134 0 -224 112 -224 275s91 275 224 275c96 0 156 -61 180 -132zM322 109c82 0 127 64 127 171s-45 171 -127 171c-83 0 -127 -64 -127 -171s44 -171 127 -171z" />
    <glyph glyph-name="gcaron" unicode="&#x1e7;" horiz-adv-x="657" 
d="M550 760l-127 -156h-193l-128 156h136l88 -91l89 91h135zM443 423v120h152v-533c0 -164 -141 -218 -267 -218c-128 0 -249 55 -264 180h154c11 -51 56 -76 110 -76c65 0 115 35 115 111v116c-30 -68 -96 -118 -180 -118c-134 0 -224 112 -224 275s91 275 224 275
c96 0 156 -61 180 -132zM322 109c82 0 127 64 127 171s-45 171 -127 171c-83 0 -127 -64 -127 -171s44 -171 127 -171z" />
    <glyph glyph-name="gcircumflex" unicode="&#x11d;" horiz-adv-x="657" 
d="M415 604l-89 91l-88 -91h-136l128 156h193l127 -156h-135zM443 423v120h152v-533c0 -164 -141 -218 -267 -218c-128 0 -249 55 -264 180h154c11 -51 56 -76 110 -76c65 0 115 35 115 111v116c-30 -68 -96 -118 -180 -118c-134 0 -224 112 -224 275s91 275 224 275
c96 0 156 -61 180 -132zM322 109c82 0 127 64 127 171s-45 171 -127 171c-83 0 -127 -64 -127 -171s44 -171 127 -171z" />
    <glyph glyph-name="uni0123" unicode="&#x123;" horiz-adv-x="657" 
d="M355 763h50v-145h-158v158l68 94h95zM443 423v120h152v-533c0 -164 -141 -218 -267 -218c-128 0 -249 55 -264 180h154c11 -51 56 -76 110 -76c65 0 115 35 115 111v116c-30 -68 -96 -118 -180 -118c-134 0 -224 112 -224 275s91 275 224 275c96 0 156 -61 180 -132z
M322 109c82 0 127 64 127 171s-45 171 -127 171c-83 0 -127 -64 -127 -171s44 -171 127 -171z" />
    <glyph glyph-name="gdotaccent" unicode="&#x121;" horiz-adv-x="657" 
d="M247 760h158v-144h-158v144zM443 423v120h152v-533c0 -164 -141 -218 -267 -218c-128 0 -249 55 -264 180h154c11 -51 56 -76 110 -76c65 0 115 35 115 111v116c-30 -68 -96 -118 -180 -118c-134 0 -224 112 -224 275s91 275 224 275c96 0 156 -61 180 -132zM322 109
c82 0 127 64 127 171s-45 171 -127 171c-83 0 -127 -64 -127 -171s44 -171 127 -171z" />
    <glyph glyph-name="h" unicode="h" horiz-adv-x="629" 
d="M389 555c127 0 181 -91 181 -211v-2v-342h-153v309v2c0 94 -36 137 -100 137c-63 0 -100 -43 -100 -139v-309h-153v760h152v-328c25 68 78 123 173 123z" />
    <glyph glyph-name="hbar" unicode="&#x127;" horiz-adv-x="629" 
d="M389 555c127 0 181 -91 181 -211v-2v-342h-153v309v2c0 94 -36 137 -100 137c-63 0 -100 -43 -100 -139v-309h-153v599h-57v98h57v63h152v-63h94v-98h-94v-167c25 68 78 123 173 123z" />
    <glyph glyph-name="hcircumflex" unicode="&#x125;" horiz-adv-x="629" 
d="M368 817h-141l-87 77l-87 -77h-142l128 145h201zM389 555c127 0 181 -91 181 -211v-2v-342h-153v309v2c0 94 -36 137 -100 137c-63 0 -100 -43 -100 -139v-309h-153v760h152v-328c25 68 78 123 173 123z" />
    <glyph glyph-name="i" unicode="i" horiz-adv-x="282" 
d="M220 616h-158v144h158v-144zM217 0h-153v543h153v-543z" />
    <glyph glyph-name="dotlessi" unicode="&#x131;" horiz-adv-x="282" 
d="M217 0h-153v543h153v-543z" />
    <glyph glyph-name="iacute" unicode="&#xed;" horiz-adv-x="282" 
d="M216 604h-143l112 156h207zM217 0h-153v543h153v-543z" />
    <glyph glyph-name="ibreve" unicode="&#x12d;" horiz-adv-x="282" 
d="M141 600c-113 0 -184 71 -184 160h111c0 -46 27 -69 73 -69c45 0 73 23 73 69h110c0 -89 -71 -160 -183 -160zM217 0h-153v543h153v-543z" />
    <glyph glyph-name="icircumflex" unicode="&#xee;" horiz-adv-x="282" 
d="M45 760h193l127 -156h-135l-89 91l-88 -91h-136zM217 0h-153v543h153v-543z" />
    <glyph glyph-name="idieresis" unicode="&#xef;" horiz-adv-x="282" 
d="M102 616h-158v144h158v-144zM337 616h-158v144h158v-144zM217 0h-153v543h153v-543z" />
    <glyph glyph-name="i.loclTRK" horiz-adv-x="282" 
d="M220 616h-158v144h158v-144zM217 0h-153v543h153v-543z" />
    <glyph glyph-name="uni1ECB" unicode="&#x1ecb;" horiz-adv-x="282" 
d="M220 616h-158v144h158v-144zM217 0h-153v543h153v-543zM220 -202h-158v144h158v-144z" />
    <glyph glyph-name="igrave" unicode="&#xec;" horiz-adv-x="282" 
d="M209 604h-143l-176 156h207zM217 0h-153v543h153v-543z" />
    <glyph glyph-name="imacron" unicode="&#x12b;" horiz-adv-x="282" 
d="M331 626h-382v107h382v-107zM217 0h-153v543h153v-543z" />
    <glyph glyph-name="iogonek" unicode="&#x12f;" horiz-adv-x="282" 
d="M62 616v144h158v-144h-158zM64 0v543h153v-543c-59 -20 -88 -44 -88 -71c0 -24 21 -34 56 -34h32v-98h-51c-105 0 -167 31 -167 98c0 45 27 77 65 105z" />
    <glyph glyph-name="itilde" unicode="&#x129;" horiz-adv-x="282" 
d="M16 617h-49c2 92 43 140 103 140c31 0 60 -13 78 -22c18 -8 39 -16 59 -16c33 0 52 18 58 41h49c-2 -92 -43 -140 -103 -140c-31 0 -61 13 -78 22c-18 8 -39 16 -59 16c-33 0 -52 -18 -58 -41zM217 0h-153v543h153v-543z" />
    <glyph glyph-name="j" unicode="j" horiz-adv-x="282" 
d="M220 616h-158v144h158v-144zM31 -196h-61v112h27c44 0 67 14 67 63v564h153v-576c0 -109 -79 -163 -186 -163z" />
    <glyph glyph-name="uni0237" unicode="&#x237;" horiz-adv-x="282" 
d="M31 -196h-61v112h27c44 0 67 14 67 63v564h153v-576c0 -109 -79 -163 -186 -163z" />
    <glyph glyph-name="uni006A0301" horiz-adv-x="282" 
d="M216 604h-143l112 156h207zM31 -196h-61v112h27c44 0 67 14 67 63v564h153v-576c0 -109 -79 -163 -186 -163z" />
    <glyph glyph-name="jcircumflex" unicode="&#x135;" horiz-adv-x="282" 
d="M45 760h193l127 -156h-135l-89 91l-88 -91h-136zM64 -21v564h153v-576c0 -109 -79 -163 -186 -163h-61v112h27c44 0 67 14 67 63z" />
    <glyph glyph-name="k" unicode="k" horiz-adv-x="599" 
d="M377 302l227 -302h-183l-204 275v-275h-153v760h153v-436l196 219h181z" />
    <glyph glyph-name="uni0137" unicode="&#x137;" horiz-adv-x="599" 
d="M594 543l-217 -241l227 -302h-183l-204 275v-275h-153v760h153v-436l196 219h181zM284 -202h-52v144h158v-157l-67 -94h-95z" />
    <glyph glyph-name="kgreenlandic" unicode="&#x138;" horiz-adv-x="603" 
d="M373 292l236 -292h-183l-209 264v-264h-153v543h153v-226l200 226h181z" />
    <glyph glyph-name="l" unicode="l" horiz-adv-x="282" 
d="M217 0h-153v760h153v-760z" />
    <glyph glyph-name="lacute" unicode="&#x13a;" horiz-adv-x="282" 
d="M224 817h-151l121 145h215zM217 0h-153v760h153v-760z" />
    <glyph glyph-name="lcaron" unicode="&#x13e;" horiz-adv-x="282" 
d="M217 0h-153v760h153v-760zM376 576h-109l14 184h137z" />
    <glyph glyph-name="uni013C" unicode="&#x13c;" horiz-adv-x="282" 
d="M64 760h153v-760h-153v760zM62 -202v144h158v-157l-67 -94h-95l56 107h-52z" />
    <glyph glyph-name="ldot" unicode="&#x140;" horiz-adv-x="410" 
d="M217 0h-153v760h153v-760zM416 318h-141v153h141v-153z" />
    <glyph glyph-name="lslash" unicode="&#x142;" horiz-adv-x="358" 
d="M255 496l74 46v-130l-74 -46v-366h-153v270l-68 -42v130l68 42v360h153v-264z" />
    <glyph glyph-name="m" unicode="m" horiz-adv-x="953" 
d="M719 555c122 0 174 -89 174 -211v-2v-342h-153v309v2c0 94 -29 137 -92 137s-93 -43 -93 -139v-309h-153v309v2c0 94 -29 137 -92 137s-93 -43 -93 -139v-309h-153v543h152v-111c26 67 75 123 167 123c94 0 146 -63 165 -132c24 66 76 132 171 132z" />
    <glyph glyph-name="n" unicode="n" horiz-adv-x="629" 
d="M389 555c127 0 181 -91 181 -211v-2v-342h-153v309v2c0 94 -36 137 -100 137c-63 0 -100 -43 -100 -139v-309h-153v543h152v-111c25 68 78 123 173 123z" />
    <glyph glyph-name="nacute" unicode="&#x144;" horiz-adv-x="629" 
d="M357 760h207l-176 -156h-143zM389 555c127 0 181 -91 181 -211v-2v-342h-153v309v2c0 94 -36 137 -100 137c-63 0 -100 -43 -100 -139v-309h-153v543h152v-111c25 68 78 123 173 123z" />
    <glyph glyph-name="ncaron" unicode="&#x148;" horiz-adv-x="629" 
d="M551 760l-127 -156h-193l-128 156h136l88 -91l89 91h135zM389 555c127 0 181 -91 181 -211v-2v-342h-153v309v2c0 94 -36 137 -100 137c-63 0 -100 -43 -100 -139v-309h-153v543h152v-111c25 68 78 123 173 123z" />
    <glyph glyph-name="uni0146" unicode="&#x146;" horiz-adv-x="629" 
d="M389 555c127 0 181 -91 181 -211v-2v-342h-153v309v2c0 94 -36 137 -100 137c-63 0 -100 -43 -100 -139v-309h-153v543h152v-111c25 68 78 123 173 123zM290 -202h-52v144h158v-157l-67 -94h-95z" />
    <glyph glyph-name="eng" unicode="&#x14b;" horiz-adv-x="629" 
d="M389 555c127 0 181 -91 181 -211v-2v-372c0 -113 -80 -166 -187 -166h-60v112h26c44 0 68 14 68 63v330v2c0 94 -36 137 -100 137c-63 0 -100 -43 -100 -139v-309h-153v543h152v-111c25 68 78 123 173 123z" />
    <glyph glyph-name="uni0272" unicode="&#x272;" horiz-adv-x="629" 
d="M389 555c127 0 181 -91 181 -211v-2v-342h-153v309v2c0 94 -36 137 -100 137c-63 0 -100 -43 -100 -139v-339c0 -113 -79 -166 -186 -166h-61v112h27c44 0 67 14 67 63v564h152v-111c25 68 78 123 173 123z" />
    <glyph glyph-name="ntilde" unicode="&#xf1;" horiz-adv-x="629" 
d="M261 658c-33 0 -52 -18 -58 -41h-49c2 92 43 140 103 140c31 0 60 -13 78 -22c18 -8 39 -16 59 -16c33 0 52 18 58 41h49c-2 -92 -43 -140 -103 -140c-31 0 -61 13 -78 22c-18 8 -39 16 -59 16zM389 555c127 0 181 -91 181 -211v-2v-342h-153v309v2
c0 94 -36 137 -100 137c-63 0 -100 -43 -100 -139v-309h-153v543h152v-111c25 68 78 123 173 123z" />
    <glyph glyph-name="o" unicode="o" horiz-adv-x="636" 
d="M318 -12c-174 0 -283 117 -283 283c0 167 109 284 283 284s283 -117 283 -284c0 -166 -109 -283 -283 -283zM318 92c83 0 127 69 127 179c0 111 -44 180 -127 180s-127 -69 -127 -180c0 -110 44 -179 127 -179z" />
    <glyph glyph-name="oacute" unicode="&#xf3;" horiz-adv-x="636" 
d="M379 604h-143l112 156h207zM318 -12c-174 0 -283 117 -283 283c0 167 109 284 283 284s283 -117 283 -284c0 -166 -109 -283 -283 -283zM318 92c83 0 127 69 127 179c0 111 -44 180 -127 180s-127 -69 -127 -180c0 -110 44 -179 127 -179z" />
    <glyph glyph-name="obreve" unicode="&#x14f;" horiz-adv-x="636" 
d="M318 600c-113 0 -184 71 -184 160h111c0 -46 27 -69 73 -69c45 0 73 23 73 69h110c0 -89 -71 -160 -183 -160zM318 -12c-174 0 -283 117 -283 283c0 167 109 284 283 284s283 -117 283 -284c0 -166 -109 -283 -283 -283zM318 92c83 0 127 69 127 179
c0 111 -44 180 -127 180s-127 -69 -127 -180c0 -110 44 -179 127 -179z" />
    <glyph glyph-name="ocircumflex" unicode="&#xf4;" horiz-adv-x="636" 
d="M407 604l-89 91l-88 -91h-136l128 156h193l127 -156h-135zM318 555c174 0 283 -117 283 -284c0 -166 -109 -283 -283 -283s-283 117 -283 283c0 167 109 284 283 284zM318 92c83 0 127 69 127 179c0 111 -44 180 -127 180s-127 -69 -127 -180c0 -110 44 -179 127 -179z
" />
    <glyph glyph-name="odieresis" unicode="&#xf6;" horiz-adv-x="636" 
d="M279 616h-158v144h158v-144zM514 616h-158v144h158v-144zM318 -12c-174 0 -283 117 -283 283c0 167 109 284 283 284s283 -117 283 -284c0 -166 -109 -283 -283 -283zM318 92c83 0 127 69 127 179c0 111 -44 180 -127 180s-127 -69 -127 -180c0 -110 44 -179 127 -179z
" />
    <glyph glyph-name="uni022F" unicode="&#x22f;" horiz-adv-x="636" 
d="M397 616h-158v144h158v-144zM318 -12c-174 0 -283 117 -283 283c0 167 109 284 283 284s283 -117 283 -284c0 -166 -109 -283 -283 -283zM318 92c83 0 127 69 127 179c0 111 -44 180 -127 180s-127 -69 -127 -180c0 -110 44 -179 127 -179z" />
    <glyph glyph-name="uni1ECD" unicode="&#x1ecd;" horiz-adv-x="636" 
d="M318 -12c-174 0 -283 117 -283 283c0 167 109 284 283 284s283 -117 283 -284c0 -166 -109 -283 -283 -283zM318 92c83 0 127 69 127 179c0 111 -44 180 -127 180s-127 -69 -127 -180c0 -110 44 -179 127 -179zM397 -202h-158v144h158v-144z" />
    <glyph glyph-name="ograve" unicode="&#xf2;" horiz-adv-x="636" 
d="M400 604h-142l-177 156h207zM318 -12c-174 0 -283 117 -283 283c0 167 109 284 283 284s283 -117 283 -284c0 -166 -109 -283 -283 -283zM318 92c83 0 127 69 127 179c0 111 -44 180 -127 180s-127 -69 -127 -180c0 -110 44 -179 127 -179z" />
    <glyph glyph-name="ohungarumlaut" unicode="&#x151;" horiz-adv-x="636" 
d="M277 604h-131l111 156h181zM499 604h-131l111 156h181zM318 -12c-174 0 -283 117 -283 283c0 167 109 284 283 284s283 -117 283 -284c0 -166 -109 -283 -283 -283zM318 92c83 0 127 69 127 179c0 111 -44 180 -127 180s-127 -69 -127 -180c0 -110 44 -179 127 -179z" />
    <glyph glyph-name="omacron" unicode="&#x14d;" horiz-adv-x="636" 
d="M509 626h-382v107h382v-107zM318 -12c-174 0 -283 117 -283 283c0 167 109 284 283 284s283 -117 283 -284c0 -166 -109 -283 -283 -283zM318 92c83 0 127 69 127 179c0 111 -44 180 -127 180s-127 -69 -127 -180c0 -110 44 -179 127 -179z" />
    <glyph glyph-name="uni01EB" unicode="&#x1eb;" horiz-adv-x="636" 
d="M601 271c0 -99 -39 -180 -107 -230h1c-59 -47 -78 -79 -78 -108c0 -27 20 -38 55 -38h33v-98h-52c-105 0 -167 31 -167 98c0 36 20 67 55 94c-8 -1 -15 -1 -23 -1c-174 0 -283 117 -283 283c0 167 109 284 283 284s283 -117 283 -284zM191 271c0 -110 44 -179 127 -179
s127 69 127 179c0 111 -44 180 -127 180s-127 -69 -127 -180z" />
    <glyph glyph-name="oslash" unicode="&#xf8;" horiz-adv-x="636" 
d="M503 543h150l-99 -103c30 -46 47 -104 47 -169c0 -166 -109 -283 -283 -283c-61 0 -114 14 -158 41l-27 -29h-150l99 103c-30 46 -47 103 -47 168c0 167 109 284 283 284c61 0 114 -14 158 -41zM191 271c0 -18 1 -35 3 -50l197 205c-19 16 -44 25 -73 25
c-83 0 -127 -69 -127 -180zM445 271c0 18 -1 35 -4 51l-196 -205c19 -16 44 -25 73 -25c83 0 127 69 127 179z" />
    <glyph glyph-name="oslashacute" unicode="&#x1ff;" horiz-adv-x="636" 
d="M348 760h207l-176 -156h-143zM503 543h150l-99 -103c30 -46 47 -104 47 -169c0 -166 -109 -283 -283 -283c-61 0 -114 14 -158 41l-27 -29h-150l99 103c-30 46 -47 103 -47 168c0 167 109 284 283 284c61 0 114 -14 158 -41zM191 271c0 -18 1 -35 3 -50l197 205
c-19 16 -44 25 -73 25c-83 0 -127 -69 -127 -180zM445 271c0 18 -1 35 -4 51l-196 -205c19 -16 44 -25 73 -25c83 0 127 69 127 179z" />
    <glyph glyph-name="otilde" unicode="&#xf5;" horiz-adv-x="636" 
d="M194 617h-49c2 92 43 140 103 140c31 0 60 -13 78 -22c18 -8 39 -16 59 -16c33 0 52 18 58 41h49c-2 -92 -43 -140 -103 -140c-31 0 -61 13 -78 22c-18 8 -39 16 -59 16c-33 0 -52 -18 -58 -41zM318 -12c-174 0 -283 117 -283 283c0 167 109 284 283 284
s283 -117 283 -284c0 -166 -109 -283 -283 -283zM318 92c83 0 127 69 127 179c0 111 -44 180 -127 180s-127 -69 -127 -180c0 -110 44 -179 127 -179z" />
    <glyph glyph-name="oe" unicode="&#x153;" horiz-adv-x="1027" 
d="M992 269c0 -13 -1 -28 -3 -43h-391c11 -91 58 -134 121 -134c59 0 88 25 107 69h154c-36 -115 -132 -173 -262 -173c-86 0 -153 38 -197 95c-45 -57 -114 -95 -203 -95c-174 0 -283 117 -283 283c0 167 109 284 283 284c89 0 158 -38 203 -96c45 58 113 96 197 96
c168 0 274 -115 274 -286zM318 92c83 0 127 69 127 179c0 111 -44 180 -127 180s-127 -69 -127 -180c0 -110 44 -179 127 -179zM718 451c-61 0 -106 -38 -119 -123h236c-8 77 -53 123 -117 123z" />
    <glyph glyph-name="p" unicode="p" horiz-adv-x="657" 
d="M396 555c134 0 224 -121 224 -284s-90 -283 -224 -283c-84 0 -151 51 -180 121v-305h-152v739h152v-122c24 71 85 134 180 134zM337 92c83 0 127 69 127 179c0 111 -44 180 -127 180s-127 -69 -127 -180c0 -110 44 -179 127 -179z" />
    <glyph glyph-name="thorn" unicode="&#xfe;" horiz-adv-x="657" 
d="M396 555c134 0 224 -121 224 -284s-90 -283 -224 -283c-84 0 -151 51 -180 121v-305h-152v956h152v-339c24 71 85 134 180 134zM337 92c83 0 127 69 127 179c0 111 -44 180 -127 180s-127 -69 -127 -180c0 -110 44 -179 127 -179z" />
    <glyph glyph-name="q" unicode="q" horiz-adv-x="657" 
d="M441 419v124h151v-739h-151v306c-29 -71 -96 -122 -180 -122c-134 0 -224 120 -224 283s90 284 224 284c96 0 157 -65 180 -136zM319 92c83 0 128 69 128 179c0 111 -45 180 -128 180s-126 -69 -126 -180c0 -110 43 -179 126 -179z" />
    <glyph glyph-name="r" unicode="r" horiz-adv-x="415" 
d="M216 543v-142c21 85 76 154 181 154v-150h-39c-95 0 -141 -32 -141 -124v-281h-153v543h152z" />
    <glyph glyph-name="racute" unicode="&#x155;" horiz-adv-x="415" 
d="M277 760h207l-176 -156h-143zM216 543v-142c21 85 76 154 181 154v-150h-39c-95 0 -141 -32 -141 -124v-281h-153v543h152z" />
    <glyph glyph-name="rcaron" unicode="&#x159;" horiz-adv-x="415" 
d="M471 760l-127 -156h-193l-128 156h136l88 -91l89 91h135zM216 543v-142c21 85 76 154 181 154v-150h-39c-95 0 -141 -32 -141 -124v-281h-153v543h152z" />
    <glyph glyph-name="uni0157" unicode="&#x157;" horiz-adv-x="415" 
d="M216 543v-142c21 85 76 154 181 154v-150h-39c-95 0 -141 -32 -141 -124v-281h-153v543h152zM113 -202h-52v144h158v-157l-67 -94h-95z" />
    <glyph glyph-name="s" unicode="s" horiz-adv-x="571" 
d="M283 -12c-134 0 -234 57 -253 176h154c11 -55 57 -72 105 -72c67 0 103 22 103 57c0 33 -22 49 -96 66l-96 21c-103 22 -159 70 -159 151c0 103 106 168 236 168c123 0 226 -51 250 -156h-154c-12 34 -51 52 -95 52c-49 0 -91 -18 -91 -52c0 -31 31 -43 87 -55l96 -21
c114 -25 168 -74 168 -162c0 -111 -110 -173 -255 -173z" />
    <glyph glyph-name="sacute" unicode="&#x15b;" horiz-adv-x="571" 
d="M336 604h-143l112 156h207zM283 -12c-134 0 -234 57 -253 176h154c11 -55 57 -72 105 -72c67 0 103 22 103 57c0 33 -22 49 -96 66l-96 21c-103 22 -159 70 -159 151c0 103 106 168 236 168c123 0 226 -51 250 -156h-154c-12 34 -51 52 -95 52c-49 0 -91 -18 -91 -52
c0 -31 31 -43 87 -55l96 -21c114 -25 168 -74 168 -162c0 -111 -110 -173 -255 -173z" />
    <glyph glyph-name="scaron" unicode="&#x161;" horiz-adv-x="571" 
d="M499 760l-127 -156h-193l-128 156h136l88 -91l89 91h135zM274 344l96 -21c114 -25 168 -74 168 -162c0 -111 -110 -173 -255 -173c-134 0 -234 57 -253 176h154c11 -55 57 -72 105 -72c67 0 103 22 103 57c0 33 -22 49 -96 66l-96 21c-103 22 -159 70 -159 151
c0 103 106 168 236 168c123 0 226 -51 250 -156h-154c-12 34 -51 52 -95 52c-49 0 -91 -18 -91 -52c0 -31 31 -43 87 -55z" />
    <glyph glyph-name="scedilla" unicode="&#x15f;" horiz-adv-x="571" 
d="M538 161c0 -104 -96 -165 -227 -172v-21c48 -6 82 -38 82 -85c0 -52 -42 -86 -106 -86h-70v69h45c21 0 35 8 35 26c0 17 -15 26 -33 26h-30v73c-109 12 -187 69 -204 173h154c11 -55 57 -72 105 -72c67 0 103 22 103 57c0 33 -22 49 -96 66l-96 21
c-103 22 -159 70 -159 151c0 103 106 168 236 168c123 0 226 -51 250 -156h-154c-12 34 -51 52 -95 52c-49 0 -91 -18 -91 -52c0 -31 31 -43 87 -55l96 -21c114 -25 168 -74 168 -162z" />
    <glyph glyph-name="scircumflex" unicode="&#x15d;" horiz-adv-x="571" 
d="M364 604l-89 91l-88 -91h-136l128 156h193l127 -156h-135zM274 344l96 -21c114 -25 168 -74 168 -162c0 -111 -110 -173 -255 -173c-134 0 -234 57 -253 176h154c11 -55 57 -72 105 -72c67 0 103 22 103 57c0 33 -22 49 -96 66l-96 21c-103 22 -159 70 -159 151
c0 103 106 168 236 168c123 0 226 -51 250 -156h-154c-12 34 -51 52 -95 52c-49 0 -91 -18 -91 -52c0 -31 31 -43 87 -55z" />
    <glyph glyph-name="uni0219" unicode="&#x219;" horiz-adv-x="571" 
d="M274 344l96 -21c114 -25 168 -74 168 -162c0 -111 -110 -173 -255 -173c-134 0 -234 57 -253 176h154c11 -55 57 -72 105 -72c67 0 103 22 103 57c0 33 -22 49 -96 66l-96 21c-103 22 -159 70 -159 151c0 103 106 168 236 168c123 0 226 -51 250 -156h-154
c-12 34 -51 52 -95 52c-49 0 -91 -18 -91 -52c0 -31 31 -43 87 -55zM266 -202h-52v144h158v-157l-67 -94h-95z" />
    <glyph glyph-name="germandbls" unicode="&#xdf;" horiz-adv-x="651" 
d="M417 408c101 -10 199 -72 199 -196c0 -143 -83 -224 -218 -224c-44 0 -86 7 -122 20v103c24 -12 47 -19 74 -19c74 0 110 54 110 132s-50 131 -144 131h-13v105h11c78 0 112 44 112 110c0 64 -42 98 -96 98c-83 0 -113 -60 -113 -139v-529h-153v512
c0 170 102 260 266 260c153 0 252 -79 252 -196c0 -98 -66 -146 -165 -168z" />
    <glyph glyph-name="t" unicode="t" horiz-adv-x="416" 
d="M335 112h53v-112h-86c-107 0 -187 53 -187 161v2v268h-101v112h101v128h153v-128h119v-112h-119v-256v-2c0 -47 23 -61 67 -61z" />
    <glyph glyph-name="tbar" unicode="&#x167;" horiz-adv-x="416" 
d="M335 112h53v-112h-86c-107 0 -187 53 -187 161v2v94h-74v98h74v76h-101v112h101v128h153v-128h119v-112h-119v-76h76v-98h-76v-82v-2c0 -47 23 -61 67 -61z" />
    <glyph glyph-name="tcaron" unicode="&#x165;" horiz-adv-x="416" 
d="M318 582l14 178h137l-42 -178h-109zM268 173c0 -47 23 -61 67 -61h53v-112h-86c-107 0 -187 53 -187 161v2v268h-101v112h101v128h153v-128h119v-112h-119v-256v-2z" />
    <glyph glyph-name="uni0163" unicode="&#x163;" horiz-adv-x="416" 
d="M335 112h53v-112h-86c-107 0 -187 53 -187 161v2v268h-101v112h101v128h153v-128h119v-112h-119v-256v-2c0 -47 23 -61 67 -61zM210 -202h-52v144h158v-157l-67 -94h-95z" />
    <glyph glyph-name="uni021B" unicode="&#x21b;" horiz-adv-x="416" 
d="M335 112h53v-112h-86c-107 0 -187 53 -187 161v2v268h-101v112h101v128h153v-128h119v-112h-119v-256v-2c0 -47 23 -61 67 -61zM210 -202h-52v144h158v-157l-67 -94h-95z" />
    <glyph glyph-name="u" unicode="u" horiz-adv-x="625" 
d="M407 234v309h153v-543h-151v107c-25 -65 -76 -119 -171 -119c-126 0 -179 91 -179 211v2v342h153v-309v-2c0 -94 35 -137 98 -137c64 0 97 46 97 139z" />
    <glyph glyph-name="uacute" unicode="&#xfa;" horiz-adv-x="625" 
d="M339 760h207l-176 -156h-143zM407 234v309h153v-543h-151v107c-25 -65 -76 -119 -171 -119c-126 0 -179 91 -179 211v2v342h153v-309v-2c0 -94 35 -137 98 -137c64 0 97 46 97 139z" />
    <glyph glyph-name="ubreve" unicode="&#x16d;" horiz-adv-x="625" 
d="M309 600c-113 0 -184 71 -184 160h111c0 -46 27 -69 73 -69c45 0 73 23 73 69h110c0 -89 -71 -160 -183 -160zM407 234v309h153v-543h-151v107c-25 -65 -76 -119 -171 -119c-126 0 -179 91 -179 211v2v342h153v-309v-2c0 -94 35 -137 98 -137c64 0 97 46 97 139z" />
    <glyph glyph-name="ucircumflex" unicode="&#xfb;" horiz-adv-x="625" 
d="M398 604l-89 91l-88 -91h-136l128 156h193l127 -156h-135zM407 234v309h153v-543h-151v107c-25 -65 -76 -119 -171 -119c-126 0 -179 91 -179 211v2v342h153v-309v-2c0 -94 35 -137 98 -137c64 0 97 46 97 139z" />
    <glyph glyph-name="udieresis" unicode="&#xfc;" horiz-adv-x="625" 
d="M112 760h158v-144h-158v144zM347 760h158v-144h-158v144zM407 234v309h153v-543h-151v107c-25 -65 -76 -119 -171 -119c-126 0 -179 91 -179 211v2v342h153v-309v-2c0 -94 35 -137 98 -137c64 0 97 46 97 139z" />
    <glyph glyph-name="uni1EE5" unicode="&#x1ee5;" horiz-adv-x="625" 
d="M407 234v309h153v-543h-151v107c-25 -65 -76 -119 -171 -119c-126 0 -179 91 -179 211v2v342h153v-309v-2c0 -94 35 -137 98 -137c64 0 97 46 97 139zM393 -202h-158v144h158v-144z" />
    <glyph glyph-name="ugrave" unicode="&#xf9;" horiz-adv-x="625" 
d="M279 760l112 -156h-142l-177 156h207zM407 234v309h153v-543h-151v107c-25 -65 -76 -119 -171 -119c-126 0 -179 91 -179 211v2v342h153v-309v-2c0 -94 35 -137 98 -137c64 0 97 46 97 139z" />
    <glyph glyph-name="uhungarumlaut" unicode="&#x171;" horiz-adv-x="625" 
d="M248 760h181l-161 -156h-131zM651 760l-161 -156h-131l111 156h181zM407 234v309h153v-543h-151v107c-25 -65 -76 -119 -171 -119c-126 0 -179 91 -179 211v2v342h153v-309v-2c0 -94 35 -137 98 -137c64 0 97 46 97 139z" />
    <glyph glyph-name="umacron" unicode="&#x16b;" horiz-adv-x="625" 
d="M118 733h382v-107h-382v107zM407 234v309h153v-543h-151v107c-25 -65 -76 -119 -171 -119c-126 0 -179 91 -179 211v2v342h153v-309v-2c0 -94 35 -137 98 -137c64 0 97 46 97 139z" />
    <glyph glyph-name="uogonek" unicode="&#x173;" horiz-adv-x="625" 
d="M560 543v-543c-59 -20 -88 -44 -88 -71c0 -24 21 -34 56 -34h32v-98h-52c-104 0 -167 31 -167 98c0 45 28 77 68 105v107c-25 -65 -76 -119 -171 -119c-126 0 -179 91 -179 211v2v342h153v-309v-2c0 -94 35 -137 98 -137c64 0 97 46 97 139v309h153z" />
    <glyph glyph-name="uring" unicode="&#x16f;" horiz-adv-x="625" 
d="M309 600c-68 0 -123 55 -123 123s55 122 123 122s123 -54 123 -122s-55 -123 -123 -123zM309 764c-23 0 -42 -18 -42 -41s19 -43 42 -43s42 20 42 43s-19 41 -42 41zM407 234v309h153v-543h-151v107c-25 -65 -76 -119 -171 -119c-126 0 -179 91 -179 211v2v342h153v-309
v-2c0 -94 35 -137 98 -137c64 0 97 46 97 139z" />
    <glyph glyph-name="utilde" unicode="&#x169;" horiz-adv-x="625" 
d="M243 658c-33 0 -52 -18 -58 -41h-49c2 92 43 140 103 140c31 0 60 -13 78 -22c18 -8 39 -16 59 -16c33 0 52 18 58 41h49c-2 -92 -43 -140 -103 -140c-31 0 -61 13 -78 22c-18 8 -39 16 -59 16zM407 234v309h153v-543h-151v107c-25 -65 -76 -119 -171 -119
c-126 0 -179 91 -179 211v2v342h153v-309v-2c0 -94 35 -137 98 -137c64 0 97 46 97 139z" />
    <glyph glyph-name="v" unicode="v" horiz-adv-x="609" 
d="M305 27l142 516h152l-155 -543h-279l-155 543h153z" />
    <glyph glyph-name="w" unicode="w" horiz-adv-x="918" 
d="M664 28l94 515h139l-101 -543h-265l-72 518l-72 -518h-265l-101 543h140l94 -518l74 518h261z" />
    <glyph glyph-name="wacute" unicode="&#x1e83;" horiz-adv-x="918" 
d="M498 760h207l-176 -156h-143zM664 28l94 515h139l-101 -543h-265l-72 518l-72 -518h-265l-101 543h140l94 -518l74 518h261z" />
    <glyph glyph-name="wcircumflex" unicode="&#x175;" horiz-adv-x="918" 
d="M548 604l-89 91l-88 -91h-136l128 156h193l127 -156h-135zM664 28l94 515h139l-101 -543h-265l-72 518l-72 -518h-265l-101 543h140l94 -518l74 518h261z" />
    <glyph glyph-name="wdieresis" unicode="&#x1e85;" horiz-adv-x="918" 
d="M262 760h158v-144h-158v144zM497 760h158v-144h-158v144zM664 28l94 515h139l-101 -543h-265l-72 518l-72 -518h-265l-101 543h140l94 -518l74 518h261z" />
    <glyph glyph-name="wgrave" unicode="&#x1e81;" horiz-adv-x="918" 
d="M414 760l112 -156h-142l-177 156h207zM664 28l94 515h139l-101 -543h-265l-72 518l-72 -518h-265l-101 543h140l94 -518l74 518h261z" />
    <glyph glyph-name="x" unicode="x" horiz-adv-x="587" 
d="M389 289l199 -289h-163l-131 195l-132 -195h-164l200 289l-183 254h163l116 -168l115 168h162z" />
    <glyph glyph-name="y" unicode="y" horiz-adv-x="601" 
d="M300 87l130 456h161l-214 -739h-157l72 252h-129l-160 487h154z" />
    <glyph glyph-name="yacute" unicode="&#xfd;" horiz-adv-x="601" 
d="M323 760h207l-176 -156h-143zM300 87l130 456h161l-214 -739h-157l72 252h-129l-160 487h154z" />
    <glyph glyph-name="ycircumflex" unicode="&#x177;" horiz-adv-x="601" 
d="M382 604l-89 91l-88 -91h-136l128 156h193l127 -156h-135zM300 87l130 456h161l-214 -739h-157l72 252h-129l-160 487h154z" />
    <glyph glyph-name="ydieresis" unicode="&#xff;" horiz-adv-x="601" 
d="M96 760h158v-144h-158v144zM331 760h158v-144h-158v144zM300 87l130 456h161l-214 -739h-157l72 252h-129l-160 487h154z" />
    <glyph glyph-name="ygrave" unicode="&#x1ef3;" horiz-adv-x="601" 
d="M263 760l112 -156h-142l-177 156h207zM300 87l130 456h161l-214 -739h-157l72 252h-129l-160 487h154z" />
    <glyph glyph-name="uni0233" unicode="&#x233;" horiz-adv-x="601" 
d="M102 733h382v-107h-382v107zM300 87l130 456h161l-214 -739h-157l72 252h-129l-160 487h154z" />
    <glyph glyph-name="uni1EF9" unicode="&#x1ef9;" horiz-adv-x="601" 
d="M227 658c-33 0 -52 -18 -58 -41h-49c2 92 43 140 103 140c31 0 60 -13 78 -22c18 -8 39 -16 59 -16c33 0 52 18 58 41h49c-2 -92 -43 -140 -103 -140c-31 0 -61 13 -78 22c-18 8 -39 16 -59 16zM300 87l130 456h161l-214 -739h-157l72 252h-129l-160 487h154z" />
    <glyph glyph-name="z" unicode="z" horiz-adv-x="554" 
d="M505 398l-294 -286h313v-112h-485v145l294 286h-288v112h460v-145z" />
    <glyph glyph-name="zacute" unicode="&#x17a;" horiz-adv-x="554" 
d="M304 760h207l-176 -156h-143zM505 398l-294 -286h313v-112h-485v145l294 286h-288v112h460v-145z" />
    <glyph glyph-name="zcaron" unicode="&#x17e;" horiz-adv-x="554" 
d="M498 760l-127 -156h-193l-128 156h136l88 -91l89 91h135zM505 398l-294 -286h313v-112h-485v145l294 286h-288v112h460v-145z" />
    <glyph glyph-name="zdotaccent" unicode="&#x17c;" horiz-adv-x="554" 
d="M195 760h158v-144h-158v144zM505 398l-294 -286h313v-112h-485v145l294 286h-288v112h460v-145z" />
    <glyph glyph-name="uni01B6" unicode="&#x1b6;" horiz-adv-x="563" 
d="M323 218l-109 -106h312v-112h-484v145l102 99h-87v96h185l94 91h-288v112h460v-145l-86 -84h99v-96h-198z" />
    <glyph glyph-name="germandbls.calt" horiz-adv-x="781" 
d="M681 601l-157 -157c124 -15 221 -89 221 -219c0 -153 -109 -237 -266 -237c-59 0 -97 9 -136 23v116c30 -13 60 -23 106 -23c79 0 133 46 133 121c0 83 -77 121 -176 121h-29v128l152 154h-292v-628h-158v760h602v-159z" />
    <glyph glyph-name="a.ss04" horiz-adv-x="657" 
d="M441 419v124h151v-543h-151v110c-29 -71 -96 -122 -180 -122c-134 0 -224 120 -224 283s90 284 224 284c96 0 157 -65 180 -136zM319 92c83 0 128 69 128 179c0 111 -45 180 -128 180s-126 -69 -126 -180c0 -110 43 -179 126 -179z" />
    <glyph glyph-name="aacute.ss04" horiz-adv-x="657" 
d="M346 760h207l-176 -156h-143zM441 419v124h151v-543h-151v110c-29 -71 -96 -122 -180 -122c-134 0 -224 120 -224 283s90 284 224 284c96 0 157 -65 180 -136zM319 92c83 0 128 69 128 179c0 111 -45 180 -128 180s-126 -69 -126 -180c0 -110 43 -179 126 -179z" />
    <glyph glyph-name="abreve.ss04" horiz-adv-x="657" 
d="M316 600c-113 0 -184 71 -184 160h111c0 -46 27 -69 73 -69c45 0 73 23 73 69h110c0 -89 -71 -160 -183 -160zM441 419v124h151v-543h-151v110c-29 -71 -96 -122 -180 -122c-134 0 -224 120 -224 283s90 284 224 284c96 0 157 -65 180 -136zM319 92c83 0 128 69 128 179
c0 111 -45 180 -128 180s-126 -69 -126 -180c0 -110 43 -179 126 -179z" />
    <glyph glyph-name="acircumflex.ss04" horiz-adv-x="657" 
d="M405 604l-89 91l-88 -91h-136l128 156h193l127 -156h-135zM441 419v124h151v-543h-151v110c-29 -71 -96 -122 -180 -122c-134 0 -224 120 -224 283s90 284 224 284c96 0 157 -65 180 -136zM319 92c83 0 128 69 128 179c0 111 -45 180 -128 180s-126 -69 -126 -180
c0 -110 43 -179 126 -179z" />
    <glyph glyph-name="adieresis.ss04" horiz-adv-x="657" 
d="M119 760h158v-144h-158v144zM354 760h158v-144h-158v144zM441 419v124h151v-543h-151v110c-29 -71 -96 -122 -180 -122c-134 0 -224 120 -224 283s90 284 224 284c96 0 157 -65 180 -136zM319 92c83 0 128 69 128 179c0 111 -45 180 -128 180s-126 -69 -126 -180
c0 -110 43 -179 126 -179z" />
    <glyph glyph-name="uni1EA1.ss04" horiz-adv-x="657" 
d="M441 419v124h151v-543h-151v110c-29 -71 -96 -122 -180 -122c-134 0 -224 120 -224 283s90 284 224 284c96 0 157 -65 180 -136zM319 92c83 0 128 69 128 179c0 111 -45 180 -128 180s-126 -69 -126 -180c0 -110 43 -179 126 -179zM418 -202h-158v144h158v-144z" />
    <glyph glyph-name="agrave.ss04" horiz-adv-x="657" 
d="M286 760l112 -156h-142l-177 156h207zM441 419v124h151v-543h-151v110c-29 -71 -96 -122 -180 -122c-134 0 -224 120 -224 283s90 284 224 284c96 0 157 -65 180 -136zM319 92c83 0 128 69 128 179c0 111 -45 180 -128 180s-126 -69 -126 -180c0 -110 43 -179 126 -179z
" />
    <glyph glyph-name="amacron.ss04" horiz-adv-x="657" 
d="M124 733h382v-107h-382v107zM441 419v124h151v-543h-151v110c-29 -71 -96 -122 -180 -122c-134 0 -224 120 -224 283s90 284 224 284c96 0 157 -65 180 -136zM319 92c83 0 128 69 128 179c0 111 -45 180 -128 180s-126 -69 -126 -180c0 -110 43 -179 126 -179z" />
    <glyph glyph-name="aogonek.ss04" horiz-adv-x="657" 
d="M592 543v-543c-59 -20 -88 -44 -88 -71c0 -24 21 -34 56 -34h32v-98h-52c-104 0 -167 31 -167 98c0 45 28 77 68 105v110c-29 -71 -96 -122 -180 -122c-134 0 -224 120 -224 283s90 284 224 284c96 0 157 -65 180 -136v124h151zM319 92c83 0 128 69 128 179
c0 111 -45 180 -128 180s-126 -69 -126 -180c0 -110 43 -179 126 -179z" />
    <glyph glyph-name="aring.ss04" horiz-adv-x="657" 
d="M316 600c-68 0 -123 55 -123 123s55 122 123 122s123 -54 123 -122s-55 -123 -123 -123zM316 764c-23 0 -42 -18 -42 -41s19 -43 42 -43s42 20 42 43s-19 41 -42 41zM441 419v124h151v-543h-151v110c-29 -71 -96 -122 -180 -122c-134 0 -224 120 -224 283s90 284 224 284
c96 0 157 -65 180 -136zM319 92c83 0 128 69 128 179c0 111 -45 180 -128 180s-126 -69 -126 -180c0 -110 43 -179 126 -179z" />
    <glyph glyph-name="atilde.ss04" horiz-adv-x="657" 
d="M249 658c-33 0 -52 -18 -58 -41h-49c2 92 43 140 103 140c31 0 60 -13 78 -22c18 -8 39 -16 59 -16c33 0 52 18 58 41h49c-2 -92 -43 -140 -103 -140c-31 0 -61 13 -78 22c-18 8 -39 16 -59 16zM441 419v124h151v-543h-151v110c-29 -71 -96 -122 -180 -122
c-134 0 -224 120 -224 283s90 284 224 284c96 0 157 -65 180 -136zM319 92c83 0 128 69 128 179c0 111 -45 180 -128 180s-126 -69 -126 -180c0 -110 43 -179 126 -179z" />
    <glyph glyph-name="y.ss05" horiz-adv-x="585" 
d="M298 163l126 380h162l-265 -739h-162l66 185l-232 554h161z" />
    <glyph glyph-name="yacute.ss05" horiz-adv-x="585" 
d="M319 760h207l-176 -156h-143zM298 163l126 380h162l-265 -739h-162l66 185l-232 554h161z" />
    <glyph glyph-name="ycircumflex.ss05" horiz-adv-x="585" 
d="M378 604l-89 91l-88 -91h-136l128 156h193l127 -156h-135zM298 163l126 380h162l-265 -739h-162l66 185l-232 554h161z" />
    <glyph glyph-name="ydieresis.ss05" horiz-adv-x="585" 
d="M92 760h158v-144h-158v144zM327 760h158v-144h-158v144zM298 163l126 380h162l-265 -739h-162l66 185l-232 554h161z" />
    <glyph glyph-name="ygrave.ss05" horiz-adv-x="585" 
d="M259 760l112 -156h-142l-177 156h207zM298 163l126 380h162l-265 -739h-162l66 185l-232 554h161z" />
    <glyph glyph-name="uni0233.ss05" horiz-adv-x="585" 
d="M98 733h382v-107h-382v107zM298 163l126 380h162l-265 -739h-162l66 185l-232 554h161z" />
    <glyph glyph-name="uni1EF9.ss05" horiz-adv-x="585" 
d="M222 658c-33 0 -52 -18 -58 -41h-49c2 92 43 140 103 140c31 0 60 -13 78 -22c18 -8 39 -16 59 -16c33 0 52 18 58 41h49c-2 -92 -43 -140 -103 -140c-31 0 -61 13 -78 22c-18 8 -39 16 -59 16zM298 163l126 380h162l-265 -739h-162l66 185l-232 554h161z" />
    <glyph glyph-name="i_j.loclNLD" horiz-adv-x="560" 
d="M220 616h-158v144h158v-144zM498 616h-158v144h158v-144zM309 -196h-245v98h209c45 0 70 17 70 66v575h152v-576c0 -109 -79 -163 -186 -163zM217 0h-153v543h153v-543z" />
    <glyph glyph-name="a.inferior" horiz-adv-x="342" 
d="M171 168c100 0 137 -52 137 -110v-2v-170h-98v43c-13 -26 -42 -50 -89 -50c-53 0 -99 36 -99 92c0 60 55 79 115 85l71 6v3v2c0 26 -17 37 -37 37c-21 0 -34 -13 -35 -29h-102c7 58 62 93 137 93zM161 -63c31 0 47 27 47 65l-34 -3c-31 -3 -50 -13 -50 -32
c0 -18 15 -30 37 -30z" />
    <glyph glyph-name="b.inferior" horiz-adv-x="354" 
d="M221 168c72 0 112 -65 112 -145c0 -81 -40 -144 -112 -144c-41 0 -72 24 -86 57v-50h-99v380h99v-165c11 35 40 67 86 67zM181 -53c34 0 50 28 50 76s-16 76 -50 76s-50 -28 -50 -76s16 -76 50 -76z" />
    <glyph glyph-name="c.inferior" horiz-adv-x="332" 
d="M170 -121c-88 0 -150 57 -150 144c0 86 63 145 149 145c78 0 134 -42 144 -111h-102c-5 24 -17 42 -42 42c-30 0 -47 -28 -47 -76c0 -51 18 -76 48 -76c24 0 37 16 43 41h102c-11 -70 -72 -109 -145 -109z" />
    <glyph glyph-name="d.inferior" horiz-adv-x="354" 
d="M219 101v165h99v-380h-99v50c-14 -33 -44 -57 -86 -57c-72 0 -112 64 -112 144s40 145 112 145c46 0 75 -31 86 -67zM173 -53c34 0 50 28 50 76s-16 76 -50 76s-49 -28 -49 -76s15 -76 49 -76z" />
    <glyph glyph-name="e.inferior" horiz-adv-x="332" 
d="M312 17c0 -5 0 -15 -1 -22h-191c5 -37 22 -52 46 -52c20 0 32 8 38 26h102c-20 -59 -70 -90 -140 -90c-85 0 -146 58 -146 144s62 145 146 145c81 0 146 -52 146 -151zM166 104c-24 0 -40 -14 -46 -49h92c-3 31 -21 49 -46 49z" />
    <glyph glyph-name="f.inferior" horiz-adv-x="226" 
d="M213 198h-24c-19 0 -31 -5 -31 -26v-11h55v-73h-55v-202h-100v202h-43v73h43v18c0 56 43 87 103 87h52v-68z" />
    <glyph glyph-name="g.inferior" horiz-adv-x="354" 
d="M221 103v58h99v-265c0 -91 -79 -115 -143 -115c-61 0 -133 24 -142 91h102c5 -18 20 -24 40 -24c26 0 44 14 44 46v51c-14 -32 -46 -55 -86 -55c-72 0 -112 59 -112 138c0 80 40 140 112 140c45 0 76 -31 86 -65zM175 -42c32 0 50 24 50 70s-18 71 -50 71
s-49 -25 -49 -71s17 -70 49 -70z" />
    <glyph glyph-name="h.inferior" horiz-adv-x="345" 
d="M224 168c65 0 88 -46 88 -105v-2v-175h-101v152v2c0 38 -13 58 -37 58c-23 0 -37 -19 -37 -60v-152h-101v380h99v-162c14 36 40 64 89 64z" />
    <glyph glyph-name="i.inferior" horiz-adv-x="173" 
d="M137 188h-101v78h101v-78zM137 -114h-101v275h101v-275z" />
    <glyph glyph-name="j.inferior" horiz-adv-x="173" 
d="M137 188h-101v78h101v-78zM33 -212h-39v71h11c20 0 31 7 31 27v275h101v-286c0 -57 -44 -87 -104 -87z" />
    <glyph glyph-name="k.inferior" horiz-adv-x="337" 
d="M234 38l102 -152h-115l-84 132v-132h-100v380h100v-211l82 106h112z" />
    <glyph glyph-name="l.inferior" horiz-adv-x="173" 
d="M137 -114h-101v380h101v-380z" />
    <glyph glyph-name="m.inferior" horiz-adv-x="508" 
d="M389 168c62 0 85 -45 85 -105v-2v-175h-100v152v2c0 37 -12 58 -34 58s-35 -20 -35 -60v-152h-100v152v2c0 38 -12 58 -34 58s-34 -20 -34 -60v-152h-101v275h99v-58c14 35 38 65 86 65c47 0 72 -32 82 -66c12 34 39 66 86 66z" />
    <glyph glyph-name="n.inferior" horiz-adv-x="345" 
d="M224 168c65 0 88 -46 88 -105v-2v-175h-101v152v2c0 38 -13 58 -37 58c-23 0 -37 -19 -37 -60v-152h-101v275h99v-57c14 36 40 64 89 64z" />
    <glyph glyph-name="o.inferior" horiz-adv-x="343" 
d="M172 -121c-94 0 -152 60 -152 144s58 145 152 145c93 0 151 -61 151 -145s-58 -144 -151 -144zM172 -53c34 0 49 28 49 76s-15 76 -49 76s-50 -28 -50 -76s16 -76 50 -76z" />
    <glyph glyph-name="p.inferior" horiz-adv-x="354" 
d="M221 168c72 0 112 -65 112 -145c0 -81 -40 -144 -112 -144c-41 0 -72 24 -86 57v-148h-99v373h99v-60c11 35 40 67 86 67zM181 -53c34 0 50 28 50 76s-16 76 -50 76s-50 -28 -50 -76s16 -76 50 -76z" />
    <glyph glyph-name="q.inferior" horiz-adv-x="354" 
d="M219 101v60h99v-373h-99v148c-14 -33 -44 -57 -86 -57c-72 0 -112 64 -112 144s40 145 112 145c46 0 75 -31 86 -67zM173 -53c34 0 50 28 50 76s-16 76 -50 76s-49 -28 -49 -76s15 -76 49 -76z" />
    <glyph glyph-name="r.inferior" horiz-adv-x="241" 
d="M135 161v-81c9 45 38 88 93 88v-97h-23c-45 0 -68 -22 -68 -66v-119h-101v275h99z" />
    <glyph glyph-name="s.inferior" horiz-adv-x="315" 
d="M156 -121c-74 0 -127 29 -138 91h102c5 -23 22 -30 42 -30c24 0 38 9 38 21c0 14 -12 19 -40 26l-57 13c-52 12 -79 35 -79 78c0 55 58 90 127 90s127 -27 138 -83h-102c-1 15 -18 21 -36 21c-19 0 -31 -7 -31 -18c0 -12 11 -16 33 -21l57 -13c52 -12 86 -36 86 -85
c0 -60 -64 -90 -140 -90z" />
    <glyph glyph-name="t.inferior" horiz-adv-x="235" 
d="M209 88h-53v-102v-2c0 -19 12 -26 31 -26h22v-72h-50c-60 0 -103 30 -103 86v2v114h-45v73h45v64h100v-64h53v-73z" />
    <glyph glyph-name="u.inferior" horiz-adv-x="343" 
d="M207 8v153h100v-275h-98v55c-12 -34 -38 -62 -88 -62c-61 0 -88 38 -88 105v2v175h101v-152v-2c0 -39 13 -58 36 -58c24 0 37 21 37 59z" />
    <glyph glyph-name="v.inferior" horiz-adv-x="331" 
d="M166 -94l57 255h99l-65 -275h-183l-64 275h98z" />
    <glyph glyph-name="w.inferior" horiz-adv-x="477" 
d="M344 -98l35 259h84l-39 -275h-161l-24 259l-25 -259h-160l-39 275h84l34 -255l29 255h153z" />
    <glyph glyph-name="x.inferior" horiz-adv-x="327" 
d="M226 30l97 -144h-107l-52 84l-52 -84h-108l97 144l-90 131h106l47 -74l46 74h106z" />
    <glyph glyph-name="y.inferior" horiz-adv-x="334" 
d="M165 -65l56 226h105l-94 -373h-103l31 125h-85l-67 248h101z" />
    <glyph glyph-name="z.inferior" horiz-adv-x="308" 
d="M277 69l-134 -111h143v-72h-260v92l133 110h-131v73h249v-92z" />
    <glyph glyph-name="a.ss04.inferior" horiz-adv-x="354" 
d="M219 101v60h99v-275h-99v50c-14 -33 -44 -57 -86 -57c-72 0 -112 64 -112 144s40 145 112 145c46 0 75 -31 86 -67zM173 -53c34 0 50 28 50 76s-16 76 -50 76s-49 -28 -49 -76s15 -76 49 -76z" />
    <glyph glyph-name="y.ss05.inferior" horiz-adv-x="319" 
d="M159 -17l53 178h103l-126 -373h-104l28 82l-112 291h104z" />
    <glyph glyph-name="a.superior" horiz-adv-x="342" 
d="M171 767c100 0 137 -52 137 -110v-2v-170h-98v43c-13 -26 -42 -50 -89 -50c-53 0 -99 37 -99 92c0 61 55 80 115 85l71 6v3v2c0 26 -17 37 -37 37c-21 0 -34 -12 -35 -28h-102c7 58 62 92 137 92zM161 537c31 0 47 27 47 64l-34 -3c-31 -3 -50 -13 -50 -32
c0 -18 15 -29 37 -29z" />
    <glyph glyph-name="b.superior" horiz-adv-x="354" 
d="M221 767c72 0 112 -64 112 -144c0 -81 -40 -145 -112 -145c-41 0 -72 24 -86 57v-50h-99v380h99v-164c11 35 40 66 86 66zM181 547c34 0 50 28 50 76c0 47 -16 76 -50 76s-50 -29 -50 -76c0 -48 16 -76 50 -76z" />
    <glyph glyph-name="c.superior" horiz-adv-x="332" 
d="M170 478c-88 0 -150 58 -150 145c0 86 63 144 149 144c78 0 134 -42 144 -111h-102c-5 25 -17 43 -42 43c-30 0 -47 -29 -47 -76c0 -51 18 -76 48 -76c24 0 37 16 43 41h102c-11 -71 -72 -110 -145 -110z" />
    <glyph glyph-name="d.superior" horiz-adv-x="354" 
d="M219 701v164h99v-380h-99v50c-14 -33 -44 -57 -86 -57c-72 0 -112 65 -112 145s40 144 112 144c46 0 75 -31 86 -66zM173 547c34 0 50 28 50 76c0 47 -16 76 -50 76s-49 -29 -49 -76c0 -48 15 -76 49 -76z" />
    <glyph glyph-name="e.superior" horiz-adv-x="332" 
d="M312 616c0 -5 0 -15 -1 -22h-191c6 -36 23 -52 46 -52c20 0 32 8 38 26h102c-20 -59 -70 -90 -140 -90c-85 0 -146 58 -146 145c0 85 62 144 146 144c81 0 146 -51 146 -151zM166 703c-24 0 -40 -14 -46 -49h92c-3 31 -21 49 -46 49z" />
    <glyph glyph-name="f.superior" horiz-adv-x="226" 
d="M213 798h-24c-19 0 -31 -6 -31 -26v-12h55v-72h-55v-203h-100v203h-43v72h43v18c0 57 43 87 103 87h52v-67z" />
    <glyph glyph-name="g.superior" horiz-adv-x="354" 
d="M221 702v58h99v-264c0 -91 -79 -116 -143 -116c-61 0 -133 25 -142 92h102c5 -18 20 -25 40 -25c26 0 44 14 44 46v51c-14 -32 -46 -55 -86 -55c-72 0 -112 59 -112 138c0 80 40 140 112 140c45 0 76 -31 86 -65zM175 558c32 0 50 24 50 69c0 46 -18 72 -50 72
s-49 -26 -49 -72c0 -45 17 -69 49 -69z" />
    <glyph glyph-name="h.superior" horiz-adv-x="345" 
d="M224 767c65 0 88 -46 88 -104v-2v-176h-101v153v2c0 38 -13 57 -37 57c-23 0 -37 -19 -37 -59v-153h-101v380h99v-161c14 36 40 63 89 63z" />
    <glyph glyph-name="i.superior" horiz-adv-x="173" 
d="M137 788h-101v77h101v-77zM137 485h-101v275h101v-275z" />
    <glyph glyph-name="j.superior" horiz-adv-x="173" 
d="M137 788h-101v77h101v-77zM33 387h-39v71h11c20 0 31 7 31 28v274h101v-285c0 -57 -44 -88 -104 -88z" />
    <glyph glyph-name="k.superior" horiz-adv-x="337" 
d="M233 638l102 -153h-114l-84 131v-131h-101v380h101v-209l81 104h112z" />
    <glyph glyph-name="l.superior" horiz-adv-x="173" 
d="M137 485h-101v380h101v-380z" />
    <glyph glyph-name="m.superior" horiz-adv-x="508" 
d="M389 767c62 0 85 -45 85 -104v-2v-176h-100v153v2c0 36 -12 57 -34 57s-35 -19 -35 -59v-153h-100v153v2c0 37 -12 57 -34 57s-34 -20 -34 -59v-153h-101v275h99v-57c14 35 38 64 86 64c47 0 72 -31 82 -65c12 34 39 65 86 65z" />
    <glyph glyph-name="n.superior" horiz-adv-x="345" 
d="M224 767c65 0 88 -46 88 -104v-2v-176h-101v153v2c0 38 -13 57 -37 57c-23 0 -37 -19 -37 -59v-153h-101v275h99v-56c14 36 40 63 89 63z" />
    <glyph glyph-name="o.superior" horiz-adv-x="343" 
d="M172 478c-94 0 -152 61 -152 145s58 144 152 144c93 0 151 -60 151 -144s-58 -145 -151 -145zM172 547c34 0 49 28 49 76c0 47 -15 76 -49 76s-50 -29 -50 -76c0 -48 16 -76 50 -76z" />
    <glyph glyph-name="p.superior" horiz-adv-x="354" 
d="M221 767c72 0 112 -64 112 -144c0 -81 -40 -145 -112 -145c-41 0 -72 24 -86 57v-148h-99v373h99v-59c11 35 40 66 86 66zM181 547c34 0 50 28 50 76c0 47 -16 76 -50 76s-50 -29 -50 -76c0 -48 16 -76 50 -76z" />
    <glyph glyph-name="q.superior" horiz-adv-x="354" 
d="M219 701v59h99v-373h-99v148c-14 -33 -44 -57 -86 -57c-72 0 -112 65 -112 145s40 144 112 144c46 0 75 -31 86 -66zM173 547c34 0 50 28 50 76c0 47 -16 76 -50 76s-49 -29 -49 -76c0 -48 15 -76 49 -76z" />
    <glyph glyph-name="r.superior" horiz-adv-x="241" 
d="M135 760v-81c9 45 38 88 93 88v-97h-23c-45 0 -68 -22 -68 -65v-120h-101v275h99z" />
    <glyph glyph-name="s.superior" horiz-adv-x="315" 
d="M156 478c-74 0 -127 29 -138 91h102c5 -23 22 -29 42 -29c24 0 38 8 38 21s-12 19 -40 25l-57 13c-52 12 -79 36 -79 79c0 55 58 89 127 89s127 -27 138 -83h-102c-1 15 -18 22 -36 22c-19 0 -31 -8 -31 -19s11 -16 33 -21l57 -13c52 -12 86 -36 86 -85
c0 -59 -64 -90 -140 -90z" />
    <glyph glyph-name="a.ss04.superior" horiz-adv-x="354" 
d="M219 701v59h99v-275h-99v50c-14 -33 -44 -57 -86 -57c-72 0 -112 65 -112 145s40 144 112 144c46 0 75 -31 86 -66zM173 547c34 0 50 28 50 76c0 47 -16 76 -50 76s-49 -29 -49 -76c0 -48 15 -76 49 -76z" />
    <glyph glyph-name="y.ss05.superior" horiz-adv-x="319" 
d="M159 582l53 178h103l-126 -373h-104l28 82l-112 291h104z" />
    <glyph glyph-name="t.superior" horiz-adv-x="235" 
d="M209 688h-53v-102v-2c0 -20 12 -26 31 -26h22v-73h-50c-60 0 -103 30 -103 86v2v115h-45v72h45v65h100v-65h53v-72z" />
    <glyph glyph-name="u.superior" horiz-adv-x="343" 
d="M207 608v152h100v-275h-98v56c-12 -35 -38 -63 -88 -63c-61 0 -88 38 -88 105v2v175h101v-152v-2c0 -38 13 -58 36 -58c24 0 37 21 37 60z" />
    <glyph glyph-name="v.superior" horiz-adv-x="331" 
d="M166 505l57 255h99l-65 -275h-183l-64 275h98z" />
    <glyph glyph-name="w.superior" horiz-adv-x="477" 
d="M344 501l35 259h84l-39 -275h-161l-24 259l-25 -259h-160l-39 275h84l34 -255l29 255h153z" />
    <glyph glyph-name="x.superior" horiz-adv-x="327" 
d="M226 630l97 -145h-107l-52 84l-52 -84h-108l97 145l-90 130h106l47 -74l46 74h106z" />
    <glyph glyph-name="y.superior" horiz-adv-x="334" 
d="M165 535l56 225h105l-94 -373h-103l31 126h-85l-67 247h101z" />
    <glyph glyph-name="z.superior" horiz-adv-x="308" 
d="M277 668l-133 -110h142v-73h-260v92l134 111h-132v72h249v-92z" />
    <glyph glyph-name="ordfeminine" unicode="&#xaa;" horiz-adv-x="342" 
d="M171 767c100 0 137 -52 137 -110v-2v-170h-98v43c-13 -26 -42 -50 -89 -50c-53 0 -99 37 -99 92c0 61 55 80 115 85l71 6v3v2c0 26 -17 37 -37 37c-21 0 -34 -12 -35 -28h-102c7 58 62 92 137 92zM161 537c31 0 47 27 47 64l-34 -3c-31 -3 -50 -13 -50 -32
c0 -18 15 -29 37 -29z" />
    <glyph glyph-name="ordmasculine" unicode="&#xba;" horiz-adv-x="343" 
d="M172 478c-94 0 -152 61 -152 145s58 144 152 144c93 0 151 -60 151 -144s-58 -145 -151 -145zM172 547c34 0 49 28 49 76c0 47 -15 76 -49 76s-50 -29 -50 -76c0 -48 16 -76 50 -76z" />
    <glyph glyph-name="uni0394" unicode="&#x394;" horiz-adv-x="788" 
d="M539 760l252 -760h-794l252 760h290zM584 132l-190 597l-190 -597h380z" />
    <glyph glyph-name="uni03A9" unicode="&#x3a9;" horiz-adv-x="842" 
d="M797 442c0 -143 -94 -237 -257 -310h244v-132h-324v171c117 74 175 162 175 261c0 137 -89 215 -214 215s-213 -78 -213 -215c0 -99 57 -187 175 -261v-171h-325v132h245c-164 73 -258 167 -258 310c0 208 165 330 376 330s376 -122 376 -330z" />
    <glyph glyph-name="uni03BC" unicode="&#x3bc;" horiz-adv-x="673" 
d="M629 112h25v-112h-55c-101 0 -159 20 -180 88c-2 6 -4 13 -4 20c-24 -65 -76 -120 -171 -120c-9 0 -18 1 -27 3v-187h-153v739h153v-310v-2c0 -93 36 -136 98 -136c65 0 97 46 97 139v309h153v-377v-2c0 -42 19 -52 64 -52z" />
    <glyph glyph-name="pi" unicode="&#x3c0;" horiz-adv-x="701" 
d="M662 431h-94v-259v-2c0 -48 30 -58 72 -58h22v-112h-57c-108 0 -190 51 -190 158v2v271h-149v-431h-153v431h-95v112h644v-112z" />
    <glyph glyph-name="zero" unicode="0" horiz-adv-x="726" 
d="M363 -12c-199 0 -316 135 -316 392c0 256 117 392 316 392s316 -136 316 -392c0 -257 -117 -392 -316 -392zM363 107c102 0 156 89 156 273c0 183 -54 273 -156 273c-103 0 -156 -90 -156 -273c0 -184 53 -273 156 -273z" />
    <glyph glyph-name="one" unicode="1" horiz-adv-x="419" 
d="M206 743l5 17h128v-760h-157v524h-163v126h24c104 0 142 33 163 93z" />
    <glyph glyph-name="two" unicode="2" horiz-adv-x="679" 
d="M489 331l-263 -206h414v-125h-596v161l336 264c49 40 84 77 84 123c0 60 -47 105 -126 105c-78 0 -128 -40 -133 -116h-159c8 148 130 235 292 235c169 0 286 -90 286 -221c0 -89 -47 -152 -135 -220z" />
    <glyph glyph-name="three" unicode="3" horiz-adv-x="679" 
d="M427 397c92 -10 208 -59 208 -185c0 -148 -129 -224 -307 -224c-183 0 -281 90 -296 230h159c6 -66 51 -111 137 -111c68 0 148 33 148 114s-79 114 -174 114h-51v125h51c99 0 151 44 151 99c0 57 -50 94 -125 94c-76 0 -117 -41 -123 -100h-158c11 133 131 219 281 219
c157 0 285 -77 285 -196c0 -118 -93 -162 -186 -179z" />
    <glyph glyph-name="four" unicode="4" horiz-adv-x="699" 
d="M564 325h108v-125h-108v-200h-156v200h-383v160l249 400h290v-435zM408 729l-250 -404h250v404z" />
    <glyph glyph-name="five" unicode="5" horiz-adv-x="680" 
d="M399 520c129 0 244 -91 244 -264c0 -177 -134 -268 -298 -268c-163 0 -286 85 -301 232h159c8 -66 60 -113 140 -113c78 0 140 52 140 149c0 99 -67 148 -140 148c-68 0 -117 -36 -140 -92l-152 14l38 434h505v-125h-361l-20 -233c24 60 89 118 186 118z" />
    <glyph glyph-name="six" unicode="6" horiz-adv-x="714" 
d="M409 505c159 0 265 -98 265 -257c0 -153 -127 -260 -307 -260c-190 0 -321 123 -321 392c0 263 134 392 321 392c165 0 263 -87 289 -208h-159c-15 51 -55 89 -128 89c-127 0 -173 -135 -167 -290c25 79 104 142 207 142zM366 107c86 0 148 56 148 141
c0 84 -55 141 -148 141s-153 -58 -153 -135c0 -85 54 -147 153 -147z" />
    <glyph glyph-name="seven" unicode="7" horiz-adv-x="570" 
d="M22 635v125h526v-161l-308 -599h-187l343 635h-374z" />
    <glyph glyph-name="eight" unicode="8" horiz-adv-x="716" 
d="M477 400c92 -16 195 -68 195 -188c0 -139 -127 -224 -314 -224s-315 85 -315 224c0 120 103 173 195 188c-89 22 -172 68 -172 175c0 121 119 197 292 197c172 0 291 -76 291 -197c0 -107 -84 -153 -172 -175zM358 653c-90 0 -136 -40 -136 -98c0 -54 41 -97 136 -97
s135 43 135 97c0 58 -45 98 -135 98zM358 107c79 0 154 35 154 117c0 72 -66 114 -154 114c-89 0 -155 -42 -155 -114c0 -82 75 -117 155 -117z" />
    <glyph glyph-name="nine" unicode="9" horiz-adv-x="714" 
d="M347 772c190 0 321 -123 321 -392c0 -263 -134 -392 -321 -392c-165 0 -263 87 -289 208h159c15 -51 55 -89 128 -89c127 0 173 135 167 290c-25 -79 -104 -142 -207 -142c-159 0 -265 98 -265 257c0 153 127 260 307 260zM348 371c93 0 153 58 153 135
c0 85 -54 147 -153 147c-86 0 -148 -56 -148 -141c0 -84 55 -141 148 -141z" />
    <glyph glyph-name="zero.zero" horiz-adv-x="726" 
d="M363 772c199 0 316 -136 316 -392c0 -257 -117 -392 -316 -392s-316 135 -316 392c0 256 117 392 316 392zM363 653c-103 0 -156 -90 -156 -273c0 -37 2 -70 6 -100l235 344c-23 19 -52 29 -85 29zM363 107c102 0 156 89 156 273c0 38 -2 72 -7 102l-235 -345
c23 -20 52 -30 86 -30z" />
    <glyph glyph-name="uni24FF" unicode="&#x24ff;" horiz-adv-x="934" 
d="M467 -39c-232 0 -419 187 -419 419s187 419 419 419s419 -187 419 -419s-187 -419 -419 -419zM467 144c125 0 198 81 198 236s-73 236 -198 236s-198 -81 -198 -236s73 -236 198 -236zM467 234c-52 0 -76 48 -76 146s24 146 76 146s76 -48 76 -146s-24 -146 -76 -146z
" />
    <glyph glyph-name="uni2776" unicode="&#x2776;" horiz-adv-x="934" 
d="M467 -39c-232 0 -419 187 -419 419s187 419 419 419s419 -187 419 -419s-187 -419 -419 -419zM417 447v-295h119v456h-98l-2 -7c-14 -40 -42 -60 -104 -60h-13v-94h98z" />
    <glyph glyph-name="uni2777" unicode="&#x2777;" horiz-adv-x="934" 
d="M467 -39c-232 0 -419 187 -419 419s187 419 419 419s419 -187 419 -419s-187 -419 -419 -419zM282 272v-120h372v95h-235l142 102c53 38 85 74 85 131c0 80 -73 136 -180 136c-103 0 -179 -57 -184 -144h122c2 35 28 54 62 54c36 0 58 -20 58 -47c0 -22 -13 -38 -38 -57z
" />
    <glyph glyph-name="uni2778" unicode="&#x2778;" horiz-adv-x="934" 
d="M467 -39c-232 0 -419 187 -419 419s187 419 419 419s419 -187 419 -419s-187 -419 -419 -419zM463 144c115 0 191 47 191 134c0 75 -69 104 -127 110c61 11 115 37 115 108c0 72 -81 120 -180 120c-98 0 -173 -56 -179 -138h121c2 26 21 48 58 48c34 0 58 -17 58 -44
c0 -25 -19 -47 -79 -47h-31v-94h31c51 0 91 -13 91 -54c0 -36 -35 -53 -69 -53c-42 0 -64 21 -67 56h-122c8 -88 68 -146 189 -146z" />
    <glyph glyph-name="uni2779" unicode="&#x2779;" horiz-adv-x="934" 
d="M467 -39c-232 0 -419 187 -419 419s187 419 419 419s419 -187 419 -419s-187 -419 -419 -419zM251 380v-119h221v-109h119v109h62v95h-62v252h-215zM472 356h-121l121 216v-216z" />
    <glyph glyph-name="uni277A" unicode="&#x277a;" horiz-adv-x="934" 
d="M467 -39c-232 0 -419 187 -419 419s187 419 419 419s419 -187 419 -419s-187 -419 -419 -419zM468 144c105 0 188 53 188 161c0 105 -66 159 -143 159c-55 0 -94 -35 -109 -69l10 118h212v95h-321l-22 -265l117 -10c11 27 36 42 67 42c37 0 68 -24 68 -70
s-30 -71 -68 -71c-40 0 -64 25 -67 57h-122c8 -93 86 -147 190 -147z" />
    <glyph glyph-name="uni277B" unicode="&#x277b;" horiz-adv-x="934" 
d="M467 -39c-232 0 -419 187 -419 419s187 419 419 419s419 -187 419 -419s-187 -419 -419 -419zM465 144c116 0 194 66 194 157c0 96 -65 156 -160 156c-61 0 -103 -37 -117 -77c-1 77 21 146 85 146c32 0 52 -16 60 -41h122c-14 74 -76 131 -183 131
c-116 0 -202 -74 -202 -236c0 -163 83 -236 201 -236zM464 234c-49 0 -75 31 -75 68c0 39 29 66 75 66c45 0 74 -26 74 -67c0 -40 -31 -67 -74 -67z" />
    <glyph glyph-name="uni277C" unicode="&#x277c;" horiz-adv-x="934" 
d="M467 -39c-232 0 -419 187 -419 419s187 419 419 419s419 -187 419 -419s-187 -419 -419 -419zM513 513l-196 -361h144l170 336v120h-328v-95h210z" />
    <glyph glyph-name="uni277D" unicode="&#x277d;" horiz-adv-x="934" 
d="M467 -39c-232 0 -419 187 -419 419s187 419 419 419s419 -187 419 -419s-187 -419 -419 -419zM467 144c122 0 199 53 199 135c0 71 -62 101 -119 111c56 14 105 42 105 106c0 74 -76 120 -185 120s-185 -46 -185 -120c0 -64 49 -92 105 -106c-57 -10 -119 -40 -119 -111
c0 -82 77 -135 199 -135zM467 431c-46 0 -66 23 -66 47c0 25 22 48 66 48s66 -23 66 -48c0 -24 -20 -47 -66 -47zM467 234c-42 0 -77 20 -77 56c0 35 33 54 77 54s77 -19 77 -54c0 -36 -35 -56 -77 -56z" />
    <glyph glyph-name="uni277E" unicode="&#x277e;" horiz-adv-x="934" 
d="M467 -39c-232 0 -419 187 -419 419s187 419 419 419s419 -187 419 -419s-187 -419 -419 -419zM469 616c-116 0 -194 -66 -194 -157c0 -96 65 -156 160 -156c61 0 103 37 117 77c1 -77 -21 -146 -85 -146c-32 0 -52 16 -60 41h-122c14 -74 76 -131 183 -131
c116 0 202 75 202 236c0 163 -83 236 -201 236zM470 526c49 0 75 -31 75 -68c0 -39 -29 -66 -75 -66c-45 0 -74 26 -74 67c0 40 31 67 74 67z" />
    <glyph glyph-name="uni24EA" unicode="&#x24ea;" horiz-adv-x="934" 
d="M467 -39c-232 0 -419 187 -419 419s187 419 419 419s419 -187 419 -419s-187 -419 -419 -419zM467 43c187 0 337 150 337 337s-150 337 -337 337s-337 -150 -337 -337s150 -337 337 -337zM467 144c-125 0 -198 81 -198 236s73 236 198 236s198 -81 198 -236
s-73 -236 -198 -236zM467 234c52 0 76 48 76 146s-24 146 -76 146s-76 -48 -76 -146s24 -146 76 -146z" />
    <glyph glyph-name="uni2460" unicode="&#x2460;" horiz-adv-x="934" 
d="M467 799c232 0 419 -187 419 -419s-187 -419 -419 -419s-419 187 -419 419s187 419 419 419zM467 43c187 0 337 150 337 337s-150 337 -337 337s-337 -150 -337 -337s150 -337 337 -337zM436 601l2 7h98v-456h-119v295h-98v94h13c62 0 90 20 104 60z" />
    <glyph glyph-name="uni2461" unicode="&#x2461;" horiz-adv-x="934" 
d="M467 799c232 0 419 -187 419 -419s-187 -419 -419 -419s-419 187 -419 419s187 419 419 419zM467 43c187 0 337 150 337 337s-150 337 -337 337s-337 -150 -337 -337s150 -337 337 -337zM561 349l-141 -102h234v-95h-372v120l204 150c25 19 38 35 38 57
c0 27 -22 47 -58 47c-34 0 -60 -19 -62 -54h-122c5 87 81 144 184 144c107 0 180 -56 180 -136c0 -57 -32 -93 -85 -131z" />
    <glyph glyph-name="uni2462" unicode="&#x2462;" horiz-adv-x="934" 
d="M467 799c232 0 419 -187 419 -419s-187 -419 -419 -419s-419 187 -419 419s187 419 419 419zM467 43c187 0 337 150 337 337s-150 337 -337 337s-337 -150 -337 -337s150 -337 337 -337zM526 388c58 -5 128 -35 128 -110c0 -87 -76 -134 -191 -134
c-121 0 -181 58 -189 146h122c3 -35 25 -56 67 -56c34 0 69 17 69 53c0 41 -40 54 -91 54h-31v94h31c60 0 79 22 79 47c0 27 -24 44 -58 44c-37 0 -56 -22 -58 -48h-121c6 82 81 138 179 138c99 0 180 -48 180 -120s-55 -97 -116 -108z" />
    <glyph glyph-name="uni2463" unicode="&#x2463;" horiz-adv-x="934" 
d="M467 799c232 0 419 -187 419 -419s-187 -419 -419 -419s-419 187 -419 419s187 419 419 419zM467 43c187 0 337 150 337 337s-150 337 -337 337s-337 -150 -337 -337s150 -337 337 -337zM591 608v-252h62v-95h-62v-109h-119v109h-221v119l125 228h215zM472 576l-122 -220
h122v220z" />
    <glyph glyph-name="uni2464" unicode="&#x2464;" horiz-adv-x="934" 
d="M467 799c232 0 419 -187 419 -419s-187 -419 -419 -419s-419 187 -419 419s187 419 419 419zM467 43c187 0 337 150 337 337s-150 337 -337 337s-337 -150 -337 -337s150 -337 337 -337zM513 464c77 0 143 -54 143 -159c0 -108 -83 -161 -188 -161
c-104 0 -182 54 -190 147h122c3 -32 27 -57 67 -57c38 0 68 25 68 71s-31 70 -68 70c-31 0 -56 -15 -67 -42l-117 10l22 265h321v-95h-212l-10 -118c15 34 54 69 109 69z" />
    <glyph glyph-name="uni2465" unicode="&#x2465;" horiz-adv-x="934" 
d="M467 799c232 0 419 -187 419 -419s-187 -419 -419 -419s-419 187 -419 419s187 419 419 419zM467 43c187 0 337 150 337 337s-150 337 -337 337s-337 -150 -337 -337s150 -337 337 -337zM499 457c95 0 160 -60 160 -156c0 -91 -78 -157 -194 -157
c-118 0 -201 73 -201 236c0 161 86 236 202 236c107 0 169 -57 183 -131h-122c-8 25 -28 41 -60 41c-64 0 -86 -69 -84 -146c14 40 56 77 116 77zM464 234c43 0 74 27 74 67c0 41 -29 67 -74 67c-46 0 -75 -27 -75 -66c0 -37 26 -68 75 -68z" />
    <glyph glyph-name="uni2466" unicode="&#x2466;" horiz-adv-x="934" 
d="M467 799c232 0 419 -187 419 -419s-187 -419 -419 -419s-419 187 -419 419s187 419 419 419zM467 43c187 0 337 150 337 337s-150 337 -337 337s-337 -150 -337 -337s150 -337 337 -337zM513 513h-210v95h328v-120l-170 -336h-144z" />
    <glyph glyph-name="uni2467" unicode="&#x2467;" horiz-adv-x="934" 
d="M467 799c232 0 419 -187 419 -419s-187 -419 -419 -419s-419 187 -419 419s187 419 419 419zM467 43c187 0 337 150 337 337s-150 337 -337 337s-337 -150 -337 -337s150 -337 337 -337zM547 390c57 -10 119 -40 119 -111c0 -82 -77 -135 -199 -135s-199 53 -199 135
c0 71 62 101 119 111c-56 14 -105 42 -105 106c0 74 76 120 185 120s185 -46 185 -120c0 -64 -49 -92 -105 -106zM467 526c-44 0 -66 -23 -66 -48c0 -24 20 -47 66 -47s66 23 66 47c0 25 -22 48 -66 48zM467 234c42 0 77 20 77 56c0 35 -33 54 -77 54s-77 -19 -77 -54
c0 -36 35 -56 77 -56z" />
    <glyph glyph-name="uni2468" unicode="&#x2468;" horiz-adv-x="934" 
d="M467 799c232 0 419 -187 419 -419s-187 -419 -419 -419s-419 187 -419 419s187 419 419 419zM467 43c187 0 337 150 337 337s-150 337 -337 337s-337 -150 -337 -337s150 -337 337 -337zM469 616c118 0 201 -73 201 -236c0 -161 -86 -236 -202 -236
c-107 0 -169 57 -183 131h122c8 -25 28 -41 60 -41c64 0 86 69 84 146c-14 -40 -56 -77 -116 -77c-95 0 -160 60 -160 156c0 91 78 157 194 157zM470 392c46 0 75 27 75 66c0 37 -26 68 -75 68c-43 0 -74 -27 -74 -67c0 -41 29 -67 74 -67z" />
    <glyph glyph-name="one.ss01" horiz-adv-x="555" 
d="M385 760v-635h158v-125h-498v125h183v399h-179v126h40c104 0 142 33 163 93l5 17h128z" />
    <glyph glyph-name="one.ss01.dnom" horiz-adv-x="303" 
d="M218 380v-299h77v-81h-270v81h90v163h-90v81h19c55 0 77 16 90 48l2 7h82z" />
    <glyph glyph-name="one.ss01.inferior" horiz-adv-x="303" 
d="M218 266v-299h77v-81h-270v81h90v163h-90v81h19c55 0 77 16 90 48l2 7h82z" />
    <glyph glyph-name="one.ss01.numr" horiz-adv-x="303" 
d="M218 760v-299h77v-81h-270v81h90v163h-90v81h19c55 0 77 16 90 48l2 7h82z" />
    <glyph glyph-name="one.ss01.superior" horiz-adv-x="303" 
d="M218 865v-299h77v-81h-270v81h90v163h-90v81h19c55 0 77 16 90 48l2 7h82z" />
    <glyph glyph-name="one.ss02" horiz-adv-x="508" 
d="M428 760v-760h-157v722l-240 -334v228l104 144h293z" />
    <glyph glyph-name="one.ss02.dnom" horiz-adv-x="285" 
d="M245 380v-380h-102v353l-126 -187v144l48 70h180z" />
    <glyph glyph-name="one.ss02.inferior" horiz-adv-x="285" 
d="M245 266v-380h-102v353l-126 -187v144l48 70h180z" />
    <glyph glyph-name="one.ss02.numr" horiz-adv-x="285" 
d="M245 760v-380h-102v353l-126 -187v144l48 70h180z" />
    <glyph glyph-name="one.ss02.superior" horiz-adv-x="285" 
d="M245 865v-380h-102v353l-126 -187v144l48 70h180z" />
    <glyph glyph-name="one.ss02.tf" 
d="M548 760v-760h-156v723l-241 -335v228l105 144h292z" />
    <glyph glyph-name="zero.tf" 
d="M375 -12c-199 0 -316 135 -316 392c0 256 117 392 316 392s316 -136 316 -392c0 -257 -117 -392 -316 -392zM375 107c102 0 156 89 156 273c0 183 -54 273 -156 273s-156 -90 -156 -273c0 -184 54 -273 156 -273z" />
    <glyph glyph-name="one.tf" 
d="M482 760v-635h159v-125h-498v125h183v399h-180v126h41c103 0 142 33 163 93l5 17h127z" />
    <glyph glyph-name="two.tf" 
d="M524 331l-263 -206h415v-125h-596v161l336 264c48 40 83 77 83 123c0 60 -46 105 -126 105c-78 0 -128 -40 -133 -116h-158c7 148 130 235 292 235c168 0 285 -90 285 -221c0 -89 -47 -152 -135 -220z" />
    <glyph glyph-name="three.tf" 
d="M463 397c92 -10 208 -59 208 -185c0 -148 -130 -224 -307 -224c-184 0 -282 90 -296 230h159c5 -66 50 -111 137 -111c67 0 147 33 147 114s-79 114 -173 114h-51v125h51c99 0 150 44 150 99c0 57 -49 94 -125 94c-75 0 -117 -41 -122 -100h-159c11 133 131 219 281 219
c158 0 285 -77 285 -196c0 -118 -92 -162 -185 -179z" />
    <glyph glyph-name="four.tf" 
d="M590 325h107v-125h-107v-200h-156v200h-383v160l248 400h291v-435zM434 731l-251 -406h251v406z" />
    <glyph glyph-name="five.tf" 
d="M433 520c130 0 245 -91 245 -264c0 -177 -134 -268 -299 -268c-163 0 -285 85 -300 232h159c8 -66 59 -113 140 -113c78 0 140 52 140 149c0 99 -67 148 -140 148c-68 0 -117 -36 -140 -92l-152 14l38 434h505v-125h-361l-21 -233c25 60 90 118 186 118z" />
    <glyph glyph-name="six.tf" 
d="M428 505c159 0 265 -98 265 -257c0 -153 -127 -260 -307 -260c-191 0 -322 123 -322 392c0 263 134 392 321 392c165 0 263 -87 290 -208h-159c-16 51 -56 89 -129 89c-127 0 -172 -135 -167 -290c25 79 104 142 208 142zM384 107c86 0 149 56 149 141
c0 84 -56 141 -149 141s-153 -58 -153 -135c0 -85 54 -147 153 -147z" />
    <glyph glyph-name="seven.tf" 
d="M112 635v125h526v-161l-308 -599h-187l342 635h-373z" />
    <glyph glyph-name="eight.tf" 
d="M495 400c92 -15 194 -68 194 -188c0 -139 -127 -224 -314 -224s-314 85 -314 224c0 120 102 173 194 188c-89 22 -171 68 -171 175c0 121 118 197 291 197s291 -76 291 -197c0 -107 -82 -153 -171 -175zM375 653c-90 0 -136 -40 -136 -98c0 -54 41 -97 136 -97
s136 43 136 97c0 58 -46 98 -136 98zM375 107c80 0 154 35 154 117c0 72 -65 114 -154 114s-154 -42 -154 -114c0 -82 74 -117 154 -117z" />
    <glyph glyph-name="nine.tf" 
d="M365 772c190 0 321 -123 321 -392c0 -263 -134 -392 -321 -392c-165 0 -263 87 -289 208h158c16 -51 56 -89 129 -89c127 0 172 135 167 290c-25 -79 -104 -142 -208 -142c-158 0 -264 98 -264 257c0 153 127 260 307 260zM366 371c93 0 153 58 153 135
c0 85 -54 147 -153 147c-86 0 -148 -56 -148 -141c0 -84 55 -141 148 -141z" />
    <glyph glyph-name="zero.tf.zero" 
d="M375 772c199 0 316 -136 316 -392c0 -257 -117 -392 -316 -392s-316 135 -316 392c0 256 117 392 316 392zM375 653c-102 0 -156 -90 -156 -273c0 -37 2 -70 7 -100l234 344c-23 19 -52 29 -85 29zM375 107c102 0 156 89 156 273c0 38 -2 72 -7 102l-235 -345
c23 -20 52 -30 86 -30z" />
    <glyph glyph-name="uni2080" unicode="&#x2080;" horiz-adv-x="376" 
d="M188 -121c-105 0 -166 68 -166 197s61 197 166 197c106 0 166 -68 166 -197s-60 -197 -166 -197zM188 -44c43 0 62 40 62 120s-19 120 -62 120c-42 0 -62 -40 -62 -120s20 -120 62 -120z" />
    <glyph glyph-name="uni2081" unicode="&#x2081;" horiz-adv-x="235" 
d="M110 259l2 7h82v-380h-102v244h-83v81h11c55 0 77 16 90 48z" />
    <glyph glyph-name="uni2082" unicode="&#x2082;" horiz-adv-x="357" 
d="M261 50l-117 -83h191v-81h-312v102l169 124c20 15 33 27 33 47s-17 37 -46 37c-31 0 -49 -19 -50 -44h-105c3 71 66 121 154 121c93 0 151 -48 151 -113c0 -47 -24 -79 -68 -110z" />
    <glyph glyph-name="uni2083" unicode="&#x2083;" horiz-adv-x="357" 
d="M229 83c51 -6 107 -32 107 -92c0 -73 -63 -112 -161 -112c-100 0 -152 49 -159 123h104c2 -26 19 -46 55 -46c31 0 56 16 56 44c0 34 -37 43 -75 43h-28v79h28c44 0 65 18 65 39c0 20 -19 35 -46 35c-29 0 -46 -18 -48 -41h-104c5 69 67 118 151 118
c87 0 152 -39 152 -100c0 -58 -44 -81 -97 -90z" />
    <glyph glyph-name="uni2084" unicode="&#x2084;" horiz-adv-x="371" 
d="M302 57h51v-80h-51v-91h-102v91h-184v102l96 187h190v-209zM200 241l-95 -184h95v184z" />
    <glyph glyph-name="uni2085" unicode="&#x2085;" horiz-adv-x="367" 
d="M224 146c68 0 124 -45 124 -132c0 -89 -71 -135 -162 -135c-87 0 -156 45 -163 124h105c4 -28 25 -47 58 -47s57 24 57 58c0 35 -23 56 -58 56c-27 0 -48 -13 -56 -34l-102 9l19 221h275v-81h-180l-8 -94c14 30 46 55 91 55z" />
    <glyph glyph-name="uni2086" unicode="&#x2086;" horiz-adv-x="377" 
d="M222 140c78 0 133 -49 133 -129c0 -75 -65 -132 -164 -132c-98 0 -168 61 -168 197s72 197 168 197c94 0 143 -51 155 -109h-104c-7 19 -22 32 -49 32c-51 0 -72 -57 -69 -121c10 34 48 65 98 65zM190 -44c37 0 61 24 61 55s-23 53 -61 53c-37 0 -61 -24 -61 -52
c0 -30 22 -56 61 -56z" />
    <glyph glyph-name="uni2087" unicode="&#x2087;" horiz-adv-x="302" 
d="M14 185v81h274v-102l-139 -278h-124l162 299h-173z" />
    <glyph glyph-name="uni2088" unicode="&#x2088;" horiz-adv-x="380" 
d="M258 84c51 -7 101 -36 101 -93c0 -67 -65 -112 -169 -112c-105 0 -170 45 -170 112c0 57 50 86 101 93c-49 12 -90 38 -90 89c0 61 66 100 159 100c92 0 158 -39 158 -100c0 -51 -41 -77 -90 -89zM190 196c-36 0 -56 -18 -56 -39c0 -22 19 -39 56 -39c36 0 55 17 55 39
c0 21 -20 39 -55 39zM190 -44c37 0 65 17 65 45c0 29 -30 43 -65 43c-36 0 -65 -14 -65 -43c0 -28 28 -45 65 -45z" />
    <glyph glyph-name="uni2089" unicode="&#x2089;" horiz-adv-x="377" 
d="M186 273c98 0 168 -61 168 -197s-72 -197 -168 -197c-94 0 -144 51 -155 109h104c7 -19 22 -32 48 -32c51 0 72 56 70 119c-13 -33 -49 -63 -98 -63c-78 0 -133 49 -133 129c0 75 65 132 164 132zM187 88c37 0 61 24 61 52c0 30 -22 56 -61 56c-37 0 -61 -24 -61 -55
s22 -53 61 -53z" />
    <glyph glyph-name="zero.dnom" horiz-adv-x="376" 
d="M188 -7c-105 0 -166 68 -166 197s61 197 166 197c106 0 166 -68 166 -197s-60 -197 -166 -197zM188 70c43 0 62 40 62 120s-19 120 -62 120c-42 0 -62 -40 -62 -120s20 -120 62 -120z" />
    <glyph glyph-name="one.dnom" horiz-adv-x="235" 
d="M110 373l2 7h82v-380h-102v244h-83v81h11c55 0 77 16 90 48z" />
    <glyph glyph-name="two.dnom" horiz-adv-x="357" 
d="M261 164l-117 -83h191v-81h-312v102l169 124c20 15 33 27 33 47s-17 37 -46 37c-31 0 -49 -19 -50 -44h-105c3 71 66 121 154 121c93 0 151 -48 151 -113c0 -47 -24 -79 -68 -110z" />
    <glyph glyph-name="three.dnom" horiz-adv-x="357" 
d="M229 197c51 -6 107 -32 107 -92c0 -73 -63 -112 -161 -112c-100 0 -152 49 -159 123h104c2 -26 19 -46 55 -46c31 0 56 16 56 44c0 34 -37 43 -75 43h-28v79h28c44 0 65 18 65 39c0 20 -19 35 -46 35c-29 0 -46 -18 -48 -41h-104c5 69 67 118 151 118
c87 0 152 -39 152 -100c0 -58 -44 -81 -97 -90z" />
    <glyph glyph-name="four.dnom" horiz-adv-x="371" 
d="M302 171h51v-80h-51v-91h-102v91h-184v102l96 187h190v-209zM200 355l-95 -184h95v184z" />
    <glyph glyph-name="five.dnom" horiz-adv-x="367" 
d="M224 260c68 0 124 -45 124 -132c0 -89 -71 -135 -162 -135c-87 0 -156 45 -163 124h105c4 -28 25 -47 58 -47s57 24 57 58c0 35 -23 56 -58 56c-27 0 -48 -13 -56 -34l-102 9l19 221h275v-81h-180l-8 -94c14 30 46 55 91 55z" />
    <glyph glyph-name="six.dnom" horiz-adv-x="377" 
d="M222 254c78 0 133 -49 133 -129c0 -75 -65 -132 -164 -132c-98 0 -168 61 -168 197s72 197 168 197c94 0 143 -51 155 -109h-104c-7 19 -22 32 -49 32c-51 0 -72 -57 -69 -121c10 34 48 65 98 65zM190 70c37 0 61 24 61 55s-23 53 -61 53c-37 0 -61 -24 -61 -52
c0 -30 22 -56 61 -56z" />
    <glyph glyph-name="seven.dnom" horiz-adv-x="302" 
d="M14 299v81h274v-102l-139 -278h-124l162 299h-173z" />
    <glyph glyph-name="eight.dnom" horiz-adv-x="380" 
d="M258 198c51 -7 101 -36 101 -93c0 -67 -65 -112 -169 -112c-105 0 -170 45 -170 112c0 57 50 86 101 93c-49 12 -90 38 -90 89c0 61 66 100 159 100c92 0 158 -39 158 -100c0 -51 -41 -77 -90 -89zM190 310c-36 0 -56 -18 -56 -39c0 -22 19 -39 56 -39c36 0 55 17 55 39
c0 21 -20 39 -55 39zM190 70c37 0 65 17 65 45c0 29 -30 43 -65 43c-36 0 -65 -14 -65 -43c0 -28 28 -45 65 -45z" />
    <glyph glyph-name="nine.dnom" horiz-adv-x="377" 
d="M186 387c98 0 168 -61 168 -197s-72 -197 -168 -197c-94 0 -143 51 -155 109h104c7 -19 23 -32 49 -32c51 0 72 57 69 121c-10 -34 -48 -65 -98 -65c-78 0 -133 49 -133 129c0 75 65 132 164 132zM187 202c37 0 61 24 61 52c0 30 -22 56 -61 56c-36 0 -61 -24 -61 -55
s23 -53 61 -53z" />
    <glyph glyph-name="zero.numr" horiz-adv-x="376" 
d="M188 373c-105 0 -166 68 -166 197s61 197 166 197c106 0 166 -68 166 -197s-60 -197 -166 -197zM188 450c43 0 62 40 62 120s-19 120 -62 120c-42 0 -62 -40 -62 -120s20 -120 62 -120z" />
    <glyph glyph-name="one.numr" horiz-adv-x="235" 
d="M110 753l2 7h82v-380h-102v244h-83v81h11c55 0 77 16 90 48z" />
    <glyph glyph-name="two.numr" horiz-adv-x="357" 
d="M261 544l-117 -83h191v-81h-312v102l169 124c20 15 33 27 33 47s-17 37 -46 37c-31 0 -49 -19 -50 -44h-105c3 71 66 121 154 121c93 0 151 -48 151 -113c0 -47 -24 -79 -68 -110z" />
    <glyph glyph-name="three.numr" horiz-adv-x="357" 
d="M229 577c51 -6 107 -32 107 -92c0 -73 -63 -112 -161 -112c-100 0 -152 49 -159 123h104c2 -26 19 -46 55 -46c31 0 56 16 56 44c0 34 -37 43 -75 43h-28v80h28c44 0 65 17 65 38c0 20 -19 35 -46 35c-29 0 -46 -18 -48 -41h-104c5 69 67 118 151 118
c87 0 152 -39 152 -100c0 -58 -44 -81 -97 -90z" />
    <glyph glyph-name="four.numr" horiz-adv-x="371" 
d="M302 551h51v-80h-51v-91h-102v91h-184v102l96 187h190v-209zM200 735l-95 -184h95v184z" />
    <glyph glyph-name="five.numr" horiz-adv-x="367" 
d="M224 640c68 0 124 -45 124 -132c0 -89 -71 -135 -162 -135c-87 0 -156 45 -163 124h105c4 -28 25 -47 58 -47s57 24 57 58c0 35 -23 56 -58 56c-27 0 -48 -13 -56 -34l-102 9l19 221h275v-81h-180l-8 -94c14 30 46 55 91 55z" />
    <glyph glyph-name="six.numr" horiz-adv-x="377" 
d="M222 634c78 0 133 -49 133 -129c0 -75 -65 -132 -164 -132c-98 0 -168 61 -168 197s72 197 168 197c94 0 143 -51 155 -109h-104c-7 19 -22 32 -49 32c-51 0 -72 -57 -69 -121c10 34 48 65 98 65zM190 450c37 0 61 24 61 55s-23 53 -61 53c-37 0 -61 -24 -61 -52
c0 -30 22 -56 61 -56z" />
    <glyph glyph-name="seven.numr" horiz-adv-x="302" 
d="M14 679v81h274v-102l-139 -278h-124l162 299h-173z" />
    <glyph glyph-name="eight.numr" horiz-adv-x="380" 
d="M258 578c51 -7 101 -36 101 -93c0 -67 -65 -112 -169 -112c-105 0 -170 45 -170 112c0 57 50 86 101 93c-49 12 -90 38 -90 89c0 61 66 100 159 100c92 0 158 -39 158 -100c0 -51 -41 -77 -90 -89zM190 690c-36 0 -56 -18 -56 -39c0 -22 19 -39 56 -39c36 0 55 17 55 39
c0 21 -20 39 -55 39zM190 450c37 0 65 17 65 45c0 29 -30 43 -65 43c-36 0 -65 -14 -65 -43c0 -28 28 -45 65 -45z" />
    <glyph glyph-name="nine.numr" horiz-adv-x="377" 
d="M186 767c98 0 168 -61 168 -197s-72 -197 -168 -197c-94 0 -143 51 -155 109h104c7 -19 23 -32 49 -32c51 0 72 57 69 121c-10 -34 -48 -65 -98 -65c-78 0 -133 49 -133 129c0 75 65 132 164 132zM187 582c37 0 61 24 61 52c0 30 -22 56 -61 56c-36 0 -61 -24 -61 -55
s23 -53 61 -53z" />
    <glyph glyph-name="uni2070" unicode="&#x2070;" horiz-adv-x="376" 
d="M188 478c-105 0 -166 68 -166 197s61 197 166 197c106 0 166 -68 166 -197s-60 -197 -166 -197zM188 555c43 0 62 40 62 120s-19 120 -62 120c-42 0 -62 -40 -62 -120s20 -120 62 -120z" />
    <glyph glyph-name="uni00B9" unicode="&#xb9;" horiz-adv-x="235" 
d="M110 858l2 7h82v-380h-102v244h-83v81h11c55 0 77 16 90 48z" />
    <glyph glyph-name="uni00B2" unicode="&#xb2;" horiz-adv-x="357" 
d="M261 649l-117 -83h191v-81h-312v103l169 124c20 14 33 26 33 46c0 21 -17 37 -46 37c-31 0 -49 -19 -50 -44h-105c3 71 66 121 154 121c93 0 151 -48 151 -112c0 -48 -24 -80 -68 -111z" />
    <glyph glyph-name="uni00B3" unicode="&#xb3;" horiz-adv-x="357" 
d="M229 682c51 -6 107 -32 107 -92c0 -73 -63 -112 -161 -112c-100 0 -152 49 -159 123h104c2 -26 19 -46 55 -46c31 0 56 16 56 44c0 34 -37 43 -75 43h-28v80h28c44 0 65 17 65 38c0 20 -19 35 -46 35c-29 0 -46 -18 -48 -41h-104c5 69 67 118 151 118
c87 0 152 -39 152 -100c0 -58 -44 -81 -97 -90z" />
    <glyph glyph-name="uni2074" unicode="&#x2074;" horiz-adv-x="371" 
d="M302 656h51v-80h-51v-91h-102v91h-184v102l96 187h190v-209zM200 840l-95 -184h95v184z" />
    <glyph glyph-name="uni2075" unicode="&#x2075;" horiz-adv-x="367" 
d="M224 745c68 0 124 -45 124 -132c0 -89 -71 -135 -162 -135c-87 0 -156 45 -163 124h105c4 -28 25 -47 58 -47s57 24 57 58c0 35 -23 56 -58 56c-27 0 -48 -13 -56 -34l-102 9l19 221h275v-81h-180l-8 -94c14 30 46 55 91 55z" />
    <glyph glyph-name="uni2076" unicode="&#x2076;" horiz-adv-x="377" 
d="M222 739c78 0 133 -49 133 -129c0 -75 -65 -132 -164 -132c-98 0 -168 61 -168 197s72 197 168 197c94 0 143 -51 155 -109h-104c-7 19 -22 32 -49 32c-51 0 -72 -57 -69 -121c10 34 48 65 98 65zM190 555c37 0 61 24 61 55s-23 53 -61 53c-37 0 -61 -24 -61 -52
c0 -30 22 -56 61 -56z" />
    <glyph glyph-name="uni2077" unicode="&#x2077;" horiz-adv-x="302" 
d="M14 784v81h274v-102l-139 -278h-124l162 299h-173z" />
    <glyph glyph-name="uni2078" unicode="&#x2078;" horiz-adv-x="380" 
d="M258 683c51 -7 101 -36 101 -93c0 -67 -65 -112 -169 -112c-105 0 -170 45 -170 112c0 57 50 86 101 93c-49 12 -90 38 -90 89c0 61 66 100 159 100c92 0 158 -39 158 -100c0 -51 -41 -77 -90 -89zM190 795c-36 0 -56 -18 -56 -39c0 -22 19 -39 56 -39c36 0 55 17 55 39
c0 21 -20 39 -55 39zM190 555c37 0 65 17 65 45c0 29 -30 43 -65 43c-36 0 -65 -14 -65 -43c0 -28 28 -45 65 -45z" />
    <glyph glyph-name="uni2079" unicode="&#x2079;" horiz-adv-x="377" 
d="M186 872c98 0 168 -61 168 -197s-72 -197 -168 -197c-94 0 -143 51 -155 109h104c7 -19 23 -32 49 -32c51 0 72 57 69 121c-10 -34 -48 -65 -98 -65c-78 0 -133 49 -133 129c0 75 65 132 164 132zM187 687c37 0 61 24 61 52c0 30 -22 56 -61 56c-36 0 -61 -24 -61 -55
s23 -53 61 -53z" />
    <glyph glyph-name="fraction" unicode="&#x2044;" horiz-adv-x="203" 
d="M-71 0h-130l475 760h129z" />
    <glyph glyph-name="uni215F" unicode="&#x215f;" horiz-adv-x="693" 
d="M234 380h-102v244h-83v81h11c55 0 77 16 90 48l2 7h82v-380zM72 0l474 760h130l-475 -760h-129z" />
    <glyph glyph-name="onehalf" unicode="&#xbd;" horiz-adv-x="801" 
d="M215 380h-102v244h-83v81h11c55 0 78 16 90 48l3 7h81v-380zM53 0l474 760h130l-475 -760h-129zM695 164l-117 -83h191v-81h-313v102l170 124c19 15 32 27 32 47s-16 37 -46 37c-31 0 -48 -19 -50 -44h-104c2 71 65 121 153 121c94 0 152 -48 152 -113
c0 -47 -24 -79 -68 -110z" />
    <glyph glyph-name="uni2189" unicode="&#x2189;" horiz-adv-x="870" 
d="M362 570c0 -129 -60 -197 -166 -197c-105 0 -166 68 -166 197s61 197 166 197c106 0 166 -68 166 -197zM136 0l475 760h129l-474 -760h-130zM135 570c0 -80 19 -120 61 -120c43 0 62 40 62 120s-19 120 -62 120c-42 0 -61 -40 -61 -120zM732 197c51 -6 107 -32 107 -92
c0 -73 -63 -112 -161 -112c-100 0 -152 49 -160 123h105c2 -26 19 -46 55 -46c31 0 56 16 56 44c0 34 -37 43 -76 43h-27v79h27c45 0 66 18 66 39c0 20 -19 35 -46 35c-29 0 -47 -18 -48 -41h-104c4 69 67 118 151 118c87 0 152 -39 152 -100c0 -58 -44 -81 -97 -90z" />
    <glyph glyph-name="uni2153" unicode="&#x2153;" horiz-adv-x="786" 
d="M215 380h-102v244h-83v81h11c55 0 78 16 90 48l3 7h81v-380zM53 0l474 760h130l-474 -760h-130zM649 197c51 -6 106 -31 106 -92c0 -73 -62 -112 -161 -112s-152 49 -159 123h105c2 -26 19 -46 54 -46c31 0 57 16 57 44c0 34 -37 43 -76 43h-27v79h27c44 0 66 18 66 39
c0 20 -19 35 -47 35s-46 -18 -47 -41h-105c5 69 68 118 152 118c87 0 152 -39 152 -100c0 -58 -44 -81 -97 -90z" />
    <glyph glyph-name="uni2154" unicode="&#x2154;" horiz-adv-x="901" 
d="M157 461h192v-81h-313v102l170 124c19 15 32 27 32 47s-16 37 -46 37c-31 0 -49 -19 -50 -44h-104c2 71 65 121 153 121c94 0 152 -48 152 -113c0 -47 -24 -79 -69 -110zM169 0l474 760h129l-474 -760h-129zM764 197c51 -6 107 -32 107 -92c0 -73 -63 -112 -161 -112
c-100 0 -152 49 -159 123h104c2 -26 20 -46 55 -46c31 0 56 16 56 44c0 34 -37 43 -75 43h-27v79h27c44 0 66 18 66 39c0 20 -19 35 -47 35c-29 0 -46 -18 -47 -41h-105c5 69 67 118 152 118c86 0 151 -39 151 -100c0 -58 -44 -81 -97 -90z" />
    <glyph glyph-name="onequarter" unicode="&#xbc;" horiz-adv-x="792" 
d="M216 380h-102v244h-83v81h11c55 0 78 16 90 48l3 7h81v-380zM54 0l474 760h130l-474 -760h-130zM712 171h51v-80h-51v-91h-103v91h-183v102l96 187h190v-209zM609 355l-94 -184h94v184z" />
    <glyph glyph-name="threequarters" unicode="&#xbe;" horiz-adv-x="879" 
d="M350 485c0 -73 -63 -112 -161 -112c-100 0 -152 49 -159 123h104c2 -26 19 -46 55 -46c31 0 56 16 56 44c0 34 -37 43 -75 43h-28v80h28c44 0 65 17 65 38c0 20 -19 35 -46 35c-29 0 -46 -18 -48 -41h-104c5 69 67 118 151 118c87 0 152 -39 152 -100
c0 -58 -44 -81 -97 -90c51 -6 107 -32 107 -92zM142 0l474 760h130l-475 -760h-129zM799 171h52v-80h-52v-91h-102v91h-184v102l96 187h190v-209zM697 355l-95 -184h95v184z" />
    <glyph glyph-name="uni2155" unicode="&#x2155;" horiz-adv-x="821" 
d="M215 380h-102v244h-83v81h11c55 0 78 16 90 48l3 7h81v-380zM53 0l474 760h130l-474 -760h-130zM667 260c68 0 124 -45 124 -132c0 -89 -71 -135 -162 -135c-87 0 -156 45 -163 124h105c4 -28 26 -47 58 -47c34 0 57 24 57 58c0 35 -23 56 -58 56c-27 0 -48 -13 -56 -34
l-102 9l19 221h275v-81h-180l-8 -97c13 31 44 58 91 58z" />
    <glyph glyph-name="uni2156" unicode="&#x2156;" horiz-adv-x="937" 
d="M158 461h191v-81h-312v102l169 124c19 15 33 27 33 47s-17 37 -47 37s-48 -19 -50 -44h-104c2 71 65 121 153 121c94 0 152 -48 152 -113c0 -47 -24 -79 -68 -110zM169 0l474 760h130l-474 -760h-130zM783 260c68 0 124 -45 124 -132c0 -89 -71 -135 -162 -135
c-87 0 -156 45 -163 124h105c4 -28 26 -47 58 -47c33 0 57 24 57 58c0 35 -23 56 -58 56c-27 0 -48 -13 -56 -34l-102 9l19 221h275v-81h-180l-8 -97c13 31 44 58 91 58z" />
    <glyph glyph-name="uni2157" unicode="&#x2157;" horiz-adv-x="909" 
d="M349 485c0 -73 -62 -112 -161 -112c-100 0 -152 49 -159 123h105c1 -26 19 -46 54 -46c31 0 57 16 57 44c0 34 -37 43 -76 43h-27v80h27c44 0 66 17 66 38c0 20 -19 35 -47 35s-46 -18 -47 -41h-105c5 69 67 118 152 118c87 0 151 -39 151 -100c0 -58 -44 -81 -97 -90
c52 -6 107 -32 107 -92zM141 0l475 760h129l-474 -760h-130zM755 260c68 0 124 -45 124 -132c0 -89 -71 -135 -162 -135c-86 0 -156 45 -163 124h105c4 -28 26 -47 58 -47c34 0 57 24 57 58c0 35 -23 56 -58 56c-27 0 -47 -13 -56 -34l-102 9l19 221h275v-81h-180l-8 -97
c13 31 44 58 91 58z" />
    <glyph glyph-name="uni2158" unicode="&#x2158;" horiz-adv-x="932" 
d="M314 380h-102v91h-184v102l96 187h190v-209h51v-80h-51v-91zM162 0l474 760h130l-474 -760h-130zM212 735l-95 -184h95v184zM776 260c68 0 124 -45 124 -132c0 -89 -71 -135 -162 -135c-87 0 -156 45 -163 124h105c4 -28 26 -47 58 -47c33 0 57 24 57 58
c0 35 -23 56 -58 56c-27 0 -48 -13 -56 -34l-102 9l19 221h275v-81h-180l-8 -97c13 31 44 58 91 58z" />
    <glyph glyph-name="uni2159" unicode="&#x2159;" horiz-adv-x="803" 
d="M216 380h-102v244h-83v81h11c55 0 77 16 90 48l2 7h82v-380zM54 0l474 760h130l-475 -760h-129zM640 254c78 0 133 -49 133 -129c0 -75 -65 -132 -164 -132c-98 0 -168 61 -168 197s72 197 168 197c94 0 144 -51 155 -109h-104c-7 19 -22 32 -49 32
c-50 0 -71 -56 -69 -119c12 33 49 63 98 63zM608 70c37 0 61 24 61 55s-22 53 -61 53c-37 0 -61 -24 -61 -52c0 -30 22 -56 61 -56z" />
    <glyph glyph-name="uni215A" unicode="&#x215a;" horiz-adv-x="887" 
d="M355 508c0 -89 -70 -135 -161 -135c-87 0 -157 45 -163 124h105c4 -28 25 -47 57 -47c34 0 58 24 58 58c0 35 -24 56 -58 56c-28 0 -48 -13 -57 -34l-102 9l20 221h275v-81h-180l-9 -97c13 31 46 58 92 58c68 0 123 -45 123 -132zM138 0l474 760h130l-474 -760h-130z
M724 254c79 0 134 -49 134 -129c0 -75 -65 -132 -165 -132c-98 0 -168 61 -168 197s72 197 168 197c94 0 144 -51 156 -109h-105c-7 19 -22 32 -48 32c-51 0 -72 -56 -70 -119c13 33 49 63 98 63zM692 70c37 0 61 24 61 55s-22 53 -61 53c-36 0 -60 -24 -60 -52
c0 -30 21 -56 60 -56z" />
    <glyph glyph-name="uni2150" unicode="&#x2150;" horiz-adv-x="787" 
d="M217 380h-102v244h-83v81h11c55 0 77 16 90 48l2 7h82v-380zM55 0l474 760h130l-475 -760h-129zM482 299v81h275v-102l-139 -278h-125l163 299h-174z" />
    <glyph glyph-name="oneeighth" unicode="&#x215b;" horiz-adv-x="812" 
d="M215 380h-102v244h-83v81h11c55 0 78 16 90 48l3 7h81v-380zM53 0l474 760h130l-474 -760h-130zM682 198c51 -7 101 -36 101 -93c0 -67 -65 -112 -170 -112c-104 0 -169 45 -169 112c0 57 50 86 100 93c-48 12 -89 38 -89 89c0 61 66 100 158 100c93 0 159 -39 159 -100
c0 -51 -41 -77 -90 -89zM613 310c-35 0 -55 -18 -55 -39c0 -22 19 -39 55 -39c37 0 56 17 56 39c0 21 -20 39 -56 39zM613 70c37 0 65 17 65 45c0 29 -29 43 -65 43c-35 0 -64 -14 -64 -43c0 -28 27 -45 64 -45z" />
    <glyph glyph-name="threeeighths" unicode="&#x215c;" horiz-adv-x="901" 
d="M349 485c0 -73 -62 -112 -161 -112c-100 0 -152 49 -159 123h105c1 -26 19 -46 54 -46c31 0 57 16 57 44c0 34 -37 43 -76 43h-27v80h27c44 0 66 17 66 38c0 20 -19 35 -47 35s-46 -18 -47 -41h-105c5 69 67 118 152 118c87 0 151 -39 151 -100c0 -58 -44 -81 -97 -90
c52 -6 107 -32 107 -92zM141 0l475 760h129l-474 -760h-130zM770 198c51 -7 101 -36 101 -93c0 -67 -65 -112 -170 -112c-104 0 -169 45 -169 112c0 57 50 86 101 93c-49 12 -90 38 -90 89c0 61 66 100 158 100c93 0 159 -39 159 -100c0 -51 -41 -77 -90 -89zM701 310
c-35 0 -55 -18 -55 -39c0 -22 19 -39 55 -39c37 0 56 17 56 39c0 21 -20 39 -56 39zM701 70c37 0 65 17 65 45c0 29 -29 43 -65 43c-35 0 -64 -14 -64 -43c0 -28 27 -45 64 -45z" />
    <glyph glyph-name="fiveeighths" unicode="&#x215d;" horiz-adv-x="897" 
d="M355 508c0 -89 -70 -135 -161 -135c-87 0 -157 45 -163 124h105c4 -28 25 -47 57 -47c34 0 58 24 58 58c0 35 -24 56 -58 56c-28 0 -48 -13 -57 -34l-102 9l20 221h275v-81h-180l-9 -97c13 31 46 58 92 58c68 0 123 -45 123 -132zM138 0l474 760h130l-474 -760h-130z
M767 198c51 -7 101 -36 101 -93c0 -67 -65 -112 -170 -112c-104 0 -169 45 -169 112c0 57 50 86 100 93c-48 12 -89 38 -89 89c0 61 66 100 158 100c93 0 159 -39 159 -100c0 -51 -41 -77 -90 -89zM698 310c-35 0 -55 -18 -55 -39c0 -22 19 -39 55 -39c37 0 56 17 56 39
c0 21 -20 39 -56 39zM698 70c37 0 65 17 65 45c0 29 -29 43 -65 43c-35 0 -64 -14 -64 -43c0 -28 27 -45 64 -45z" />
    <glyph glyph-name="seveneighths" unicode="&#x215e;" horiz-adv-x="833" 
d="M312 658l-139 -278h-124l163 299h-174v81h274v-102zM74 0l474 760h129l-474 -760h-129zM703 198c50 -7 100 -36 100 -93c0 -67 -65 -112 -169 -112c-105 0 -170 45 -170 112c0 57 50 86 101 93c-49 12 -90 38 -90 89c0 61 66 100 159 100c92 0 158 -39 158 -100
c0 -51 -41 -77 -89 -89zM634 310c-36 0 -56 -18 -56 -39c0 -22 19 -39 56 -39c36 0 55 17 55 39c0 21 -20 39 -55 39zM634 70c37 0 65 17 65 45c0 29 -30 43 -65 43c-36 0 -65 -14 -65 -43c0 -28 28 -45 65 -45z" />
    <glyph glyph-name="uni2151" unicode="&#x2151;" horiz-adv-x="806" 
d="M216 380h-102v244h-83v81h11c55 0 78 16 90 48l3 7h81v-380zM54 0l474 760h130l-474 -760h-130zM610 387c98 0 168 -61 168 -197s-72 -197 -168 -197c-94 0 -144 51 -155 109h104c7 -19 22 -32 48 -32c51 0 72 56 70 119c-13 -33 -49 -63 -98 -63c-78 0 -133 49 -133 129
c0 75 65 132 164 132zM611 202c37 0 61 24 61 52c0 30 -22 56 -61 56c-37 0 -61 -24 -61 -55s22 -53 61 -53z" />
    <glyph glyph-name="uni2152" unicode="&#x2152;" horiz-adv-x="1055" 
d="M217 380h-102v244h-82v81h11c54 0 77 16 89 48l3 7h81v-380zM185 0h-130l475 760h129zM861 387c105 0 166 -68 166 -197s-61 -197 -166 -197c-106 0 -166 68 -166 197s60 197 166 197zM570 373l3 7h81v-380h-102v244h-83v81h11c55 0 78 16 90 48zM861 70
c42 0 61 40 61 120s-19 120 -61 120c-43 0 -62 -40 -62 -120s19 -120 62 -120z" />
    <glyph glyph-name="uni2080.zero" horiz-adv-x="379" 
d="M189 273c106 0 167 -68 167 -197s-61 -197 -167 -197c-105 0 -166 68 -166 197s61 197 166 197zM189 196c-42 0 -61 -40 -61 -120c0 -8 0 -16 1 -23l91 134c-9 6 -19 9 -31 9zM189 -44c43 0 62 40 62 120c0 8 0 16 -1 23l-91 -134c8 -6 18 -9 30 -9z" />
    <glyph glyph-name="zero.dnom.zero" horiz-adv-x="379" 
d="M189 387c106 0 167 -68 167 -197s-61 -197 -167 -197c-105 0 -166 68 -166 197s61 197 166 197zM189 310c-42 0 -61 -40 -61 -120c0 -8 0 -16 1 -23l91 134c-9 6 -19 9 -31 9zM189 70c43 0 62 40 62 120c0 8 0 16 -1 23l-91 -134c8 -6 18 -9 30 -9z" />
    <glyph glyph-name="zero.numr.zero" horiz-adv-x="379" 
d="M189 767c106 0 167 -68 167 -197s-61 -197 -167 -197c-105 0 -166 68 -166 197s61 197 166 197zM189 690c-42 0 -61 -40 -61 -120c0 -8 0 -16 1 -23l91 134c-9 6 -19 9 -31 9zM189 450c43 0 62 40 62 120c0 8 0 16 -1 23l-91 -134c8 -6 18 -9 30 -9z" />
    <glyph glyph-name="uni2070.zero" horiz-adv-x="379" 
d="M189 872c106 0 167 -68 167 -197s-61 -197 -167 -197c-105 0 -166 68 -166 197s61 197 166 197zM189 795c-42 0 -61 -40 -61 -120c0 -8 0 -16 1 -23l91 134c-9 6 -19 9 -31 9zM189 555c43 0 62 40 62 120c0 8 0 16 -1 23l-91 -134c8 -6 18 -9 30 -9z" />
    <glyph glyph-name="period" unicode="." horiz-adv-x="295" 
d="M230 0h-165v153h165v-153z" />
    <glyph glyph-name="comma" unicode="," horiz-adv-x="295" 
d="M65 0v153h165v-171l-76 -122h-101l65 140h-53z" />
    <glyph glyph-name="colon" unicode=":" horiz-adv-x="295" 
d="M230 339h-165v153h165v-153zM230 0h-165v153h165v-153z" />
    <glyph glyph-name="semicolon" unicode=";" horiz-adv-x="295" 
d="M65 339v153h165v-153h-165zM118 0h-53v153h165v-171l-76 -122h-101z" />
    <glyph glyph-name="ellipsis" unicode="&#x2026;" horiz-adv-x="885" 
d="M230 0h-165v153h165v-153zM525 0h-165v153h165v-153zM820 0h-165v153h165v-153z" />
    <glyph glyph-name="exclam" unicode="!" horiz-adv-x="306" 
d="M218 258h-129l-24 502h177zM236 0h-166v153h166v-153z" />
    <glyph glyph-name="exclamdown" unicode="&#xa1;" horiz-adv-x="290" 
d="M228 390h-166v153h166v-153zM233 -196h-176l23 481h130z" />
    <glyph glyph-name="question" unicode="?" horiz-adv-x="593" 
d="M357 258h-154c0 76 25 128 78 175l52 46c45 40 68 64 68 100c0 42 -37 76 -105 76c-65 0 -109 -37 -113 -92h-157c7 133 120 209 270 209c166 0 265 -75 265 -187c0 -73 -41 -115 -86 -155l-52 -47c-50 -43 -66 -72 -66 -125zM365 0h-165v153h165v-153z" />
    <glyph glyph-name="questiondown" unicode="&#xbf;" horiz-adv-x="587" 
d="M390 390h-166v153h166v-153zM293 -208c-166 0 -264 75 -264 184c0 71 39 108 84 147l54 46c48 41 66 64 66 116h154c0 -74 -26 -120 -78 -164l-53 -45c-47 -39 -68 -58 -68 -94c0 -41 35 -74 105 -74c64 0 109 37 114 94h157c-8 -132 -121 -210 -271 -210z" />
    <glyph glyph-name="periodcentered" unicode="&#xb7;" horiz-adv-x="259" 
d="M198 218h-141v154h141v-154z" />
    <glyph glyph-name="bullet" unicode="&#x2022;" horiz-adv-x="470" 
d="M234 127c-88 0 -158 71 -158 159s70 159 158 159s160 -71 160 -159s-72 -159 -160 -159z" />
    <glyph glyph-name="asterisk" unicode="*" horiz-adv-x="453" 
d="M390 795l29 -88l-115 -37l75 -101l-76 -55l-77 102l-77 -102l-76 55l76 100l-116 38l30 88l115 -37v114h96v-114z" />
    <glyph glyph-name="uni2042" unicode="&#x2042;" horiz-adv-x="856" 
d="M351 402l-76 55l75 100l-115 38l29 88l116 -37v114h96v-114l115 37l29 -88l-115 -38l76 -100l-77 -55l-76 102zM241 239l115 37l29 -88l-114 -38l75 -99l-77 -56l-76 103l-77 -103l-76 56l75 99l-115 38l29 88l116 -37v114h96v-114zM826 276l29 -88l-114 -38l75 -99
l-77 -56l-76 103l-77 -103l-76 56l75 99l-115 38l29 88l116 -37v114h96v-114z" />
    <glyph glyph-name="numbersign" unicode="#" horiz-adv-x="809" 
d="M771 543v-100h-163l-32 -151h143v-100h-163l-40 -192h-118l40 192h-157l-40 -192h-118l40 192h-125v100h145l32 151h-125v100h145l45 217h118l-45 -217h157l45 217h118l-45 -217h143zM301 292h157l32 151h-157z" />
    <glyph glyph-name="slash" unicode="/" horiz-adv-x="539" 
d="M184 0h-164l336 760h164z" />
    <glyph glyph-name="backslash" unicode="\" horiz-adv-x="539" 
d="M520 0h-164l-336 760h164z" />
    <glyph glyph-name="exclamdown.case" horiz-adv-x="307" 
d="M70 760h166v-153h-166v153zM89 502h129l24 -502h-177z" />
    <glyph glyph-name="questiondown.case" horiz-adv-x="593" 
d="M228 760h165v-153h-165v153zM236 502h154c0 -76 -25 -128 -78 -175l-52 -46c-45 -40 -68 -64 -68 -100c0 -42 37 -76 105 -76c65 0 109 37 113 92h157c-7 -133 -120 -209 -270 -209c-166 0 -265 75 -265 187c0 73 41 115 86 155l53 47c49 43 65 72 65 125z" />
    <glyph glyph-name="periodcentered.case" horiz-adv-x="288" 
d="M227 309h-166v153h166v-153z" />
    <glyph glyph-name="bullet.case" horiz-adv-x="537" 
d="M268 186c-110 0 -196 86 -196 196s86 197 196 197c111 0 197 -87 197 -197s-86 -196 -197 -196z" />
    <glyph glyph-name="periodcentered.loclCAT.case" horiz-adv-x="10" 
d="M-46 358h-165v153h165v-153z" />
    <glyph glyph-name="period.inferior" horiz-adv-x="167" 
d="M133 -114h-99v95h99v-95z" />
    <glyph glyph-name="comma.inferior" horiz-adv-x="179" 
d="M41 -114v95h99v-106l-41 -62h-59l34 73h-33z" />
    <glyph glyph-name="period.lining" 
d="M458 0h-166v153h166v-153z" />
    <glyph glyph-name="comma.lining" 
d="M292 0v153h166v-171l-77 -122h-100l65 140h-54z" />
    <glyph glyph-name="colon.lining" horiz-adv-x="295" 
d="M230 446h-165v153h165v-153zM230 107h-165v153h165v-153z" />
    <glyph glyph-name="slash.lining" 
d="M289 0h-164l336 760h164z" />
    <glyph glyph-name="periodcentered.loclCAT" horiz-adv-x="128" 
d="M134 314h-140v153h140v-153z" />
    <glyph glyph-name="period.superior" horiz-adv-x="167" 
d="M133 485h-99v95h99v-95z" />
    <glyph glyph-name="comma.superior" horiz-adv-x="179" 
d="M41 485v95h99v-106l-41 -61h-60l35 72h-33z" />
    <glyph glyph-name="uni208D" unicode="&#x208d;" horiz-adv-x="232" 
d="M212 -165h-102c-40 59 -79 140 -79 241s39 178 79 237h102c-40 -60 -78 -135 -78 -237s39 -183 78 -241z" />
    <glyph glyph-name="uni208E" unicode="&#x208e;" horiz-adv-x="232" 
d="M121 -165h-101c40 60 78 140 78 241c0 100 -37 176 -78 237h101c39 -58 80 -134 80 -237c0 -99 -38 -180 -80 -241z" />
    <glyph glyph-name="parenleft" unicode="(" horiz-adv-x="351" 
d="M352 -196h-155c-81 119 -159 280 -159 482s78 355 159 474h155c-80 -119 -158 -272 -158 -474s78 -363 158 -482z" />
    <glyph glyph-name="parenright" unicode=")" horiz-adv-x="351" 
d="M154 -196h-155c80 119 158 280 158 482s-78 355 -158 474h155c81 -119 159 -272 159 -474s-78 -363 -159 -482z" />
    <glyph glyph-name="braceleft" unicode="{" horiz-adv-x="391" 
d="M277 574v-113c0 -119 -61 -153 -157 -171c95 -17 157 -50 157 -168v-2v-130v-2c0 -49 23 -72 66 -72h14v-112h-48c-128 0 -185 67 -185 165v2v123v2c0 100 -32 117 -100 124v141c69 7 100 24 100 126v106c0 99 56 167 185 167h48v-112h-14c-44 0 -66 -24 -66 -74z" />
    <glyph glyph-name="braceright" unicode="}" horiz-adv-x="391" 
d="M267 485c0 -100 32 -117 100 -124v-141c-68 -7 -100 -24 -100 -126v-123c0 -99 -56 -167 -185 -167h-48v112h14c45 0 66 24 66 74v130c0 119 62 153 157 171c-95 17 -157 50 -157 168v2v113v2c0 49 -22 72 -66 72h-14v112h48c128 0 185 -67 185 -165v-2v-106v-2z" />
    <glyph glyph-name="bracketleft" unicode="[" horiz-adv-x="367" 
d="M340 760v-112h-112v-732h112v-112h-265v956h265z" />
    <glyph glyph-name="bracketright" unicode="]" horiz-adv-x="367" 
d="M27 648v112h264v-956h-264v112h111v732h-111z" />
    <glyph glyph-name="uni207D" unicode="&#x207d;" horiz-adv-x="232" 
d="M213 434h-102c-40 59 -79 140 -79 241s39 178 79 237h102c-40 -60 -78 -135 -78 -237s39 -183 78 -241z" />
    <glyph glyph-name="uni207E" unicode="&#x207e;" horiz-adv-x="232" 
d="M121 434h-102c40 60 78 140 78 241c0 100 -37 176 -78 237h102c39 -58 80 -134 80 -237c0 -99 -39 -180 -80 -241z" />
    <glyph glyph-name="parenleft.case" horiz-adv-x="359" 
d="M355 -114h-156c-81 119 -159 280 -159 482s78 355 159 474h156c-80 -119 -158 -272 -158 -474s78 -363 158 -482z" />
    <glyph glyph-name="parenright.case" horiz-adv-x="359" 
d="M159 -114h-155c80 119 158 280 158 482s-78 355 -158 474h155c81 -119 159 -272 159 -474s-78 -363 -159 -482z" />
    <glyph glyph-name="braceleft.case" horiz-adv-x="402" 
d="M283 656v-113c0 -119 -62 -153 -157 -170c95 -18 157 -51 157 -169v-2v-130v-2c0 -49 22 -72 65 -72h15v-112h-49c-127 0 -184 67 -184 165v2v123v2c0 100 -32 117 -100 124v141c68 7 100 24 100 126v106c0 99 56 167 184 167h49v-112h-15c-44 0 -65 -24 -65 -74z" />
    <glyph glyph-name="braceright.case" horiz-adv-x="402" 
d="M272 567c0 -100 33 -117 101 -124v-141c-69 -7 -101 -24 -101 -126v-123c0 -99 -55 -167 -184 -167h-49v112h15c44 0 66 24 66 74v130c0 119 61 153 157 171c-96 17 -157 50 -157 168v2v113v2c0 49 -23 72 -66 72h-15v112h49c128 0 184 -67 184 -165v-2v-106v-2z" />
    <glyph glyph-name="bracketleft.case" horiz-adv-x="374" 
d="M344 842v-112h-112v-732h112v-112h-265v956h265z" />
    <glyph glyph-name="bracketright.case" horiz-adv-x="374" 
d="M30 730v112h264v-956h-264v112h111v732h-111z" />
    <glyph glyph-name="braceleft.inferior" horiz-adv-x="246" 
d="M176 211v-59c0 -49 -32 -69 -90 -74c56 -5 90 -23 90 -73v-2v-65v-2c0 -21 13 -29 32 -29h8v-72h-35c-72 0 -105 36 -105 89v2v61v2c0 34 -15 41 -47 45v88c32 4 47 11 47 47v54c0 54 33 90 105 90h35v-72h-8c-18 0 -32 -7 -32 -30z" />
    <glyph glyph-name="braceright.inferior" horiz-adv-x="246" 
d="M170 167c0 -33 16 -41 47 -45v-88c-33 -4 -47 -13 -47 -46v-63c0 -54 -33 -90 -105 -90h-35v72h8c18 0 32 7 32 30v67c0 48 29 69 90 75c-55 5 -90 21 -90 72v2v58v2c0 22 -14 28 -32 28h-8v72h35c72 0 105 -36 105 -89v-2v-53v-2z" />
    <glyph glyph-name="bracketleft.inferior" horiz-adv-x="223" 
d="M199 313v-72h-54v-334h54v-72h-154v478h154z" />
    <glyph glyph-name="bracketright.inferior" horiz-adv-x="223" 
d="M25 241v72h154v-478h-154v72h54v334h-54z" />
    <glyph glyph-name="braceleft.superior" horiz-adv-x="246" 
d="M176 810v-59c0 -49 -32 -68 -91 -74c56 -5 91 -23 91 -73v-2v-65v-2c0 -21 12 -29 31 -29h9v-72h-35c-72 0 -105 36 -105 89v2v61v2c0 34 -16 41 -48 45v88c32 4 48 11 48 47v54c0 54 32 90 105 90h35v-72h-9c-18 0 -31 -7 -31 -30z" />
    <glyph glyph-name="braceright.superior" horiz-adv-x="246" 
d="M170 766c0 -33 16 -41 48 -45v-88c-34 -4 -48 -13 -48 -46v-63c0 -54 -32 -90 -105 -90h-35v72h9c18 0 31 7 31 31v66c0 48 29 69 91 75c-55 5 -91 21 -91 72v2v58v2c0 22 -13 28 -31 28h-9v72h35c72 0 105 -36 105 -89v-2v-53v-2z" />
    <glyph glyph-name="bracketleft.superior" horiz-adv-x="223" 
d="M199 912v-72h-54v-334h54v-72h-154v478h154z" />
    <glyph glyph-name="bracketright.superior" horiz-adv-x="223" 
d="M24 840v72h155v-478h-155v72h54v334h-54z" />
    <glyph glyph-name="hyphen" unicode="-" horiz-adv-x="446" 
d="M389 223h-331v126h331v-126z" />
    <glyph glyph-name="uni00AD" unicode="&#xad;" horiz-adv-x="446" 
d="M389 223h-331v126h331v-126z" />
    <glyph glyph-name="endash" unicode="&#x2013;" horiz-adv-x="559" 
d="M501 223h-443v126h443v-126z" />
    <glyph glyph-name="emdash" unicode="&#x2014;" horiz-adv-x="857" 
d="M799 223h-741v126h741v-126z" />
    <glyph glyph-name="uni2011" unicode="&#x2011;" horiz-adv-x="446" 
d="M389 223h-331v126h331v-126z" />
    <glyph glyph-name="underscore" unicode="_" horiz-adv-x="581" 
d="M541 -112h-502v112h502v-112z" />
    <glyph glyph-name="hyphen.case" horiz-adv-x="451" 
d="M391 321h-331v139h331v-139z" />
    <glyph glyph-name="endash.case" horiz-adv-x="564" 
d="M504 321h-444v139h444v-139z" />
    <glyph glyph-name="emdash.case" horiz-adv-x="862" 
d="M802 321h-742v139h742v-139z" />
    <glyph glyph-name="hyphen.inferior" horiz-adv-x="238" 
d="M205 -11h-172v82h172v-82z" />
    <glyph glyph-name="hyphen.lining" 
d="M540 321h-330v139h330v-139z" />
    <glyph glyph-name="hyphen.superior" horiz-adv-x="238" 
d="M205 588h-172v83h172v-83z" />
    <glyph glyph-name="quotesinglbase" unicode="&#x201a;" horiz-adv-x="295" 
d="M65 0v153h165v-171l-76 -122h-101l65 140h-53z" />
    <glyph glyph-name="quotedblbase" unicode="&#x201e;" horiz-adv-x="519" 
d="M118 0h-53v153h165v-171l-76 -122h-101zM289 0v153h166v-171l-77 -122h-100l65 140h-54z" />
    <glyph glyph-name="quotedblleft" unicode="&#x201c;" horiz-adv-x="496" 
d="M41 638l77 122h101l-66 -140h54v-153h-166v171zM342 760h101l-65 -140h54v-153h-166v171z" />
    <glyph glyph-name="quotedblright" unicode="&#x201d;" horiz-adv-x="491" 
d="M122 607h-54v153h166v-171l-77 -122h-101zM292 607v153h166v-171l-76 -122h-101l65 140h-54z" />
    <glyph glyph-name="quoteleft" unicode="&#x2018;" horiz-adv-x="272" 
d="M126 760h101l-65 -140h53v-153h-165v171z" />
    <glyph glyph-name="quoteright" unicode="&#x2019;" horiz-adv-x="266" 
d="M60 607v153h165v-171l-76 -122h-101l65 140h-53z" />
    <glyph glyph-name="guillemotleft" unicode="&#xab;" horiz-adv-x="698" 
d="M196 496h182l-158 -219l158 -230h-182l-155 230zM478 496h181l-158 -219l158 -230h-181l-156 230z" />
    <glyph glyph-name="guillemotright" unicode="&#xbb;" horiz-adv-x="698" 
d="M39 496h181l156 -219l-156 -230h-181l158 230zM320 496h182l155 -219l-155 -230h-182l158 230z" />
    <glyph glyph-name="guilsinglleft" unicode="&#x2039;" horiz-adv-x="417" 
d="M196 496h182l-158 -219l158 -230h-182l-155 230z" />
    <glyph glyph-name="guilsinglright" unicode="&#x203a;" horiz-adv-x="417" 
d="M39 496h181l156 -219l-156 -230h-181l158 230z" />
    <glyph glyph-name="quotedbl" unicode="&#x22;" horiz-adv-x="448" 
d="M181 452h-113l-21 308h155zM380 452h-113l-21 308h155z" />
    <glyph glyph-name="quotesingle" unicode="'" horiz-adv-x="248" 
d="M181 452h-113l-21 308h155z" />
    <glyph glyph-name="guillemotleft.case" horiz-adv-x="707" 
d="M201 599h181l-157 -219l157 -230h-181l-156 230zM482 599h181l-157 -219l157 -230h-181l-155 230z" />
    <glyph glyph-name="guillemotright.case" horiz-adv-x="707" 
d="M44 599h181l155 -219l-155 -230h-181l157 230zM325 599h182l155 -219l-155 -230h-182l157 230z" />
    <glyph glyph-name="guilsinglleft.case" horiz-adv-x="426" 
d="M201 599h181l-157 -219l157 -230h-181l-156 230z" />
    <glyph glyph-name="guilsinglright.case" horiz-adv-x="426" 
d="M44 599h181l155 -219l-155 -230h-181l157 230z" />
    <glyph glyph-name="uni00A0" unicode="&#xa0;" horiz-adv-x="232" 
 />
    <glyph glyph-name="uni2009" unicode="&#x2009;" horiz-adv-x="125" 
 />
    <glyph glyph-name="space.lining" 
 />
    <glyph glyph-name=".null" horiz-adv-x="0" 
 />
    <glyph glyph-name="uniFEFF" unicode="&#xfeff;" horiz-adv-x="0" 
 />
    <glyph glyph-name="uni0E3F" unicode="&#xe3f;" horiz-adv-x="707" 
d="M658 210c0 -115 -82 -189 -233 -206v-135h-151v131h-188v760h188v126h151v-130c147 -19 213 -101 213 -194c0 -106 -85 -160 -182 -175c109 -8 202 -66 202 -177zM480 540c0 60 -48 97 -120 97h-118v-192h118c72 0 120 35 120 95zM242 123h115c90 0 143 42 143 105
c0 64 -53 104 -143 104h-115v-209z" />
    <glyph glyph-name="uni20BF" unicode="&#x20bf;" horiz-adv-x="705" 
d="M657 210c0 -95 -56 -162 -161 -192v-149h-133v131h-11h-41v-131h-133v131h-92v760h92v126h133v-126h44h8v126h133v-146c98 -33 142 -101 142 -178c0 -106 -86 -160 -183 -175c109 -8 202 -66 202 -177zM360 637h-118v-192h118c72 0 120 35 120 95s-48 97 -120 97z
M242 123h115c89 0 142 42 142 105c0 64 -53 104 -142 104h-115v-209z" />
    <glyph glyph-name="cent" unicode="&#xa2;" horiz-adv-x="646" 
d="M451 193h154c-21 -108 -97 -176 -198 -198v-126h-148v127c-125 30 -205 132 -205 276c0 143 81 245 205 274v124h148v-122c105 -23 175 -95 193 -200h-154c-12 57 -48 103 -111 103c-81 0 -125 -69 -125 -179c0 -114 46 -180 125 -180c63 0 99 38 116 101z" />
    <glyph glyph-name="currency" unicode="&#xa4;" horiz-adv-x="666" 
d="M581 372c0 -46 -12 -89 -34 -126l68 -68l-91 -90l-68 68c-37 -21 -78 -33 -123 -33c-44 0 -86 12 -122 33l-68 -68l-92 90l68 68c-22 37 -35 80 -35 126s13 89 35 126l-68 67l92 90l68 -67c36 20 78 32 122 32s86 -12 122 -32l69 67l91 -90l-68 -68
c22 -36 34 -79 34 -125zM205 372c0 -74 58 -128 128 -128c71 0 127 54 127 128s-56 128 -127 128c-70 0 -128 -54 -128 -128z" />
    <glyph glyph-name="dollar" unicode="$" horiz-adv-x="684" 
d="M641 225c0 -121 -86 -208 -223 -231v-125h-151v126c-124 25 -211 114 -226 239h159c10 -81 67 -130 148 -130c88 0 138 40 138 106c0 54 -41 81 -131 105l-98 26c-116 31 -202 87 -202 209c0 113 87 195 212 216v120h151v-122c122 -23 195 -100 213 -207h-159
c-15 64 -65 99 -138 99c-76 0 -125 -39 -125 -90c0 -54 51 -70 138 -94l99 -27c125 -35 195 -100 195 -220z" />
    <glyph glyph-name="Euro" unicode="&#x20ac;" horiz-adv-x="830" 
d="M625 215h158c-47 -143 -157 -227 -301 -227c-157 0 -280 103 -320 268h-123l34 95h75c-1 10 -1 19 -1 29s0 19 1 29h-97l34 95h76c41 165 163 268 317 268c145 0 256 -87 303 -225h-159c-27 66 -77 109 -144 109c-78 0 -133 -56 -157 -152h288l-34 -95h-267
c-1 -9 -1 -19 -1 -29s0 -20 1 -29h247l-34 -95h-200c25 -96 82 -152 161 -152c64 0 115 42 143 111z" />
    <glyph glyph-name="florin" unicode="&#x192;" horiz-adv-x="591" 
d="M558 635h-63c-59 0 -88 -29 -97 -89l-11 -72h138v-125h-157l-24 -157c-20 -132 -94 -192 -225 -192h-89v125h63c59 0 88 29 97 89l21 135h-122v125h141l14 94c20 132 94 192 225 192h89v-125z" />
    <glyph glyph-name="uni20BA" unicode="&#x20ba;" horiz-adv-x="716" 
d="M524 316h156c0 -224 -117 -316 -326 -316h-217v260l-79 -24v113l79 24v62l-79 -24v114l79 24v211h156v-164l197 60v-113l-197 -60v-63l197 60v-112l-197 -60v-183h50c127 0 181 59 181 191z" />
    <glyph glyph-name="uni20BD" unicode="&#x20bd;" horiz-adv-x="751" 
d="M393 305h-92v-61h184v-112h-184v-132h-156v132h-89v112h89v61h-89v112h89v343h248c200 0 318 -76 318 -229s-118 -226 -318 -226zM399 635h-98v-218h98c96 0 152 34 152 109s-56 109 -152 109z" />
    <glyph glyph-name="uni20B9" unicode="&#x20b9;" horiz-adv-x="698" 
d="M662 760v-112h-150c14 -22 24 -48 29 -77h121v-112h-130c-35 -100 -142 -151 -276 -151h-15l367 -308h-227l-321 276v157h196c79 0 128 38 128 101s-49 101 -128 101h-196v125h602z" />
    <glyph glyph-name="sterling" unicode="&#xa3;" horiz-adv-x="641" 
d="M162 125h442v-125h-546v156c92 48 143 89 143 156v4h-154v112h97c-39 39 -74 82 -74 149c0 119 117 195 264 195c155 0 253 -79 265 -198h-159c-8 53 -46 82 -104 82s-107 -36 -107 -95c0 -41 23 -72 59 -109c8 -8 15 -16 22 -24h213v-112h-172
c-2 -85 -77 -142 -189 -191z" />
    <glyph glyph-name="uni20B8" unicode="&#x20b8;" horiz-adv-x="646" 
d="M31 648v112h584v-112h-584zM245 475h-214v112h584v-112h-214v-475h-156v475z" />
    <glyph glyph-name="uni20A9" unicode="&#x20a9;" horiz-adv-x="1010" 
d="M970 529v-112h-114l-8 -81h99v-112h-110l-22 -224h-239l-69 744l-70 -744h-239l-22 224h-113v112h102l-8 81h-116v112h105l-23 231h127l71 -739l72 739h227l72 -744l71 744h127l-23 -231h103z" />
    <glyph glyph-name="yen" unicode="&#xa5;" horiz-adv-x="767" 
d="M566 760h175l-221 -340h147v-112h-205v-61h205v-112h-205v-135h-156v135h-207v112h207v61h-207v112h148l-221 340h176l182 -309z" />
    <glyph glyph-name="uni0E3F.tf" 
d="M669 210c0 -115 -82 -189 -233 -206v-135h-150v131h-189v760h189v126h150v-130c148 -19 214 -100 214 -194c0 -106 -86 -160 -183 -175c109 -8 202 -66 202 -177zM491 540c0 60 -48 97 -119 97h-118v-192h118c71 0 119 35 119 95zM254 123h115c89 0 142 42 142 105
c0 64 -53 104 -142 104h-115v-209z" />
    <glyph glyph-name="uni20BF.tf" 
d="M669 210c0 -95 -57 -162 -162 -192v-149h-132v131h-11h-42v-131h-132v131h-93v760h93v126h132v-126h45h8v126h132v-146c98 -32 143 -101 143 -178c0 -106 -86 -160 -183 -175c109 -8 202 -66 202 -177zM372 637h-118v-192h118c71 0 119 35 119 95s-48 97 -119 97z
M254 123h115c89 0 142 42 142 105c0 64 -53 104 -142 104h-115v-209z" />
    <glyph glyph-name="cent.tf" 
d="M500 193h154c-21 -109 -96 -177 -198 -198v-126h-148v127c-125 30 -205 132 -205 276c0 143 81 245 205 274v124h148v-122c105 -23 175 -95 193 -200h-154c-12 57 -48 103 -111 103c-80 0 -125 -69 -125 -179c0 -114 46 -180 125 -180c63 0 99 38 116 101z" />
    <glyph glyph-name="currency.tf" 
d="M623 372c0 -46 -13 -89 -34 -126l68 -68l-91 -90l-69 68c-36 -21 -78 -33 -122 -33s-86 12 -122 33l-68 -68l-92 90l68 68c-22 37 -35 80 -35 126s13 89 35 126l-68 67l92 90l68 -67c36 20 78 32 122 32s86 -12 122 -33l69 68l91 -90l-68 -68c21 -37 34 -79 34 -125z
M247 372c0 -74 58 -128 128 -128c71 0 127 54 127 128s-56 128 -127 128c-70 0 -128 -54 -128 -128z" />
    <glyph glyph-name="dollar.tf" 
d="M674 225c0 -121 -86 -208 -223 -231v-125h-151v126c-124 25 -211 114 -225 239h158c11 -81 67 -130 148 -130c88 0 138 40 138 106c0 54 -41 81 -131 105l-98 26c-116 31 -202 87 -202 209c0 113 87 195 212 216v120h151v-121c122 -24 196 -101 213 -208h-159
c-15 64 -65 99 -138 99c-76 0 -124 -39 -124 -90c0 -54 50 -70 137 -94l99 -27c125 -35 195 -100 195 -220z" />
    <glyph glyph-name="Euro.tf" 
d="M565 215h156c-38 -137 -136 -227 -280 -227s-261 103 -299 268h-117l34 95h70c-1 10 -1 19 -1 29s0 19 1 29h-92l34 95h71c38 165 153 268 297 268c149 0 243 -93 279 -225h-156c-22 67 -67 109 -123 109c-68 0 -117 -56 -139 -152h260l-34 -95h-238c-1 -9 -1 -19 -1 -29
s0 -20 1 -29h218l-34 -95h-172c22 -96 73 -152 141 -152c57 0 101 44 124 111z" />
    <glyph glyph-name="florin.tf" 
d="M637 635h-63c-59 0 -87 -29 -97 -89l-11 -72h138v-125h-156l-24 -157c-20 -132 -95 -192 -226 -192h-89v125h64c59 0 88 29 96 89l21 135h-121v125h140l14 94c20 132 94 192 226 192h88v-125z" />
    <glyph glyph-name="uni20BA.tf" 
d="M535 316h156c0 -224 -117 -316 -325 -316h-217v260l-80 -24v113l80 24v62l-80 -24v114l80 24v211h156v-163l196 59v-113l-196 -60v-62l196 59v-112l-196 -60v-183h50c127 0 180 59 180 191z" />
    <glyph glyph-name="uni20BD.tf" 
d="M389 305h-92v-61h184v-112h-184v-132h-156v132h-90v112h90v61h-90v112h90v343h248c200 0 317 -76 317 -229s-117 -226 -317 -226zM395 635h-98v-218h98c96 0 152 34 152 109s-56 109 -152 109z" />
    <glyph glyph-name="uni20B9.tf" 
d="M680 760v-112h-150c14 -22 24 -48 29 -77h121v-112h-130c-35 -100 -142 -151 -277 -151h-15l368 -308h-227l-321 276v157h196c78 0 128 38 128 101s-50 101 -128 101h-196v125h602z" />
    <glyph glyph-name="sterling.tf" 
d="M214 125h442v-125h-546v156c92 48 143 89 143 156v4h-154v112h97c-39 39 -74 82 -74 149c0 119 117 195 264 195c156 0 253 -79 265 -198h-158c-9 53 -47 82 -104 82c-59 0 -107 -36 -107 -95c0 -41 23 -72 58 -109c8 -8 15 -16 22 -24h213v-112h-172
c-2 -85 -77 -142 -189 -191z" />
    <glyph glyph-name="uni20B8.tf" 
d="M83 648v112h584v-112h-584zM297 475h-214v112h584v-112h-214v-475h-156v475z" />
    <glyph glyph-name="uni20A9.tf" 
d="M719 530v-115h-85l-4 -78h73v-115h-79l-12 -222h-200l-38 580l-38 -580h-200l-12 222h-77v115h71l-4 78h-83v115h76l-12 230h109l38 -736l42 571h180l42 -571l39 736h108l-12 -230h78z" />
    <glyph glyph-name="yen.tf" 
d="M524 760h174l-197 -340h134v-112h-181v-61h181v-112h-181v-135h-157v135h-181v112h181v61h-181v112h132l-197 340h174l150 -306z" />
    <glyph glyph-name="uni208C" unicode="&#x208c;" horiz-adv-x="332" 
d="M298 90h-264v75h264v-75zM298 -22h-264v75h264v-75z" />
    <glyph glyph-name="uni207C" unicode="&#x207c;" horiz-adv-x="332" 
d="M298 689h-264v75h264v-75zM298 577h-264v75h264v-75z" />
    <glyph glyph-name="uni208B" unicode="&#x208b;" horiz-adv-x="312" 
d="M279 34h-245v75h245v-75z" />
    <glyph glyph-name="uni207B" unicode="&#x207b;" horiz-adv-x="312" 
d="M279 633h-245v75h245v-75z" />
    <glyph glyph-name="plus" unicode="+" horiz-adv-x="628" 
d="M374 331h212v-115h-212v-216h-120v216h-211v115h211v212h120v-212z" />
    <glyph glyph-name="minus" unicode="&#x2212;" horiz-adv-x="584" 
d="M535 216h-486v115h486v-115z" />
    <glyph glyph-name="multiply" unicode="&#xd7;" horiz-adv-x="585" 
d="M466 525l79 -79l-173 -173l173 -174l-79 -79l-173 173l-173 -173l-80 79l174 174l-174 173l80 79l173 -173z" />
    <glyph glyph-name="divide" unicode="&#xf7;" horiz-adv-x="645" 
d="M393 406h-141v137h141v-137zM594 216h-543v115h543v-115zM393 0h-141v137h141v-137z" />
    <glyph glyph-name="equal" unicode="=" horiz-adv-x="641" 
d="M578 325h-515v116h515v-116zM578 109h-515v116h515v-116z" />
    <glyph glyph-name="notequal" unicode="&#x2260;" horiz-adv-x="641" 
d="M578 441v-116h-155l-57 -100h212v-116h-278l-62 -109h-144l62 109h-93v116h159l57 100h-216v116h282l58 102h144l-58 -102h89z" />
    <glyph glyph-name="greater" unicode="&#x3e;" horiz-adv-x="592" 
d="M57 401v123l486 -155v-192l-486 -155v122l412 129z" />
    <glyph glyph-name="less" unicode="&#x3c;" horiz-adv-x="592" 
d="M49 369l486 155v-123l-412 -128l412 -129v-122l-486 155v192z" />
    <glyph glyph-name="greaterequal" unicode="&#x2265;" horiz-adv-x="596" 
d="M59 433v111l482 -108v-176l-482 -108v110l408 86zM541 0h-482v112h482v-112z" />
    <glyph glyph-name="lessequal" unicode="&#x2264;" horiz-adv-x="596" 
d="M55 436l483 108v-111l-408 -85l408 -86v-110l-483 108v176zM538 0h-483v112h483v-112z" />
    <glyph glyph-name="plusminus" unicode="&#xb1;" horiz-adv-x="651" 
d="M385 543v-135h212v-112h-212v-140h-119v140h-212v112h212v135h119zM597 0h-543v112h543v-112z" />
    <glyph glyph-name="approxequal" unicode="&#x2248;" horiz-adv-x="695" 
d="M125 294l-73 74c48 69 108 110 173 110c38 0 64 -5 121 -29c44 -18 78 -30 114 -30c47 0 78 27 109 62l73 -74c-47 -68 -108 -111 -173 -111c-38 0 -64 6 -121 29c-44 18 -78 31 -114 31c-46 0 -79 -27 -109 -62zM125 70l-73 74c48 69 108 110 173 110
c38 0 64 -5 121 -29c44 -18 78 -30 114 -30c47 0 78 27 109 62l73 -74c-47 -68 -108 -110 -173 -110c-38 0 -64 5 -121 29c-44 18 -78 30 -114 30c-46 0 -79 -27 -109 -62z" />
    <glyph glyph-name="asciitilde" unicode="~" horiz-adv-x="677" 
d="M116 195l-73 74c48 69 108 111 173 111c38 0 64 -6 121 -29c43 -18 78 -31 114 -31c46 0 78 27 109 62l73 -74c-47 -68 -108 -110 -173 -110c-38 0 -64 5 -121 29c-44 18 -78 30 -114 30c-46 0 -79 -26 -109 -62z" />
    <glyph glyph-name="logicalnot" unicode="&#xac;" horiz-adv-x="603" 
d="M538 104h-119v221h-378v116h497v-337z" />
    <glyph glyph-name="asciicircum" unicode="^" horiz-adv-x="576" 
d="M397 760l146 -395h-146l-109 333l-110 -333h-145l146 395h218z" />
    <glyph glyph-name="infinity" unicode="&#x221e;" horiz-adv-x="1137" 
d="M825 532c142 0 262 -107 262 -258c0 -152 -120 -259 -262 -259c-115 0 -196 65 -257 148c-60 -83 -141 -148 -257 -148c-141 0 -261 107 -261 259c0 151 120 258 261 258c118 0 198 -68 258 -150c59 82 139 150 256 150zM318 135c66 0 119 55 158 112l18 26l-19 27
c-38 56 -90 112 -157 112c-73 0 -131 -52 -131 -138c0 -87 58 -139 131 -139zM819 135c73 0 131 52 131 139c0 86 -58 138 -131 138c-67 0 -119 -56 -157 -112l-19 -27l18 -26c39 -57 92 -112 158 -112z" />
    <glyph glyph-name="integral" unicode="&#x222b;" horiz-adv-x="423" 
d="M68 -196h-72v112h51c61 0 88 25 88 93v559c0 141 78 192 219 192h72v-112h-51c-61 0 -87 -25 -87 -93v-559c0 -141 -79 -192 -220 -192z" />
    <glyph glyph-name="product" unicode="&#x220f;" horiz-adv-x="939" 
d="M913 760v-132h-138v-763h-158v763h-296v-763h-158v763h-138v132h888z" />
    <glyph glyph-name="summation" unicode="&#x2211;" horiz-adv-x="684" 
d="M538 323l-319 -326h432v-132h-609v171l282 285l-282 268v171h604v-132h-427z" />
    <glyph glyph-name="radical" unicode="&#x221a;" horiz-adv-x="713" 
d="M346 -25l211 785h159l-243 -895h-251l-101 328h-116v132h237z" />
    <glyph glyph-name="uni00B5" unicode="&#xb5;" horiz-adv-x="692" 
d="M638 112h24v-112h-54c-101 0 -159 20 -180 88c-2 6 -4 13 -4 20c-24 -65 -76 -120 -171 -120c-9 0 -18 1 -27 3v-187h-153v739h153v-310v-2c0 -93 36 -135 98 -135c65 0 97 45 97 138v309h153v-377v-2c0 -42 19 -52 64 -52z" />
    <glyph glyph-name="partialdiff" unicode="&#x2202;" horiz-adv-x="619" 
d="M136 659v112c302 -33 441 -207 441 -447c0 -218 -93 -336 -282 -336c-144 0 -273 89 -273 254s111 245 240 245c108 0 170 -66 196 -126c-7 150 -105 276 -322 298zM298 92c71 0 118 60 118 152c0 88 -47 139 -118 139c-72 0 -120 -52 -120 -141c0 -92 48 -150 120 -150z
" />
    <glyph glyph-name="percent" unicode="%" horiz-adv-x="961" 
d="M212 341c-114 0 -183 75 -183 215c0 141 69 216 183 216s182 -75 182 -216c0 -140 -68 -215 -182 -215zM333 0h-138l433 760h138zM212 426c45 0 68 39 68 130s-23 132 -68 132c-46 0 -68 -41 -68 -132s22 -130 68 -130zM750 -12c-114 0 -183 74 -183 215s69 216 183 216
s182 -75 182 -216s-68 -215 -182 -215zM750 72c45 0 68 40 68 131s-23 131 -68 131c-46 0 -68 -40 -68 -131s22 -131 68 -131z" />
    <glyph glyph-name="perthousand" unicode="&#x2030;" horiz-adv-x="1212" 
d="M394 556c0 -140 -68 -215 -182 -215s-183 75 -183 215c0 141 69 216 183 216s182 -75 182 -216zM195 0l433 760h138l-433 -760h-138zM144 556c0 -91 22 -130 68 -130c45 0 68 39 68 130s-23 132 -68 132c-46 0 -68 -41 -68 -132zM1000 419c114 0 182 -75 182 -216
s-68 -215 -182 -215c-52 0 -95 22 -125 61c-30 -39 -73 -61 -125 -61c-114 0 -183 74 -183 215s69 216 183 216c52 0 95 -23 125 -61c30 38 73 61 125 61zM750 72c45 0 68 40 68 131s-23 131 -68 131c-46 0 -68 -40 -68 -131s22 -131 68 -131zM1000 72c45 0 68 40 68 131
s-23 131 -68 131s-68 -40 -68 -131s23 -131 68 -131z" />
    <glyph glyph-name="uni208A" unicode="&#x208a;" horiz-adv-x="328" 
d="M202 109h99v-75h-99v-101h-76v101h-99v75h99v99h76v-99z" />
    <glyph glyph-name="uni207A" unicode="&#x207a;" horiz-adv-x="328" 
d="M202 708h99v-75h-99v-101h-76v101h-99v75h99v99h76v-99z" />
    <glyph glyph-name="plus.case" horiz-adv-x="632" 
d="M376 434h212v-115h-212v-216h-120v216h-211v115h211v212h120v-212z" />
    <glyph glyph-name="minus.case" horiz-adv-x="584" 
d="M535 319h-486v115h486v-115z" />
    <glyph glyph-name="multiply.case" horiz-adv-x="599" 
d="M472 628l80 -79l-173 -173l173 -173l-80 -80l-172 173l-173 -173l-80 80l173 173l-173 173l80 79l173 -172z" />
    <glyph glyph-name="divide.case" horiz-adv-x="648" 
d="M395 509h-142v137h142v-137zM595 319h-543v115h543v-115zM395 103h-142v138h142v-138z" />
    <glyph glyph-name="equal.case" horiz-adv-x="635" 
d="M575 428h-515v116h515v-116zM575 212h-515v116h515v-116z" />
    <glyph glyph-name="notequal.case" horiz-adv-x="635" 
d="M577 544v-116h-154l-57 -100h211v-116h-277l-62 -109h-144l62 109h-93v116h159l57 100h-216v116h282l58 102h144l-58 -102h88z" />
    <glyph glyph-name="greater.case" horiz-adv-x="608" 
d="M71 505v122l486 -155v-192l-486 -154v121l414 129z" />
    <glyph glyph-name="less.case" horiz-adv-x="608" 
d="M51 472l486 155v-122l-414 -129l414 -129v-121l-486 154v192z" />
    <glyph glyph-name="greaterequal.case" horiz-adv-x="618" 
d="M71 537v110l482 -108v-175l-482 -108v109l408 86zM553 103h-482v112h482v-112z" />
    <glyph glyph-name="lessequal.case" horiz-adv-x="618" 
d="M65 539l482 108v-110l-408 -86l408 -86v-109l-482 108v175zM547 103h-482v112h482v-112z" />
    <glyph glyph-name="plusminus.case" horiz-adv-x="671" 
d="M395 646v-135h212v-111h-212v-140h-119v140h-212v111h212v135h119zM607 103h-543v112h543v-112z" />
    <glyph glyph-name="approxequal.case" horiz-adv-x="693" 
d="M125 397l-72 74c47 69 107 111 173 111c37 0 64 -6 121 -29c43 -18 77 -31 113 -31c47 0 79 27 110 62l72 -74c-46 -68 -107 -110 -173 -110c-38 0 -64 5 -121 29c-43 18 -78 30 -114 30c-46 0 -78 -26 -109 -62zM125 173l-72 74c47 69 107 111 173 111
c37 0 64 -6 121 -29c43 -18 77 -31 113 -31c47 0 79 27 110 62l72 -74c-46 -67 -107 -110 -173 -110c-38 0 -64 5 -121 29c-43 18 -78 30 -114 30c-46 0 -78 -26 -109 -62z" />
    <glyph glyph-name="logicalnot.case" horiz-adv-x="591" 
d="M526 207h-119v222h-379v115h498v-337z" />
    <glyph glyph-name="asciitilde.case" horiz-adv-x="679" 
d="M118 299l-72 73c47 70 107 111 173 111c37 0 64 -5 121 -29c43 -18 77 -30 113 -30c47 0 79 27 110 61l72 -73c-46 -68 -107 -111 -173 -111c-38 0 -64 5 -121 29c-43 18 -78 30 -114 30c-46 0 -78 -26 -109 -61z" />
    <glyph glyph-name="plus.tf" 
d="M435 434h211v-115h-211v-216h-120v216h-212v115h212v212h120v-212z" />
    <glyph glyph-name="minus.tf" 
d="M618 319h-486v115h486v-115z" />
    <glyph glyph-name="multiply.tf" 
d="M548 628l80 -79l-173 -173l173 -173l-80 -80l-173 173l-173 -173l-80 80l173 173l-173 173l80 79l173 -173z" />
    <glyph glyph-name="divide.tf" 
d="M446 509h-142v137h142v-137zM647 319h-543v115h543v-115zM446 103h-142v138h142v-138z" />
    <glyph glyph-name="equal.tf" 
d="M632 428h-514v116h514v-116zM632 212h-514v116h514v-116z" />
    <glyph glyph-name="notequal.tf" 
d="M635 544v-116h-155l-57 -100h212v-116h-278l-62 -109h-144l62 109h-92v116h158l58 100h-216v116h282l58 102h143l-58 -102h89z" />
    <glyph glyph-name="greater.tf" 
d="M142 505v122l486 -155v-192l-486 -154v121l414 129z" />
    <glyph glyph-name="less.tf" 
d="M122 472l486 155v-122l-414 -129l414 -129v-121l-486 154v192z" />
    <glyph glyph-name="greaterequal.tf" 
d="M138 537v110l482 -108v-175l-482 -108v109l408 86zM620 103h-482v112h482v-112z" />
    <glyph glyph-name="lessequal.tf" 
d="M130 539l482 108v-110l-408 -86l408 -86v-109l-482 108v175zM612 103h-482v112h482v-112z" />
    <glyph glyph-name="plusminus.tf" 
d="M435 646v-135h211v-111h-211v-140h-120v140h-212v111h212v135h120zM646 103h-543v112h543v-112z" />
    <glyph glyph-name="approxequal.tf" 
d="M154 397l-73 74c48 69 108 111 173 111c38 0 64 -6 121 -29c44 -18 78 -31 114 -31c47 0 78 27 109 62l73 -74c-47 -68 -108 -110 -173 -110c-38 0 -64 5 -121 29c-44 18 -78 30 -114 30c-46 0 -79 -26 -109 -62zM154 173l-73 74c48 69 108 111 173 111
c38 0 64 -6 121 -29c44 -18 78 -31 114 -31c47 0 78 27 109 62l73 -74c-47 -67 -108 -110 -173 -110c-38 0 -64 5 -121 29c-44 18 -78 30 -114 30c-46 0 -79 -26 -109 -62z" />
    <glyph glyph-name="asciitilde.tf" 
d="M153 299l-72 73c47 70 107 111 173 111c37 0 64 -5 121 -29c43 -18 77 -30 113 -30c47 0 79 27 110 61l72 -73c-46 -68 -107 -111 -173 -111c-38 0 -64 5 -121 29c-44 18 -78 30 -114 30c-46 0 -78 -26 -109 -61z" />
    <glyph glyph-name="logicalnot.tf" 
d="M606 207h-120v222h-378v115h498v-337z" />
    <glyph glyph-name="percent.tf" 
d="M203 460c-85 0 -137 55 -137 156c0 102 52 156 137 156c86 0 137 -54 137 -156c0 -101 -51 -156 -137 -156zM171 0h-113l522 760h112zM203 532c27 0 38 26 38 84c0 59 -11 84 -38 84c-26 0 -38 -25 -38 -84c0 -58 12 -84 38 -84zM547 -12c-85 0 -137 54 -137 156
c0 101 52 156 137 156c86 0 137 -55 137 -156c0 -102 -51 -156 -137 -156zM547 60c27 0 38 25 38 84c0 58 -11 84 -38 84c-26 0 -38 -26 -38 -84c0 -59 12 -84 38 -84z" />
    <glyph glyph-name="perthousand.tf" 
d="M195 460c-85 0 -137 55 -137 156c0 102 52 156 137 156s137 -54 137 -156c0 -101 -52 -156 -137 -156zM-8 0l522 760h112l-521 -760h-113zM195 700c-27 0 -38 -25 -38 -84c0 -58 11 -84 38 -84s38 26 38 84c0 59 -11 84 -38 84zM599 300c85 0 136 -55 136 -156
c0 -102 -51 -156 -136 -156c-35 0 -65 14 -88 37c-23 -23 -53 -37 -87 -37c-86 0 -138 54 -138 156c0 101 52 156 138 156c34 0 64 -14 87 -38c23 24 53 38 88 38zM424 60c26 0 37 25 37 84c0 58 -11 84 -37 84c-27 0 -39 -26 -39 -84c0 -59 12 -84 39 -84zM599 60
c26 0 37 25 37 84c0 58 -11 84 -37 84c-27 0 -39 -26 -39 -84c0 -59 12 -84 39 -84z" />
    <glyph glyph-name="arrowup" unicode="&#x2191;" horiz-adv-x="770" 
d="M385 717l282 -230v-176l-214 199v-466h-136v466l-214 -199v176z" />
    <glyph glyph-name="uni2197" unicode="&#x2197;" horiz-adv-x="770" 
d="M112 517l119 124h406v-406l-124 -119v305l-347 -346l-95 95l347 347h-306z" />
    <glyph glyph-name="arrowright" unicode="&#x2192;" horiz-adv-x="770" 
d="M307 662h175l230 -282l-230 -281h-175l198 213h-466v136h467z" />
    <glyph glyph-name="uni2198" unicode="&#x2198;" horiz-adv-x="770" 
d="M513 339v305l124 -119v-406h-406l-119 124h306l-347 347l95 95z" />
    <glyph glyph-name="arrowdown" unicode="&#x2193;" horiz-adv-x="770" 
d="M453 717v-467l214 199v-175l-282 -231l-282 231v175l214 -199v467h136z" />
    <glyph glyph-name="uni2199" unicode="&#x2199;" horiz-adv-x="770" 
d="M604 685l95 -95l-347 -347h306l-119 -124h-406v406l124 119v-306z" />
    <glyph glyph-name="arrowleft" unicode="&#x2190;" horiz-adv-x="770" 
d="M264 448h467v-136h-466l198 -213h-175l-230 281l230 282h175z" />
    <glyph glyph-name="uni2196" unicode="&#x2196;" horiz-adv-x="770" 
d="M352 517l347 -347l-95 -95l-347 347v-306l-124 119v406h406l119 -124h-306z" />
    <glyph glyph-name="uni21A4" unicode="&#x21a4;" horiz-adv-x="770" 
d="M567 448v214h137v-564h-137v214h-349l199 -214h-175l-230 282l230 282h175l-199 -214h349z" />
    <glyph glyph-name="uni21A5" unicode="&#x21a5;" horiz-adv-x="770" 
d="M667 542v-175l-214 199v-373h214v-137h-564v137h214v373l-214 -199v175l282 231z" />
    <glyph glyph-name="uni21A6" unicode="&#x21a6;" horiz-adv-x="770" 
d="M353 662h175l230 -282l-230 -282h-175l199 214h-349v-214h-137v564h137v-214h349z" />
    <glyph glyph-name="uni21A7" unicode="&#x21a7;" horiz-adv-x="770" 
d="M667 704v-137h-214v-373l214 199v-175l-282 -231l-282 231v175l214 -199v373h-214v137h564z" />
    <glyph glyph-name="uni21B0" unicode="&#x21b0;" horiz-adv-x="770" 
d="M215 448h476v-448h-135v312h-341l199 -214h-175l-231 282l231 282h175z" />
    <glyph glyph-name="uni21B1" unicode="&#x21b1;" horiz-adv-x="770" 
d="M356 662h175l231 -282l-231 -282h-175l199 214h-340v-312h-136v448h476z" />
    <glyph glyph-name="uni21B2" unicode="&#x21b2;" horiz-adv-x="770" 
d="M556 448v312h135v-448h-476l199 -214h-175l-231 282l231 282h175l-199 -214h341z" />
    <glyph glyph-name="uni21B3" unicode="&#x21b3;" horiz-adv-x="770" 
d="M356 662h175l231 -282l-231 -282h-175l199 214h-476v448h136v-312h340z" />
    <glyph glyph-name="uni25CF" unicode="&#x25cf;" horiz-adv-x="677" 
d="M338 -18c-160 0 -290 129 -290 290c0 160 130 289 290 289c161 0 291 -129 291 -289c0 -161 -130 -290 -291 -290z" />
    <glyph glyph-name="circle" unicode="&#x25cb;" horiz-adv-x="677" 
d="M338 -18c-160 0 -290 129 -290 290c0 160 130 289 290 289c161 0 291 -129 291 -289c0 -161 -130 -290 -291 -290zM338 107c92 0 166 74 166 165s-74 164 -166 164c-91 0 -165 -73 -165 -164s74 -165 165 -165z" />
    <glyph glyph-name="lozenge" unicode="&#x25ca;" horiz-adv-x="701" 
d="M255 760h192l211 -380l-211 -380h-192l-212 380zM182 380l169 -301l168 300l-168 302z" />
    <glyph glyph-name="filledbox" unicode="&#x25a0;" horiz-adv-x="688" 
d="M616 0h-543v543h543v-543z" />
    <glyph glyph-name="uni25A1" unicode="&#x25a1;" horiz-adv-x="688" 
d="M616 0h-543v543h543v-543zM193 423v-303h302v303h-302z" />
    <glyph glyph-name="at" unicode="@" horiz-adv-x="956" 
d="M475 674c244 0 442 -197 442 -441c0 -180 -102 -231 -193 -231c-82 0 -136 40 -159 95c-23 -46 -71 -95 -155 -95c-87 0 -162 57 -162 148c0 98 87 129 193 140l116 12v13v2c0 51 -35 77 -82 77s-76 -26 -82 -65h-128c12 98 99 150 210 150c135 0 208 -67 208 -172v-2
v-133v-2c0 -44 23 -71 60 -71c44 0 76 30 76 134c0 189 -155 344 -344 344c-190 0 -343 -155 -343 -344s152 -343 343 -343c60 0 119 15 167 41l50 -82c-64 -36 -138 -57 -217 -57c-243 0 -441 197 -441 441s198 441 441 441zM454 85c61 0 103 49 103 117v22l-70 -7
c-63 -7 -110 -21 -110 -69c0 -41 35 -63 77 -63z" />
    <glyph glyph-name="ampersand" unicode="&#x26;" horiz-adv-x="783" 
d="M625 174l154 -174h-180l-63 72c-64 -53 -141 -84 -226 -84c-165 0 -278 77 -278 219c0 115 80 182 179 233c-53 61 -85 103 -85 160c0 92 90 172 230 172s224 -80 224 -170c0 -80 -64 -130 -167 -181l-5 -2l137 -155l85 143h135l-125 -210c-5 -8 -10 -16 -15 -23z
M355 668c-40 0 -76 -24 -76 -70c0 -32 22 -58 54 -94l2 -2c55 28 93 55 93 98c0 45 -33 68 -73 68zM322 92c60 0 107 25 143 60l-179 204c-63 -38 -98 -78 -98 -139c0 -79 56 -125 134 -125z" />
    <glyph glyph-name="paragraph" unicode="&#xb6;" horiz-adv-x="733" 
d="M382 -93h-140v422c-121 0 -215 96 -215 216s94 215 215 215h402v-853h-140v735h-122v-735z" />
    <glyph glyph-name="section" unicode="&#xa7;" horiz-adv-x="634" 
d="M505 169c33 -28 51 -62 51 -105c0 -95 -89 -168 -236 -168c-149 0 -244 74 -259 174h158c9 -45 51 -72 100 -72c52 0 83 25 83 57c0 34 -33 53 -86 78l-152 70c-93 44 -127 92 -127 156c0 57 33 99 91 140c-32 28 -50 62 -50 105c0 95 89 168 235 168
c150 0 244 -73 260 -174h-159c-9 45 -51 72 -100 72c-52 0 -82 -25 -82 -57c0 -34 32 -53 85 -78l152 -70c94 -44 127 -92 127 -156c0 -57 -32 -99 -91 -140zM264 293l143 -66c23 19 35 40 35 63c0 35 -17 59 -73 85l-143 66c-23 -19 -35 -40 -35 -62c0 -36 18 -60 73 -86z
" />
    <glyph glyph-name="copyright" unicode="&#xa9;" horiz-adv-x="923" 
d="M461 -31c-227 0 -411 185 -411 411s184 411 411 411s411 -185 411 -411s-184 -411 -411 -411zM461 59c178 0 321 143 321 321s-143 322 -321 322s-320 -144 -320 -322s142 -321 320 -321zM466 149c-130 0 -226 89 -226 231c0 141 95 231 224 231c102 0 194 -58 214 -167
h-126c-13 46 -42 71 -88 71c-57 0 -98 -44 -98 -135c0 -90 42 -135 100 -135c41 0 77 20 88 71h126c-21 -108 -109 -167 -214 -167z" />
    <glyph glyph-name="registered" unicode="&#xae;" horiz-adv-x="923" 
d="M461 791c227 0 411 -185 411 -411s-184 -411 -411 -411s-411 185 -411 411s184 411 411 411zM461 59c178 0 321 143 321 321s-143 322 -321 322s-320 -144 -320 -322s142 -321 320 -321zM660 459c0 -60 -32 -106 -89 -128l99 -179h-127l-83 162h-58v-162h-112v452h185
c115 0 185 -56 185 -145zM473 513h-71v-108h71c44 0 71 19 71 54s-27 54 -71 54z" />
    <glyph glyph-name="uni2117" unicode="&#x2117;" horiz-adv-x="923" 
d="M461 791c227 0 411 -185 411 -411s-184 -411 -411 -411s-411 185 -411 411s184 411 411 411zM461 59c178 0 321 143 321 321s-143 322 -321 322s-320 -144 -320 -322s142 -321 320 -321zM305 604h186c120 0 188 -62 188 -151s-68 -152 -188 -152h-74v-149h-112v452z
M417 393h68c51 0 78 22 78 60s-27 60 -78 60h-68v-120z" />
    <glyph glyph-name="trademark" unicode="&#x2122;" horiz-adv-x="896" 
d="M139 677h-110v83h320v-83h-110v-290h-100v290zM826 760v-373h-93v349l-58 -349h-153l-58 343v-343h-93v373h174l53 -335l52 335h176z" />
    <glyph glyph-name="degree" unicode="&#xb0;" horiz-adv-x="425" 
d="M213 410c-100 0 -182 81 -182 181s82 181 182 181s181 -81 181 -181s-81 -181 -181 -181zM213 517c41 0 74 33 74 74s-33 75 -74 75c-42 0 -75 -34 -75 -75s33 -74 75 -74z" />
    <glyph glyph-name="minute" unicode="&#x2032;" horiz-adv-x="263" 
d="M162 469h-118l37 291h161z" />
    <glyph glyph-name="second" unicode="&#x2033;" horiz-adv-x="468" 
d="M162 469h-118l37 291h161zM367 469h-118l37 291h160z" />
    <glyph glyph-name="uni2300" unicode="&#x2300;" horiz-adv-x="663" 
d="M555 570l74 -72l-64 -64c32 -46 51 -102 51 -162c0 -157 -128 -285 -285 -285c-59 0 -114 18 -160 50l-64 -65l-74 73l65 65c-32 46 -51 102 -51 162c0 157 128 283 284 283c59 0 115 -18 160 -49zM166 272c0 -27 7 -52 18 -75l221 222c-22 12 -47 18 -74 18
c-90 0 -165 -75 -165 -165zM497 272c0 27 -7 52 -18 75l-221 -223c22 -12 47 -18 73 -18c91 0 166 75 166 166z" />
    <glyph glyph-name="bar" unicode="|" horiz-adv-x="297" 
d="M222 -226h-147v1046h147v-1046z" />
    <glyph glyph-name="brokenbar" unicode="&#xa6;" horiz-adv-x="305" 
d="M226 403h-147v417h147v-417zM226 -226h-147v417h147v-417z" />
    <glyph glyph-name="dagger" unicode="&#x2020;" horiz-adv-x="610" 
d="M381 566h175v-124h-175v-442h-153v442h-174v124h174v194h153v-194z" />
    <glyph glyph-name="uni2113" unicode="&#x2113;" horiz-adv-x="570" 
d="M291 158c0 -45 25 -66 71 -66c41 0 79 14 114 39v-102c-50 -31 -96 -41 -150 -41c-126 0 -188 62 -188 176v2v7l-54 -33l-56 93l110 67v259c0 118 73 213 212 213c142 0 199 -80 199 -183c0 -117 -78 -209 -202 -288l-56 -34v-107v-2zM355 668c-34 0 -64 -34 -64 -103
v-166c71 56 117 118 117 190c0 55 -19 79 -53 79z" />
    <glyph glyph-name="daggerdbl" unicode="&#x2021;" horiz-adv-x="610" 
d="M556 566v-124h-175v-109h175v-124h-175v-209h-153v209h-174v124h174v109h-174v124h174v194h153v-194h175z" />
    <glyph glyph-name="uni2116" unicode="&#x2116;" horiz-adv-x="1303" 
d="M1076 772c123 0 200 -78 200 -193s-77 -193 -200 -193s-201 78 -201 193s78 193 201 193zM393 760l250 -731v731h158v-760h-306l-250 731v-731h-158v760h306zM1076 472c46 0 71 39 71 107s-25 107 -71 107s-72 -39 -72 -107s26 -107 72 -107z" />
    <glyph glyph-name="uni2120" unicode="&#x2120;" horiz-adv-x="928" 
d="M217 625l57 -12c69 -15 103 -51 103 -111c0 -77 -66 -119 -163 -119c-92 0 -157 48 -166 121h102c6 -33 31 -51 69 -51c39 0 61 16 61 39s-26 33 -62 41l-56 11c-67 14 -107 47 -107 107c0 68 64 115 152 115c101 0 151 -48 162 -108h-102c-8 24 -32 37 -61 37
c-31 0 -55 -14 -55 -34c0 -18 18 -26 66 -36zM859 760v-373h-93v349l-58 -349h-153l-58 349v-349h-93v373h174l53 -335l53 335h175z" />
    <glyph glyph-name="at.case" horiz-adv-x="962" 
d="M947 379c0 -131 -92 -215 -204 -216h-129l-33 117h-179l-33 -117h-129l143 476h218l110 -368h23c66 0 104 43 104 108c0 192 -155 348 -346 348c-192 0 -348 -157 -348 -348s156 -346 348 -346c70 0 139 20 196 59l58 -90c-72 -49 -160 -78 -254 -78
c-252 0 -457 204 -457 455s205 456 457 456c251 0 455 -205 455 -456zM492 601l-61 -217h121z" />
    <glyph glyph-name="bar.case" horiz-adv-x="311" 
d="M232 -104h-153v970h153v-970z" />
    <glyph glyph-name="brokenbar.case" horiz-adv-x="318" 
d="M236 487h-153v379h153v-379zM236 -104h-153v379h153v-379z" />
    <glyph glyph-name="at.ss04" horiz-adv-x="956" 
d="M475 674c244 0 442 -197 442 -441c0 -180 -103 -239 -197 -239c-81 0 -130 41 -155 105c-26 -61 -83 -105 -155 -105c-114 0 -191 102 -191 239s76 239 188 239c80 0 133 -56 150 -114v104h126v-298v-2c0 -45 20 -70 56 -70c45 0 79 37 79 141c0 189 -154 344 -343 344
c-190 0 -343 -155 -343 -344s152 -343 343 -343c60 0 119 15 167 41l50 -82c-64 -36 -138 -57 -217 -57c-243 0 -441 197 -441 441s198 441 441 441zM455 83c69 0 107 57 107 150s-38 151 -107 151s-107 -58 -107 -151c0 -94 38 -150 107 -150z" />
    <glyph glyph-name="registered.ss06" horiz-adv-x="496" 
d="M248 772c109 0 198 -89 198 -198c0 -108 -89 -198 -198 -198c-108 0 -198 90 -198 198c0 109 90 198 198 198zM248 427c83 0 148 65 148 147c0 83 -65 148 -148 148c-82 0 -148 -65 -148 -148c0 -82 66 -147 148 -147zM335 612c0 -23 -12 -43 -32 -54l42 -79h-65l-35 67
h-20v-67h-56v197h84c50 0 82 -27 82 -64zM250 630h-25v-38h25c18 0 27 8 27 19c0 12 -9 19 -27 19z" />
    <glyph glyph-name="uni0308" unicode="&#x308;" horiz-adv-x="0" 
d="M-255 616h-158v144h158v-144zM-20 616h-158v144h158v-144z" />
    <glyph glyph-name="uni0307" unicode="&#x307;" horiz-adv-x="0" 
d="M-21 616h-158v144h158v-144z" />
    <glyph glyph-name="gravecomb" unicode="&#x300;" horiz-adv-x="0" 
d="M-20 604h-142l-177 156h207z" />
    <glyph glyph-name="acutecomb" unicode="&#x301;" horiz-adv-x="0" 
d="M-196 604h-143l112 156h207z" />
    <glyph glyph-name="uni030B" unicode="&#x30b;" horiz-adv-x="0" 
d="M-403 604h-131l111 156h181zM-181 604h-131l111 156h181z" />
    <glyph glyph-name="uni030C.alt" horiz-adv-x="0" 
d="M-106 576h-109l14 184h137z" />
    <glyph glyph-name="uni0302" unicode="&#x302;" horiz-adv-x="0" 
d="M-147 760l127 -156h-135l-89 91l-88 -91h-136l128 156h193z" />
    <glyph glyph-name="uni030C" unicode="&#x30c;" horiz-adv-x="0" 
d="M-244 669l89 91h135l-127 -156h-193l-128 156h136z" />
    <glyph glyph-name="uni0306" unicode="&#x306;" horiz-adv-x="0" 
d="M-204 600c-113 0 -184 71 -184 160h111c0 -46 27 -69 73 -69c45 0 73 23 73 69h110c0 -89 -71 -160 -183 -160z" />
    <glyph glyph-name="uni030A" unicode="&#x30a;" horiz-adv-x="0" 
d="M-143 600c-68 0 -123 55 -123 123s55 122 123 122s123 -54 123 -122s-55 -123 -123 -123zM-143 680c23 0 42 20 42 43s-19 41 -42 41s-42 -18 -42 -41s19 -43 42 -43z" />
    <glyph glyph-name="tildecomb" unicode="&#x303;" horiz-adv-x="0" 
d="M-318 617h-49c2 92 43 140 103 140c31 0 60 -13 78 -22c18 -8 39 -16 59 -16c33 0 52 18 58 41h49c-2 -92 -43 -140 -103 -140c-31 0 -61 13 -78 22c-18 8 -39 16 -59 16c-33 0 -52 -18 -58 -41z" />
    <glyph glyph-name="uni0304" unicode="&#x304;" horiz-adv-x="0" 
d="M-20 626h-382v107h382v-107z" />
    <glyph glyph-name="uni0312" unicode="&#x312;" horiz-adv-x="0" 
d="M-111 870h95l-55 -107h50v-145h-158v158z" />
    <glyph glyph-name="dotbelowcomb" unicode="&#x323;" horiz-adv-x="0" 
d="M-21 -202h-158v144h158v-144z" />
    <glyph glyph-name="uni0326" unicode="&#x326;" horiz-adv-x="0" 
d="M-179 -202v144h158v-157l-67 -94h-95l56 107h-52z" />
    <glyph glyph-name="uni0327" unicode="&#x327;" horiz-adv-x="0" 
d="M-102 0v-32c48 -6 82 -38 82 -85c0 -52 -42 -86 -106 -86h-70v69h45c21 0 35 8 35 26c0 17 -15 26 -33 26h-30v82h77z" />
    <glyph glyph-name="uni0328" unicode="&#x328;" horiz-adv-x="0" 
d="M-21 -203h-52c-104 0 -167 31 -167 98c0 45 28 77 68 105h151c-59 -20 -88 -44 -88 -71c0 -24 21 -34 56 -34h32v-98z" />
    <glyph glyph-name="uni0335" unicode="&#x335;" horiz-adv-x="0" 
d="M-328 599h-303v98h303v-98z" />
    <glyph glyph-name="uni0336" unicode="&#x336;" horiz-adv-x="0" 
d="M-21 541h-801v112h801v-112z" />
    <glyph glyph-name="uni0337" unicode="&#x337;" horiz-adv-x="0" 
d="M-20 412l-295 -184v130l295 184v-130z" />
    <glyph glyph-name="uni0338" unicode="&#x338;" horiz-adv-x="0" 
d="M-529 0h-150l520 543h150z" />
    <glyph glyph-name="dieresis" unicode="&#xa8;" horiz-adv-x="433" 
d="M178 616h-158v144h158v-144zM413 616h-158v144h158v-144z" />
    <glyph glyph-name="dotaccent" unicode="&#x2d9;" horiz-adv-x="199" 
d="M178 616h-158v144h158v-144z" />
    <glyph glyph-name="grave" unicode="`" horiz-adv-x="359" 
d="M339 604h-142l-177 156h207z" />
    <glyph glyph-name="acute" unicode="&#xb4;" horiz-adv-x="359" 
d="M163 604h-143l112 156h207z" />
    <glyph glyph-name="hungarumlaut" unicode="&#x2dd;" horiz-adv-x="554" 
d="M151 604h-131l111 156h181zM373 604h-131l111 156h181z" />
    <glyph glyph-name="circumflex" unicode="&#x2c6;" horiz-adv-x="488" 
d="M341 760l127 -156h-135l-89 91l-88 -91h-136l128 156h193z" />
    <glyph glyph-name="caron" unicode="&#x2c7;" horiz-adv-x="488" 
d="M244 669l89 91h135l-127 -156h-193l-128 156h136z" />
    <glyph glyph-name="breve" unicode="&#x2d8;" horiz-adv-x="408" 
d="M204 600c-113 0 -184 71 -184 160h111c0 -46 27 -69 73 -69c45 0 73 23 73 69h110c0 -89 -71 -160 -183 -160z" />
    <glyph glyph-name="ring" unicode="&#x2da;" horiz-adv-x="286" 
d="M143 600c-68 0 -123 55 -123 123s55 122 123 122s123 -54 123 -122s-55 -123 -123 -123zM143 680c23 0 42 20 42 43s-19 41 -42 41s-42 -18 -42 -41s19 -43 42 -43z" />
    <glyph glyph-name="tilde" unicode="&#x2dc;" horiz-adv-x="387" 
d="M69 617h-49c2 92 43 140 103 140c31 0 60 -13 78 -22c18 -8 39 -16 59 -16c33 0 52 18 58 41h49c-2 -92 -43 -140 -103 -140c-31 0 -61 13 -78 22c-18 8 -39 16 -59 16c-33 0 -52 -18 -58 -41z" />
    <glyph glyph-name="macron" unicode="&#xaf;" horiz-adv-x="422" 
d="M402 626h-382v107h382v-107z" />
    <glyph glyph-name="cedilla" unicode="&#xb8;" horiz-adv-x="216" 
d="M114 0v-32c48 -6 82 -38 82 -85c0 -52 -42 -86 -106 -86h-70v69h45c21 0 35 8 35 26c0 17 -15 26 -33 26h-30v82h77z" />
    <glyph glyph-name="ogonek" unicode="&#x2db;" horiz-adv-x="260" 
d="M239 -203h-52c-104 0 -167 31 -167 98c0 45 28 77 68 105h151c-59 -20 -88 -44 -88 -71c0 -24 21 -34 56 -34h32v-98z" />
    <glyph glyph-name="uni0328.alt" horiz-adv-x="0" 
d="M-21 -203h-52c-105 0 -167 31 -167 98c0 51 40 90 103 125l106 21c-59 -47 -78 -79 -78 -108c0 -27 20 -38 55 -38h33v-98z" />
    <glyph glyph-name="caron.alt" horiz-adv-x="255" 
d="M149 576h-109l14 184h137z" />
    <glyph glyph-name="uni0307.case.alt" horiz-adv-x="0" 
d="M-20 616h-143v144h143v-144z" />
    <glyph glyph-name="uni0328.case.alt" horiz-adv-x="0" 
d="M-21 -203h-53c-105 0 -168 32 -168 95c0 50 36 90 94 125l121 29c-63 -46 -79 -76 -79 -107c0 -27 19 -41 51 -41h34v-101z" />
    <glyph glyph-name="uni0308.case" horiz-adv-x="0" 
d="M-256 817h-163v145h163v-145zM-21 817h-163v145h163v-145z" />
    <glyph glyph-name="uni0307.case" horiz-adv-x="0" 
d="M-20 817h-163v145h163v-145z" />
    <glyph glyph-name="gravecomb.case" horiz-adv-x="0" 
d="M-20 817h-151l-185 145h216z" />
    <glyph glyph-name="acutecomb.case" horiz-adv-x="0" 
d="M-205 817h-151l121 145h215z" />
    <glyph glyph-name="uni030B.case" horiz-adv-x="0" 
d="M-432 817h-142l132 145h192zM-202 817h-142l132 145h192z" />
    <glyph glyph-name="uni030C.alt.case" horiz-adv-x="0" 
d="M-122 509h-110l17 251h145z" />
    <glyph glyph-name="uni0302.case" horiz-adv-x="0" 
d="M-148 962l128 -145h-141l-87 77l-87 -77h-142l128 145h201z" />
    <glyph glyph-name="uni030C.case" horiz-adv-x="0" 
d="M-248 885l87 77h141l-128 -145h-201l-128 145h142z" />
    <glyph glyph-name="uni0306.case" horiz-adv-x="0" 
d="M-209 815c-116 0 -189 65 -189 147h111c2 -36 32 -60 78 -60s77 24 79 60h110c0 -82 -73 -147 -189 -147z" />
    <glyph glyph-name="uni030A.case" horiz-adv-x="0" 
d="M-161 812c-78 0 -141 63 -141 141s63 141 141 141s140 -63 140 -141s-62 -141 -140 -141zM-161 902c28 0 50 24 50 51c0 28 -22 51 -50 51s-51 -23 -51 -51c0 -27 23 -51 51 -51z" />
    <glyph glyph-name="tildecomb.case" horiz-adv-x="0" 
d="M-334 825h-52c2 92 47 141 109 141c31 0 63 -11 83 -20c18 -9 41 -16 62 -16c31 0 53 15 60 38h52c-2 -93 -46 -142 -109 -142c-31 0 -63 12 -83 21c-18 9 -40 16 -61 16c-32 0 -54 -16 -61 -38z" />
    <glyph glyph-name="uni0304.case" horiz-adv-x="0" 
d="M-21 834h-416v112h416v-112z" />
    <glyph glyph-name="dotbelowcomb.case" horiz-adv-x="0" 
d="M-20 -202h-163v144h163v-144z" />
    <glyph glyph-name="uni0326.case" horiz-adv-x="0" 
d="M-183 -202v144h163v-157l-68 -94h-99l56 107h-52z" />
    <glyph glyph-name="uni0327.case" horiz-adv-x="0" 
d="M-102 0v-31c49 -7 81 -39 81 -86c0 -53 -43 -87 -108 -87h-73v74h44c20 0 34 6 34 23c0 16 -16 24 -32 24h-29v83h83z" />
    <glyph glyph-name="uni0328.case" horiz-adv-x="0" 
d="M-20 -203h-53c-104 0 -168 31 -168 98c0 45 27 79 63 105h158c-60 -20 -85 -43 -85 -70c0 -22 19 -32 52 -32h33v-101z" />
    <glyph glyph-name="uni0335.case" horiz-adv-x="0" 
d="M-20 333h-414v116h414v-116z" />
    <glyph glyph-name="uni0337.case" horiz-adv-x="0" 
d="M-20 434l-399 -216v126l399 217v-127z" />
    <glyph glyph-name="uni0338.case" horiz-adv-x="0" 
d="M-729 0h-187l720 760h187z" />
    <glyph glyph-name="diameter.tf" 
d="M599 570l74 -72l-64 -64c32 -46 51 -102 51 -162c0 -157 -128 -285 -285 -285c-59 0 -114 18 -160 50l-64 -65l-74 73l64 65c-31 46 -50 102 -50 162c0 157 127 283 284 283c59 0 115 -18 160 -49zM210 272c0 -27 7 -52 18 -75l221 222c-22 12 -47 18 -74 18
c-90 0 -165 -75 -165 -165zM541 272c0 27 -7 52 -18 75l-221 -223c22 -12 47 -18 73 -18c91 0 166 75 166 166z" />
    <glyph glyph-name="hookcomb" horiz-adv-x="287" 
d="M80 -196h-60v112h27c44 0 67 14 67 63v47h153v-56c0 -113 -79 -166 -187 -166z" />
    <glyph glyph-name="hookcomb.case" horiz-adv-x="344" 
d="M126 -196h-106v115h80c55 0 75 21 75 71v43h148v-61c0 -107 -66 -168 -197 -168z" />
    <glyph glyph-name="uniF8FF" unicode="&#xf8ff;" horiz-adv-x="833" 
d="M584 414h225v-68h-225l207 -86l-25 -61l-209 87l160 -161l-46 -46l-163 163l88 -213l-61 -24l-85 206v-223h-67v227l-87 -211l-61 26l87 211l-162 -162l-45 46l160 161l-210 -87l-24 61l207 86h-224v68h223l-207 86l26 61l212 -88l-163 163l47 46l159 -160l-86 209l62 24
l86 -209v226h67v-222l85 205l61 -25l-86 -208l159 160l48 -47l-162 -162l211 88l25 -61z" />
    </font>
</defs>
</svg>
